<svg width="76" height="77" viewBox="0 0 76 77" fill="none" xmlns="http://www.w3.org/2000/svg">
<g clip-path="url(#clip0_44_705)">
<path fill-rule="evenodd" clip-rule="evenodd" d="M38.0001 0C17.0118 0 0.00012207 17.2355 0.00012207 38.5C0.00012207 59.7644 17.0118 77 38.0001 77C58.9884 77 76.0001 59.7644 76.0001 38.5C76.0001 17.2355 58.9884 0 38.0001 0Z" fill="#05C6AF"/>
<path d="M37.9927 8.55566C21.7002 8.55566 8.44458 21.9857 8.44458 38.4926C8.44458 55.0145 21.7002 68.4445 37.9927 68.4445C54.3 68.4445 67.5557 55.0145 67.5557 38.4926C67.5557 21.9857 54.3 8.55566 37.9927 8.55566ZM55.8443 58.6003V56.594C55.8443 47.8727 48.8322 40.7834 40.239 40.7834H35.7539C27.1459 40.7834 20.1486 47.8727 20.1486 56.594V58.6153C14.7104 53.6745 11.2819 46.4803 11.2819 38.4926C11.2819 23.5728 23.2593 11.4378 37.9854 11.4378C52.7114 11.4378 64.7036 23.5728 64.7036 38.4926C64.711 46.4803 61.2825 53.6595 55.8443 58.6003Z" fill="#F0EDE0"/>
<path d="M37.9927 14.7539C31.6457 14.7539 26.4808 19.9867 26.4808 26.4322C26.4808 32.8628 31.6457 38.0956 37.9927 38.0956C44.3398 38.0956 49.5194 32.8628 49.5194 26.4322C49.5194 19.9867 44.3398 14.7539 37.9927 14.7539Z" fill="#F0EDE0"/>
</g>
<defs>
<clipPath id="clip0_44_705">
<rect width="76" height="77" fill="white"/>
</clipPath>
</defs>
</svg>
