<svg width="76" height="77" viewBox="0 0 76 77" fill="none" xmlns="http://www.w3.org/2000/svg">
<g clip-path="url(#clip0_44_702)">
<path fill-rule="evenodd" clip-rule="evenodd" d="M38.0001 0C17.0118 0 0.00012207 17.2355 0.00012207 38.5C0.00012207 59.7644 17.0118 77 38.0001 77C58.9884 77 76.0001 59.7644 76.0001 38.5C76.0001 17.2355 58.9884 0 38.0001 0Z" fill="#6174FC"/>
<path d="M50.6668 46.2902C50.6668 49.3925 49.736 51.9369 47.8742 53.9237C46.0455 55.8756 43.5688 57.0433 40.4437 57.4268V62.0277H36.9528V57.479C34.1271 57.27 31.6999 56.4333 29.672 54.9694C27.6772 53.5055 26.2311 51.5187 25.3334 49.0089L32.2152 44.8264C33.2459 47.3708 34.8252 48.8348 36.9528 49.2181V42.003L36.3047 41.7416C34.2434 40.9049 32.5146 39.9813 31.1183 38.9705C28.2259 36.8791 26.7795 34.0036 26.7795 30.3437C26.7795 27.1369 27.7604 24.6098 29.7218 22.7624C31.6834 20.8803 34.0937 19.7997 36.9528 19.5209V14.9722H40.4437V19.6254C45.1646 20.2529 48.4393 22.78 50.2678 27.2066L43.5354 31.337C42.8706 29.5943 41.84 28.4615 40.4437 27.9385V34.9969L42.0893 35.7288C43.0203 36.1123 43.6186 36.3737 43.8846 36.5131C44.7158 36.9664 45.2642 37.2626 45.5302 37.4021C46.2949 37.7853 46.8602 38.1513 47.2259 38.4999C48.6222 39.8246 49.4533 40.8701 49.7193 41.6371C50.3509 43.1706 50.6668 44.7218 50.6668 46.2902ZM34.7587 30.3959C34.7587 31.4067 35.49 32.3654 36.9528 33.2716V27.7818C35.49 28.1651 34.7587 29.0366 34.7587 30.3959ZM40.4437 43.5193V49.1135C41.9396 48.6954 42.6878 47.7891 42.6878 46.3948C42.6878 45.2445 41.9396 44.2861 40.4437 43.5193Z" fill="#F8F9FF"/>
</g>
<defs>
<clipPath id="clip0_44_702">
<rect width="76" height="77" fill="white"/>
</clipPath>
</defs>
</svg>
