<svg width="68" height="70" viewBox="0 0 68 70" fill="none" xmlns="http://www.w3.org/2000/svg">
<g clip-path="url(#clip0_44_720)">
<path d="M68.0001 35C68.0001 15.67 52.7778 0 34.0001 0C15.2225 0 0.000137329 15.67 0.000137329 35C0.000137329 54.33 15.2225 70 34.0001 70C52.7778 70 68.0001 54.33 68.0001 35Z" fill="#50AF95"/>
<path fill-rule="evenodd" clip-rule="evenodd" d="M36.9171 36.4976C36.7183 36.513 35.6913 36.576 33.4004 36.576C31.5784 36.576 30.2846 36.5198 29.8308 36.4976C22.7892 36.1786 17.5332 34.917 17.5332 33.4062C17.5332 31.8953 22.7892 30.6351 29.8308 30.3112V35.2409C30.2912 35.2749 31.6099 35.3552 33.4319 35.3552C35.6185 35.3552 36.7133 35.2614 36.9105 35.2425V30.3145C43.9372 30.637 49.1816 31.8988 49.1816 33.4062C49.1816 34.9135 43.9388 36.1754 36.9105 36.496L36.9171 36.4976ZM36.9171 29.8047V25.3935H46.7234V18.6665H20.0245V25.3935H29.8292V29.803C21.8599 30.1799 15.8668 31.805 15.8668 33.7522C15.8668 35.6996 21.8599 37.3229 29.8292 37.7014V51.8374H36.9155V37.6965C44.8665 37.3194 50.8496 35.6961 50.8496 33.7506C50.8496 31.805 44.8731 30.1831 36.9171 29.8047Z" fill="#F0EDE0"/>
<path fill-rule="evenodd" clip-rule="evenodd" d="M54.4001 42C46.8886 42 40.8001 48.2676 40.8001 56C40.8001 63.7324 46.8886 70 54.4001 70C61.9116 70 68.0001 63.7324 68.0001 56C68.0001 48.2676 61.9116 42 54.4001 42Z" fill="#F0B90B"/>
<path fill-rule="evenodd" clip-rule="evenodd" d="M54.4001 42C46.8886 42 40.8001 48.2676 40.8001 56C40.8001 63.7324 46.8886 70 54.4001 70C61.9116 70 68.0001 63.7324 68.0001 56C68.0001 48.2676 61.9116 42 54.4001 42Z" fill="#F0B90B"/>
<path d="M60.5258 55.9996L60.5158 59.7015L57.4601 61.5525V63.7197L62.3042 60.7951V54.917L60.5258 55.9996ZM60.5258 52.2976V54.4547L62.3051 53.3711V51.214L60.5258 50.1304L58.7374 51.214L60.5258 52.2976ZM56.1842 51.214L54.4047 50.1304L52.6163 51.214L54.4047 52.2976L56.1842 51.214Z" fill="#F0EDE0"/>
<path d="M59.2402 58.9343V56.7668L57.4606 57.8504V60.0076L59.2402 58.9343ZM56.1845 62.3288L54.4049 63.4124L52.6165 62.3288V64.486L54.4049 65.5696L56.1845 64.486V62.3288ZM50.0645 51.214L48.2849 50.1304L46.4965 51.214V53.3711L48.2849 54.4547V52.2976L50.0645 51.214ZM48.2849 59.7015L48.2752 55.9996L46.4956 54.9158V60.7942L51.3395 63.7185V61.5513L48.2849 59.7015Z" fill="#F0EDE0"/>
<path d="M49.5603 58.9353L51.3399 60.0088V57.8517L49.5603 56.7681V58.9353Z" fill="#F0EDE0"/>
<path d="M49.561 53.0652L49.5511 55.2324L52.6156 57.0835V60.7944L54.3952 61.868L56.1747 60.7944V57.0835L59.239 55.2324V53.0652L57.4518 51.9816L54.406 53.8415L51.3415 51.9816L49.5533 53.0652H49.561ZM59.2402 49.3643L54.4049 46.4297L49.561 49.3643L51.3406 50.4482L54.4049 48.588L57.4606 50.4482L59.2402 49.3643Z" fill="#F0EDE0"/>
</g>
<defs>
<clipPath id="clip0_44_720">
<rect width="68" height="70" fill="white"/>
</clipPath>
</defs>
</svg>
