<svg width="68" height="70" viewBox="0 0 68 70" fill="none" xmlns="http://www.w3.org/2000/svg">
<g clip-path="url(#clip0_44_709)">
<path fill-rule="evenodd" clip-rule="evenodd" d="M34.0001 0C15.2211 0 0.00012207 15.6687 0.00012207 35C0.00012207 54.3313 15.2211 70 34.0001 70C52.7791 70 68.0001 54.3313 68.0001 35C68.0001 15.6687 52.7791 0 34.0001 0Z" fill="#B997FE"/>
<path d="M45.3335 19.4446H43.4446V15.5557H39.6668V19.4446H28.3335V15.5557H24.5557V19.4446H22.6668C18.5112 19.4446 15.1112 22.9446 15.1112 27.2223V46.6668C15.1112 50.9446 18.5112 54.4446 22.6668 54.4446H45.3335C49.489 54.4446 52.889 50.9446 52.889 46.6668V27.2223C52.889 22.9446 49.489 19.4446 45.3335 19.4446ZM49.1112 46.6668C49.1112 48.8057 47.4112 50.5557 45.3335 50.5557H22.6668C20.589 50.5557 18.889 48.8057 18.889 46.6668V27.2223C18.889 25.0834 20.589 23.3334 22.6668 23.3334H45.3335C47.4112 23.3334 49.1112 25.0834 49.1112 27.2223V46.6668Z" fill="#F0EDE0"/>
<path d="M28.3334 27.2222H24.5557V31.1111H28.3334V27.2222Z" fill="#F0EDE0"/>
<path d="M35.889 27.2222H32.1112V31.1111H35.889V27.2222Z" fill="#F0EDE0"/>
<path d="M43.4446 27.2222H39.6668V31.1111H43.4446V27.2222Z" fill="#F0EDE0"/>
<path d="M28.3334 35H24.5557V38.8889H28.3334V35Z" fill="#F0EDE0"/>
<path d="M35.889 35H32.1112V38.8889H35.889V35Z" fill="#F0EDE0"/>
<path d="M43.4446 35H39.6668V38.8889H43.4446V35Z" fill="#F0EDE0"/>
<path d="M28.3334 42.7778H24.5557V46.6667H28.3334V42.7778Z" fill="#F0EDE0"/>
<path d="M43.4446 42.7778H32.1112V46.6667H43.4446V42.7778Z" fill="#F0EDE0"/>
</g>
<defs>
<clipPath id="clip0_44_709">
<rect width="68" height="70" fill="white"/>
</clipPath>
</defs>
</svg>
