<svg width="93" height="94" viewBox="0 0 93 94" fill="none" xmlns="http://www.w3.org/2000/svg">
<mask id="mask0_623_4199" style="mask-type:luminance" maskUnits="userSpaceOnUse" x="0" y="0" width="93" height="94">
<path d="M93 0H0V94H93V0Z" fill="white"/>
</mask>
<g mask="url(#mask0_623_4199)">
<path fill-rule="evenodd" clip-rule="evenodd" d="M46.5 0C72.1831 0 93 21.0408 93 47C93 72.9592 72.1831 94 46.5 94C20.8169 94 0 72.9592 0 47C0 21.0408 20.8169 0 46.5 0Z" fill="#F0B90B"/>
<path d="M25.5563 46.9997L25.5896 59.4276L36.0374 65.6416V72.9175L19.4753 63.0994V43.3656L25.5563 46.9997ZM25.5563 34.5719V41.8138L19.4717 38.1759V30.9339L25.5563 27.2959L31.6705 30.9339L25.5563 34.5719ZM40.4003 30.9339L46.4849 27.2959L52.5992 30.9339L46.4849 34.5719L40.4003 30.9339Z" fill="white"/>
<path d="M29.9531 56.8517V49.5757L36.0377 53.2137V60.4557L29.9531 56.8517ZM40.4009 68.2475L46.4852 71.8855L52.5995 68.2475V75.4897L46.4852 79.1277L40.4009 75.4897V68.2475ZM61.3259 30.9339L67.4102 27.2959L73.5245 30.9339V38.1759L67.4102 41.8138V34.5719L61.3259 30.9339ZM67.4102 59.4276L67.4438 46.9997L73.5284 43.3618V63.0956L56.9663 72.9137V65.6378L67.4102 59.4276Z" fill="white"/>
<path d="M63.0473 56.8521L56.9629 60.4561V53.2142L63.0473 49.5762V56.8521Z" fill="white"/>
<path d="M63.0473 37.1481L63.0806 44.424L52.6034 50.638V63.096L46.5188 66.7L40.4344 63.096V50.638L29.957 44.424V37.1481L36.0674 33.5101L46.4816 39.7542L56.959 33.5101L63.0733 37.1481H63.0473ZM29.9531 24.724L46.4852 14.8721L63.0473 24.724L56.9627 28.362L46.4852 22.1178L36.0377 28.362L29.9531 24.724Z" fill="white"/>
</g>
</svg>
