<svg width="551" height="545" viewBox="0 0 551 545" fill="none" xmlns="http://www.w3.org/2000/svg">
<path d="M62.5312 39.5577L348.885 26.7273L396.299 34.6699L423.125 67.6625L110.569 100.044L62.5312 39.5577Z" fill="#9C4147"/>
<path d="M409.103 44.7509L96.0607 72.8251L98.3639 97.8864L421.58 66.1344L409.103 44.7509Z" fill="#722837"/>
<path d="M384.444 27.3357L76.2554 54.2198L76.2554 66.4394L394.216 37.5119L384.444 27.3357Z" fill="#722837"/>
<path d="M374.465 22.4493L63.6276 39.5573L63.6266 46.8814L382.142 24.5822L374.465 22.4493Z" fill="#722837"/>
<path d="M433.731 74.9946L97.4679 110.431L5.13586 91.4906C5.75974 75.809 15.3672 42.8572 48.8064 36.503C82.2456 30.1489 107.658 70.5139 116.184 91.4906C117.224 91.4906 178.071 85.5031 413.144 61.5529C410.024 51.1664 390.061 32.2265 345.142 26.7278C401.54 7.17661 427.701 50.7594 433.731 74.9946Z" fill="#CF8383"/>
<path d="M5.7584 84.7707C-12.2089 140.491 22.6028 231.608 40.6948 271.118C60.2426 229.571 96.9675 141.102 99.962 112.265C78.7506 42.6128 28.2175 15.1197 5.7584 84.7707Z" fill="#E1461E"/>
<path d="M36.3272 238.731L87.4841 112.259C53.1715 47.4962 31.4795 43.2236 16.3635 98.2097C3.26226 145.867 25.3056 209.608 36.3272 238.731Z" fill="#722837"/>
<path d="M317.692 197.189L434.979 74.9941L99.339 109.82L41.9434 264.396L317.692 197.189Z" fill="url(#paint0_linear_44_1324)" stroke="#722837" stroke-opacity="0.3" stroke-width="2"/>
<path d="M310.206 185.581L398.171 90.2688L114.937 120.817L59.4126 245.456L310.206 185.581Z" fill="#862D24"/>
<path d="M176.698 528.337L162.35 354.209L50.0538 275.394L71.8891 424.471L176.698 528.337Z" fill="#9D404A"/>
<path d="M188.548 394.337L63.4334 287.001L46.5031 305.928L167.422 406.826L188.548 394.337Z" fill="#722837"/>
<path d="M192.293 445.659L67.1779 338.323L67.1779 368.872L171.166 458.148L192.293 445.659Z" fill="#722837"/>
<path d="M181.685 484.346L67.1758 387.201L67.1758 411.029L172.95 508.173L181.685 484.346Z" fill="#722837"/>
<path d="M99.3381 455.02V433.025L84.3654 423.249L63.1539 296.777L75.0074 307.775V300.443L38.8232 271.728L69.3926 428.748L94.3472 456.242L99.3381 455.02Z" fill="url(#paint1_linear_44_1324)" stroke="#641929" stroke-opacity="0.2"/>
<path d="M155.487 512.45V503.285L96.2202 444.021V451.353L155.487 512.45Z" fill="url(#paint2_linear_44_1324)" stroke="#742936" stroke-opacity="0.3" stroke-width="2"/>
<path d="M219.121 514.283L413.767 417.138V432.413L219.121 525.891V514.283Z" fill="url(#paint3_linear_44_1324)" stroke="#742936" stroke-opacity="0.3" stroke-width="2"/>
<path d="M152.991 513.673L177.322 536.279L166.716 377.426L154.863 368.873L171.083 508.174L154.863 495.344L152.991 513.673Z" fill="#B6A1A1"/>
<path d="M429.365 409.808L470.54 274.172L194.167 357.264L201.03 523.449L429.365 409.808Z" fill="#9F4048"/>
<rect width="318.939" height="25.2147" transform="matrix(-0.952101 0.305783 0.317533 0.948247 468.779 263.789)" fill="#722837"/>
<path d="M471.276 307.78L167.614 405.306L175.621 429.216L464.933 334.051L471.276 307.78Z" fill="#722837"/>
<path d="M468.471 341.836L171.442 457.307L180.922 480.694L457.446 369.488L468.471 341.836Z" fill="#722837"/>
<path d="M453.702 384.763L178.568 506.956L183.99 530.479L444.343 412.256L453.702 384.763Z" fill="#722837"/>
<path d="M157.611 355.432L464.983 255.616L471.786 251.356L315.317 196.579L43.8147 264.137L157.611 355.432Z" fill="#862D24"/>
<path d="M448.704 417.139L487.383 271.117L469.915 276.615L429.364 409.197L411.272 418.972V433.025L448.704 417.139Z" fill="url(#paint4_linear_44_1324)" stroke="#732938" stroke-opacity="0.2" stroke-width="2"/>
<path d="M166.094 376.204L194.792 368.262L201.03 517.95L219.746 509.397V525.893L185.434 543L177.323 536.279L166.094 376.204Z" fill="url(#paint5_linear_44_1324)" stroke="#732938" stroke-opacity="0.2" stroke-width="2"/>
<path d="M138.017 350.543V339.545L42.566 262.563L37.575 271.727L138.017 350.543Z" fill="#E45C2E"/>
<path d="M73.7619 266.84L150.497 332.214L137.396 339.546L42.5687 262.563L61.2846 257.065L317.693 195.967L453.072 242.401L442.466 249.122L315.198 206.354L73.7619 266.84Z" fill="#FFB436" stroke="#732938" stroke-opacity="0.2" stroke-width="2"/>
<path d="M449.327 271.117V269.284L207.892 351.765L209.763 359.708L449.327 280.281V271.117Z" fill="url(#paint6_linear_44_1324)"/>
<path d="M206.644 352.376L449.327 269.895L441.217 263.785L194.79 341.99L206.644 352.376Z" fill="#FE9C3A"/>
<path d="M448.705 280.281L452.448 282.114L453.072 268.062L440.595 260.73V264.396L449.329 270.506L448.705 280.281Z" fill="#E4471C"/>
<path d="M166.092 363.985L210.387 351.766L193.542 338.935L177.946 341.99L166.092 363.985Z" fill="url(#paint7_linear_44_1324)"/>
<g filter="url(#filter0_f_44_1324)">
<path d="M131.841 407.975L450.574 257.786C437.825 53.1025 272.084 88.9885 159.465 138.166C69.3696 177.507 103.509 334.431 131.841 407.975Z" fill="#F7E588"/>
</g>
<g filter="url(#filter1_f_44_1324)">
<path d="M187.534 367.22L410.647 278.873C401.722 158.471 285.704 179.581 206.87 208.509C143.804 231.651 167.702 323.959 187.534 367.22Z" fill="#FF9900"/>
</g>
<g filter="url(#filter2_f_44_1324)">
<path d="M211.199 364.956L381.949 306.978C375.119 227.965 286.329 241.818 225.998 260.802C177.732 275.989 196.022 336.566 211.199 364.956Z" fill="white"/>
</g>
<path d="M177.946 341.99L166.092 363.985L136.771 340.157L156.734 327.326L177.946 341.99Z" fill="url(#paint8_linear_44_1324)"/>
<path d="M452.446 282.115L487.382 271.117L489.254 257.676L453.07 267.451L452.446 282.115Z" fill="#FF7647"/>
<path d="M489.254 257.676L453.07 268.062L440.592 260.731L454.317 255.843L440.592 248.511L453.07 242.401L489.254 257.676Z" fill="url(#paint9_linear_44_1324)"/>
<path d="M166.092 363.985L210.387 351.766V363.985L166.092 376.816V363.985Z" fill="#FF7647"/>
<path d="M136.769 339.546L166.091 363.985V377.426L136.769 356.653V339.546Z" fill="#E4592B"/>
<path d="M262.17 81.1041L319.566 76.2163C330.047 89.9021 323.933 123.872 319.566 139.147L291.492 161.753C290.036 160.938 282.134 155.276 262.17 139.147C271.154 116.663 265.913 91.0833 262.17 81.1041Z" fill="url(#paint10_linear_44_1324)" stroke="#5B1C26" stroke-opacity="0.2" stroke-width="2"/>
<path d="M321.434 381.093L346.389 354.21L363.233 375.594L346.389 407.975L321.434 381.093Z" fill="url(#paint11_linear_44_1324)" stroke="#ED7129" stroke-width="2"/>
<path d="M174.58 398.811C174.58 402.626 177.744 405.753 181.691 405.753C185.637 405.753 188.801 402.626 188.801 398.811C188.801 394.996 185.637 391.868 181.691 391.868C177.744 391.868 174.58 394.996 174.58 398.811Z" fill="#FFDE71" stroke="url(#paint12_linear_44_1324)" stroke-width="2"/>
<path d="M177.075 435.469C177.075 439.283 180.239 442.411 184.186 442.411C188.132 442.411 191.296 439.283 191.296 435.469C191.296 431.654 188.132 428.526 184.186 428.526C180.239 428.526 177.075 431.654 177.075 435.469Z" fill="#FFDE71" stroke="url(#paint13_linear_44_1324)" stroke-width="2"/>
<path d="M177.075 469.683C177.075 473.498 180.239 476.626 184.186 476.626C188.132 476.626 191.296 473.498 191.296 469.683C191.296 465.868 188.132 462.74 184.186 462.74C180.239 462.74 177.075 465.868 177.075 469.683Z" fill="#FFDE71" stroke="url(#paint14_linear_44_1324)" stroke-width="2"/>
<path d="M179.571 503.898C179.571 507.713 182.735 510.841 186.682 510.841C190.628 510.841 193.792 507.713 193.792 503.898C193.792 500.083 190.628 496.956 186.682 496.956C182.735 496.956 179.571 500.083 179.571 503.898Z" fill="#FFDE71" stroke="url(#paint15_linear_44_1324)" stroke-width="2"/>
<path d="M461.04 315.377C460.248 318.209 461.947 321.164 464.881 321.951C467.816 322.738 470.815 321.043 471.607 318.211C472.399 315.379 470.7 312.424 467.765 311.637C464.831 310.85 461.832 312.545 461.04 315.377Z" fill="#FFDE71" stroke="url(#paint16_linear_44_1324)" stroke-width="2"/>
<path d="M452.957 342.648C452.165 345.48 453.864 348.436 456.798 349.222C459.733 350.009 462.732 348.314 463.524 345.482C464.316 342.65 462.617 339.695 459.682 338.908C456.748 338.121 453.749 339.816 452.957 342.648Z" fill="#FFDE71" stroke="url(#paint17_linear_44_1324)" stroke-width="2"/>
<path d="M445.586 369.013C444.795 371.845 446.494 374.8 449.428 375.587C452.362 376.374 455.362 374.679 456.153 371.847C456.945 369.015 455.246 366.06 452.312 365.273C449.377 364.486 446.378 366.181 445.586 369.013Z" fill="#FFDE71" stroke="url(#paint18_linear_44_1324)" stroke-width="2"/>
<path d="M440.136 395.893C439.345 398.725 441.044 401.68 443.978 402.467C446.912 403.254 449.912 401.558 450.703 398.726C451.495 395.894 449.796 392.939 446.862 392.152C443.927 391.366 440.928 393.061 440.136 395.893Z" fill="#FFDE71" stroke="url(#paint19_linear_44_1324)" stroke-width="2"/>
<path d="M288.56 129.536C287.771 132.358 287.93 135.107 288.78 137.261C289.63 139.413 291.137 140.913 293.036 141.422C294.936 141.931 297.013 141.393 298.864 139.965C300.715 138.536 302.283 136.249 303.072 133.427C303.861 130.605 303.701 127.855 302.852 125.702C302.002 123.55 300.495 122.05 298.595 121.541C296.696 121.032 294.619 121.57 292.768 122.998C290.917 124.427 289.349 126.713 288.56 129.536Z" fill="#FFDE71" stroke="url(#paint20_linear_44_1324)" stroke-width="2"/>
<path d="M339.978 379.847C339.734 382.318 340.273 384.589 341.295 386.26C342.317 387.93 343.78 388.95 345.409 389.105C347.039 389.259 348.674 388.533 350.004 387.085C351.334 385.637 352.308 383.51 352.552 381.039C352.796 378.567 352.257 376.296 351.235 374.626C350.214 372.955 348.751 371.935 347.121 371.78C345.492 371.626 343.856 372.353 342.527 373.8C341.197 375.248 340.223 377.376 339.978 379.847Z" fill="#FFDE71" stroke="url(#paint21_linear_44_1324)" stroke-width="2"/>
<rect width="36.1842" height="18.3292" rx="9.1646" transform="matrix(-1 0 0 1 395.673 469.073)" fill="#F3C526"/>
<rect width="21.2114" height="14.6634" rx="7.33168" transform="matrix(-1 0 0 1 383.198 470.295)" fill="#FEA600"/>
<rect width="6.23865" height="12.2195" rx="3.11933" transform="matrix(-1 0 0 1 391.929 471.517)" fill="#F8E9A8"/>
<rect width="57.8947" height="29.3267" rx="14.6634" transform="matrix(-1 0 0 1 364.483 498.4)" fill="#F3C526"/>
<rect width="33.9383" height="23.4614" rx="11.7307" transform="matrix(-1 0 0 1 344.518 500.354)" fill="#FEA600"/>
<rect width="9.98184" height="19.5511" rx="4.99092" transform="matrix(-1 0 0 1 358.494 502.31)" fill="#F8E9A8"/>
<rect width="57.8947" height="29.3267" rx="14.6634" transform="matrix(-1 0 0 1 137.395 510.618)" fill="#F3C526"/>
<rect width="33.9383" height="23.4614" rx="11.7307" transform="matrix(-1 0 0 1 117.43 512.573)" fill="#FEA600"/>
<rect width="9.98184" height="19.5511" rx="4.99092" transform="matrix(-1 0 0 1 131.405 514.528)" fill="#F8E9A8"/>
<rect width="38.5965" height="19.5511" rx="9.77557" transform="matrix(-1 0 0 1 97.8001 481.292)" fill="#F3C526"/>
<rect width="22.6255" height="15.6409" rx="7.82046" transform="matrix(-1 0 0 1 84.4918 482.594)" fill="#FEA600"/>
<rect width="6.65456" height="13.0341" rx="3.32728" transform="matrix(-1 0 0 1 93.8054 483.899)" fill="#F8E9A8"/>
<rect width="28.9473" height="14.6634" rx="7.33168" transform="matrix(-1 0 0 1 63.7783 514.284)" fill="#F3C526"/>
<rect width="16.9691" height="11.7307" rx="5.86535" transform="matrix(-1 0 0 1 53.7968 515.261)" fill="#FEA600"/>
<rect width="4.99092" height="9.77557" rx="2.49546" transform="matrix(-1 0 0 1 60.7823 516.24)" fill="#F8E9A8"/>
<rect width="45.8333" height="23.217" rx="11.6085" transform="matrix(-1 0 0 1 410.854 489.846)" fill="#F3C526"/>
<rect width="26.8678" height="18.5736" rx="9.2868" transform="matrix(-1 0 0 1 395.051 491.394)" fill="#FEA600"/>
<rect width="7.90229" height="15.478" rx="3.95115" transform="matrix(-1 0 0 1 406.111 492.942)" fill="#F8E9A8"/>
<defs>
<filter id="filter0_f_44_1324" x="1.20959" y="0.0446777" width="549.364" height="507.931" filterUnits="userSpaceOnUse" color-interpolation-filters="sRGB">
<feFlood flood-opacity="0" result="BackgroundImageFix"/>
<feBlend mode="normal" in="SourceGraphic" in2="BackgroundImageFix" result="shape"/>
<feGaussianBlur stdDeviation="50" result="effect1_foregroundBlur_44_1324"/>
</filter>
<filter id="filter1_f_44_1324" x="66.0917" y="86.0845" width="444.555" height="381.136" filterUnits="userSpaceOnUse" color-interpolation-filters="sRGB">
<feFlood flood-opacity="0" result="BackgroundImageFix"/>
<feBlend mode="normal" in="SourceGraphic" in2="BackgroundImageFix" result="shape"/>
<feGaussianBlur stdDeviation="50" result="effect1_foregroundBlur_44_1324"/>
</filter>
<filter id="filter2_f_44_1324" x="124.789" y="176.086" width="327.16" height="258.87" filterUnits="userSpaceOnUse" color-interpolation-filters="sRGB">
<feFlood flood-opacity="0" result="BackgroundImageFix"/>
<feBlend mode="normal" in="SourceGraphic" in2="BackgroundImageFix" result="shape"/>
<feGaussianBlur stdDeviation="35" result="effect1_foregroundBlur_44_1324"/>
</filter>
<linearGradient id="paint0_linear_44_1324" x1="238.461" y1="74.9941" x2="238.461" y2="264.396" gradientUnits="userSpaceOnUse">
<stop stop-color="#FF7125"/>
<stop offset="1" stop-color="#FFB635"/>
</linearGradient>
<linearGradient id="paint1_linear_44_1324" x1="69.0807" y1="271.728" x2="69.0807" y2="456.242" gradientUnits="userSpaceOnUse">
<stop stop-color="#FF9A31"/>
<stop offset="1" stop-color="#FF6F2A"/>
</linearGradient>
<linearGradient id="paint2_linear_44_1324" x1="125.854" y1="444.021" x2="125.854" y2="512.45" gradientUnits="userSpaceOnUse">
<stop stop-color="#F8C60E"/>
<stop offset="1" stop-color="#FF9A3B"/>
</linearGradient>
<linearGradient id="paint3_linear_44_1324" x1="316.444" y1="417.138" x2="316.444" y2="525.891" gradientUnits="userSpaceOnUse">
<stop stop-color="#FCC702"/>
<stop offset="1" stop-color="#FDA400"/>
</linearGradient>
<linearGradient id="paint4_linear_44_1324" x1="449.328" y1="271.117" x2="449.328" y2="433.025" gradientUnits="userSpaceOnUse">
<stop stop-color="#FCCF64"/>
<stop offset="1" stop-color="#FF9C36"/>
</linearGradient>
<linearGradient id="paint5_linear_44_1324" x1="192.92" y1="368.262" x2="192.92" y2="543" gradientUnits="userSpaceOnUse">
<stop stop-color="#FDD164"/>
<stop offset="1" stop-color="#FD9C3E"/>
</linearGradient>
<linearGradient id="paint6_linear_44_1324" x1="328.609" y1="269.284" x2="328.609" y2="359.708" gradientUnits="userSpaceOnUse">
<stop stop-color="#E56332"/>
<stop offset="1" stop-color="#C74D24"/>
</linearGradient>
<linearGradient id="paint7_linear_44_1324" x1="188.24" y1="338.935" x2="188.24" y2="363.985" gradientUnits="userSpaceOnUse">
<stop stop-color="#FDCE66"/>
<stop offset="1" stop-color="#FF9C37"/>
</linearGradient>
<linearGradient id="paint8_linear_44_1324" x1="157.358" y1="327.326" x2="157.358" y2="363.985" gradientUnits="userSpaceOnUse">
<stop stop-color="#F8C406"/>
<stop offset="1" stop-color="#FFA300"/>
</linearGradient>
<linearGradient id="paint9_linear_44_1324" x1="464.923" y1="242.401" x2="464.923" y2="268.062" gradientUnits="userSpaceOnUse">
<stop stop-color="#FDCF63"/>
<stop offset="1" stop-color="#FF9C35"/>
</linearGradient>
<linearGradient id="paint10_linear_44_1324" x1="293.762" y1="76.2163" x2="293.762" y2="161.753" gradientUnits="userSpaceOnUse">
<stop stop-color="#FFA302"/>
<stop offset="1" stop-color="#FFA300"/>
</linearGradient>
<linearGradient id="paint11_linear_44_1324" x1="342.334" y1="354.21" x2="342.334" y2="407.975" gradientUnits="userSpaceOnUse">
<stop stop-color="#FCCF62"/>
<stop offset="1" stop-color="#F99A3C"/>
</linearGradient>
<linearGradient id="paint12_linear_44_1324" x1="181.691" y1="390.868" x2="181.691" y2="406.753" gradientUnits="userSpaceOnUse">
<stop stop-color="#FFC400"/>
<stop offset="1" stop-color="#FFA300"/>
</linearGradient>
<linearGradient id="paint13_linear_44_1324" x1="184.186" y1="427.526" x2="184.186" y2="443.411" gradientUnits="userSpaceOnUse">
<stop stop-color="#FFC400"/>
<stop offset="1" stop-color="#FFA300"/>
</linearGradient>
<linearGradient id="paint14_linear_44_1324" x1="184.186" y1="461.74" x2="184.186" y2="477.626" gradientUnits="userSpaceOnUse">
<stop stop-color="#FFC400"/>
<stop offset="1" stop-color="#FFA300"/>
</linearGradient>
<linearGradient id="paint15_linear_44_1324" x1="186.682" y1="495.956" x2="186.682" y2="511.841" gradientUnits="userSpaceOnUse">
<stop stop-color="#FFC400"/>
<stop offset="1" stop-color="#FFA300"/>
</linearGradient>
<linearGradient id="paint16_linear_44_1324" x1="468.035" y1="310.674" x2="464.743" y2="322.949" gradientUnits="userSpaceOnUse">
<stop stop-color="#FFC400"/>
<stop offset="1" stop-color="#FFA300"/>
</linearGradient>
<linearGradient id="paint17_linear_44_1324" x1="459.952" y1="337.945" x2="456.66" y2="350.22" gradientUnits="userSpaceOnUse">
<stop stop-color="#FFC400"/>
<stop offset="1" stop-color="#FFA300"/>
</linearGradient>
<linearGradient id="paint18_linear_44_1324" x1="452.581" y1="364.31" x2="449.289" y2="376.585" gradientUnits="userSpaceOnUse">
<stop stop-color="#FFC400"/>
<stop offset="1" stop-color="#FFA300"/>
</linearGradient>
<linearGradient id="paint19_linear_44_1324" x1="447.131" y1="391.189" x2="443.839" y2="403.465" gradientUnits="userSpaceOnUse">
<stop stop-color="#FFC400"/>
<stop offset="1" stop-color="#FFA300"/>
</linearGradient>
<linearGradient id="paint20_linear_44_1324" x1="298.864" y1="120.578" x2="293" y2="142.447" gradientUnits="userSpaceOnUse">
<stop stop-color="#FFC400"/>
<stop offset="1" stop-color="#FFA300"/>
</linearGradient>
<linearGradient id="paint21_linear_44_1324" x1="347.22" y1="370.785" x2="345.388" y2="390.107" gradientUnits="userSpaceOnUse">
<stop stop-color="#FFC400"/>
<stop offset="1" stop-color="#FFA300"/>
</linearGradient>
</defs>
</svg>
