<svg width="186" height="186" viewBox="0 0 186 186" fill="none" xmlns="http://www.w3.org/2000/svg">
<circle cx="93.183" cy="93.0456" r="92.7726" fill="#31D6F2"/>
<path d="M78.9101 41.5049L51.1576 36.7474L67.0162 4.2373H70.1879L101.112 24.8534L78.9101 41.5049Z" fill="#5EEBFC"/>
<path d="M26.5767 80.3586L14.6827 44.6768L51.1574 36.7476V65.293L26.5767 80.3586Z" fill="#22BEE4"/>
<path d="M14.6827 44.6773C15.3171 40.2369 28.6911 26.9685 35.2989 20.8894L51.1574 36.748C51.1574 37.2766 43.8625 39.6025 14.6827 44.6773Z" fill="#39D4F3"/>
<path d="M78.9101 41.5048L51.1576 36.7472V65.2926L78.9101 45.4694L116.178 47.8482L100.319 24.8533L78.9101 41.5048Z" fill="#96EBFF"/>
<path d="M51.1583 36.7474L35.2997 20.8888C41.6431 13.2767 59.0875 6.61609 67.0168 4.2373L51.1583 36.7474Z" fill="#D9D9D9"/>
<path d="M101.111 24.8532L70.1869 4.2371C80.9707 1.69973 96.3535 2.12263 102.697 2.65125L101.111 24.8532Z" fill="#D9D9D9"/>
<path d="M141.081 76.7535L144.789 48.8414L177.874 63.4633L177.993 66.6327L158.558 98.3121L141.081 76.7535Z" fill="#5EEBFC"/>
<path d="M100.281 25.9217L135.489 12.6912L144.787 48.8411L116.262 49.9171L100.281 25.9217Z" fill="#22BEE4"/>
<path d="M135.492 12.6913C139.953 13.1579 153.716 26.0223 160.04 32.3962L144.79 48.8412C144.262 48.8612 141.663 41.6591 135.492 12.6913Z" fill="#A0EDFF"/>
<path d="M141.082 76.754L144.79 48.8419L116.265 49.9179L137.12 76.9034L136.148 114.234L158.529 97.5202L141.082 76.754Z" fill="#96EBFF"/>
<path d="M144.79 48.8418L160.04 32.3967C167.886 38.4487 175.199 55.6297 177.875 63.4636L144.79 48.8418Z" fill="#2AA2BC"/>
<path d="M158.556 98.3119L177.992 66.6325C180.934 77.313 181.091 92.7009 180.802 99.0597L158.556 98.3119Z" fill="#2AA2BC"/>
<path d="M106.462 141.781L134.17 146.793L118.013 179.156L114.842 179.127L84.108 158.228L106.462 141.781Z" fill="#5EEBFC"/>
<path d="M159.149 103.41L170.715 139.199L134.169 146.794L134.431 118.249L159.149 103.41Z" fill="#22BEE4"/>
<path d="M170.315 138.576C169.64 143.01 156.145 156.155 149.481 162.173L133.769 146.17C133.774 145.641 141.09 143.382 170.315 138.576Z" fill="#39D4F3"/>
<path d="M106.461 141.781L134.168 146.793L134.43 118.249L106.497 137.817L69.2528 135.096L84.8996 158.235L106.461 141.781Z" fill="#96EBFF"/>
<path d="M134.17 146.793L149.882 162.797C143.469 170.351 125.964 176.851 118.013 179.157L134.17 146.793Z" fill="#D9D9D9"/>
<path d="M84.1081 158.228L114.842 179.127C104.035 181.566 88.6568 181.002 82.3185 180.415L84.1081 158.228Z" fill="#D9D9D9"/>
<path d="M41.4084 107.365L38.0604 135.323L4.78995 121.129L4.62956 117.961L23.6555 86.0339L41.4084 107.365Z" fill="#5EEBFC"/>
<path d="M82.8588 157.667L47.8242 171.35L38.0605 135.323L66.5694 133.879L82.8588 157.667Z" fill="#22BEE4"/>
<path d="M47.8248 171.35C43.358 170.941 29.4303 158.255 23.0248 151.963L38.0611 135.323C38.5891 135.296 41.2809 142.464 47.8248 171.35Z" fill="#39D4F3"/>
<path d="M41.409 107.366L38.061 135.323L66.5699 133.88L45.3686 107.165L45.8597 69.8248L23.6961 86.8259L41.409 107.366Z" fill="#96EBFF"/>
<path d="M38.0593 135.323L23.023 151.963C15.0999 146.013 7.56561 128.928 4.78888 121.129L38.0593 135.323Z" fill="#2AA2BC"/>
<path d="M23.6557 86.0336L4.62982 117.961C1.55036 107.319 1.1948 91.9346 1.40196 85.5725L23.6557 86.0336Z" fill="#2AA2BC"/>
<path d="M83.6674 157.272L78.9098 185.025C118.239 189.465 143.93 173.66 151.859 165.202L134.415 146.171L116.177 179.474L83.6674 157.272Z" fill="#9CEEFD"/>
<path d="M102.52 29.4108L106.962 1.60605C67.5848 -2.38706 42.0752 13.7096 34.2426 22.2571L51.9022 41.0879L69.7598 7.57976L102.52 29.4108Z" fill="#9CEEFD"/>
</svg>
