<svg width="93" height="94" viewBox="0 0 93 94" fill="none" xmlns="http://www.w3.org/2000/svg">
<path fill-rule="evenodd" clip-rule="evenodd" d="M46.501 0C72.1841 0 93.001 21.0408 93.001 47C93.001 72.9592 72.1841 94 46.501 94C20.8178 94 0.000976562 72.9592 0.000976562 47C0.000976562 21.0408 20.8178 0 46.501 0Z" fill="#F0B90B"/>
<path d="M25.5574 47.0002L25.5907 59.4281L36.0385 65.6421V72.918L19.4765 63.0999V43.366L25.5574 47.0002ZM25.5574 34.5723V41.8143L19.4728 38.1763V30.9344L25.5574 27.2964L31.6717 30.9344L25.5574 34.5723ZM40.4015 30.9344L46.486 27.2964L52.6003 30.9344L46.486 34.5723L40.4015 30.9344Z" fill="white"/>
<path d="M29.9539 56.8522V49.5762L36.0385 53.2142V60.4562L29.9539 56.8522ZM40.4016 68.248L46.486 71.886L52.6003 68.248V75.4902L46.486 79.1282L40.4016 75.4902V68.248ZM61.3266 30.9344L67.411 27.2964L73.5253 30.9344V38.1763L67.411 41.8143V34.5723L61.3266 30.9344ZM67.411 59.4281L67.4446 47.0002L73.5291 43.3622V63.0961L56.9671 72.9142V65.6383L67.411 59.4281Z" fill="white"/>
<path d="M63.0479 56.8521L56.9635 60.4561V53.2142L63.0479 49.5762V56.8521Z" fill="white"/>
<path d="M63.048 37.1481L63.0814 44.424L52.6041 50.638V63.096L46.5196 66.7L40.4352 63.096V50.638L29.9577 44.424V37.1481L36.0682 33.5101L46.4824 39.7542L56.9598 33.5101L63.0741 37.1481H63.048ZM29.9539 24.724L46.486 14.8721L63.048 24.724L56.9635 28.362L46.486 22.1178L36.0385 28.362L29.9539 24.724Z" fill="white"/>
</svg>
