<svg width="556" height="458" viewBox="0 0 556 458" fill="none" xmlns="http://www.w3.org/2000/svg">
<g filter="url(#filter0_f_39_1636)">
<path d="M520.199 423.09H493.091L498.512 353.964L445.651 272.639L486.314 253.663L535.109 340.41L520.199 423.09Z" fill="#FFF6D3"/>
<path d="M85.1087 438L66.1328 400.048C72.4581 397.789 111.133 370.229 215.229 278.06C247.759 278.06 289.326 293.422 306.042 301.102V438H85.1087Z" fill="#FDB81F"/>
<path d="M303.332 438V302.458H331.795V438H303.332Z" fill="#FFFBB3"/>
<path d="M331.795 424.446V301.103L400.922 294.326L456.494 268.573C458.753 269.476 465.169 272.639 472.759 278.061C491.193 292.157 504.838 330.019 509.356 347.187L494.446 424.446H331.795Z" fill="url(#paint0_linear_39_1636)"/>
<path d="M306.042 303.813C235.56 299.476 212.518 277.608 209.807 267.217C320.41 220.59 348.964 148.391 349.416 118.12L380.59 164.205C398.663 163.753 437.789 164.476 449.717 170.982C461.645 177.488 479.988 229.717 487.669 255.018L400.922 295.681C396.856 295.681 372.187 297.307 306.042 303.813Z" fill="url(#paint1_linear_39_1636)"/>
<path d="M45.8015 150.651H170.5L186.765 21.8855L45.8015 150.651Z" fill="#EBEA27"/>
<path d="M169.145 149.295H47.157L173.211 105.922L169.145 149.295Z" fill="#FFFBB3"/>
<path d="M209.807 272.639L166.434 145.229C173.663 145.229 230.091 142.518 365.633 142.518C362.38 190.229 257.699 250.048 209.807 272.639Z" fill="url(#paint2_linear_39_1636)"/>
<path d="M365.633 142.518L165.078 146.584L182.699 20.53C226.072 28.6626 315.801 46.5541 327.729 53.0602C339.657 59.5662 360.211 114.054 365.633 142.518Z" fill="#FEB934"/>
<path d="M20.0481 226.554C18.9638 212.458 36.765 167.368 45.8011 146.584H166.434L219.295 283.482L66.1327 409.536C51.223 354.416 21.1324 240.651 20.0481 226.554Z" fill="url(#paint3_linear_39_1636)"/>
<path d="M335.814 301.103C324.971 302.006 302.742 303.813 300.573 303.813L320.904 333.633L335.814 301.103Z" fill="white"/>
<path d="M239.579 256.373L209.76 271.283C267.23 312.488 359.308 305.62 398.163 297.036L487.621 256.373C487.621 255.47 486.808 250.952 483.555 240.108C358.856 295.409 268.947 273.994 239.579 256.373Z" fill="white"/>
</g>
<path d="M520.199 423.09H493.091L498.512 353.964L445.651 272.639L486.314 253.663L535.109 340.41L520.199 423.09Z" fill="#FFF6D3"/>
<path d="M85.1087 438L66.1328 400.048C72.4581 397.789 111.133 370.229 215.229 278.06C247.759 278.06 289.326 293.422 306.042 301.102V438H85.1087Z" fill="#FDB81F"/>
<path d="M303.332 438V302.458H331.795V438H303.332Z" fill="#FFFBB3"/>
<path d="M331.795 424.446V301.103L400.922 294.326L456.494 268.573C458.753 269.476 465.169 272.639 472.759 278.061C491.193 292.157 504.838 330.019 509.356 347.187L494.446 424.446H331.795Z" fill="url(#paint4_linear_39_1636)"/>
<path d="M306.042 303.813C235.56 299.476 212.518 277.608 209.807 267.217C320.41 220.59 348.964 148.391 349.416 118.12L380.59 164.205C398.663 163.753 437.789 164.476 449.717 170.982C461.645 177.488 479.988 229.717 487.669 255.018L400.922 295.681C396.856 295.681 372.187 297.307 306.042 303.813Z" fill="url(#paint5_linear_39_1636)"/>
<path d="M45.8015 150.651H170.5L186.765 21.8855L45.8015 150.651Z" fill="#EBEA27"/>
<path d="M169.145 149.295H47.157L173.211 105.922L169.145 149.295Z" fill="#FFFBB3"/>
<path d="M209.807 272.639L166.434 145.229C173.663 145.229 230.091 142.518 365.633 142.518C362.38 190.229 257.699 250.048 209.807 272.639Z" fill="url(#paint6_linear_39_1636)"/>
<path d="M365.633 142.518L165.078 146.584L182.699 20.53C226.072 28.6626 315.801 46.5541 327.729 53.0602C339.657 59.5662 360.211 114.054 365.633 142.518Z" fill="#FEB934"/>
<path d="M20.0481 226.554C18.9638 212.458 36.765 167.368 45.8011 146.584H166.434L219.295 283.482L66.1327 409.536C51.223 354.416 21.1324 240.651 20.0481 226.554Z" fill="url(#paint7_linear_39_1636)"/>
<path d="M335.814 301.103C324.971 302.006 302.742 303.813 300.573 303.813L320.904 333.633L335.814 301.103Z" fill="white"/>
<path d="M239.579 256.373L209.76 271.283C267.23 312.488 359.308 305.62 398.163 297.036L487.621 256.373C487.621 255.47 486.808 250.952 483.555 240.108C358.856 295.409 268.947 273.994 239.579 256.373Z" fill="white"/>
<defs>
<filter id="filter0_f_39_1636" x="0.000732422" y="0.530029" width="555.108" height="457.47" filterUnits="userSpaceOnUse" color-interpolation-filters="sRGB">
<feFlood flood-opacity="0" result="BackgroundImageFix"/>
<feBlend mode="normal" in="SourceGraphic" in2="BackgroundImageFix" result="shape"/>
<feGaussianBlur stdDeviation="10" result="effect1_foregroundBlur_39_1636"/>
</filter>
<linearGradient id="paint0_linear_39_1636" x1="420.576" y1="268.573" x2="420.576" y2="424.446" gradientUnits="userSpaceOnUse">
<stop stop-color="#F38901"/>
<stop offset="1" stop-color="#DE6C01"/>
</linearGradient>
<linearGradient id="paint1_linear_39_1636" x1="348.738" y1="118.12" x2="348.738" y2="303.813" gradientUnits="userSpaceOnUse">
<stop stop-color="#FDFC88"/>
<stop offset="1" stop-color="#FFF116"/>
</linearGradient>
<linearGradient id="paint2_linear_39_1636" x1="261.991" y1="145.229" x2="261.991" y2="272.639" gradientUnits="userSpaceOnUse">
<stop stop-color="#FFDB5B"/>
<stop offset="1" stop-color="#FB9600"/>
</linearGradient>
<linearGradient id="paint3_linear_39_1636" x1="119.648" y1="146.584" x2="119.648" y2="409.536" gradientUnits="userSpaceOnUse">
<stop stop-color="#FD9600"/>
<stop offset="1" stop-color="#DB6900"/>
</linearGradient>
<linearGradient id="paint4_linear_39_1636" x1="420.576" y1="268.573" x2="420.576" y2="424.446" gradientUnits="userSpaceOnUse">
<stop stop-color="#F38901"/>
<stop offset="1" stop-color="#DE6C01"/>
</linearGradient>
<linearGradient id="paint5_linear_39_1636" x1="348.738" y1="118.12" x2="348.738" y2="303.813" gradientUnits="userSpaceOnUse">
<stop stop-color="#FDFC88"/>
<stop offset="1" stop-color="#FFF116"/>
</linearGradient>
<linearGradient id="paint6_linear_39_1636" x1="261.991" y1="145.229" x2="261.991" y2="272.639" gradientUnits="userSpaceOnUse">
<stop stop-color="#FFDB5B"/>
<stop offset="1" stop-color="#FB9600"/>
</linearGradient>
<linearGradient id="paint7_linear_39_1636" x1="119.648" y1="146.584" x2="119.648" y2="409.536" gradientUnits="userSpaceOnUse">
<stop stop-color="#FD9600"/>
<stop offset="1" stop-color="#DB6900"/>
</linearGradient>
</defs>
</svg>
