<svg width="587" height="456" viewBox="0 0 587 456" fill="none" xmlns="http://www.w3.org/2000/svg">
<g filter="url(#filter0_f_39_1734)">
<path d="M437.563 121.812C380.146 133.296 309.111 122.18 280.771 115.187L370.209 50.0415C378.306 62.9234 403.113 95.3123 437.563 121.812Z" fill="#FED23B"/>
<path d="M125.083 112.979V175.916H139.437L159.312 112.979H282.979L372.417 50.0415L159.312 74.3332C147.903 82.7984 125.083 102.379 125.083 112.979Z" fill="#FFFF8A"/>
<path d="M266.417 199.104C230.2 208.821 163.729 184.75 135.021 171.5L157.104 110.771H280.771C291.077 136.167 302.634 189.387 266.417 199.104Z" fill="#FDC917"/>
<path d="M536.938 336.02L382.354 404.478C390.083 363.624 477.313 264.249 501.604 276.395C521.038 286.112 533.257 320.194 536.938 336.02Z" fill="#FA831B"/>
<path d="M266.417 199.104C236.972 221.924 174.329 269.108 159.313 275.292C144.988 281.19 125.507 313.009 116.393 330.306L50.0002 207.937C58.0975 196.528 87.1002 173.046 138.334 170.396C162.184 184.529 233.66 195.424 266.417 199.104Z" fill="#FEF212"/>
<path d="M381.25 405.583C342.383 398.517 187.653 352.583 115.146 330.5C115.146 311.067 146.799 279.708 162.625 266.458L502.708 277.5C469.583 301.056 398.917 359.65 381.25 405.583Z" fill="#FFD503"/>
<path d="M280.771 112.979C285.188 138.596 273.042 177.389 266.417 193.583C313.528 202.417 411.063 214.783 424.313 193.583C437.563 172.383 440.139 135.431 439.771 119.604C415.847 124.757 350.554 130.646 280.771 112.979Z" fill="#E89221"/>
<path d="M503.813 277.5H151.583C174.55 239.517 240.285 207.201 266.417 195.792H423.209L503.813 277.5Z" fill="#FEF212" stroke="#FDFB70" stroke-width="2"/>
</g>
<path d="M437.563 121.812C380.146 133.296 309.111 122.18 280.771 115.187L370.209 50.0415C378.306 62.9234 403.113 95.3123 437.563 121.812Z" fill="#FED23B"/>
<path d="M125.083 112.979V175.916H139.437L159.312 112.979H282.979L372.417 50.0415L159.312 74.3332C147.903 82.7984 125.083 102.379 125.083 112.979Z" fill="#FFFF8A"/>
<path d="M266.417 199.104C230.2 208.821 163.729 184.75 135.021 171.5L157.104 110.771H280.771C291.077 136.167 302.634 189.387 266.417 199.104Z" fill="#FDC917"/>
<path d="M536.938 336.02L382.354 404.478C390.083 363.624 477.313 264.249 501.604 276.395C521.038 286.112 533.257 320.194 536.938 336.02Z" fill="url(#paint0_linear_39_1734)"/>
<path d="M266.417 199.104C236.972 221.924 174.329 269.108 159.313 275.292C144.988 281.19 125.507 313.009 116.393 330.306L50.0002 207.937C58.0975 196.528 87.1002 173.046 138.334 170.396C162.184 184.529 233.66 195.424 266.417 199.104Z" fill="#FEF212"/>
<path d="M381.25 405.583C342.383 398.517 187.653 352.583 115.146 330.5C115.146 311.067 146.799 279.708 162.625 266.458L502.708 277.5C469.583 301.056 398.917 359.65 381.25 405.583Z" fill="url(#paint1_linear_39_1734)"/>
<path d="M280.771 112.979C285.188 138.596 273.042 177.389 266.417 193.583C313.528 202.417 411.063 214.783 424.313 193.583C437.563 172.383 440.139 135.431 439.771 119.604C415.847 124.757 350.554 130.646 280.771 112.979Z" fill="#E89221"/>
<path d="M503.813 277.5H151.583C174.55 239.517 240.285 207.201 266.417 195.792H423.209L503.813 277.5Z" fill="#FEF212" stroke="white" stroke-width="5"/>
<path d="M512.646 277.5H160.417C183.383 239.517 249.118 207.201 275.25 195.792H432.042L512.646 277.5Z" fill="#FEF212"/>
<defs>
<filter id="filter0_f_39_1734" x="0.000244141" y="0.0415039" width="586.937" height="455.542" filterUnits="userSpaceOnUse" color-interpolation-filters="sRGB">
<feFlood flood-opacity="0" result="BackgroundImageFix"/>
<feBlend mode="normal" in="SourceGraphic" in2="BackgroundImageFix" result="shape"/>
<feGaussianBlur stdDeviation="25" result="effect1_foregroundBlur_39_1734"/>
</filter>
<linearGradient id="paint0_linear_39_1734" x1="459.646" y1="275.374" x2="459.646" y2="404.478" gradientUnits="userSpaceOnUse">
<stop stop-color="#F28802"/>
<stop offset="1" stop-color="#E06F01"/>
</linearGradient>
<linearGradient id="paint1_linear_39_1734" x1="308.927" y1="266.458" x2="308.927" y2="405.583" gradientUnits="userSpaceOnUse">
<stop stop-color="#FFDB5B"/>
<stop offset="1" stop-color="#FC9F0B"/>
</linearGradient>
</defs>
</svg>
