<svg width="54" height="56" viewBox="0 0 54 56" fill="none" xmlns="http://www.w3.org/2000/svg">
<path d="M33.5181 23.8931C29.2935 24.738 24.0669 23.9202 21.9817 23.4056L28.5623 18.6123C29.1581 19.5601 30.9834 21.9433 33.5181 23.8931Z" fill="#FED23B"/>
<path d="M10.5298 23.2431V27.874H11.5859L13.0483 23.2431H22.1475L28.7281 18.6123L13.0483 20.3996C12.2088 21.0225 10.5298 22.4632 10.5298 23.2431Z" fill="#FFFF8A"/>
<path d="M20.925 29.5817C18.2602 30.2966 13.3694 28.5255 11.2571 27.5506L12.8819 23.0823H21.9811C22.7394 24.9509 23.5897 28.8668 20.925 29.5817Z" fill="#FDC917"/>
<path d="M40.831 39.6529L29.457 44.69C30.0257 41.684 36.4439 34.3722 38.2312 35.2658C39.6611 35.9808 40.5602 38.4885 40.831 39.6529Z" fill="url(#paint0_linear_112_2)"/>
<path d="M20.9277 29.5803C18.7612 31.2593 14.1521 34.7311 13.0472 35.1861C11.9932 35.6201 10.5598 37.9613 9.88923 39.234L5.00415 30.2303C5.59993 29.3908 7.7339 27.663 11.5036 27.468C13.2584 28.5079 18.5175 29.3095 20.9277 29.5803Z" fill="#FEF212"/>
<path d="M29.3786 44.7725C26.5188 44.2525 15.134 40.8728 9.79907 39.248C9.79907 37.8181 12.128 35.5108 13.2925 34.5359L38.3152 35.3483C35.878 37.0815 30.6784 41.3928 29.3786 44.7725Z" fill="url(#paint1_linear_112_2)"/>
<path d="M21.9839 23.2422C22.3089 25.127 21.4152 27.9813 20.9277 29.1729C24.3941 29.8228 31.5705 30.7328 32.5454 29.1729C33.5203 27.613 33.7099 24.8941 33.6828 23.7296C31.9226 24.1088 27.1184 24.5421 21.9839 23.2422Z" fill="#E89221"/>
<path d="M38.3959 35.3472H12.4795C14.1693 32.5524 19.006 30.1747 20.9287 29.3352H32.4652L38.3959 35.3472Z" fill="#FEF212" stroke="white" stroke-width="5"/>
<path d="M39.0456 35.3472H13.1292C14.819 32.5524 19.6556 30.1747 21.5784 29.3352H33.1148L39.0456 35.3472Z" fill="#FEF212"/>
<path d="M12.6359 35.186C12.0672 35.8089 10.6049 37.0546 9.71118 39.2482" stroke="white" stroke-width="5"/>
<path d="M22.1454 23.3248L19.1394 23.0811C20.6343 23.0811 23.3099 22.1874 24.4202 21.7L22.1454 23.3248Z" fill="white"/>
<path d="M15.1243 35.5109C13.8978 35.5109 13.0802 33.7777 12.8247 32.9111C12.8247 33.5387 12.0582 34.9372 10.5251 35.5109C11.5983 35.5109 12.6331 37.2441 12.8247 38.1107C12.8247 37.5728 13.2846 36.2998 15.1243 35.5109Z" fill="white"/>
<g filter="url(#filter0_f_112_2)">
<path d="M15.1243 35.5109C13.8978 35.5109 13.0802 33.7777 12.8247 32.9111C12.8247 33.5387 12.0582 34.9372 10.5251 35.5109C11.5983 35.5109 12.6331 37.2441 12.8247 38.1107C12.8247 37.5728 13.2846 36.2998 15.1243 35.5109Z" fill="white"/>
</g>
<path d="M34.1409 27.8737C32.9144 27.8737 32.0968 26.1405 31.8413 25.2739C31.8413 25.9015 31.0748 27.2999 29.5417 27.8737C30.6149 27.8737 31.6497 29.6069 31.8413 30.4735C31.8413 29.9356 32.3012 28.6626 34.1409 27.8737Z" fill="white"/>
<g filter="url(#filter1_f_112_2)">
<path d="M34.1409 27.8737C32.9144 27.8737 32.0968 26.1405 31.8413 25.2739C31.8413 25.9015 31.0748 27.2999 29.5417 27.8737C30.6149 27.8737 31.6497 29.6069 31.8413 30.4735C31.8413 29.9356 32.3012 28.6626 34.1409 27.8737Z" fill="white"/>
</g>
<path d="M17.7275 12.5998C16.5011 12.5998 15.6835 10.8666 15.428 10C15.428 10.6275 14.6615 12.026 13.1284 12.5998C14.2015 12.5998 15.2363 14.3329 15.428 15.1995C15.428 14.6616 15.8879 13.3887 17.7275 12.5998Z" fill="white"/>
<g filter="url(#filter2_f_112_2)">
<path d="M17.7275 12.5998C16.5011 12.5998 15.6835 10.8666 15.428 10C15.428 10.6275 14.6615 12.026 13.1284 12.5998C14.2015 12.5998 15.2363 14.3329 15.428 15.1995C15.428 14.6616 15.8879 13.3887 17.7275 12.5998Z" fill="white"/>
</g>
<path d="M43.0042 43.3088C42.161 43.3088 41.5989 42.1173 41.4232 41.5215C41.4232 41.9529 40.8962 42.9144 39.8422 43.3088C40.58 43.3088 41.2915 44.5004 41.4232 45.0962C41.4232 44.7264 41.7394 43.8512 43.0042 43.3088Z" fill="white"/>
<g filter="url(#filter3_f_112_2)">
<path d="M43.0042 43.3088C42.161 43.3088 41.5989 42.1173 41.4232 41.5215C41.4232 41.9529 40.8962 42.9144 39.8422 43.3088C40.58 43.3088 41.2915 44.5004 41.4232 45.0962C41.4232 44.7264 41.7394 43.8512 43.0042 43.3088Z" fill="white"/>
</g>
<path d="M42.4346 31.694C41.8597 31.694 41.4764 30.8816 41.3566 30.4753C41.3566 30.7695 40.9973 31.425 40.2787 31.694C40.7818 31.694 41.2668 32.5064 41.3566 32.9126C41.3566 32.6605 41.5722 32.0638 42.4346 31.694Z" fill="white"/>
<g filter="url(#filter4_f_112_2)">
<path d="M42.4346 31.694C41.8597 31.694 41.4764 30.8816 41.3566 30.4753C41.3566 30.7695 40.9973 31.425 40.2787 31.694C40.7818 31.694 41.2668 32.5064 41.3566 32.9126C41.3566 32.6605 41.5722 32.0638 42.4346 31.694Z" fill="white"/>
</g>
<path d="M38.8804 26.1676C38.4588 26.1676 38.1777 25.5718 38.0899 25.2739C38.0899 25.4896 37.8264 25.9704 37.2994 26.1676C37.6683 26.1676 38.024 26.7634 38.0899 27.0613C38.0899 26.8764 38.248 26.4388 38.8804 26.1676Z" fill="white"/>
<g filter="url(#filter5_f_112_2)">
<path d="M38.8804 26.1676C38.4588 26.1676 38.1777 25.5718 38.0899 25.2739C38.0899 25.4896 37.8264 25.9704 37.2994 26.1676C37.6683 26.1676 38.024 26.7634 38.0899 27.0613C38.0899 26.8764 38.248 26.4388 38.8804 26.1676Z" fill="white"/>
</g>
<path d="M24.7871 16.0931C24.3655 16.0931 24.0845 15.4974 23.9966 15.1995C23.9966 15.4152 23.7331 15.8959 23.2062 16.0931C23.575 16.0931 23.9308 16.6889 23.9966 16.9868C23.9966 16.8019 24.1547 16.3643 24.7871 16.0931Z" fill="white"/>
<g filter="url(#filter6_f_112_2)">
<path d="M24.7871 16.0931C24.3655 16.0931 24.0845 15.4974 23.9966 15.1995C23.9966 15.4152 23.7331 15.8959 23.2062 16.0931C23.575 16.0931 23.9308 16.6889 23.9966 16.9868C23.9966 16.8019 24.1547 16.3643 24.7871 16.0931Z" fill="white"/>
</g>
<defs>
<filter id="filter0_f_112_2" x="0.525146" y="22.9111" width="24.5991" height="25.1995" filterUnits="userSpaceOnUse" color-interpolation-filters="sRGB">
<feFlood flood-opacity="0" result="BackgroundImageFix"/>
<feBlend mode="normal" in="SourceGraphic" in2="BackgroundImageFix" result="shape"/>
<feGaussianBlur stdDeviation="5" result="effect1_foregroundBlur_112_2"/>
</filter>
<filter id="filter1_f_112_2" x="19.5417" y="15.2739" width="24.5991" height="25.1995" filterUnits="userSpaceOnUse" color-interpolation-filters="sRGB">
<feFlood flood-opacity="0" result="BackgroundImageFix"/>
<feBlend mode="normal" in="SourceGraphic" in2="BackgroundImageFix" result="shape"/>
<feGaussianBlur stdDeviation="5" result="effect1_foregroundBlur_112_2"/>
</filter>
<filter id="filter2_f_112_2" x="3.12842" y="0" width="24.5991" height="25.1995" filterUnits="userSpaceOnUse" color-interpolation-filters="sRGB">
<feFlood flood-opacity="0" result="BackgroundImageFix"/>
<feBlend mode="normal" in="SourceGraphic" in2="BackgroundImageFix" result="shape"/>
<feGaussianBlur stdDeviation="5" result="effect1_foregroundBlur_112_2"/>
</filter>
<filter id="filter3_f_112_2" x="29.8423" y="31.5215" width="23.1619" height="23.5747" filterUnits="userSpaceOnUse" color-interpolation-filters="sRGB">
<feFlood flood-opacity="0" result="BackgroundImageFix"/>
<feBlend mode="normal" in="SourceGraphic" in2="BackgroundImageFix" result="shape"/>
<feGaussianBlur stdDeviation="5" result="effect1_foregroundBlur_112_2"/>
</filter>
<filter id="filter4_f_112_2" x="30.2788" y="20.4753" width="22.1558" height="22.4373" filterUnits="userSpaceOnUse" color-interpolation-filters="sRGB">
<feFlood flood-opacity="0" result="BackgroundImageFix"/>
<feBlend mode="normal" in="SourceGraphic" in2="BackgroundImageFix" result="shape"/>
<feGaussianBlur stdDeviation="5" result="effect1_foregroundBlur_112_2"/>
</filter>
<filter id="filter5_f_112_2" x="27.2993" y="15.2739" width="21.5811" height="21.7874" filterUnits="userSpaceOnUse" color-interpolation-filters="sRGB">
<feFlood flood-opacity="0" result="BackgroundImageFix"/>
<feBlend mode="normal" in="SourceGraphic" in2="BackgroundImageFix" result="shape"/>
<feGaussianBlur stdDeviation="5" result="effect1_foregroundBlur_112_2"/>
</filter>
<filter id="filter6_f_112_2" x="13.2061" y="5.19946" width="21.5811" height="21.7874" filterUnits="userSpaceOnUse" color-interpolation-filters="sRGB">
<feFlood flood-opacity="0" result="BackgroundImageFix"/>
<feBlend mode="normal" in="SourceGraphic" in2="BackgroundImageFix" result="shape"/>
<feGaussianBlur stdDeviation="5" result="effect1_foregroundBlur_112_2"/>
</filter>
<linearGradient id="paint0_linear_112_2" x1="35.144" y1="35.1907" x2="35.144" y2="44.69" gradientUnits="userSpaceOnUse">
<stop stop-color="#F28802"/>
<stop offset="1" stop-color="#E06F01"/>
</linearGradient>
<linearGradient id="paint1_linear_112_2" x1="24.0572" y1="34.5359" x2="24.0572" y2="44.7725" gradientUnits="userSpaceOnUse">
<stop stop-color="#FFDB5B"/>
<stop offset="1" stop-color="#FC9F0B"/>
</linearGradient>
</defs>
</svg>
