<svg width="40" height="40" viewBox="0 0 40 40" fill="none" xmlns="http://www.w3.org/2000/svg">
<path d="M25.9184 21.6602L22.5683 25.0216C21.2098 26.3849 18.8194 26.4142 17.4316 25.0216L14.0813 21.6602L2.04883 33.7317C2.49672 33.9389 2.99056 34.0624 3.51555 34.0624H36.4843C37.0093 34.0624 37.5029 33.9389 37.9507 33.7317L25.9184 21.6602Z" fill="white"/>
<path d="M36.4843 5.9375H3.51555C2.99056 5.9375 2.49673 6.0611 2.049 6.26822L14.9066 19.1684C14.9074 19.1693 14.9085 19.1695 14.9093 19.1703L19.091 23.3669C19.5351 23.8109 20.4649 23.8109 20.909 23.3669L25.0888 19.173C25.0888 19.173 25.0898 19.1712 25.0907 19.1703C25.0907 19.1703 25.0926 19.1693 25.0934 19.1684L37.9507 6.26814C37.5029 6.06094 37.0093 5.9375 36.4843 5.9375Z" fill="white"/>
<path d="M0.373907 7.90723C0.142187 8.37581 0 8.89597 0 9.45317V30.5469C0 31.104 0.142031 31.6243 0.373829 32.0928L12.4272 20.0004L0.373907 7.90723Z" fill="white"/>
<path d="M39.6262 7.90674L27.5728 20.0001L39.6262 32.0926C39.8579 31.6241 40 31.1038 40 30.5465V9.45282C40 8.89548 39.8579 8.37532 39.6262 7.90674Z" fill="white"/>
</svg>
