<svg width="390" height="123" viewBox="0 0 390 123" fill="none" xmlns="http://www.w3.org/2000/svg">
<path d="M82.8696 2.35404C80.3867 1.14703 26.8696 1.93214 0.42143 2.47557C0.430863 8.87497 -4.56391 10.3378 -7.06247 10.2692L-7.01977 39.2387C-5.37989 41.2541 1.62172 45.3225 16.5092 45.4735C11.5478 46.1727 -2.43949 48.8164 -8.81297 50.0509C-8.88542 59.3472 -8.97206 82.3932 -8.73904 100.207C1.19418 105.9 2.99527 112.08 2.65416 114.459L10.9373 122.878C12.0572 122.876 50.3774 122.431 194.698 120.661C193.042 119.107 184.87 115.703 180.99 114.196C182.369 114.482 189.056 115.395 204.772 116.755C224.418 118.456 240.707 122.539 245.617 122.532C250.528 122.525 262.673 120.777 266.033 120.556C268.721 120.379 271.979 121.773 273.273 122.491L408.963 122.291L408.95 113.427C407.916 112.925 404.604 110.883 399.636 106.739C386.711 105.461 378.165 94.2319 371.443 92.5123C374.284 90.9948 406.591 90.731 405.81 87.0569C405.029 83.3828 391.587 81.6731 388.478 76.9215C385.37 72.1698 397 72.3689 399.579 68.4737C402.158 64.5784 391.797 48.8118 391.535 46.6503C391.273 44.4888 395.665 42.7528 396.949 37.3461C397.976 33.0208 389.611 27.3401 385.3 25.0404L402.848 6.42217L395.604 1.89307L372.86 1.92659C367.694 4.1681 356.794 8.65196 354.519 8.65531C352.245 8.65867 349.428 3.33023 348.304 0.66559L300.49 0.736069C297.13 0.741021 294.547 2.04203 291.444 0.749403C288.34 -0.54322 287.05 0.755879 283.173 0.761594C279.296 0.767308 279.556 2.06412 276.197 2.06907C273.509 2.07304 273.008 1.20898 273.093 0.776451L265.856 0.787118L259.653 0.796262L253.45 0.805405C250.09 0.810357 249.573 0.811119 238.203 2.12508L194.524 2.18946L173.847 2.21994C170.831 1.79198 164.592 0.936381 163.765 0.9376L157.045 0.947505C154.357 0.951467 151.791 1.82005 150.844 2.25384C149.379 1.8236 145.311 0.964801 140.762 0.971506C138.695 0.974554 138.436 0.974935 135.337 2.2767C132.237 3.57847 132.494 2.28089 126.547 0.992459C124.219 -0.301307 121.895 0.999317 118.795 2.30108C115.696 3.60285 113.368 2.30908 111.3 2.31213C109.232 2.31518 107.165 2.31823 105.095 1.02408C103.026 -0.270068 98.8941 2.33042 96.5679 2.33385C94.2418 2.33727 85.9734 3.8628 82.8696 2.35404Z" fill="url(#paint0_linear_114_440)"/>
<path d="M81.2198 2.27312C78.7815 1.1199 26.2254 1.87218 0.25217 2.39247C0.261183 8.5072 -4.64395 9.90512 -7.09764 9.83974L-7.05684 37.5206C-5.44649 39.4462 1.42923 43.3334 16.0493 43.4771C11.177 44.1454 -2.55919 46.672 -8.81826 47.8518C-8.88977 56.7346 -8.97576 78.7555 -8.74762 95.7768C1.007 101.216 2.77551 107.121 2.44043 109.394L10.5745 117.439C11.6743 117.437 49.3064 117.01 191.036 115.313C189.409 113.829 181.384 110.576 177.574 109.136C178.928 109.41 185.495 110.281 200.929 111.581C220.222 113.205 236.218 117.106 241.04 117.099C245.863 117.092 257.79 115.422 261.089 115.21C263.729 115.041 266.929 116.372 268.199 117.059L401.453 116.862L401.44 108.393C400.424 107.912 397.173 105.962 392.293 102.003C379.601 100.782 371.209 90.0524 364.607 88.4096C367.397 86.9595 399.124 86.7061 398.357 83.1955C397.591 79.6849 384.39 78.0517 381.337 73.5116C378.285 68.9715 389.707 69.1612 392.24 65.4392C394.772 61.7171 384.597 46.6522 384.34 44.5869C384.084 42.5215 388.396 40.8626 389.658 35.6964C390.667 31.5634 382.452 26.1357 378.218 23.9385L395.452 6.14778L388.338 1.82043L366.003 1.85335C360.929 3.99535 350.225 8.28018 347.991 8.28348C345.757 8.28677 342.992 3.19546 341.888 0.649402L294.932 0.718615C291.632 0.723479 289.096 1.96671 286.048 0.73171C283.001 -0.503293 281.734 0.73807 277.926 0.743682C274.119 0.749293 274.375 1.98841 271.075 1.99327C268.435 1.99717 267.943 1.17156 268.027 0.758272L260.921 0.768748L254.829 0.777727L248.737 0.786706C245.438 0.79157 244.93 0.792318 233.764 2.04827L190.869 2.1115L170.563 2.14143C167.602 1.73263 161.475 0.91533 160.663 0.916527L154.063 0.926254C151.424 0.930145 148.904 1.76019 147.974 2.17473C146.535 1.76368 142.54 0.94324 138.073 0.949824C136.042 0.952817 135.789 0.953192 132.745 2.19717C129.701 3.44115 129.953 2.20129 124.113 0.970401C121.827 -0.265723 119.544 0.977136 116.5 2.22112C113.456 3.4651 111.17 2.22897 109.14 2.23197C107.109 2.23496 105.079 2.23795 103.046 1.00145C101.014 -0.235045 96.9565 2.24992 94.6721 2.25329C92.3878 2.25666 84.2678 3.71464 81.2198 2.27312Z" fill="url(#paint1_linear_114_440)"/>
<path fill-rule="evenodd" clip-rule="evenodd" d="M10.0359 105.784C10.02 105.528 10.4783 105.332 11.7073 105.591C18.4456 106.395 23.8891 108.184 29.2048 109.628C32.9679 110.745 38.6501 111.804 42.6532 112.487C45.9764 112.998 40.3757 113.887 38.3737 112.957C27.7998 111.22 21.0115 108.183 10.8247 106.307C10.3602 106.219 10.0525 105.983 10.0359 105.784ZM11.0319 72.1463C11.0085 71.3067 13.4259 71.6707 13.8191 71.8226C16.6037 72.5689 17.6493 74.0758 21.1533 74.8183C24.9345 75.578 25.975 77.1294 30.8611 77.4773C33.6831 77.8249 30.9676 78.4547 29.0099 78.1852C25.066 78.0962 19.1232 78.0504 17.6885 79.3447C16.8627 79.1894 16.8981 79.8041 15.7573 79.2351C16.2943 77.8968 22.1019 77.4191 25.3412 77.4539C22.6882 76.3064 19.1112 75.3654 16.0292 74.3074C14.4625 73.5612 13.0371 72.788 11.0319 72.1463ZM11.8056 55.2746C11.811 55.2113 11.821 55.152 11.8404 55.1006C11.797 53.9544 13.286 52.0014 18.5273 52.1329C22.8786 52.3763 26.4589 53.441 30.704 53.5066C35.0462 53.3127 40.6897 52.3779 43.7589 53.7362C46.3861 54.2608 49.0798 55.1374 51.648 55.4728C54.4194 54.471 58.2796 55.3133 61.2818 55.5216C65.5626 54.9313 69.3486 55.6815 73.0011 56.1829C75.1165 56.2312 76.8424 55.3753 79.1853 55.2597C86.2756 54.4518 93.0096 56.0516 99.4931 56.5114C104.188 57.136 110.04 57.3389 114.523 56.3144C119.788 55.1791 125.715 54.0756 132.48 54.2484C138.384 54.339 144.022 53.5509 148.089 52.3155C153.83 51.8992 159.173 53.0013 164.657 53.2607C172.488 53.8916 179.997 55.1424 188.125 55.3435C198.84 54.1583 208.958 52.0941 220.755 52.1745C236.111 51.8084 251.848 52.6804 266.988 51.4903C277.717 49.4543 290.817 48.993 302.875 48.057C307.87 47.9233 312.193 48.9531 317.342 48.5001C327.837 48.5179 337.748 47.3011 347.153 46.0064C353.955 45.3443 361.731 45.8628 368.151 44.8778C370.963 44.3842 374.818 44.0341 377.837 44.0605C378.292 44.1255 376.811 44.505 378.173 44.6396C378.675 44.719 378.005 43.6993 379.654 44.2386C379.183 45.5856 372.373 45.2895 369.532 46.1966C360.807 47.3089 350.448 46.4888 342.281 48.1483C332.166 49.4493 320.869 50.1011 310.005 49.9513C305.751 49.4511 301.176 49.3743 296.726 49.9826C287.083 50.7362 276.902 51.2762 268.415 52.923C249.331 54.4615 229.451 52.8162 210.276 54.1135C202.345 54.8322 195.111 56.273 187.008 56.7661C174.298 55.9823 162.733 54.1618 149.938 53.4637C144.326 55.2838 135.677 55.4761 127.984 55.5032C120.099 55.951 114.527 58.4813 105.954 58.1815C97.5776 57.9199 90.5195 56.2913 82.1376 56.1428C78.7983 56.2168 76.8871 57.243 73.7871 57.3669C69.4806 57.3235 66.3135 55.8882 61.7775 56.5983C58.6284 56.9058 55.7389 55.458 53.1743 56.467C49.211 57.2558 46.7481 55.5113 43.6819 55.1341C41.2515 54.672 39.4767 53.6131 35.991 54.1652C31.8345 54.5805 27.174 54.6513 23.8269 53.755C21.7316 53.5987 18.2704 52.3927 16.1125 53.1995C13.9262 54.436 13.5553 56.0538 15.6057 57.2711C13.5438 58.3231 11.7619 56.2254 11.8056 55.2746ZM11.4793 88.73C11.4622 88.1622 13.8884 87.3324 14.3026 86.8783C18.7143 85.1116 15.2554 82.4533 21.3799 80.9843C27.7073 80.2829 33.5441 81.7996 39.4223 82.1543C40.4042 82.2271 41.7856 82.3197 42.6332 82.2082C45.0942 81.6242 47.1769 80.4051 51.2188 80.5657C57.241 80.6564 63.0283 82.3944 69.0154 81.013C73.7291 79.9846 79.8451 79.6785 85.1416 80.333C87.7299 80.5471 90.5947 80.8565 92.9813 81.0297C95.7619 80.4625 99.2017 79.814 102.449 80.4167C105.202 80.5739 107.469 81.4012 109.913 81.4823C116.059 81.0239 122.373 81.8691 128.476 81.115C138.655 80.2897 146.755 83.3713 156.895 82.3149C166.389 81.3934 175.404 83.0236 183.919 83.8503C195.609 85.3989 208.118 86.4932 221.259 86.5845C230.939 86.7122 239.927 87.7666 247.46 89.4102C256.86 91.444 267.293 93.1234 279.073 93.8097C287.961 94.5973 298.164 95.045 305.186 96.8853C308.547 98.2203 309.312 100.068 314.535 101.001C322.638 102.497 325.045 105.9 335.127 106.603C343.559 106.911 351.596 105.549 359.513 104.837C364.841 104.348 367.826 102.748 373.551 102.527C378.06 101.694 378.073 103.488 375.238 103.43C369.546 103.656 366.495 105.235 361.167 105.729C352.351 106.556 343.231 108.067 333.823 107.581C322.941 106.903 319.543 103.464 311.102 101.808C306.012 100.843 304.823 99.0629 301.722 97.6807C292.848 95.6735 280.749 95.3151 270.309 94.2226C255.633 93.0752 245.507 89.5176 231.323 88.1239C218.478 87.2325 204.561 87.5776 192.425 85.9383C182.51 84.9383 173.149 83.2096 162.437 82.9196C156.593 83.2146 150.352 83.8329 144.803 82.9941C138.7 82.1439 131.721 81.4458 124.838 82.2488C119.507 82.5732 113.892 81.8227 108.754 82.5165C105.685 81.9926 102.098 81.0827 98.4907 81.1448C95.7284 81.7603 92.1432 82.3821 89.1558 81.6972C83.6921 81.2774 77.3412 80.3141 71.9995 81.5835C67.6028 82.4415 61.9613 82.7842 57.3527 82.0065C54.311 81.5469 49.0189 80.9248 46.7387 82.1488C44.2514 83.3885 38.8618 83.0702 35.3649 82.5349C31.2354 82.2244 26.7535 81.0497 22.1774 81.5638C17.6644 83.1458 20.4028 85.4795 16.1429 87.1383C14.2498 87.8049 14.348 88.6908 12.4757 89.1863C11.7622 89.0796 11.4866 88.9197 11.4793 88.73ZM12.3973 61.9952C12.4537 61.1682 15.1669 60.7322 18.6008 61.0233C25.9689 61.8477 34.6376 62.4264 38.8316 64.5209C42.358 65.776 46.1236 67.0837 50.7542 67.993C59.3796 68.6543 62.9306 71.4853 69.5313 72.8052C73.5633 72.5958 78.1901 71.349 82.2456 71.9685C85.606 72.9347 89.4171 71.4693 92.8754 71.2594C97.1695 71.1535 100.713 72.1177 104.963 72.2357C114.139 72.8399 124.956 72.6362 132.94 70.9356C138.886 69.0486 148.225 70.2204 155.137 70.6029C160.937 71.198 167.214 70.839 172.682 70.003C178.786 69.1331 185.51 69.0816 191.959 69.317C201.703 69.1909 208.499 71.572 217.633 72.1134C229.982 72.8581 242.794 72.9342 255.3 73.4578C269.159 73.614 283.087 73.6282 296.977 73.558C301.4 73.6579 306.259 73.1165 310.449 73.464C313.798 74.2311 319.23 73.6849 323.296 73.8183C329.328 73.8847 335.454 73.4843 340.436 72.4153C349.427 71.1278 359.788 72.1081 368.848 70.9275C371.933 70.9087 377.442 70.2715 379.157 70.7925C380.494 70.6057 380.473 71.2116 379.135 71.4846C374.597 71.9565 369.431 72.2577 364.821 72.8327C355.895 73.3644 345.793 72.7017 338.066 74.5232C329.77 75.5663 320.457 75.3916 311.764 75.2721C308.719 75.0791 306.124 74.6847 302.853 74.9571C291.34 75.1671 279.825 75.1132 268.33 75.0322C268.672 75.1146 268.991 75.2202 269.271 75.3544C270.819 76.1075 272.065 76.9984 274.467 77.4515C275.678 78.4222 270.771 78.3032 270.126 77.5754C268.264 77.0801 268.08 75.9421 265.661 75.6871C260.983 76.1161 257.346 77.9727 260.798 79.1667C263.156 80.5691 269.362 81.106 274.321 80.3481C276.341 80.1606 278.809 80.1459 280.441 79.6975C280.177 79.3302 280.207 79.5856 279.889 79.087C284.352 78.9753 282.047 80.7231 278.418 80.663C273.387 81.0582 267.398 81.7774 262.887 80.7241C258.135 79.7205 254.336 77.6258 258.994 76.0691C259.883 75.6584 261.481 75.2372 263.205 74.995C260.93 74.9794 258.654 74.9611 256.378 74.9468C243.65 74.4969 230.789 74.2195 218.157 73.6192C209.627 73.1991 203.017 71.4715 194.994 70.7484C188.365 70.6643 181.439 70.2578 175.09 71.1976C168.614 72.1482 161.213 72.654 154.313 71.9901C149.091 71.8449 143.267 70.8355 137.96 71.5137C128.258 74.1279 113.479 74.2199 101.754 73.2074C98.8262 73.0898 96.0879 72.4129 93.3329 72.3823C89.5027 73.0431 84.053 73.887 80.3413 72.7954C76.3752 72.5855 72.3518 73.7033 68.2565 73.6886C62.3705 72.3635 58.5189 70.3407 52.6329 69.0143C46.2154 68.5323 42.6003 66.8084 38.1947 65.5373C35.1759 64.2995 32.0924 62.9642 26.4821 62.6187C22.8842 62.2877 18.9202 61.4734 15.1439 61.5239C13.326 62.615 16.2561 63.7985 19.9913 64.0487C30.6758 65.9905 37.9663 69.1065 48.6649 71.0508C51.3743 71.7939 53.9536 72.8063 57.3061 73.2248C57.0698 74.1695 52.8463 73.4321 51.5349 72.9779C46.148 71.1683 38.4391 70.1256 33.0241 68.3136C27.6636 66.6692 21.7231 65.1712 14.866 64.068C13.1411 63.5807 12.4063 62.8619 12.4236 62.1658C12.4007 62.1082 12.392 62.0504 12.3973 61.9952ZM13.4965 102.884C13.5284 102.549 13.8747 102.283 14.6114 102.832C18.1671 102.747 20.5837 103.597 23.5417 103.978C31.5416 105.479 38.9508 107.245 47.5745 108.47C52.933 109.459 57.5594 110.736 63.0691 111.663C64.5262 112.13 67.9389 112.21 67.8738 112.979C66.7679 113.894 62.8628 113.279 61.3302 112.836C55.6902 111.797 50.4374 110.603 45.0288 109.474C39.5297 108.441 33.5015 107.634 28.404 106.434C23.5773 105.399 18.8971 104.304 13.754 103.395C13.5669 103.308 13.4754 103.083 13.4965 102.884ZM14.2142 96.788C14.1775 96.7023 14.3571 96.6236 14.828 96.5606C20.1954 96.7594 25.8809 96.6962 31.4856 96.7013C48.1837 97.0016 63.6984 98.8304 79.0034 100.496C89.6204 101.748 99.4514 103.489 107.98 105.659C114.653 106.86 122.522 107.411 129.394 108.495C138.887 109.341 149.459 109.528 157.725 111.203C156.635 113.207 149.093 110.709 144.899 110.769C136.94 110.157 128.556 109.842 121.313 108.68C113.406 107.741 104.862 106.974 98.8543 105.154C84.0202 101.762 65.2105 100.254 47.2294 98.6446C38.5346 97.8844 29.4038 97.4305 20.1767 97.586C18.4926 97.6541 14.3605 97.1579 14.2142 96.788ZM14.5021 100.434C15.1699 100.009 16.0518 100.607 17.104 100.288C32.6086 102.599 49.354 104.121 65.7727 105.842C73.6156 106.676 80.4179 108.059 86.5833 109.624C90.2159 110.225 93.461 110.985 97.6953 111.181C100.848 111.833 96.1311 112.71 94.004 112.038C90.1371 111.79 87.3026 110.885 83.7108 110.419C69.6906 106.576 49.3064 105.839 32.2219 103.527C26.6127 102.672 19.5887 102.189 14.9236 100.998C15.3264 100.726 14.5607 100.663 14.5021 100.434ZM16.207 93.9453C38.4949 92.6613 62.0713 93.856 80.7844 97.2543C91.6487 99.104 103.268 100.709 116.113 101.157C130.653 101.943 144.839 103.141 158.329 104.803C170.597 106.037 182.172 107.824 194.539 108.932C198.363 108.857 210.027 109.446 206.813 110.495C194.127 110.101 182.274 108.765 170.903 107.268C150.54 105.024 129.956 102.841 108.264 101.731C93.6864 101.031 81.7147 98.5645 69.0741 96.6319C54.9692 94.4554 38.425 94.2691 22.5147 94.1621C20.3849 94.1435 18.284 94.06 16.207 93.9453ZM17.0955 49.0151C17.0911 48.9828 17.0963 48.9464 17.1155 48.9072C16.919 47.1529 23.8924 45.8725 23.4194 44.0458C23.104 41.1582 16.4134 38.6346 18.1116 35.6524C19.2027 30.639 29.1117 25.8878 27.523 20.8417C25.4678 17.9689 20.3418 15.1322 21.448 12.1067C22.976 11.2852 26.8573 11.099 29.7185 10.8822C35.4255 10.9964 35.8248 13.1052 36.323 14.3704C36.3899 21.3591 37.9558 28.4217 33.57 35.3901C30.2477 38.1275 33.1306 40.99 32.6665 43.7811C33.0358 45.2159 37.6032 46.3076 36.1282 47.8513C36.3785 48.5861 34.3429 49.8007 36.702 50.3296C39.1627 50.6111 43.3824 50.8506 44.4043 49.8798C43.9561 46.6814 40.4829 43.6288 38.482 40.528C38.8027 37.5285 46.4724 34.9605 46.3845 31.921C48.4815 27.7649 46.5862 23.6386 44.2716 19.5856C43.412 17.0121 42.3786 14.4217 39.1001 12.0306C37.9451 11.0512 37.7576 9.33848 42.743 9.21969C50.1124 9.09652 55.7407 10.7608 62.4595 11.2141C70.3007 10.9498 77.8242 9.25294 85.8609 9.99603C106.948 11.3914 128.876 12.3442 150.795 11.3078C166.366 10.6527 181.925 9.77696 197.637 9.95209C209.647 9.83232 221.582 8.9408 233.61 9.28114C248.446 9.58289 263.461 9.48026 278.166 8.46037C294.631 7.74842 310.899 6.61868 326.776 5.10422C335.701 4.6142 344.944 5.10999 353.695 4.25577C358.867 4.22647 363.3 5.20254 368.634 5.02747C372.29 5.19231 376.88 4.73192 379.816 5.34335C379.584 6.78065 372.242 6.15519 368.52 6.36523C363.553 6.48113 359.126 5.86839 354.484 5.59717C349.336 5.95192 344.042 6.26787 338.716 6.19252C331.199 6.03733 323.914 6.65624 316.926 7.47514C297.907 9.17182 278.2 10.0657 258.636 10.8369C241.207 11.1408 223.754 10.2389 206.387 11.2891C191.727 11.6072 176.975 11.3449 162.444 12.332C142.195 13.361 121.423 13.6513 101.543 12.3734C93.6039 12.1878 85.9823 10.9059 77.8713 11.3292C70.9215 11.7695 62.9851 13.3861 56.3285 12.0048C52.1496 11.489 47.6846 10.489 43.0195 10.5492C43.2944 12.4372 47.2917 14.0533 47.3123 15.9751C48.9351 20.9091 53.3329 25.7821 51.1743 30.8124C50.8386 33.4675 48.1108 36.0248 44.1291 38.4477C41.9845 39.7362 42.2978 41.1393 43.9056 42.4126C45.3337 45.0284 48.2472 47.6792 47.3046 50.3678C45.4889 51.2664 41.6979 51.7855 38.2411 51.4475C33.6757 51.4245 31.744 50.5194 32.0493 49.2967C32.3184 47.9573 33.7034 46.4765 30.3069 45.3748C27.0049 43.3971 29.1758 41.0235 28.1184 38.895C27.1231 36.681 31.1292 34.5983 31.3517 32.3886C33.3476 26.364 33.5711 20.313 33.6015 14.2896C33.0093 13.4373 33.4979 11.8088 29.6775 11.6027C27.8368 11.7977 24.8484 12.0267 24.0209 12.4394C23.7817 14.8835 28.1199 17.1245 29.805 19.4615C34.0984 23.5765 26.7098 27.8952 23.5186 31.9313C20.5752 34.845 19.425 38.0137 23.7524 40.7864C26.3679 42.7647 27.149 45.2139 21.9 47.014C20.5446 47.5361 19.2843 48.3897 18.7521 48.8813C20.3642 49.3591 17.2216 49.509 17.0955 49.0151ZM17.3857 55.7901C17.4822 55.571 19.1895 55.5295 20.5381 55.6104C32.6368 55.5637 43.6629 57.2394 53.7112 58.8893C64.8528 61.1545 72.8765 64.7215 86.6923 65.85C97.3877 66.828 108.728 67.7599 119.956 67.8048C123.279 66.6004 127.889 65.6526 133.38 65.7194C142.075 65.6491 151.088 65.6427 159.091 64.3861C169.138 62.8879 181.233 62.7201 191.044 64.168C199.023 65.3855 208.628 66.3188 217.79 65.2824C227.111 64.2861 237.003 63.1314 246.902 63.8341C256.398 64.0337 265.769 65.2859 275.447 64.7446C283.628 64.0312 291.805 62.7377 300.498 63.2516C308.453 63.7304 315.913 62.2051 323.728 62.2171C327.288 62.5943 331.077 62.615 334.629 62.0865C345.987 60.9563 358.294 61.6233 369.686 60.4443C371.723 60.3522 375.526 60.0067 376.787 59.9889C377.436 59.9294 380.969 59.7685 379.799 60.5834C377.482 61.6961 371.809 61.4953 368.098 61.9878C356.402 63.0518 343.827 62.4011 332.427 63.8346C327.629 64.4708 323.007 63.194 318.259 63.9589C310.905 64.7899 303.102 64.9783 295.474 64.6629C285.726 64.7029 276.965 66.9327 267.032 66.3233C256.145 66.0756 245.416 64.748 234.318 65.2832C221.844 66.4322 207.981 68.3097 195.509 66.4008C186.914 65.151 176.757 63.9626 166.851 65.0837C158.306 66.0892 149.608 67.2752 140.257 67.0888C134.788 67.1658 127.79 66.8879 124.372 68.5226C120.849 69.9163 114.746 69.0149 110.101 68.9496C92.7179 68.1372 74.7559 66.5033 62.9929 62.6378C54.0345 59.4026 40.5711 57.4681 26.6881 56.4534C24.0721 56.1885 20.1987 56.5159 18.2748 56.1667C17.698 56.0316 17.4359 55.9228 17.3899 55.8358C17.3807 55.8197 17.3808 55.8049 17.3857 55.7901ZM17.5764 70.1289C17.585 69.7843 18.6267 69.5576 20.0465 69.9904C23.837 71.1767 29.0419 72.0259 30.9278 73.6542C33.8055 74.8921 35.4755 76.905 41.1412 77.3373C44.2944 77.0837 47.3092 76.6014 50.7134 76.6007C55.9329 76.1617 60.7486 75.2507 66.3354 75.1792C80.5467 74.5913 94.3001 75.8349 108.014 76.4342C114.96 76.325 120.987 74.7184 128.134 75.1186C137.492 75.0491 146.468 75.9059 155.606 76.1551C166.372 75.0273 176.496 77.029 186.618 77.5974C193.252 77.6747 199.957 77.6112 206.274 78.264C221.132 79.1604 235.628 80.4201 249.342 82.22C266.615 84.0996 286.179 82.9354 303.89 84.2947C311.267 85.1701 319.865 84.4858 327.672 84.7388C336.053 84.571 343.974 85.991 352.336 85.4169C353.837 84.4692 358.267 84.8666 360.385 84.2675C361.641 82.9227 366.543 82.7429 370.094 82.2063C372.898 81.6927 376.511 81.1042 379.725 81.2456C381.469 82.5578 373.377 82.5071 370.786 83.3899C367.881 83.6894 364.935 83.9973 364.106 84.9485C362.628 85.908 358.315 85.613 356.024 86.1265C351.768 87.3989 344.836 86.7152 339.67 86.556C328.251 85.5064 315.686 86.5004 304.118 85.7526C291.902 84.4977 278.231 85.1079 265.481 84.5453C248.269 84.4107 234.236 81.2993 217.657 80.4485C207.649 79.7955 197.758 78.7549 187.232 78.9716C177.991 78.6979 169.736 76.9356 160.221 77.1965C152.288 78.0782 144.527 76.6888 136.633 76.6332C130.019 76.4575 122.867 76.0803 116.672 77.1463C108.773 78.3506 100.249 77.423 92.4256 76.9495C79.6538 76.2175 65.4837 75.6501 53.1108 77.4859C49.3475 77.6385 45.5386 77.661 41.9372 78.0528C35.0722 78.0628 32.3426 75.7815 29.41 74.4028C27.4907 72.8207 23.1295 71.7846 18.8388 70.7572C17.9474 70.5838 17.574 70.3349 17.5764 70.1289ZM18.562 58.2148C18.5624 58.1798 18.5956 58.1525 18.6895 58.169C22.5769 58.2653 28.2575 58.637 32.6284 58.8048C47.2939 60.0533 59.6822 63.095 66.1829 67.0379C67.538 67.785 72.3706 68.2978 71.4768 69.1608C68.2142 69.1075 66.1112 67.9661 63.9416 67.3113C58.1092 63.7407 47.2176 60.9788 34.3215 59.6007C29.5096 58.9316 22.9331 59.2023 18.608 58.3085C18.5846 58.2939 18.5569 58.2498 18.562 58.2148ZM18.6622 91.7961L19.043 91.8081C27.1192 92.3865 33.9889 90.7062 41.6268 90.1265C48.6444 89.5172 56.0776 88.742 63.3303 88.9579C72.3986 89.539 79.3074 94.3927 88.7429 91.1918C96.3694 89.5382 104.48 91.6224 111.638 92.3347C126.974 94.5974 145.205 94.0251 161.681 95.2458C177.128 96.0577 189.197 99.4677 205.384 99.5892C214.632 99.696 220.005 101.872 226.369 103.39C235.81 105.924 249.368 105.739 260.827 106.988C267.107 107.151 279.515 107.548 268.512 108.489C256.539 108.21 244.588 107.219 233.056 106.246C224.331 105.215 218.403 103.063 211.033 101.492C200.746 100.617 189.334 100.605 180.256 98.8354C168.85 97.0818 156.147 96.1081 143.064 95.8761C128.384 95.4798 113.586 94.7079 100.948 92.5491C91.4383 90.6713 80.5461 95.88 72.5714 92.1415C66.321 89.7706 56.0267 89.4989 46.4931 90.5716C37.3422 90.6428 26.1714 93.8747 18.6622 91.7961ZM25.0486 87.5408C37.8593 85.2413 53.2697 85.0685 67.614 84.3661C95.9903 83.1384 121.382 87.1856 146.933 89.6522C163.081 91.2318 180.195 91.786 197.244 92.232C219.795 92.9802 234.298 99.0906 257.067 99.7583C273.994 100.204 286.843 103.596 300.485 106.036C305.287 107.132 309.197 108.577 314.849 109.346C304.381 109.9 299.749 106.231 290.943 105.301C278.956 102.918 265.868 100.688 250.707 100.414C229.172 99.114 214.807 92.9307 191.672 93.0449C163.796 92.4502 137.287 89.9186 112.001 86.8501C93.6565 84.9431 73.3031 84.3931 53.8404 85.7393C44.6897 85.3825 30.0906 87.8265 25.0486 87.5408ZM38.3224 100.852C38.3756 100.718 39.316 100.719 39.9941 100.632C48.5415 101.539 57.9297 101.683 66.453 102.646C79.0192 103.671 91.4372 104.919 102.431 106.916C103.854 107.145 107.015 107.383 104.947 107.721C108.276 107.775 103.385 108.269 102.732 107.767C94.7671 106.502 86.8875 105.175 78.0091 104.435C66.3191 103.254 54.2877 102.341 42.1462 101.594C41.2222 101.388 38.4426 101.451 38.6165 101.037C38.3918 100.955 38.3078 100.895 38.3224 100.852ZM54.359 39.4187C54.3055 39.1649 54.7922 38.9537 56.2133 38.8494C58.2468 38.6537 60.7576 38.6587 62.3054 38.1667C62.0384 37.2517 60.9292 36.3701 60.3752 35.4703C59.9229 34.712 61.1266 33.4661 64.5485 33.5716C67.5895 34.0917 71.3043 34.0701 74.8107 34.1828C78.0256 34.2986 83.1103 34.5529 83.7954 35.5078C81.8373 36.5197 83.6344 37.6846 87.3079 37.9946C90.667 38.6606 92.2121 37.5752 93.1704 36.8258C94.8534 36.0148 98.9746 35.4007 101.732 36.0706C106.094 37.4095 107.033 39.5945 104.31 41.3092C102.326 42.1774 98.5125 41.7639 95.8586 41.5182C92.15 40.9878 90.8754 42.6895 87.3948 42.7852C83.379 42.8154 79.3839 43.5075 75.5063 43.3653C70.6015 43.0067 65.1229 42.6625 60.1367 43.2645C56.8082 43.6304 56.4948 44.7334 60.0797 44.9758C65.2064 45.6724 71.1262 45.6714 76.5329 46.1388C82.9466 46.5456 90.1287 46.3545 95.8446 45.256C100.356 44.6605 106.877 44.6986 109.566 45.9938C110.852 47.0162 110.468 48.1806 111.975 49.2033C113.058 50.3019 114.151 51.7651 110.708 52.6734C105.762 53.9385 98.787 53.6738 92.8397 53.6065C84.6384 53.2798 76.4665 52.8504 68.1501 52.7227C64.5562 52.4482 59.9591 52.3205 58.1089 51.2733C56.2779 50.6121 61.3047 50.1699 59.9138 50.9226C63.3823 51.8876 68.6469 52.0336 73.3527 52.1171C78.4257 52.1575 83.5512 52.1287 88.5469 52.3517C94.9699 52.3397 102.063 52.9342 107.958 51.815C110.355 50.6435 106.997 49.4485 106.653 48.2759C106.962 47.1877 105.525 45.786 100.673 46.1578C94.5767 46.3573 89.1006 47.8704 82.8009 47.3682C73.8259 46.852 64.1747 46.6823 56.3763 45.2368C52.826 44.4274 56.0453 42.8998 59.6186 42.5016C65.3826 41.7256 71.4771 42.4979 77.3641 42.4931C81.41 41.8811 87.0394 42.2009 89.9916 41.0086C92.3143 39.7626 97.5056 40.5743 100.964 40.7372C102.31 39.8168 101.727 38.5579 100.657 37.5938C99.1907 36.2503 95.2614 37.3644 94.3207 38.2239C92.5204 39.4238 87.3427 39.075 84.6932 38.4443C81.6206 37.8074 79.7067 36.5711 81.4492 35.4929C76.1384 34.4456 68.9508 35.1227 63.3271 34.3063C61.2322 35.7732 66.483 37.1442 64.1531 38.6016C62.5874 39.4275 56.9164 39.0463 56.3687 39.6633C57.8121 40.5117 61.3049 41.4078 64.8515 40.878C68.8398 40.3744 70.5712 39.0325 74.6622 38.5896C76.7141 38.4274 80.2932 39.1839 78.9221 39.429C82.9694 39.1131 78.4522 40.6562 77.1131 39.7326C74.2379 38.6885 72.0457 40.4472 69.3148 40.777C66.3397 41.5039 61.4728 41.9471 58.4874 41.0818C57.231 40.7536 54.4796 39.98 54.359 39.4187ZM57.4018 47.69C58.2086 47.0312 59.2319 47.5988 59.5503 47.7151C59.1649 47.7072 63.57 47.767 65.4425 47.6699C74.9575 48.2462 84.5702 48.917 94.3805 49.1576C98.0035 49.7724 92.8644 50.1714 90.869 49.9105C82.1641 49.6269 73.6085 49.0321 65.1795 48.4709C62.6872 48.494 57.2433 48.8223 57.4018 47.69ZM62.2997 29.1033C62.2884 28.8571 62.4842 28.5817 62.9485 28.2766C65.9452 26.8927 64.4179 25.1528 63.7812 23.659C63.2419 22.6985 62.6321 21.7347 62.6197 20.7523C63.1365 19.538 65.0325 18.6116 62.9677 17.4227C62.5858 15.0163 72.1995 16.0141 76.4761 16.6204C81.6707 17.5532 74.4061 19.6336 75.3293 21.162C74.6082 22.9747 75.0624 24.8083 76.6132 26.5506C73.5433 28.1708 83.8003 30.0755 83.8506 27.7008C85.1935 24.538 80.9105 21.1659 86.8922 18.1856C90.6644 16.8323 97.1645 17.903 98.7581 19.1899C101.529 20.7103 97.054 22.2798 97.5767 23.8704C97.5668 25.5812 98.5916 27.2673 99.085 28.9592C99.6525 29.9194 103.637 31.0376 103.787 29.3334C105.52 27.0211 102.009 24.8438 101.033 22.6202C101.376 20.5289 105.703 17.9152 113.901 17.6875C119.007 17.7073 125.186 18.9888 124.505 20.5481C121.915 21.7189 120.561 22.9598 120.409 24.3181C119.015 26.5864 118.335 28.9182 119.424 31.1689C122.9 31.9642 128.262 32.5843 128.451 34.2068C129.658 35.9918 128.322 38.0993 133.394 39.4506C137.661 40.9871 140.847 42.7977 142.217 44.756C143.141 46.1901 145.684 47.5138 143.711 48.9593C146.6 49.652 155.596 50.8005 152.498 48.6471C149.721 46.797 150.008 44.7292 147.382 42.8761C144.193 40.4814 139.159 38.1874 139.26 35.5079C143.268 33.7025 139.513 31.8846 137.675 30.1495C135.457 28.3579 134.572 26.3729 136.615 24.4865C136.337 22.8691 139.7 21.111 140.308 19.7841C134.67 18.5506 127.966 17.5857 121.515 16.7971C113.87 16.7187 107.151 15.8469 100.205 15.1068C91.911 14.2803 83.2769 13.5558 74.2956 13.5996C69.8479 11.9023 81.2701 12.2304 84.6098 12.5252C94.9256 12.9743 104.917 13.8496 114.435 15.0006C122.235 15.0531 129.317 15.8106 135.33 17.1073C143.209 17.6704 149.944 20.0212 143.027 22.1745C142.381 24.3458 139.234 26.617 141.64 28.747C143.582 30.8565 148.856 33.0886 144.97 35.3382C143.369 37.221 147.934 38.9521 149.927 40.6559C153.3 42.6247 154.935 44.8062 156.152 46.9707C158.487 48.3693 160.636 51.2289 152.523 51.4611C146.802 51.2932 136.195 50.4542 138.326 48.295C139.444 46.2626 136.242 43.8115 132.793 41.9526C129.334 40.1328 123.097 38.6298 123.88 36.3131C124.689 34.607 122.064 33.116 116.441 32.5876C111.825 31.2743 114.572 29.0573 113.736 27.3544C114.803 25.2566 115.185 23.0855 117.611 21.055C122.736 19.3465 110.165 18.4051 108.276 20.3611C103.658 22.056 106.57 24.0257 107.749 25.807C108.641 27.5403 108.916 29.4903 105.277 31.0548C99.4988 32.2899 94.7396 29.8597 94.6805 28.4283C94.1808 26.4673 92.7974 24.4769 93.7977 22.5037C95.6982 21.1694 97.2409 18.6344 90.1642 18.6494C84.7931 21.2758 88.2525 24.3056 87.4213 27.1182C88.1905 28.9605 81.6955 30.7552 76.1926 29.2349C71.077 28.3874 74.1238 26.3112 71.9666 24.9712C71.0645 22.417 71.4388 19.6699 76.0121 17.3254C73.7007 16.734 63.4831 15.4992 65.1734 17.3772C68.2277 18.8003 63.6 20.1373 64.674 21.6291C65.1619 23.8096 68.3715 26.0493 65.2578 28.2245C60.9514 29.8299 68.6263 30.55 73.0889 30.1031C82.6794 30.6503 91.1598 32.0777 100.309 32.977C105.327 32.4769 112.129 32.2226 113.91 34.023C118.002 35.1575 115.558 36.6727 115.511 37.9034C119.093 38.8483 122.811 41.4715 115.869 41.6654C119.975 43.1902 123.594 45.0324 121.944 47.0747C121.824 48.4851 118.661 51.3312 126.719 50.961C127.259 51.9201 117.41 51.3542 119.565 49.9741C118.936 47.7534 122.727 45.1616 117.2 43.289C115.693 42.6391 109.787 40.5646 114.368 40.465C120.175 41.7613 116.074 38.8704 113.531 38.3744C110.574 37.066 116.484 35.5105 111.198 34.3351C108.099 32.2691 98.5183 34.59 93.5007 32.9756C87.1077 31.9912 80.2138 31.2263 73.0958 30.7397C68.589 30.9435 62.3645 30.4391 62.2997 29.1033ZM72.5464 58.978C72.485 58.5829 76.2565 58.9565 77.5048 59.1677C89.671 61.057 101.919 63.2093 113.014 65.4441C115.629 64.1155 115.498 62.4251 115.683 60.9722C118.064 59.5936 124.835 59.5766 129.371 59.3106C134.647 59.2653 140.476 58.5452 145.554 58.9893C147.632 59.462 147.981 60.5915 150.136 60.883C154.831 60.6813 154.967 59.0176 158.708 58.3968C165.378 57.2799 173.429 58.0497 180.404 58.2687C189.179 58.6174 197.481 59.5851 206.113 60.0243C221.877 59.3819 236.316 56.9691 252.126 56.3545C259.035 55.3682 266.829 55.515 274.163 55.6937C284.365 55.7457 294.939 56.6698 305.128 55.8484C321.061 53.9726 334.416 50.1342 352.049 49.6451C357.815 49.4788 363.267 48.8677 368.648 48.2964C370.373 48.38 375.015 47.8127 373.19 48.3399C372.703 48.5767 376.479 47.3041 376.456 48.4646C374.966 49.7042 368.713 49.2217 365.605 50.0159C354.97 51.2164 342.995 51.1231 333.128 52.9841C322.54 54.5245 312.915 57.103 300.891 57.5661C286.452 57.9128 272.174 56.504 257.787 57.2472C250.21 58.2664 241.573 58.1529 233.968 59.2047C223.981 60.0024 213.958 61.5851 203.479 61.415C190.188 60.4639 176.883 58.996 162.861 59.1242C157.616 59.3306 157.29 61.5321 151.801 61.6537C150.799 62.102 147.167 61.8507 146.163 61.2587C144.331 60.7362 143.439 59.7431 140.143 60.1531C133.457 60.5421 125.791 60.2916 119.714 61.2998C118.67 62.9398 118.841 64.8909 114.759 66.226C110.74 66.9372 108.042 65.2101 104.81 64.9115C94.8744 62.8781 83.4061 60.8115 73.0178 59.2824C72.7043 59.1499 72.5597 59.0505 72.5464 58.978ZM76.5296 87.2235C76.9934 86.5415 79.0482 86.9525 80.18 87.0789C86.4898 87.1018 93.8571 85.9194 99.2248 87.3389C103.471 88.1097 107.077 89.8162 113.026 89.3518C123.147 90.009 134.125 90.0969 143.007 91.7569C147.465 92.489 152.76 92.9228 157.69 93.1316C157.659 93.319 158.166 93.0309 158.458 93.344C154.878 93.9724 150.037 93.3292 146.449 92.9725C139.06 91.9074 131.687 90.7358 123.131 90.561C118.313 90.4236 113.815 89.8062 108.871 90.0215C101.866 89.5135 97.9756 86.7912 89.7784 87.3501C85.6915 87.4295 79.7173 88.4904 76.5797 87.367C76.5285 87.3218 76.5243 87.272 76.5296 87.2235ZM91.1371 96.5213C91.1715 96.3863 91.7189 96.2148 91.62 96.2307C95.6968 94.967 102.668 95.0971 108.036 95.2837C118.035 96.2882 128.595 97.1734 138.193 98.3316C142.5 99.1515 147.099 100.395 152.738 100.223C158.123 99.7597 161.51 97.9287 167.499 98.0157C168.722 98.0496 167.265 98.7707 168.302 98.5898C168.479 97.8624 169.665 98.6302 168.407 98.8713C166.753 99.1719 163.769 99.0079 162.136 99.5707C157.919 100.705 151.668 101.721 146.205 100.829C142.609 100.372 137.122 99.4576 135.564 98.8393C126.745 97.7548 116.313 96.8251 106.754 95.9276C101.716 95.736 96.4145 95.9498 91.8783 96.6761C91.2812 96.6691 91.1174 96.6023 91.1371 96.5213ZM104.965 8.3469C104.855 8.09101 107.275 8.20065 106.773 8.15227C106.773 8.15227 106.759 8.14434 106.74 8.13917C107.444 8.24323 111.854 8.31913 113.688 8.25881C124.551 8.11247 135.413 7.69292 146.234 7.93332C152.224 7.60981 157.635 6.41771 163.957 6.59127C171.799 6.70254 179.549 5.7919 187.353 6.29256C196.574 6.66745 206.055 6.88742 215.43 6.61191C219.083 6.2088 224.377 5.37195 227.124 6.57767C226.627 6.84149 223.207 6.5664 221.707 7.00264C214.412 8.47093 205.481 7.74967 197.407 7.81589C188.604 7.49568 179.639 6.97939 170.721 7.62142C164.115 7.62189 157.302 7.61652 151.253 8.60423C143.697 9.46162 135.705 8.46905 127.933 8.88732C120.589 8.78408 112.482 9.32713 105.508 8.5873C105.147 8.48354 104.988 8.40452 104.965 8.3469ZM116.267 104.205C116.599 103.554 119.974 103.663 120.348 104.25C121.42 104.681 120.23 105.106 119.417 105.465C119.28 105.977 121.239 106.151 122.606 106.259C126.824 106.659 131.395 106.579 135.785 106.724C139.232 106.696 142.62 106.853 145.913 107.092C148.812 107.278 151.782 107.455 154.807 107.367C155.148 107.939 152.583 108.177 151.023 108.074C146.985 107.983 143.157 107.563 139.071 107.561C132.213 107.433 124.952 107.522 118.737 106.621C117.507 106.431 116.34 106.087 116.481 105.649C117.375 105.177 117.631 104.588 116.267 104.205ZM147.557 26.1496C147.492 25.5931 149.917 24.8803 152.246 25.2211C154.079 25.2469 156.076 25.3975 157.815 25.3975C160.149 25.286 162.737 24.6791 164.939 24.5327C166.956 24.9939 164.295 26.2046 167.946 26.3977C170.636 26.7831 172.502 27.7009 175.259 27.9872C179.845 27.4596 183.561 28.1689 186.546 29.022C189.292 29.0339 195.056 28.6954 195.465 29.8969C198.656 29.204 203.151 28.0165 207.415 28.8625C210.538 29.2445 214.172 30.1027 217.646 29.3435C220.631 29.0204 223.32 29.8485 225.024 30.1611C229.59 28.884 236.28 30.635 241.93 29.9275C248.278 29.4601 248.547 31.9055 252.457 32.4807C257.053 31.0202 263.885 31.8828 269.646 31.3881C275.521 30.7307 281.994 31.3481 287.48 31.4056C290.141 30.2515 296.029 30.9439 299.863 30.7393C315.65 31.3551 329.728 28.4766 344.384 27.2109C353.113 26.6234 362.146 28.236 370.534 27.0519C376.295 26.0565 374.228 23.8286 373.017 22.3774C370.394 20.6871 371.515 18.8472 372.255 17.0585C371.597 14.1032 370.988 11.0048 366.739 8.30926C365.543 7.65065 364.002 8.80741 362.598 9.00839C358.744 9.33698 360.432 10.5919 360.842 11.3533C362.462 12.7381 364.365 14.1105 364.08 15.6372C364.172 17.8839 369.632 20.2916 364.948 22.4584C362.219 23.4746 357.889 24.1987 353.757 24.5424C349.516 24.0945 347.511 22.621 346.721 21.4222C348.879 18.4579 346.733 15.3627 343.035 12.6343C341.892 11.78 338.558 10.5927 335.014 11.3554C332.966 12.7936 336.236 14.3153 337.193 15.6939C339.12 18.3217 342.319 21.0919 340.134 23.8277C338.257 24.7714 336.962 25.7599 335.953 26.7938C333.449 28.2719 326.52 27.7039 323.942 26.6471C318.662 25.3182 319.231 23.2096 319.972 21.3604C317.935 18.8844 312.859 16.6946 309.843 14.3141C308.938 13.7021 308.295 12.7468 305.23 13.1004C301.912 13.014 299.81 13.8215 299.716 14.6934C299.865 16.0081 296.619 17.0299 295.383 18.2237C295.973 19.648 302.254 20.1235 303.367 21.5247C304.681 22.6141 304.905 23.971 308.796 24.5869C310.892 25.5184 310.545 27.0915 307.55 27.9034C306.211 28.2504 301.159 27.9863 301.541 27.9391C298.498 28.4499 294.3 28.7244 291.992 27.8127C289.799 27.2187 289.191 26.5255 285.884 26.657C281.52 26.6358 275.562 26.6763 274.055 25.2243C269.074 24.164 273.561 22.8002 275.129 22.9676C275.543 22.5781 273.71 21.6828 272.586 21.2778C269.332 20.0116 272.276 18.3295 275.414 17.3061C273.734 16.6622 272.009 15.2906 276.052 14.9721C278.166 14.7244 281.529 15.0526 282.994 14.8294C281.695 14.0453 279.107 13.0304 275.653 13.6467C272.421 14.2269 268.241 13.8053 265.415 14.6355C260.656 15.9335 262.524 18.3386 256.297 19.3161C254.039 20.6341 256.707 22.1678 258.367 23.3732C260.364 24.7472 265.126 25.6282 265.696 27.2088C267.165 27.9264 266.279 28.9415 262.295 28.6214C252.255 29.1504 248.677 25.7841 244.494 23.9412C241.17 21.8252 241.927 19.335 238.49 17.2324C237.608 16.3065 241.126 15.38 239.951 14.5166C236.247 13.5635 231.27 14.9958 226.968 14.5608C224.522 14.5914 220.961 13.9612 220.649 14.9619C219.603 16.7512 224.059 18.1766 224.971 19.8572C227.347 20.9296 230.826 21.8124 232.449 23.0492C234.836 24.4217 237.891 26.1369 235.917 27.7344C232.843 28.9361 227.489 27.9714 225.374 27.067C222.135 26.187 219.893 24.8223 216.563 24.0752C211.985 23.9002 206.546 23.8341 202.326 24.0307C203.556 25.0187 201.832 26.1506 198.03 26.4046C194.155 26.8639 189.47 27.0441 186.589 26.0498C184.05 25.1796 182.463 23.7984 177.69 23.7736C173.702 23.4724 168.919 23.9335 165.379 23.5225C165.071 22.4477 170.754 22.9809 173.361 22.8381C179.598 22.6627 185.678 23.4795 187.977 25.1679C190.475 26.2861 195.962 25.9142 199.336 25.245C200.902 24.8215 197.068 23.2857 201.27 23.0583C207.15 22.8154 213.414 22.7137 219.123 23.0797C224.518 24.1529 225.942 26.6759 232.354 27.2859C234.337 26.4931 230.175 24.0672 228.211 23.1356C226.098 21.6633 220.71 20.7622 220.372 19.0471C218.481 17.4943 215.317 15.7493 218.054 14.0614C221.404 12.5754 227.817 13.9297 232.446 13.2508C237.181 12.4658 245.025 13.1437 244.465 14.8982C243.998 15.8723 240.996 16.8942 243.605 17.7986C246.296 20.1395 245.414 22.8679 251.043 24.87C253.27 25.8984 255.327 27.794 260.897 27.4629C261.733 27.1981 260.393 26.2907 258.959 25.9227C254.038 24.0542 249.656 21.5311 252.124 19.0762C253.394 18.1848 257.76 17.953 257.501 16.8185C258.821 14.8337 263.863 12.5877 271.775 12.7615C275.608 12.2218 281.548 11.705 283.836 13.0799C286.349 13.7579 289.269 15.4072 284.617 15.9948C282.452 16.1839 279.319 15.8868 277.718 16.0913C279.896 16.8725 279.935 17.9811 276.702 18.5991C272.891 19.6822 275.814 21.0704 277.885 22.0789C279.091 22.7388 278.285 23.7731 275.405 23.9417C276.633 24.7548 277.977 25.6339 281.407 25.4324C286.105 25.3288 291.714 25.3944 294.017 26.7557C295.06 27.2652 297.07 27.491 298.679 26.9688C300.331 26.3869 303.593 26.8952 304.997 26.6228C305.441 26.0393 305.614 25.3375 303.181 25.1352C298.493 23.8563 300.175 21.4853 294.022 20.4943C289.913 19.5699 289.063 17.7917 292.632 16.5726C296.338 15.2294 294.046 12.9124 300.417 12.115C304.654 11.6302 311.4 11.3873 312.943 12.9479C317.225 15.6067 322.212 18.2821 324.125 21.1981C324.213 22.6292 321.851 24.375 326.391 25.4239C327.573 25.7153 329.699 26.462 331.456 26.167C332.037 25.0705 334.356 24.1489 335.609 23.1218C336.598 19.7139 332.158 16.5064 329.744 13.2674C328.487 11.7911 331.151 9.88453 337.171 9.7518C344.918 9.50071 348.393 11.9933 349.845 13.7366C352.022 16.2393 351.991 18.9665 350.731 21.5025C351.48 22.1296 352.637 22.9906 354.514 23.2743C358.979 22.6376 363.705 21.3668 361.761 19.8334C359.482 17.6576 359.296 15.3635 358.014 13.1337C356.469 11.7844 354.23 10.1371 356.87 8.75437C358.65 8.06878 362.023 7.89752 362.842 7.038C365.911 5.87271 371.035 6.85877 372.057 7.92844C376.024 10.9944 377.462 14.3679 377.354 17.6706C375.897 19.3029 376.556 20.9284 378.508 22.4604C384.117 25.8746 373.279 30.006 360.022 28.928C352.879 28.6126 345.125 28.2312 338.355 29.3909C325.58 31.0076 312.056 32.7926 297.971 32.2297C295.538 32.3301 292.167 31.893 291.339 32.7661C287.377 33.4929 282.554 32.5628 278.265 32.6148C272.183 32.4238 266.234 33.3458 260.077 33.1018C256.382 32.967 252.523 34.9821 249.029 33.7953C246.464 33.1367 244.769 32.073 242.783 31.4015C239.018 31.7425 234.531 31.4589 231.414 31.4147C231.395 32.6478 226.168 32.5242 223.946 31.9077C221.87 31.7203 220.76 30.8629 218.641 30.7984C213.401 31.7962 208.319 30.4301 203.617 29.9994C200.503 30.5406 197.376 31.4212 193.477 31.0612C191.569 31.0254 191.266 30.3369 190.714 30.0966C186.492 30.4587 182.846 29.8093 180.388 28.9248C177.38 28.734 173.343 29.4334 171.177 28.4919C168.039 27.7319 163.295 26.9221 162.338 25.8651C159.952 26.4914 154.163 26.168 153.627 26.1375C157.433 26.8229 156.041 28.4734 156.179 29.5796C155.638 30.0404 154.655 31.3122 152.506 30.9062C152.788 30.039 154.367 29.2978 153.347 28.4596C153.573 27.6226 153.27 26.5344 149.441 26.6971C148.134 26.6225 147.587 26.4023 147.557 26.1496ZM152.626 14.8668C154.891 13.76 160.626 14.2522 164.134 14.2652C168.248 14.2313 172.268 14.3235 176.271 14.5424C183.976 14.7427 190.483 12.6544 198.082 13.0119C201.026 13.3864 204.431 12.9039 207.391 12.7156C208.597 12.5046 212.331 13.6848 208.14 13.8448C204.145 14.0686 199.881 14.4877 196.03 13.9912C189.472 14.2967 183.417 15.524 176.563 15.3428C172.507 15.1796 168.58 14.8724 164.394 14.9421C161.465 14.8891 157.29 14.5078 154.769 14.9646C156.6 16.0107 159.935 16.7281 164.176 16.7332C175.547 17.0713 187.282 17.1658 198.679 16.7956C204.076 16.4705 210.735 16.4021 215.016 17.4525C217.702 18.5512 212.261 19.5014 209.564 20.1081C202.489 21.6749 193.05 21.4478 185.712 20.4279C180.917 20.3414 176.098 20.2632 171.327 20.1818C165.865 20.435 159.519 21.1433 154.467 20.4997C153.888 20.1183 155.386 20.2878 155.11 20.1764C158.715 19.9003 163.418 20.1547 167.275 19.6377C173.074 19.0632 178.978 19.672 184.876 19.4935C190.361 19.7246 195.607 20.7201 201.443 20.156C205.524 19.829 209.92 19.0207 212.112 18.0655C207.677 17.3371 202.08 17.4652 197.168 17.7434C184.216 17.6177 169.9 18.3224 157.739 16.7884C155.572 16.2991 153.535 15.5837 152.626 14.8668ZM159.204 29.8711C159.232 29.4468 160.242 29.1505 162.966 29.3658C168.468 29.341 170.783 30.8448 172.674 32.0437C176.213 33.0537 175.97 34.5167 176.581 35.8398C177.497 36.3212 178.961 36.1855 180.196 35.8638C182.095 35.543 184.994 36.5237 186.342 35.8764C186.804 34.9292 186.045 33.3762 190.955 33.3592C193.717 33.1852 197.275 33.6566 199.355 33.5075C200.867 32.4923 206.028 33.019 208.464 33.399C211.122 33.712 214.703 34.7283 211.229 35.47C210.581 35.8 214.05 35.5039 214.866 35.2784C219.954 34.0063 227.452 33.731 232.866 34.8257C238.195 35.4393 236.114 37.3665 238.49 38.5358C240.848 39.5896 244.092 40.4535 244.302 41.8294C246.29 43.1268 246.416 44.8684 250.148 45.879C252.466 46.2724 254.794 47.0547 257.328 46.26C262.051 45.2463 267.308 44.3749 273.284 44.4337C281.807 44.1069 290.8 44.6888 299.09 43.8666C314.874 41.4419 332.853 41.1011 350.094 40.7711C356.144 40.5519 362.416 40.1068 367.324 39.0037C369.643 38.8627 371.986 39.1724 373.925 38.6049C375.772 38.2523 380.411 38.0054 379.564 38.9083C377.377 39.3305 374.717 39.7053 372.506 40.1385C370.333 40.251 368.13 40.0447 366.548 40.6366C352.064 42.9045 335.187 41.8174 319.867 43.0741C312.217 43.4708 305.205 44.504 298.067 45.3367C287.866 45.9186 277.204 45.3117 267.135 45.9111C262.564 46.4036 258.504 47.8394 253.361 47.8186C249.245 47.1204 244.541 46.4232 243.571 44.9142C240.812 43.1366 240.686 41.0006 235.864 39.563C232.55 38.6192 234.024 37.1415 232.005 36.0625C228.217 35.1346 222.318 34.9322 218.183 35.9422C214.879 36.6242 208.239 37.1176 206.278 35.8657C205.797 35.1898 210.824 34.7489 207.329 34.3885C205.757 34.1539 202.336 33.506 202.293 34.4284C199.53 35.1301 195.718 34.1715 192.397 34.3153C190.48 34.1854 189.498 34.5446 190.065 35.0916C190.632 36.1245 187.631 37.417 183.63 36.9705C181.757 36.7661 180.894 36.5198 179.182 36.9771C173.663 37.2713 172.726 35.303 173.078 34.1524C172.315 32.9776 168.892 32.1602 167.744 31.0205C166.936 30.5327 163.716 29.9916 162.632 30.2591C165.939 31.7723 163.855 33.5676 163.389 35.2268C163.275 35.7422 164.569 36.5168 163.389 36.8796C158.042 35.2782 164.188 32.7618 160.574 30.9168C159.75 30.6108 159.181 30.2011 159.204 29.8711ZM161.761 40.7588C161.788 40.0371 162.689 39.3664 165.148 38.983C170.527 38.5141 174.997 39.9245 179.862 40.095C182.457 39.69 185.602 40.5804 187.021 39.3846C190.124 38.1772 196.142 37.8534 199.793 38.9255C202.257 39.6914 206.046 39.7808 209.305 39.2797C214.019 38.682 221.686 38.4345 224.029 40.0013C222.508 42.2305 231.203 43.4133 231.621 45.5259C232.531 46.9642 231.684 48.6545 233.448 49.4456C234.587 50.5611 228.223 50.419 228.606 49.4013C227.027 47.1842 228.589 44.6005 222.383 42.8887C220.662 42.1052 219.747 41.1178 219.912 40.2358C213.76 39.1115 206.373 41.6239 200.181 40.3681C197.59 39.9683 194.354 38.7463 191.184 39.6584C188.521 40.2512 185.929 41.5688 182.138 40.8886C180.828 40.6969 179.031 41.1794 177.197 40.7996C173.679 40.5041 169.22 39.3601 165.51 39.7867C162.753 40.7938 164.591 43.7402 169.484 43.0518C172.975 42.4795 177.067 41.9411 180.693 42.6621C183.155 42.8574 186.306 43.593 187.891 43.5381C192.303 43.0097 195.522 41.5359 200.878 41.9205C209.506 41.5064 216.583 43.1321 217.223 45.5761C218.502 46.8031 214.029 48.1654 209.686 47.6096C205.204 47.3366 201.185 45.9563 196.289 46.4227C192.661 47.0853 191.826 48.5991 187.322 48.9832C180.574 49.8466 175.739 47.4725 172.887 46.4469C171.017 46.3663 167.241 46.8232 166.737 47.2742C168.881 47.3155 171.235 47.835 168.003 47.9819C164.902 48.2525 162.418 47.1408 165.382 46.5621C168.362 45.7706 174.346 45.0972 176.527 46.4262C178.633 47.258 182.519 48.7945 186.77 47.9165C190.225 47.1374 190.883 45.5514 195.678 45.1924C201.929 44.5861 206.724 46.316 212.479 46.415C213.818 45.6144 211.393 44.6878 210.282 43.992C209.05 43.1722 205.699 43.4159 202.839 43.1644C199.985 43.1254 197.05 42.8141 195.096 43.4625C191.922 44.2817 186.924 45.1261 183.272 44.1213C180.685 43.8022 177.634 42.8703 175.234 43.0458C171.867 43.5629 166.049 44.505 164.011 43.0709C162.814 42.4607 161.728 41.5761 161.761 40.7588ZM162.984 87.7765C162.88 87.355 167.37 87.4044 169.043 87.463C177.864 87.4721 185.963 88.5106 194.522 88.8402C204.224 88.6419 213.382 89.6245 222.549 90.2665C231.889 91.3063 237.385 93.8913 246.012 95.2121C253.144 96.0848 260.863 96.6658 268.561 97.0075C269.716 97.143 274.068 96.9099 271.35 96.5747C265.015 95.8804 256.514 96.6175 251.714 94.9388C247.597 93.8866 245.675 91.7756 239.485 91.5441C236.647 91.7808 231.931 91.365 232.091 90.4575C234.448 90.7899 236.997 90.7272 239.585 90.5941C249.895 90.7135 250.575 95.0279 260.842 95.1828C265.885 95.381 273.488 95.0117 276.066 96.5813C276.183 97.86 270.597 98.2532 267.125 98.0191C255.835 97.2642 242.948 96.7246 235.267 94.0166C229.315 92.3235 222.445 90.6888 213.622 90.4483C206.905 89.8335 199.988 89.4686 192.84 89.5611C183.354 88.9293 173.904 87.9862 163.887 88.1476C163.282 87.9953 163.011 87.8731 162.984 87.7765ZM165.526 50.4221C165.542 50.2954 165.788 50.1662 166.349 50.0443C168.927 49.8898 166.22 50.5693 167.229 50.3241C167.234 50.312 167.244 50.3226 167.258 50.3036C167.682 50.2021 172.592 50.9186 174.872 50.9827C180.768 51.4556 187.729 52.0987 193.254 50.8071C199.533 49.397 208.1 48.1894 215.61 49.3272C217.61 49.148 220.529 49.2993 221.034 49.9547C218.339 50.0082 215.852 50.7822 213.07 50.2647C205.512 49.1893 198.506 51.2669 191.885 52.102C184.455 53.0576 176.781 51.8556 169.719 51.3388C168.286 51.2979 165.465 50.8723 165.526 50.4221ZM177.447 94.847C178.286 93.8593 183.249 95.2725 185.202 95.5123C189.247 95.8116 193.511 95.9456 197.574 96.2675C201.216 96.4648 204.851 96.8574 208.624 96.6656C215.07 96.7517 219.374 98.2689 224.46 99.1665C230.16 100.37 234.13 102.29 241.086 102.97C248.484 103.604 257.489 103.141 263.494 104.742C269.5 105.494 277.666 105.163 281.823 106.85C283.652 107.665 289.501 108.538 288.589 109.364C284.972 108.987 283.006 107.806 279.972 107.123C277.146 106.276 273.159 105.851 269.026 105.841C263.154 105.748 259.334 104.276 253.603 104.147C245.859 103.798 236.455 103.79 231.568 101.782C225.061 100.126 218.725 98.2315 210.11 97.4718C202.969 97.8025 196.464 96.7695 189.511 96.6136C185.212 96.3346 179.597 96.0282 177.447 94.847ZM178.662 104.223C178.608 104.012 179.19 103.75 179.341 103.626C179.897 103.173 181.358 104.073 182.17 104.216C186.895 105.482 193.563 105.902 199.096 106.811C207.925 107.317 217.413 107.402 225.023 108.902C228.414 109.603 233.737 109.641 237.014 109.181C234.321 110.782 227.28 110.1 223.418 109.42C215.936 107.899 206.376 107.974 197.793 107.323C191.889 106.34 184.45 105.887 179.665 104.505C178.951 104.457 178.694 104.349 178.662 104.223ZM181.574 73.7382C181.575 73.6871 181.58 73.6345 181.595 73.5832C182.663 73.5124 183.016 73.872 183.277 74.0952C183.738 74.494 184.024 74.9714 185.319 75.2198C187.431 75.9855 191.165 76.3608 194.59 76.1365C196.642 76.0039 198.438 75.5631 199.197 74.9976C199.963 74.6541 199.732 74.2071 198.842 73.922C197.559 73.4757 195.7 73.2186 194.039 72.9042C192.351 72.8997 190.627 73.1674 188.974 73.0077C188.344 72.9365 188.079 72.7402 188.062 72.556C188.673 72.1752 190.286 72.1428 191.537 72.1319C192.491 72.1188 193.469 72.1298 194.401 72.0483C197.671 72.2846 200.188 72.9935 202.032 73.7649C202.984 74.3683 202.468 75.1141 200.986 75.6417C198.734 76.4684 194.741 76.9519 191.25 76.6708C188.939 76.4833 186.719 76.1831 184.951 75.7204C182.996 75.2248 181.57 74.5108 181.574 73.7382ZM183.572 101.195C189.65 100.965 194.826 102.311 199.721 103.103C202.521 103.781 206.384 104.375 208.803 104.995C206.778 105.702 203.914 104.499 201.96 104.255C196.502 102.955 190.644 101.596 183.572 101.195ZM228.926 69.7201C234.318 68.5969 239.853 70.9755 245.97 70.586C255.614 70.5889 265.103 71.0012 274.723 71.0245C279.683 71.0514 284.784 70.751 288.594 69.7243C296.097 68.5997 304.297 70.3451 312.015 69.3177C319.084 68.7509 326.81 68.6858 333.06 69.7955C338.541 70.378 344.007 69.297 349.38 69.0596C359.313 69.2854 369.056 67.5644 374.949 65.2944C375.898 65.023 376.501 64.0608 377.045 64.1868C377.528 66.3565 370.035 67.8647 364.053 68.814C359.138 69.7342 353.416 69.7439 347.913 69.84C341.674 70.6333 334.155 71.1484 328.229 70.0109C319.036 68.7959 309.076 71.0253 299.61 70.2345C294.528 69.7769 289.252 70.1694 285.281 71.2328C273.527 72.4535 261.274 71.1263 249.352 71.3084C243.738 71.3438 238.349 70.9999 233.585 70.2051C232.059 70.0535 229.972 69.9281 228.926 69.7201ZM245.789 59.9928C252.388 59.4002 257.325 61.4623 264.15 60.8444C271.942 60.4165 279.761 60.4082 287.444 60.8092C294.434 61.0267 300.773 59.7263 307.774 59.743C315.073 59.5641 322.249 59.0756 328.922 58.1497C334.234 57.8538 338.918 56.9751 344.104 56.6146C350.482 56.4201 357.324 56.7468 363.026 55.6081C368.03 55.1122 373.452 54.2457 378.73 54.4831C378.982 55.4575 373.409 55.1278 370.897 55.6235C364.331 56.2467 358.447 57.6714 351.237 57.4429C346.597 57.3318 342.033 57.59 337.907 58.2594C331.522 58.6545 325.985 59.7214 319.758 60.2279C310.677 60.7721 301.357 60.8532 292.405 61.5965C283.851 61.7514 275.463 60.8749 266.883 61.5805C260.691 61.9493 254.46 61.6415 249.19 60.7284C247.88 60.5528 247.005 60.2097 245.789 59.9928ZM257.061 41.1726C257.071 41.1469 257.09 41.1184 257.123 41.0844C256.947 40.4524 260.631 39.8511 262.394 39.3918C270.885 37.7799 282.586 39.2638 290.513 37.2274C296.31 36.0109 303.636 37.28 309.567 37.1428C316.876 36.0903 325.473 36.7721 332.886 35.7157C340.826 35.0008 347.953 33.4752 356.12 33.0512C360.979 33.339 367.072 32.5217 370.488 31.9072C370.04 32.0412 371.395 32.3953 370.891 31.6255C373.948 30.708 376.194 32.5343 372.7 32.9612C367.587 33.9643 361.341 34.5746 355.274 34.2476C343.787 35.1369 333.356 37.4145 321.153 37.5095C317.057 37.5217 312.734 37.7235 309.262 38.3359C304.204 38.1796 298.744 37.4381 293.675 37.8283C289.24 38.7702 284.023 39.399 278.504 39.2867C272.022 39.1606 264.343 39.1768 259.801 40.844C259.483 41.087 256.925 41.5549 257.061 41.1726ZM257.767 89.3776C257.768 89.2834 257.896 89.1891 258.141 89.1138C266.069 88.6817 274.515 87.8025 282.395 88.659C297.009 89.4652 309.388 92.0548 319.115 95.1188C326.216 96.3001 326.995 98.9027 331.762 100.615C336.068 101.188 341.568 101.306 346.279 100.902C347.317 100.6 350.589 100.615 349.359 101.279C345.194 102.455 338.565 101.934 333.555 101.757C326.463 101.427 325.739 98.9392 322.553 97.4947C320.152 96.0968 314.87 95.4153 311.885 94.1327C302.621 91.7044 291.367 89.8307 278.64 89.2745C271.915 88.6047 264.837 89.9172 258.145 89.6306C257.892 89.562 257.766 89.4705 257.767 89.3776ZM285.916 99.5268C285.882 98.8287 286.45 98.0647 288.358 97.6752C291.06 97.4857 294.176 97.573 296.608 97.5102C299.319 97.6638 296.619 98.6245 294.324 98.2416C291.93 98.2663 288.129 97.9994 288.465 99.0644C287.408 100.236 290.207 101.377 293.889 101.753C294.934 102.049 299.181 102.342 298.397 102.714C300.884 102.722 296.434 103.343 295.489 102.844C291.438 102.266 287.035 101.579 286.12 100.185C286.005 99.9835 285.928 99.7596 285.916 99.5268ZM289.754 87.3758C289.736 87.2817 289.939 87.227 290.606 87.2884C297.963 88.2893 306.105 88.8132 313.348 89.8785C328.74 93.8782 345.153 97.7349 364.111 100.326C367.366 100.569 370.878 99.7717 373.931 100.113C369.366 100.85 363.321 101.145 359.053 100.159C341.835 97.5893 326.796 94.0433 312.209 90.4535C305.338 89.3249 296.036 89.4058 290.333 87.7598C290.145 87.6797 289.771 87.4954 289.754 87.3758ZM292.905 76.9078C292.944 76.7984 293.274 76.7221 294.035 76.7394C294.12 76.7385 294.209 76.7281 294.261 76.7154C296.488 76.8447 300.093 77.8822 303.674 77.6226C309.637 77.5403 319.505 76.8583 321.992 78.9686C322.002 79.7411 320.456 80.4402 320.946 81.2061C318.179 82.6495 310.99 83.021 306.306 82.2738C304.367 81.9812 298.567 81.8249 300.369 80.8524C302.649 80.5329 304.143 81.4695 306.654 81.4396C315.511 83.2626 321.432 79.3919 317.378 78.6729C310.567 77.6499 301.019 79.1346 295.099 77.5058C294.055 77.5024 292.991 77.1828 292.909 76.9562C292.9 76.9402 292.9 76.924 292.905 76.9078ZM315.438 87.6256C315.467 87.5458 315.637 87.4659 315.991 87.3867C315.299 87.8599 316.891 87.6542 316.475 87.4407C317.363 87.0528 320.819 88.2562 321.262 87.324C325.768 86.3746 330.832 87.644 333.926 88.5014C337.554 89.4862 339.028 90.9574 342.26 91.999C348.79 92.9617 354.115 94.4476 360.522 95.4494C364.292 95.932 368.686 95.7133 372.605 95.9008C372.894 96.9489 367.244 96.4517 364.521 96.488C355.298 96.2572 349.753 93.8477 341.734 92.8446C337.055 91.9937 336.38 90.1679 332.424 89.0937C330.259 88.4443 327.002 87.4918 323.575 87.7915C324.346 88.6566 320.793 88.9214 318.88 88.4065C317.758 88.2921 315.307 87.9688 315.438 87.6256ZM344.791 77.3493C344.785 77.0883 344.943 76.8295 345.387 76.5824C346.466 76.0417 348.813 75.9381 350.745 75.9588C351.62 75.9534 352.523 75.953 353.361 75.8591C354.543 75.2944 356.276 74.6335 358.773 74.636C360.709 74.689 362.65 74.7567 364.529 74.9059C366.127 74.9599 368.912 75.2795 369.605 74.6731C370.679 74.158 373.434 73.7458 375.192 74.1668C376.308 74.4683 375.333 75.063 377.359 75.076C378.881 75.2129 380.858 75.4444 380.777 75.9945C381.194 76.5135 378.905 76.8533 377.965 76.3507C377.526 76.0877 377.934 75.8114 376.538 75.7862C375.035 75.6181 372.907 75.4097 372.881 74.8568C373.11 74.4963 371.665 75.1258 371.292 75.2577C370.545 75.5848 369.29 75.9497 367.825 75.8122C365.766 75.7431 363.651 75.6543 361.612 75.5029C360.057 75.4323 357.214 75.2775 356.694 75.8699C355.794 76.5083 353.155 76.6177 351.081 76.6456C349.397 76.6734 346.558 76.6329 346.968 77.3485C346.888 78.2256 348.895 79.0827 347.503 79.9565C346.264 80.5797 347.048 81.5025 349.288 81.8012C351.194 81.9932 352.954 81.5258 354.288 81.1749C357.666 80.2068 359.21 78.8185 363.023 77.9614C363.866 77.4004 365.264 78.1079 363.813 78.3431C359.828 79.3986 358.286 81.0493 353.664 81.9286C351.968 82.2351 349.722 82.4493 347.934 82.1376C345.198 81.6815 344.594 80.6194 345.337 79.7714C345.99 79.4023 345.905 79.0223 345.515 78.6429C345.237 78.2274 344.796 77.784 344.791 77.3493ZM378.563 82.1048C378.563 82.1062 378.592 82.1059 378.672 82.105C378.813 82.0994 378.563 82.1035 378.563 82.1048Z" fill="#9F6540"/>
<ellipse cx="12.4836" cy="3.78524" rx="12.4836" ry="3.78524" transform="matrix(0.999999 -0.00126987 0.0127214 0.999919 73.0376 4.58594)" fill="#86502D"/>
<ellipse cx="12.4836" cy="3.78524" rx="12.4836" ry="3.78524" transform="matrix(0.999999 -0.00126987 0.0127214 0.999919 295.66 4.30322)" fill="#86502D"/>
<ellipse cx="8.32243" cy="2.52349" rx="8.32243" ry="2.52349" transform="matrix(0.999999 -0.00126987 0.0127214 0.999919 299.84 5.5603)" fill="#AF9788"/>
<ellipse cx="8.32243" cy="2.52349" rx="8.32243" ry="2.52349" transform="matrix(0.999999 -0.00126987 0.0127214 0.999919 77.2095 5.84302)" fill="#AF9788"/>
<path opacity="0.5" d="M81.2198 2.27312C78.7815 1.1199 26.2254 1.87218 0.25217 2.39247C0.261183 8.5072 -4.64395 9.90512 -7.09764 9.83974L-7.05684 37.5206C-5.44649 39.4462 1.42924 43.3334 16.0493 43.4771C11.177 44.1454 -2.55919 46.672 -8.81826 47.8518C-8.88977 56.7346 -8.97576 78.7555 -8.74762 95.7768C1.007 101.216 2.77551 107.121 2.44043 109.394L10.5745 117.439C11.6743 117.437 49.3064 117.01 191.036 115.313C189.409 113.829 181.384 110.576 177.574 109.136C178.928 109.41 185.495 110.281 200.929 111.581C220.222 113.205 236.218 117.106 241.04 117.099C245.863 117.092 257.79 115.422 261.089 115.21C263.729 115.041 266.929 116.372 268.199 117.059L401.453 116.862L401.44 108.393C400.424 107.912 397.173 105.962 392.293 102.003C379.601 100.782 371.209 90.0524 364.607 88.4096C367.397 86.9595 399.124 86.7061 398.357 83.1955C397.591 79.6849 384.39 78.0517 381.337 73.5116C378.285 68.9715 389.707 69.1612 392.24 65.4392C394.772 61.7171 384.597 46.6522 384.34 44.5869C384.084 42.5215 388.396 40.8626 389.658 35.6964C390.667 31.5634 382.452 26.1357 378.218 23.9385L395.452 6.14778L388.338 1.82043L366.003 1.85335C360.929 3.99535 350.225 8.28018 347.991 8.28348C345.757 8.28677 342.992 3.19547 341.888 0.649402L294.932 0.718615C291.632 0.723479 289.096 1.96671 286.048 0.73171C283.001 -0.503293 281.734 0.73807 277.926 0.743682C274.119 0.749293 274.375 1.98841 271.075 1.99327C268.435 1.99717 267.943 1.17156 268.027 0.758272L260.921 0.768748L254.829 0.777727L248.737 0.786706C245.438 0.79157 244.93 0.792318 233.764 2.04827L190.869 2.1115L170.563 2.14143C167.602 1.73263 161.475 0.91533 160.663 0.916527L154.063 0.926254C151.424 0.930145 148.904 1.76019 147.974 2.17473C146.535 1.76368 142.54 0.94324 138.073 0.949824C136.042 0.952817 135.789 0.953192 132.745 2.19717C129.701 3.44115 129.953 2.20129 124.113 0.970401C121.827 -0.265723 119.544 0.977136 116.5 2.22112C113.456 3.4651 111.17 2.22897 109.14 2.23197C107.109 2.23496 105.079 2.23795 103.046 1.00145C101.014 -0.235045 96.9565 2.24992 94.6721 2.25329C92.3878 2.25666 84.2678 3.71464 81.2198 2.27312Z" fill="url(#paint2_linear_114_440)"/>
<defs>
<linearGradient id="paint0_linear_114_440" x1="199.891" y1="0.307818" x2="200.072" y2="122.599" gradientUnits="userSpaceOnUse">
<stop stop-color="#A06742"/>
<stop offset="1" stop-color="#824827"/>
</linearGradient>
<linearGradient id="paint1_linear_114_440" x1="196.14" y1="0.313347" x2="196.313" y2="117.165" gradientUnits="userSpaceOnUse">
<stop stop-color="#C79B58"/>
<stop offset="1" stop-color="#B4824C"/>
</linearGradient>
<linearGradient id="paint2_linear_114_440" x1="196.14" y1="0.313347" x2="196.313" y2="117.165" gradientUnits="userSpaceOnUse">
<stop stop-color="#DE792B"/>
<stop offset="1" stop-color="#A24E20"/>
</linearGradient>
</defs>
</svg>
