<svg width="1412" height="118" viewBox="0 0 1412 118" fill="none" xmlns="http://www.w3.org/2000/svg">
<path d="M1101.08 3.07504C1109.46 1.93908 1290.23 2.82122 1379.57 3.40428C1379.56 9.46117 1396.43 10.8587 1404.87 10.8003L1404.82 38.2192C1399.29 40.1225 1375.65 43.955 1325.37 44.0593C1342.13 44.7339 1389.38 47.2724 1410.91 48.4574C1411.19 57.2564 1411.56 79.0692 1410.83 95.929C1377.29 101.291 1371.23 107.136 1372.39 109.388L1344.44 117.336C1340.65 117.331 1211.22 116.81 723.73 114.76C729.32 113.293 756.913 110.093 770.011 108.676C765.354 108.944 742.771 109.79 689.689 111.037C623.338 112.595 568.331 116.418 551.743 116.398C535.156 116.379 494.128 114.693 482.779 114.475C473.7 114.301 462.697 115.611 458.331 116.288L0.000128382 115.746L0.0155459 107.357C3.50849 106.883 14.6866 104.96 31.4556 101.051C75.1084 99.8746 103.937 89.2685 126.639 87.6583C117.038 86.2146 7.91208 85.881 10.5375 82.4056C13.163 78.9302 58.5626 77.3469 69.0469 72.8577C79.5314 68.3684 40.2455 68.5266 31.5222 64.8331C22.7988 61.1397 57.7467 46.2438 58.6235 44.1986C59.5002 42.1535 44.662 40.499 40.3065 35.3783C36.8219 31.2818 65.0592 25.9269 79.6134 23.7615L20.2809 6.09407L44.7331 1.82618L121.558 1.91701C139.015 4.05198 175.848 8.32418 183.53 8.33327C191.213 8.34235 200.709 3.3064 204.496 0.787293L366.004 0.978234C377.353 0.991652 386.081 2.22974 396.559 1.01436C407.037 -0.201022 411.4 1.0319 424.495 1.04739C437.591 1.06287 436.715 2.2896 448.065 2.30302C457.144 2.31375 458.833 1.49724 458.543 1.08764L482.987 1.11654L503.94 1.14131L524.892 1.16608C536.241 1.1795 537.987 1.18156 576.397 2.45474L723.936 2.62917L793.777 2.71174C803.963 2.31452 825.033 1.52092 827.827 1.52422L850.525 1.55106C859.605 1.56179 868.275 2.39055 871.475 2.80359C876.423 2.40019 890.16 1.59792 905.525 1.61608C912.509 1.62434 913.382 1.62537 923.856 2.86552C934.33 4.10567 933.459 2.87687 953.541 1.67285C961.4 0.454371 969.255 1.69143 979.729 2.93158C990.203 4.17173 998.062 2.95325 1005.05 2.96151C1012.03 2.96976 1019.01 2.97802 1026 1.75851C1032.99 0.539004 1046.95 3.01105 1054.81 3.02034C1062.66 3.02963 1090.6 4.49499 1101.08 3.07504Z" fill="url(#paint0_linear_83_5006)"/>
<path d="M1106.65 3.00274C1114.88 1.91758 1292.41 2.76614 1380.14 3.32607C1380.13 9.11353 1396.7 10.4494 1404.99 10.3939L1404.94 36.5931C1399.51 38.4115 1376.3 42.0729 1326.91 42.1709C1343.37 42.816 1389.78 45.2431 1410.92 46.3761C1411.19 54.7836 1411.56 75.6262 1410.84 91.736C1377.91 96.8587 1371.96 102.443 1373.09 104.596L1345.65 112.188C1341.93 112.184 1214.82 111.682 736.084 109.708C741.574 108.307 768.671 105.25 781.534 103.896C776.961 104.151 754.783 104.959 702.655 106.149C637.495 107.636 583.476 111.287 567.186 111.268C550.897 111.249 510.605 109.637 499.46 109.428C490.544 109.261 479.739 110.513 475.452 111.159L25.351 110.627L25.3657 102.611C28.7959 102.159 39.7733 100.321 56.241 96.5866C99.1098 95.4642 127.421 85.3307 149.714 83.793C140.286 82.4132 33.1195 82.091 35.6977 78.7702C38.2758 75.4495 82.86 73.9381 93.1559 69.6488C103.452 65.3596 64.8715 65.5095 56.3046 61.9801C47.7377 58.4507 82.0572 44.2185 82.9183 42.2643C83.7791 40.3102 69.2073 38.7288 64.9297 33.8358C61.5074 29.9214 89.2375 24.8056 103.53 22.737L45.2623 5.85358L69.2752 1.77631L144.721 1.8655C161.864 3.90605 198.036 7.98937 205.58 7.99829C213.125 8.00721 222.45 3.19558 226.17 0.788643L384.776 0.976155C395.922 0.989331 404.493 2.17262 414.783 1.01163C425.073 -0.149358 429.358 1.02886 442.218 1.04406C455.078 1.05927 454.218 2.23141 465.364 2.24458C474.28 2.25512 475.939 1.47498 475.654 1.08359L499.659 1.11197L520.235 1.1363L540.811 1.16063C551.957 1.1738 553.671 1.17583 591.392 2.39358L736.281 2.56487L804.868 2.64596C814.871 2.26673 835.563 1.5091 838.306 1.51234L860.597 1.53869C869.513 1.54923 878.028 2.3414 881.171 2.73617C886.03 2.35086 899.52 1.58471 914.609 1.60255C921.468 1.61066 922.325 1.61167 932.611 2.79698C942.897 3.9823 942.042 2.80813 961.762 1.65829C969.481 0.494265 977.194 1.67654 987.48 2.86185C997.766 4.04717 1005.48 2.88314 1012.34 2.89125C1019.2 2.89935 1026.06 2.90746 1032.92 1.74242C1039.78 0.577379 1053.5 2.9399 1061.21 2.94902C1068.93 2.95814 1096.36 4.35919 1106.65 3.00274Z" fill="url(#paint1_linear_83_5006)"/>
<path fill-rule="evenodd" clip-rule="evenodd" d="M1347.41 101.159C1347.47 100.918 1345.92 100.731 1341.77 100.972C1319.01 101.716 1300.63 103.395 1282.68 104.748C1269.97 105.795 1250.78 106.783 1237.26 107.419C1226.04 107.894 1244.96 108.75 1251.72 107.875C1287.43 106.258 1310.35 103.401 1344.75 101.652C1346.32 101.571 1347.36 101.348 1347.41 101.159ZM1343.94 69.3194C1344.02 68.5248 1335.85 68.8631 1334.53 69.0058C1325.12 69.705 1321.59 71.1285 1309.76 71.8222C1296.99 72.5314 1293.48 73.997 1276.98 74.3137C1267.45 74.6353 1276.62 75.2384 1283.23 74.9885C1296.56 74.9145 1316.63 74.8866 1321.48 76.1153C1324.27 75.9705 1324.15 76.5522 1328 76.0166C1326.18 74.7485 1306.57 74.2813 1295.62 74.3058C1304.58 73.2266 1316.66 72.3453 1327.07 71.3519C1332.36 70.6498 1337.17 69.9216 1343.94 69.3194ZM1341.27 53.3487C1341.25 53.2888 1341.22 53.2326 1341.15 53.184C1341.3 52.0992 1336.26 50.2468 1318.56 50.3576C1303.86 50.5767 1291.77 51.5752 1277.43 51.6262C1262.77 51.4314 1243.7 50.5319 1233.34 51.8096C1224.46 52.2993 1215.37 53.122 1206.7 53.4328C1197.33 52.4773 1184.29 53.2646 1174.15 53.4539C1159.69 52.8841 1146.91 53.5843 1134.57 54.0494C1127.43 54.0897 1121.59 53.275 1113.68 53.1595C1089.73 52.3764 1066.99 53.8731 1045.09 54.2915C1029.23 54.8705 1009.47 55.0473 994.322 54.066C976.534 52.9777 956.509 51.9179 933.661 52.0639C913.717 52.1343 894.673 51.3737 880.932 50.1939C861.538 49.7849 843.494 50.8141 824.97 51.0454C798.521 51.6222 773.161 52.7866 745.709 52.9558C709.512 51.8062 675.328 49.8261 635.483 49.8716C583.612 49.4852 530.459 50.2697 479.316 49.1039C443.068 47.149 398.817 46.6783 358.088 45.7611C341.216 45.6216 326.615 46.585 309.221 46.1429C273.773 46.1325 240.29 44.9551 208.52 43.7052C185.543 43.0609 159.279 43.5314 137.591 42.5824C128.089 42.108 115.067 41.7666 104.872 41.7837C103.334 41.8441 108.337 42.2071 103.736 42.331C102.04 42.4048 104.301 41.4414 98.7328 41.9476C100.329 43.2237 123.33 42.9611 132.929 43.827C162.404 44.9025 197.391 44.1532 224.983 45.7451C259.152 47.0028 297.312 47.649 334.01 47.5355C348.378 47.0732 363.829 47.0123 378.863 47.5996C411.436 48.3379 445.828 48.8755 474.5 50.4562C538.966 51.962 606.111 50.4563 670.885 51.734C697.676 52.435 722.115 53.8173 749.484 54.3052C792.413 53.5964 831.472 51.9033 874.69 51.2758C893.649 53.0131 922.865 53.2176 948.849 53.2632C975.486 53.7075 994.316 56.1169 1023.27 55.8554C1051.56 55.6296 1075.4 54.1065 1103.71 53.9877C1114.99 54.0664 1121.45 55.0426 1131.92 55.1679C1146.47 55.1381 1157.16 53.7878 1172.48 54.4717C1183.12 54.7709 1192.88 53.4081 1201.54 54.3698C1214.93 55.1267 1223.25 53.4819 1233.6 53.1329C1241.81 52.7018 1247.8 51.7043 1259.58 52.2358C1273.62 52.6397 1289.36 52.7189 1300.66 51.8792C1307.74 51.7367 1319.43 50.6043 1326.72 51.3735C1334.11 52.5494 1335.37 54.0816 1328.44 55.2285C1335.41 56.2296 1341.42 54.2487 1341.27 53.3487ZM1342.48 85.0145C1342.54 84.4771 1334.34 83.6853 1332.94 83.2545C1318.03 81.5709 1329.71 79.0639 1309.02 77.6575C1287.64 76.9773 1267.93 78.3976 1248.08 78.7181C1244.76 78.7844 1240.1 78.8685 1237.23 78.7608C1228.92 78.2016 1221.88 77.0423 1208.23 77.1839C1187.89 77.254 1168.34 78.8839 1148.11 77.5609C1132.19 76.5753 1111.53 76.2698 1093.64 76.8754C1084.9 77.0714 1075.23 77.3567 1067.16 77.5145C1057.77 76.9704 1046.15 76.3477 1035.18 76.9097C1025.88 77.0513 1018.23 77.8285 1009.98 77.8989C989.214 77.449 967.887 78.2326 947.273 77.503C912.886 76.6954 885.537 79.5911 851.283 78.5649C819.21 77.668 788.768 79.1875 760.008 79.9479C720.525 81.3832 678.276 82.3864 633.889 82.4387C601.193 82.5344 570.838 83.509 545.4 85.0451C513.656 86.9457 478.419 88.5081 438.631 89.127C408.615 89.8494 374.153 90.2466 350.437 91.9702C339.089 93.225 336.514 94.9718 318.875 95.8408C291.509 97.2358 283.391 100.451 249.337 101.09C220.857 101.36 193.705 100.05 166.962 99.3556C148.963 98.878 138.875 97.3567 119.537 97.1326C104.304 96.3318 104.267 98.0298 113.841 97.9822C133.068 98.211 143.377 99.714 161.377 100.195C191.158 101.001 221.969 102.455 253.745 102.019C290.5 101.405 301.967 98.1598 330.471 96.6137C347.663 95.7137 351.671 94.0322 362.144 92.732C392.11 90.8552 432.976 90.5474 468.237 89.5406C517.805 88.4927 551.995 85.1518 599.902 83.8696C643.287 83.0593 690.296 83.4221 731.284 81.902C764.77 80.9813 796.383 79.3694 832.567 79.1228C852.305 79.4172 873.39 80.0186 892.128 79.2392C912.74 78.4503 936.312 77.8077 959.565 78.5856C977.573 78.9065 996.537 78.2107 1013.89 78.8807C1024.26 78.3929 1036.37 77.541 1048.55 77.6091C1057.89 78.1989 1070 78.7967 1080.09 78.1562C1098.54 77.7731 1119.99 76.8778 1138.04 78.0932C1152.89 78.9167 1171.95 79.2557 1187.51 78.5316C1197.78 78.1045 1215.66 77.5294 1223.36 78.6938C1231.77 79.8737 1249.97 79.5864 1261.78 79.0888C1275.73 78.8057 1290.87 77.7055 1306.32 78.2039C1321.57 79.7131 1312.33 81.9148 1326.73 83.4958C1333.12 84.1317 1332.79 84.9699 1339.12 85.4437C1341.53 85.3446 1342.46 85.194 1342.48 85.0145ZM1339.3 59.7081C1339.1 58.9252 1329.94 58.5055 1318.34 58.7721C1293.45 59.5332 1264.18 60.0585 1250.02 62.0299C1238.11 63.2087 1225.39 64.4366 1209.75 65.2852C1180.62 65.8888 1168.64 68.559 1146.35 69.7911C1132.73 69.5825 1117.09 68.3904 1103.4 68.9661C1092.05 69.8719 1079.17 68.475 1067.49 68.2674C1052.99 68.156 1041.02 69.0594 1026.67 69.16C995.673 69.708 959.135 69.4871 932.16 67.8568C912.071 66.0554 880.53 67.1401 857.183 67.4842C837.593 68.0324 816.391 67.6764 797.917 66.8708C777.298 66.0317 754.584 65.9654 732.804 66.1715C699.89 66.0268 676.944 68.2629 646.091 68.7515C604.384 69.4243 561.108 69.463 518.867 69.9261C472.053 70.0379 425.01 70.0152 378.092 69.9126C363.151 69.9957 346.738 69.4707 332.585 69.7887C321.277 70.5061 302.926 69.9749 289.194 70.0907C268.82 70.1378 248.124 69.7429 231.293 68.7182C200.92 67.4762 165.925 68.3771 135.318 67.2362C124.899 67.2104 106.29 66.5929 100.499 67.0817C95.9808 66.9014 96.0536 67.4749 100.575 67.7367C115.905 68.1952 133.357 68.4936 148.929 69.0499C179.08 69.5763 213.199 68.9753 239.305 70.7195C267.333 71.7283 298.788 71.5871 328.149 71.4966C338.433 71.3218 347.2 70.9553 358.249 71.2216C397.137 71.4502 436.031 71.4292 474.859 71.3824C473.703 71.4595 472.628 71.5586 471.68 71.6849C466.454 72.3936 462.251 73.2337 454.138 73.6562C450.049 74.5718 466.625 74.472 468.802 73.7848C475.087 73.3208 475.707 72.2442 483.876 72.0091C499.68 72.4274 511.971 74.194 500.315 75.3152C492.352 76.6364 471.394 77.1284 454.639 76.3982C447.818 76.2155 439.479 76.1952 433.965 75.7665C434.855 75.4196 434.755 75.6612 435.83 75.1902C420.753 75.0728 428.544 76.7331 440.803 76.6856C457.797 77.0727 478.029 77.769 493.264 76.7838C509.311 75.8463 522.137 73.8736 506.397 72.388C503.394 71.997 497.992 71.5942 492.169 71.3605C499.856 71.3516 507.542 71.3402 515.228 71.3326C558.219 70.9399 601.661 70.7107 644.327 70.1754C673.136 69.7999 695.458 68.1819 722.555 67.5184C744.946 67.456 768.339 67.0892 789.787 67.9952C811.665 68.9118 836.668 69.4098 859.972 68.7993C877.611 68.6755 897.279 67.7352 915.206 68.3909C947.984 70.8905 997.906 71.0159 1037.51 70.088C1047.4 69.9843 1056.64 69.3508 1065.95 69.329C1078.89 69.9643 1097.3 70.7773 1109.83 69.7537C1123.23 69.5653 1136.82 70.6338 1150.65 70.6305C1170.53 69.3917 1183.54 67.4871 1203.41 66.247C1225.09 65.8074 1237.29 64.1852 1252.17 62.9935C1262.36 61.8299 1272.77 60.5741 1291.72 60.2616C1303.87 59.9577 1317.26 59.1973 1330.02 59.2549C1336.16 60.2923 1326.27 61.4049 1313.65 61.6319C1277.57 63.442 1252.95 66.3723 1216.82 68.1848C1207.67 68.8811 1198.96 69.8326 1187.64 70.22C1188.44 71.1148 1202.71 70.4278 1207.13 70.0014C1225.32 68.3026 1251.36 67.3357 1269.64 65.6347C1287.75 64.0923 1307.81 62.6899 1330.96 61.6636C1336.79 61.2068 1339.27 60.5284 1339.21 59.8695C1339.28 59.815 1339.31 59.7604 1339.3 59.7081ZM1335.72 98.4052C1335.61 98.0889 1334.44 97.836 1331.95 98.3539C1319.94 98.2635 1311.78 99.0617 1301.79 99.4147C1274.77 100.815 1249.75 102.467 1220.63 103.604C1202.53 104.526 1186.91 105.723 1168.3 106.586C1163.38 107.024 1151.85 107.091 1152.07 107.819C1155.81 108.688 1169 108.116 1174.18 107.701C1193.22 106.732 1210.96 105.616 1229.23 104.561C1247.8 103.597 1268.16 102.849 1285.37 101.727C1301.67 100.759 1317.48 99.7357 1334.85 98.8885C1335.48 98.8069 1335.79 98.594 1335.72 98.4052ZM1333.27 92.6341C1333.4 92.5531 1332.79 92.4781 1331.2 92.4173C1313.07 92.5915 1293.86 92.5169 1274.93 92.5071C1218.53 92.748 1166.13 94.4386 1114.44 95.9751C1078.58 97.1326 1045.38 98.755 1016.58 100.787C994.048 101.906 967.468 102.407 944.261 103.415C912.198 104.191 876.487 104.341 848.572 105.905C852.26 107.805 877.727 105.459 891.896 105.527C918.775 104.969 947.096 104.692 971.554 103.611C998.261 102.743 1027.12 102.039 1047.4 100.332C1097.5 97.1602 1161.03 95.7822 1221.76 94.3055C1251.13 93.6087 1281.97 93.2027 1313.13 93.3739C1318.82 93.4427 1332.78 92.9838 1333.27 92.6341ZM1332.31 96.084C1330.05 95.6805 1327.08 96.2436 1323.52 95.9396C1271.16 98.0863 1214.6 99.4833 1159.15 101.069C1132.66 101.838 1109.69 103.13 1088.87 104.595C1076.6 105.154 1065.64 105.865 1051.34 106.04C1040.69 106.649 1056.63 107.491 1063.81 106.861C1076.87 106.636 1086.44 105.787 1098.57 105.355C1145.92 101.754 1214.77 101.109 1272.47 98.9652C1291.41 98.1713 1315.14 97.7318 1330.89 96.6174C1329.53 96.3587 1332.11 96.301 1332.31 96.084ZM1326.53 89.9384C1251.24 88.6652 1171.61 89.7346 1108.41 92.9025C1071.72 94.6249 1032.48 96.1134 989.095 96.5046C939.988 97.2103 892.073 98.3077 846.512 99.846C805.079 100.982 765.987 102.643 724.215 103.66C711.3 103.579 671.905 104.106 682.764 105.107C725.614 104.767 765.645 103.534 804.05 102.146C872.822 100.075 942.344 98.0626 1015.61 97.0682C1064.85 96.4433 1105.28 94.1402 1147.97 92.3438C1195.6 90.3204 1251.49 90.1871 1305.23 90.1271C1312.42 90.1151 1319.52 90.0415 1326.53 89.9384ZM1323.38 47.4105C1323.4 47.3799 1323.38 47.3455 1323.32 47.3083C1323.97 45.6484 1300.42 44.4184 1302.01 42.6907C1303.06 39.9584 1325.65 37.5873 1319.91 34.7603C1316.21 30.0124 1282.72 25.4897 1288.07 20.7178C1295 18.0041 1312.31 15.3325 1308.56 12.466C1303.4 11.6845 1290.29 11.4982 1280.62 11.2856C1261.35 11.3789 1260 13.3738 1258.33 14.5699C1258.12 21.1844 1252.86 27.865 1267.69 34.4719C1278.92 37.0714 1269.2 39.7732 1270.77 42.4161C1269.53 43.7732 1254.11 44.7946 1259.09 46.2595C1258.25 46.9543 1265.13 48.1092 1257.16 48.6037C1248.85 48.8637 1234.6 49.0794 1231.14 48.1579C1232.65 45.1318 1244.37 42.2517 1251.12 39.322C1250.03 36.4822 1224.11 34.0317 1224.4 31.1551C1217.3 27.216 1223.69 23.3155 1231.49 19.4854C1234.39 17.0519 1237.87 14.6027 1248.94 12.3481C1252.84 11.4241 1253.46 9.80361 1236.62 9.67822C1211.73 9.5425 1192.73 11.1031 1170.03 11.5146C1143.55 11.2442 1118.13 9.61854 1090.98 10.301C1019.76 11.5669 945.696 12.4117 871.658 11.3738C819.061 10.7133 766.503 9.84403 713.431 9.96896C672.863 9.8244 632.549 8.94958 591.921 9.24045C541.809 9.4875 491.093 9.35135 441.419 8.34784C385.802 7.63122 330.85 6.51968 277.217 5.04501C247.068 4.55803 215.848 5.00326 186.288 4.17202C168.816 4.13085 153.848 5.04317 135.83 4.86361C123.481 5.01013 107.977 4.56245 98.0596 5.13353C98.8496 6.49451 123.648 5.92161 136.219 6.13007C152.996 6.25267 167.947 5.68422 183.627 5.43958C201.017 5.78872 218.898 6.10152 236.889 6.04404C262.279 5.91669 286.89 6.5214 310.493 7.31463C374.743 8.96992 441.311 9.86718 507.397 10.6479C566.269 10.9808 625.218 10.1726 683.882 11.2117C733.4 11.5509 783.228 11.341 832.313 12.3129C900.713 13.3395 970.876 13.6683 1038.02 12.5104C1064.84 12.3554 1090.58 11.1618 1117.98 11.5836C1141.45 12.0183 1168.27 13.569 1190.74 12.279C1204.86 11.8016 1219.94 10.8668 1235.69 10.9358C1234.77 12.7221 1221.28 14.2413 1221.21 16.0602C1215.75 20.726 1200.91 25.3267 1208.22 30.0934C1209.36 32.6073 1218.58 35.0349 1232.04 37.3384C1239.29 38.5635 1238.23 39.8907 1232.81 41.0917C1227.99 43.5637 1218.16 46.0651 1221.35 48.6123C1227.49 49.4675 1240.29 49.9686 1251.97 49.6578C1267.39 49.6478 1273.91 48.7962 1272.87 47.6381C1271.96 46.3697 1267.28 44.9646 1278.75 43.9306C1289.89 42.0674 1282.55 39.8152 1286.12 37.8033C1289.47 35.7104 1275.94 33.7288 1275.18 31.6367C1268.42 25.9294 1267.64 20.2016 1267.52 14.5005C1269.52 13.6954 1267.86 12.1528 1280.76 11.9676C1286.98 12.1569 1297.08 12.3814 1299.87 12.7743C1300.69 15.0882 1286.04 17.198 1280.36 19.4056C1265.87 23.2891 1290.84 27.3959 1301.63 31.2243C1311.59 33.9896 1315.48 36.9918 1300.87 39.6048C1292.04 41.4705 1289.41 43.7866 1307.15 45.5039C1311.73 46.0017 1315.99 46.8128 1317.79 47.2795C1312.34 47.7276 1322.96 47.8776 1323.38 47.4105ZM1322.43 53.8221C1322.1 53.6145 1316.33 53.5708 1311.78 53.6439C1270.91 53.5682 1233.67 55.1255 1199.74 56.661C1162.11 58.7761 1135.02 62.1314 1088.36 63.1635C1052.23 64.0614 1013.93 64.914 976.009 64.9273C964.778 63.7787 949.206 62.8696 930.658 62.9186C901.289 62.8295 870.842 62.8 843.807 61.5899C809.868 60.1457 769.012 59.9555 735.878 61.3004C708.929 62.432 676.488 63.2904 645.539 62.2857C614.051 61.3185 580.634 60.1999 547.2 60.8392C515.126 61.0035 483.477 62.1643 450.785 61.6269C423.152 60.9304 395.527 59.6849 366.166 60.1486C339.297 60.5812 314.093 59.1181 287.697 59.1092C275.674 59.4569 262.874 59.4667 250.877 58.9572C212.506 57.858 170.938 58.4574 132.455 57.3119C125.574 57.2194 112.727 56.8825 108.469 56.8624C106.275 56.8043 94.341 56.6429 98.2977 57.4172C106.126 58.4764 125.287 58.3011 137.823 58.7769C177.334 59.8143 219.808 59.2311 258.318 60.6175C274.529 61.2322 290.136 60.0357 306.177 60.772C331.019 61.5776 357.375 61.7762 383.139 61.4975C416.065 61.5606 445.666 63.694 479.216 63.143C515.989 62.9367 552.224 61.7081 589.713 62.2435C631.848 63.3634 678.683 65.1765 720.803 63.4022C749.832 62.2416 784.136 61.1431 817.598 62.23C846.466 63.2038 875.85 64.349 907.431 64.1969C925.906 64.2839 949.543 64.0391 961.093 65.5952C972.999 66.9235 993.609 66.0862 1009.3 66.0365C1068.01 65.3127 1128.68 63.8129 1168.4 60.1848C1198.65 57.1461 1244.12 55.3501 1291.01 54.4258C1299.84 54.1818 1312.93 54.5018 1319.42 54.1762C1321.37 54.0499 1322.26 53.9475 1322.41 53.8653C1322.44 53.8502 1322.44 53.8362 1322.43 53.8221ZM1321.83 67.393C1321.8 67.0668 1318.28 66.8496 1313.48 67.2555C1300.69 68.3684 1283.11 69.1587 1276.74 70.6949C1267.03 71.8591 1261.39 73.7599 1242.26 74.1544C1231.6 73.9062 1221.42 73.4418 1209.92 73.4324C1192.29 73.0033 1176.02 72.1285 1157.15 72.0463C1109.14 71.453 1062.69 72.5943 1016.37 73.1259C992.911 73.0045 972.547 71.4682 948.406 71.8284C916.798 71.7384 886.483 72.5259 855.618 72.7381C819.249 71.6427 785.058 73.511 750.871 74.0226C728.464 74.0785 705.814 74.001 684.479 74.6024C634.297 75.4123 585.336 76.5669 539.019 78.2348C480.682 79.9689 414.596 78.8162 354.776 80.0568C329.861 80.8662 300.816 80.1961 274.446 80.4153C246.137 80.2347 219.387 81.5581 191.141 80.993C186.067 80.0922 171.106 80.4567 163.95 79.8842C159.702 78.6081 143.145 78.4252 131.148 77.9081C121.677 77.4147 109.471 76.8484 98.613 76.9738C92.7273 78.2112 120.059 78.1843 128.814 79.0266C138.626 79.3176 148.581 79.6167 151.384 80.5191C156.379 81.4311 170.947 81.1631 178.687 81.6551C193.065 82.8704 216.479 82.2413 233.927 82.104C272.493 81.1403 314.94 82.1137 354.011 81.436C395.268 80.28 441.447 80.8931 484.512 80.3937C542.651 80.3111 590.042 77.4027 646.039 76.6405C679.841 76.0484 713.246 75.0892 748.8 75.3217C780.013 75.0866 807.892 73.4401 840.033 73.7118C866.831 74.5669 893.043 73.2719 919.706 73.2399C942.045 73.0907 966.203 72.7523 987.132 73.7774C1013.82 74.9378 1042.6 74.082 1069.03 73.6541C1112.17 72.9945 1160.03 72.4943 1201.83 74.2639C1214.54 74.4181 1227.4 74.4494 1239.57 74.8295C1262.76 74.8569 1271.97 72.7047 1281.87 71.4075C1288.35 69.915 1303.08 68.9457 1317.57 67.9844C1320.58 67.8227 1321.84 67.588 1321.83 67.393ZM1318.46 56.114C1318.46 56.0808 1318.35 56.0549 1318.03 56.0703C1304.9 56.1514 1285.71 56.4884 1270.95 56.6359C1221.42 57.7794 1179.58 60.6262 1157.64 64.3412C1153.06 65.0448 1136.74 65.5175 1139.76 66.3367C1150.78 66.2947 1157.88 65.2198 1165.21 64.6058C1184.9 61.2414 1221.68 58.6556 1265.23 57.3848C1281.48 56.764 1303.7 57.0373 1318.31 56.2025C1318.38 56.1888 1318.48 56.1471 1318.46 56.114ZM1318.23 87.8978L1316.94 87.9082C1289.67 88.4347 1266.46 86.8264 1240.66 86.2579C1216.95 85.663 1191.84 84.9099 1167.34 85.0954C1136.72 85.6219 1113.39 90.1979 1081.51 87.1438C1055.75 85.5589 1028.36 87.5104 1004.18 88.166C952.389 90.2678 890.806 89.6787 835.158 90.7912C782.987 91.5196 742.231 94.7157 687.554 94.7887C656.318 94.8657 638.175 96.9111 616.686 98.3311C584.804 100.705 539.008 100.495 500.307 101.648C479.095 101.786 437.183 102.129 474.354 103.048C514.795 102.815 555.158 101.908 594.108 101.017C623.575 100.064 643.593 98.0426 668.479 96.5745C703.224 95.7733 741.77 95.7917 772.429 94.1405C810.95 92.5104 853.855 91.6218 898.046 91.4362C947.629 91.0993 997.61 90.4071 1040.29 88.3967C1072.41 86.6441 1109.22 91.6023 1136.14 88.0847C1157.24 85.8569 1192.02 85.6265 1224.22 86.6665C1255.13 86.7577 1292.87 89.8456 1318.23 87.8978ZM1296.65 83.8536C1253.37 81.644 1201.31 81.4403 1152.86 80.7383C1057.01 79.5025 971.252 83.2671 884.955 85.5354C830.418 86.9885 772.613 87.4686 715.027 87.8463C638.855 88.4959 589.889 94.2416 512.984 94.8144C455.81 95.1925 412.418 98.3697 366.349 100.644C350.131 101.668 336.929 103.026 317.839 103.739C353.2 104.29 368.835 100.83 398.575 99.9729C439.056 97.7477 483.259 95.6717 534.468 95.4518C607.202 94.277 655.704 88.4621 733.849 88.6303C828.006 88.1398 917.541 85.8125 1002.94 82.974C1064.9 81.2167 1133.64 80.749 1199.39 82.0737C1230.3 81.7598 1279.62 84.111 1296.65 83.8536ZM1251.85 96.4178C1251.67 96.291 1248.5 96.2891 1246.21 96.2052C1217.34 97.0415 1185.63 97.1537 1156.84 98.0426C1114.4 98.9801 1072.46 100.13 1035.33 101.991C1030.53 102.204 1019.85 102.421 1026.83 102.747C1015.59 102.789 1032.11 103.269 1034.31 102.796C1061.21 101.619 1087.83 100.383 1117.81 99.7065C1157.29 98.6189 1197.93 97.7853 1238.94 97.1099C1242.06 96.918 1251.45 96.9844 1250.86 96.5924C1251.62 96.515 1251.9 96.4588 1251.85 96.4178ZM1197.49 38.2308C1197.67 37.9907 1196.02 37.7896 1191.22 37.6872C1184.35 37.4966 1175.87 37.4949 1170.64 37.0252C1171.54 36.1599 1175.28 35.3283 1177.15 34.4781C1178.68 33.7616 1174.61 32.5792 1163.05 32.6701C1152.78 33.1545 1140.23 33.1245 1128.39 33.222C1117.53 33.3232 1100.36 33.5507 1098.04 34.4527C1104.66 35.4156 1098.6 36.5134 1086.19 36.7973C1074.84 37.419 1069.62 36.3876 1066.38 35.6759C1060.69 34.9039 1046.77 34.3119 1037.46 34.9388C1022.73 36.1947 1019.57 38.2604 1028.77 39.8904C1035.47 40.7172 1048.35 40.3358 1057.32 40.1101C1069.84 39.6178 1074.15 41.2317 1085.91 41.3313C1099.47 41.3703 1112.97 42.0358 1126.07 41.9112C1142.63 41.5846 1161.14 41.273 1177.98 41.8558C1189.23 42.2108 1190.29 43.2556 1178.18 43.4756C1160.87 44.1217 1140.87 44.1053 1122.61 44.5337C1100.95 44.902 1076.69 44.7025 1057.38 43.6479C1042.14 43.0726 1020.11 43.0917 1011.03 44.3106C1006.69 45.2749 1007.99 46.378 1002.91 47.342C999.25 48.379 995.563 49.7611 1007.19 50.6297C1023.91 51.84 1047.47 51.6075 1067.55 51.5593C1095.25 51.2714 1122.86 50.8862 1150.95 50.787C1163.08 50.5365 1178.61 50.4276 1184.86 49.4412C1191.04 48.8202 1174.06 48.3886 1178.76 49.1046C1167.05 50.009 1149.27 50.1335 1133.37 50.2002C1116.24 50.2253 1098.92 50.1847 1082.05 50.3828C1060.35 50.3548 1036.4 50.8991 1016.48 49.8244C1008.38 48.7094 1019.72 47.5871 1020.88 46.4781C1019.83 45.4474 1024.68 44.1245 1041.07 44.4889C1061.66 44.6936 1080.16 46.1399 1101.44 45.681C1131.76 45.2157 1164.35 45.0802 1190.69 43.7323C1202.68 42.9755 1191.8 41.5212 1179.73 41.1351C1160.26 40.3856 1139.68 41.1007 1119.79 41.0809C1106.12 40.4912 1087.11 40.7792 1077.13 39.643C1069.28 38.4577 1051.75 39.2124 1040.07 39.3577C1035.52 38.483 1037.48 37.293 1041.1 36.3833C1046.05 35.1155 1059.32 36.1802 1062.5 36.9961C1068.59 38.1365 1086.07 37.8198 1095.02 37.2297C1105.4 36.6349 1111.86 35.4698 1105.97 34.4447C1123.9 33.4673 1148.18 34.1268 1167.18 33.3687C1174.26 34.7626 1156.53 36.0465 1164.4 37.432C1169.69 38.2178 1188.85 37.8717 1190.7 38.4572C1185.83 39.2564 1174.03 40.0955 1162.05 39.5848C1148.58 39.0977 1142.72 37.8232 1128.9 37.3934C1121.97 37.2345 1109.89 37.9412 1114.52 38.1767C1100.85 37.8672 1116.11 39.3395 1120.63 38.4688C1130.34 37.488 1137.75 39.1583 1146.97 39.4776C1157.03 40.1733 1173.47 40.6054 1183.55 39.7942C1187.79 39.4868 1197.08 38.7617 1197.49 38.2308ZM1187.24 46.0516C1184.51 45.4259 1181.05 45.9605 1179.98 46.0697C1181.28 46.0633 1166.4 46.1084 1160.08 46.0117C1127.94 46.5324 1095.47 47.1423 1062.33 47.3445C1050.1 47.917 1067.46 48.308 1074.2 48.0662C1103.6 47.8204 1132.5 47.2797 1160.97 46.7705C1169.39 46.7988 1187.77 47.1237 1187.24 46.0516ZM1170.63 28.4468C1170.67 28.2139 1170.01 27.9527 1168.44 27.6627C1158.31 26.3451 1163.46 24.7023 1165.61 23.2901C1167.43 22.3824 1169.48 21.4718 1169.52 20.542C1167.77 19.3914 1161.37 18.5096 1168.34 17.3897C1169.62 15.1131 1137.15 16.0325 1122.71 16.5952C1105.16 17.4646 1129.71 19.4525 1126.59 20.8967C1129.04 22.6143 1127.51 24.3486 1122.28 25.9936C1132.65 27.5351 1098.01 29.3112 1097.83 27.0634C1093.29 24.0664 1107.74 20.8859 1087.53 18.0496C1074.78 16.7589 1052.83 17.7554 1047.45 18.9693C1038.1 20.4011 1053.22 21.8983 1051.46 23.4024C1051.5 25.0217 1048.04 26.6148 1046.38 28.2149C1044.46 29.1222 1031.01 30.1703 1030.5 28.5568C1024.64 26.3638 1036.49 24.3122 1039.78 22.2101C1038.61 20.2298 1023.99 17.7448 996.296 17.5079C979.049 17.5135 958.185 18.7103 960.489 20.1879C969.241 21.3028 973.819 22.4808 974.335 23.7668C979.051 25.9173 981.355 28.1261 977.684 30.2535C965.949 30.9972 947.837 31.5702 947.205 33.1053C943.134 34.7917 947.652 36.7898 930.524 38.0557C916.118 39.4988 905.362 41.2043 900.742 43.0542C897.625 44.4092 889.039 45.6554 895.706 47.0286C885.952 47.6768 855.569 48.7405 866.025 46.7103C875.399 44.9664 874.424 43.0086 883.289 41.2615C894.053 39.0032 911.047 36.8451 910.698 34.3087C897.155 32.5896 909.833 30.8787 916.035 29.2412C923.521 27.5513 926.504 25.6748 919.596 23.8841C920.53 22.3539 909.165 20.6812 907.109 19.4237C926.148 18.2709 948.788 17.3751 970.578 16.6455C996.399 16.5911 1019.09 15.7834 1042.55 15.1009C1070.56 14.3403 1099.72 13.677 1130.06 13.7418C1145.08 12.1468 1106.5 12.4277 1095.22 12.698C1060.38 13.0963 1026.63 13.8988 994.485 14.9634C968.139 14.9929 944.22 15.6914 923.913 16.9031C897.302 17.4156 874.56 19.6231 897.933 21.6792C900.119 23.7359 910.759 25.8937 902.636 27.9035C896.085 29.895 878.278 31.994 891.41 34.1333C896.824 35.9195 881.411 37.5461 874.684 39.1535C863.298 41.0082 857.782 43.0687 853.679 45.1142C845.796 46.4319 838.545 49.1329 865.951 49.3737C885.273 49.2296 921.1 48.4631 913.896 46.4139C910.111 44.4874 920.921 42.1758 932.565 40.4253C944.242 38.7119 965.303 37.3056 962.65 35.1108C959.912 33.4939 968.776 32.0895 987.765 31.604C1003.35 30.373 994.067 28.2675 996.887 26.6579C993.274 24.6696 991.977 22.6137 983.777 20.6856C966.459 19.0552 1008.92 18.1968 1015.31 20.053C1030.91 21.6692 1021.08 23.526 1017.1 25.2089C1014.09 26.8471 1013.18 28.692 1025.47 30.1822C1044.99 31.3663 1061.06 29.0785 1061.25 27.7239C1062.94 25.8691 1067.6 23.9888 1064.22 22.1186C1057.79 20.8508 1052.57 18.4474 1076.48 18.48C1094.63 20.9798 1082.95 23.8385 1085.77 26.5027C1083.18 28.2444 1105.12 29.96 1123.7 28.5353C1140.98 27.7465 1130.68 25.7734 1137.97 24.5108C1141 22.0956 1139.73 19.4946 1124.28 17.2636C1132.08 16.71 1166.59 15.5677 1160.89 17.3409C1150.57 18.6799 1166.21 19.9574 1162.59 21.3665C1160.95 23.429 1150.11 25.5405 1160.64 27.6074C1175.19 29.1381 1149.27 29.7997 1134.19 29.3652C1101.8 29.8581 1073.16 31.1871 1042.26 32.0144C1025.31 31.5281 1002.33 31.2698 996.321 32.9691C982.503 34.0324 990.761 35.4728 990.923 36.6377C978.828 37.5228 966.279 39.9959 989.729 40.1975C975.863 41.6299 963.647 43.3642 969.226 45.3014C969.634 46.6368 980.33 49.3387 953.108 48.9673C951.29 49.8738 984.555 49.3637 977.272 48.0519C979.387 45.9517 966.574 43.4888 985.238 41.7307C990.325 41.1195 1010.27 39.1714 994.793 39.0652C975.185 40.277 989.025 37.5515 997.613 37.0887C1007.6 35.858 987.632 34.3704 1005.48 33.2716C1015.94 31.3242 1048.31 33.5458 1065.25 32.0308C1086.84 31.1158 1110.13 30.4097 1134.17 29.9676C1149.39 30.1722 1170.42 29.711 1170.63 28.4468ZM1136.12 56.6961C1136.32 56.3223 1123.59 56.6661 1119.37 56.8627C1078.28 58.6194 1036.92 60.6246 999.448 62.711C990.61 61.4467 991.049 59.8471 990.417 58.4714C982.371 57.1605 959.5 57.1268 944.179 56.8632C926.357 56.8067 906.665 56.1099 889.515 56.5171C882.498 56.9591 881.322 58.0272 874.044 58.2976C858.185 58.0944 857.72 56.5194 845.083 55.9221C822.548 54.8476 795.358 55.5554 771.798 55.7445C742.16 56.0518 714.12 56.9461 684.963 57.3393C631.715 56.6903 582.936 54.3692 529.531 53.7464C506.191 52.7949 479.864 52.9136 455.095 53.0637C420.633 53.0864 384.92 53.9336 350.502 53.1297C296.679 51.3129 251.557 47.6452 191.994 47.1364C172.516 46.9641 154.099 46.3715 135.922 45.8168C130.097 45.8914 114.413 45.3424 120.582 45.8462C122.227 46.0716 109.469 44.8573 109.549 45.9557C114.587 47.1329 135.706 46.6924 146.206 47.4522C182.133 48.616 222.581 48.5589 255.916 50.3459C291.683 51.8314 324.205 54.2969 364.819 54.7664C413.592 55.1321 461.815 53.8358 510.414 54.5766C536.01 55.5609 565.181 55.476 590.875 56.4912C624.61 57.2721 658.472 58.7962 693.867 58.6625C738.758 57.7968 783.692 56.4421 831.058 56.5998C848.775 56.8088 849.883 58.8933 868.422 59.0226C871.808 59.4495 884.074 59.2212 887.464 58.6634C893.653 58.1736 896.661 57.2361 907.796 57.6327C930.38 58.0182 956.274 57.8011 976.803 58.7711C980.334 60.326 979.763 62.1722 993.557 63.4465C1007.13 64.1301 1016.24 62.5024 1027.16 62.2282C1060.71 60.3294 1099.44 58.4033 1134.53 56.983C1135.58 56.8584 1136.07 56.7647 1136.12 56.6961ZM1122.75 83.4196C1121.19 82.7728 1114.25 83.1566 1110.42 83.2732C1089.11 83.2785 1064.22 82.1402 1046.1 83.4698C1031.75 84.1884 1019.58 85.7941 999.485 85.3391C965.302 85.9349 928.221 85.9896 898.225 87.5376C883.167 88.219 865.285 88.6157 848.634 88.8006C848.737 88.9781 847.025 88.704 846.038 88.9996C858.134 89.6037 874.482 89.0075 886.601 88.6792C911.556 87.6903 936.458 86.6006 965.357 86.4574C981.63 86.3398 996.82 85.7672 1013.52 85.9838C1037.18 85.5212 1050.31 82.9547 1078 83.5049C1091.81 83.5907 1111.99 84.6104 1122.59 83.5552C1122.76 83.5126 1122.77 83.4655 1122.75 83.4196ZM1073.44 92.1818C1073.33 92.054 1071.48 91.8902 1071.81 91.9055C1058.04 90.6988 1034.49 90.8039 1016.36 90.9666C982.588 91.8912 946.921 92.7017 914.506 93.7729C899.96 94.5378 884.431 95.7028 865.381 95.5256C847.193 95.0728 835.745 93.3311 815.515 93.3978C811.387 93.4267 816.309 94.113 812.807 93.9391C812.205 93.2502 808.203 93.9738 812.453 94.2053C818.04 94.4941 828.119 94.3466 833.637 94.8835C847.883 95.9685 869.001 96.9458 887.451 96.1156C899.598 95.6931 918.126 94.8415 923.389 94.2603C953.171 93.2567 988.407 92.4039 1020.69 91.5793C1037.71 91.4111 1055.62 91.6272 1070.94 92.3264C1072.96 92.3213 1073.51 92.2585 1073.44 92.1818ZM1026.45 8.69047C1026.82 8.44857 1018.65 8.54604 1020.34 8.50156C1020.34 8.50156 1020.39 8.4941 1020.45 8.48925C1018.08 8.5859 1003.18 8.64629 996.986 8.58443C960.292 8.4177 923.602 7.99238 887.052 8.19179C866.82 7.87003 848.538 6.72768 827.184 6.87552C800.697 6.96046 774.517 6.07843 748.157 6.53201C717.012 6.86287 684.987 7.04644 653.322 6.76132C640.981 6.37029 623.095 5.56447 613.822 6.69852C615.5 6.94951 627.051 6.69803 632.12 7.11482C656.766 8.52349 686.928 7.86403 714.201 7.94769C743.935 7.66749 774.217 7.20212 804.34 7.83297C826.654 7.85057 849.668 7.8632 870.101 8.81376C895.628 9.6449 922.618 8.72621 948.873 9.14229C973.676 9.06367 1001.06 9.59871 1024.62 8.91659C1025.84 8.81933 1026.37 8.74495 1026.45 8.69047ZM988.585 99.3893C987.463 98.7723 976.064 98.8664 974.802 99.4208C971.182 99.8261 975.202 100.231 977.949 100.573C978.415 101.059 971.799 101.218 967.182 101.317C952.936 101.684 937.495 101.597 922.667 101.723C911.025 101.687 899.58 101.827 888.457 102.044C878.665 102.213 868.635 102.372 858.419 102.281C857.267 102.822 865.933 103.054 871.201 102.961C884.841 102.885 897.767 102.498 911.569 102.506C934.735 102.403 959.261 102.505 980.252 101.67C984.405 101.493 988.346 101.171 987.867 100.755C984.846 100.306 983.98 99.7475 988.585 99.3893ZM882.644 25.4298C882.859 24.9032 874.666 24.2222 866.803 24.5387C860.61 24.5584 853.866 24.6958 847.99 24.6912C840.107 24.5796 831.363 23.9985 823.924 23.8542C817.114 24.2855 826.106 25.4383 813.773 25.6116C804.689 25.9693 798.39 26.8332 789.079 27.097C773.587 26.5857 761.038 27.2474 750.957 28.0471C741.682 28.0512 722.212 27.7158 720.832 28.852C710.051 28.1879 694.867 27.0523 680.465 27.8419C669.919 28.1953 657.646 28.9982 645.909 28.2706C635.826 27.957 626.744 28.7338 620.992 29.0252C605.565 27.8046 582.974 29.4445 563.886 28.7602C542.441 28.3014 541.542 30.6151 528.336 31.1495C512.806 29.7552 489.733 30.5538 470.273 30.0706C450.425 29.4331 428.565 30.0007 410.033 30.0408C401.043 28.9416 381.155 29.5816 368.203 29.3781C314.88 29.9199 267.321 27.1588 217.811 25.9228C188.326 25.3441 157.819 26.8469 129.484 25.7044C110.019 24.7473 116.994 22.644 121.079 21.2736C129.935 19.6806 126.143 17.9362 123.639 16.2413C125.851 13.4459 127.898 10.5149 142.24 7.97469C146.278 7.35443 151.488 8.45328 156.229 8.64716C169.25 8.96817 163.553 10.1515 162.171 10.8711C156.701 12.1776 150.278 13.4716 151.246 14.9173C150.942 17.0436 132.508 19.3083 148.337 21.3712C157.558 22.3401 172.184 23.0367 186.143 23.3727C200.466 22.9599 207.234 21.5704 209.901 20.4379C202.599 17.6266 209.84 14.7026 222.322 12.1299C226.178 11.3242 237.437 10.2092 249.412 10.9402C256.332 12.3067 245.294 13.7385 242.063 15.0408C235.565 17.5231 224.769 20.1366 232.156 22.7317C238.5 23.6298 242.877 24.5688 246.287 25.5499C254.75 26.9555 278.152 26.4358 286.86 25.4423C304.688 24.1982 302.758 22.201 300.252 20.4488C307.122 18.1107 324.263 16.0512 334.44 13.806C337.496 13.2291 339.664 12.3266 350.018 12.6692C361.228 12.5961 368.329 13.3658 368.651 14.1913C368.149 15.4352 379.118 16.4108 383.297 17.544C381.307 18.8905 360.092 19.3242 356.339 20.6475C351.905 21.6752 351.151 22.9589 338.01 23.5317C330.934 24.4079 332.111 25.8977 342.229 26.6739C346.754 27.0058 363.817 26.769 362.528 26.7233C372.809 27.2148 386.988 27.4854 394.78 26.6285C402.188 26.0721 404.24 25.4175 415.411 25.5505C430.148 25.5418 450.273 25.5956 455.359 24.2252C472.182 23.2346 457.021 21.9322 451.723 22.0865C450.326 21.7169 456.514 20.8742 460.309 20.4938C471.295 19.3039 461.347 17.7041 450.743 16.7274C456.418 16.1223 462.237 14.8285 448.581 14.5166C441.44 14.2766 430.082 14.5785 425.133 14.3634C429.516 13.6247 438.257 12.6708 449.924 13.2631C460.843 13.8207 474.961 13.4325 484.509 14.2256C500.588 15.4666 494.287 17.7381 515.323 18.6795C522.954 19.9328 513.949 21.3774 508.344 22.514C501.604 23.8093 485.52 24.6307 483.6 26.1253C478.643 26.8007 481.639 27.7637 495.094 27.4711C529.008 27.9979 541.082 24.821 555.205 23.0876C566.425 21.0935 563.86 18.7347 575.462 16.7535C578.442 15.8795 566.555 14.9934 570.522 14.1792C583.029 13.2868 599.844 14.6554 614.374 14.2548C622.634 14.2901 634.663 13.7029 635.721 14.6509C639.257 16.3471 624.212 17.6847 621.137 19.2729C613.113 20.2818 601.365 21.1083 595.889 22.2747C587.83 23.5675 577.515 25.1829 584.188 26.7001C594.577 27.8455 612.658 26.9463 619.8 26.0958C630.738 25.2713 638.305 23.9855 649.55 23.287C665.012 23.1333 683.385 23.0849 697.64 23.282C693.488 24.2139 699.316 25.2896 712.159 25.5399C725.249 25.9847 741.075 26.1674 750.802 25.2338C759.374 24.4168 764.732 23.1137 780.852 23.1026C794.323 22.8279 810.479 23.2767 822.437 22.8969C823.472 21.8805 804.277 22.3703 795.472 22.2284C774.405 22.0461 753.872 22.8035 746.112 24.3955C737.677 25.4474 719.143 25.0812 707.743 24.439C702.453 24.0341 715.397 22.5905 701.205 22.3644C681.342 22.1191 660.183 22.0066 640.901 22.3381C622.681 23.34 617.878 25.7242 596.224 26.2849C589.52 25.5294 603.571 23.2441 610.203 22.3675C617.337 20.9794 635.532 20.1406 636.668 18.5182C643.052 17.0533 653.732 15.41 644.482 13.8053C633.16 12.3901 611.505 13.6553 595.865 13.0007C579.871 12.2454 553.376 12.8667 555.275 14.5287C556.856 15.4519 566.999 16.4269 558.19 17.2761C549.107 19.4848 552.095 22.0694 533.087 23.9498C525.57 24.9173 518.629 26.7061 499.81 26.3782C496.988 26.1254 501.509 25.2701 506.354 24.9255C522.968 23.1698 537.761 20.7931 529.417 18.4632C525.124 17.6162 510.375 17.3854 511.25 16.3123C506.784 14.4303 489.745 12.2914 463.022 12.4354C450.072 11.9146 430.007 11.41 422.281 12.7054C413.797 13.3406 403.939 14.894 419.655 15.4623C426.968 15.6469 437.549 15.3738 442.958 15.5716C435.605 16.3053 435.476 17.3545 446.397 17.9477C459.274 18.9828 449.405 20.2891 442.411 21.2383C438.341 21.8597 441.068 22.8408 450.795 23.0078C446.652 23.7742 442.114 24.6027 430.527 24.4031C414.657 24.2929 395.712 24.3404 387.939 25.6228C384.418 26.1024 377.63 26.3109 372.192 25.8124C366.609 25.2574 355.592 25.73 350.848 25.4686C349.347 24.9151 348.762 24.2504 356.981 24.0652C372.81 22.867 367.121 20.6185 387.902 19.6966C401.776 18.8323 404.641 17.1515 392.583 15.9883C380.06 14.7074 387.794 12.5203 366.273 11.7491C351.959 11.2792 329.174 11.0318 323.965 12.5049C309.511 15.0102 292.676 17.5295 286.221 20.2845C285.931 21.6388 293.913 23.2972 278.582 24.2782C274.592 24.5509 267.412 25.2522 261.476 24.9684C259.509 23.929 251.673 23.0507 247.437 22.0754C244.088 18.8473 259.075 15.8229 267.215 12.7635C271.458 11.3695 262.454 9.55811 242.119 9.41685C215.951 9.15906 204.222 11.5092 199.323 13.1555C191.978 15.5186 192.09 18.0999 196.356 20.5034C193.825 21.095 189.922 21.9069 183.581 22.1706C168.498 21.5564 152.532 20.3413 159.091 18.895C166.783 16.8416 167.403 14.6707 171.726 12.5636C176.943 11.2905 184.498 9.73717 175.579 8.42162C169.563 7.76809 158.168 7.59724 155.401 6.78159C145.029 5.67069 127.727 6.59066 124.277 7.60043C110.888 10.492 106.041 13.6812 106.416 16.8074C111.343 18.3562 109.124 19.8929 102.532 21.3379C83.5991 24.5548 120.22 28.4932 164.995 27.5073C189.123 27.2274 215.313 26.8866 238.183 28.0018C281.339 29.5652 327.026 31.2898 374.602 30.7936C382.817 30.895 394.202 30.49 397.002 31.3185C410.389 32.0167 426.677 31.1489 441.164 31.2093C461.708 31.0443 481.805 31.9325 502.601 31.7175C515.079 31.5995 528.122 33.5168 539.921 32.4026C548.581 31.7859 554.302 30.7836 561.009 30.1531C573.728 30.4857 588.884 30.2289 599.412 30.1951C599.479 31.3623 617.135 31.2589 624.638 30.6812C631.65 30.5092 635.394 29.7006 642.555 29.6451C660.257 30.603 677.417 29.3233 693.297 28.9278C703.817 29.4482 714.384 30.2898 727.551 29.9591C733.998 29.9302 735.017 29.2793 736.882 29.0533C751.143 29.4071 763.457 28.8018 771.758 27.9711C781.915 27.7984 795.555 28.4708 802.869 27.5853C813.463 26.8741 829.486 26.12 832.714 25.1221C840.777 25.721 860.33 25.43 862.14 25.4025C849.287 26.0414 853.993 27.6071 853.531 28.6537C855.361 29.0913 858.685 30.2976 865.942 29.9189C864.985 29.0974 859.65 28.3917 863.093 27.601C862.328 26.8083 863.347 25.7791 876.282 25.9431C880.694 25.8758 882.543 25.6689 882.644 25.4298ZM865.485 14.7376C857.831 13.6841 838.459 14.1351 826.612 14.1383C812.714 14.0955 799.138 14.1724 785.616 14.3692C759.593 14.5387 737.605 12.5453 711.938 12.8639C701.996 13.2107 690.493 12.7451 680.495 12.5592C676.42 12.3564 663.811 13.4637 677.969 13.626C691.462 13.8482 705.869 14.256 718.872 13.7961C741.024 14.1022 761.483 15.2797 784.632 15.1259C798.332 14.982 811.597 14.7014 825.735 14.7783C835.627 14.7358 849.731 14.3857 858.246 14.8246C852.064 15.8099 840.801 16.4803 826.476 16.4741C788.071 16.7645 748.433 16.8235 709.935 16.4435C691.704 16.1217 669.212 16.0398 654.756 17.0228C645.685 18.0557 664.068 18.9692 673.178 19.5504C697.082 21.0518 728.964 20.8613 753.745 19.9151C769.942 19.8457 786.218 19.7842 802.335 19.7196C820.784 19.9734 842.223 20.6603 859.286 20.0642C861.239 19.7048 856.18 19.8613 857.112 19.7566C844.935 19.4859 829.047 19.7145 816.018 19.2151C796.428 18.6563 776.489 19.2172 756.565 19.0329C738.041 19.2374 720.325 20.166 700.608 19.6169C686.825 19.2968 671.973 18.5204 664.564 17.6106C679.543 16.9327 698.448 17.0685 715.04 17.3445C758.791 17.2592 807.149 17.9634 848.221 16.543C855.538 16.0856 862.417 15.4137 865.485 14.7376ZM843.315 28.9218C843.218 28.5201 839.807 28.237 830.604 28.4338C812.021 28.396 804.206 29.8133 797.823 30.9431C785.874 31.8899 786.697 33.2752 784.639 34.5259C781.546 34.9791 776.601 34.8469 772.427 34.5392C766.013 34.2307 756.222 35.1513 751.669 34.5352C750.105 33.6375 752.661 32.1696 736.08 32.1407C726.75 31.9688 714.73 32.4058 707.704 32.2592C702.596 31.2945 685.163 31.7796 676.936 32.1329C667.96 32.4222 655.868 33.3748 667.604 34.0858C669.793 34.3999 658.076 34.1106 655.319 33.895C638.129 32.6779 612.802 32.3978 594.519 33.4198C576.518 33.9868 583.554 35.8162 575.534 36.9168C567.573 37.9081 556.619 38.7172 555.913 40.019C549.201 41.2418 548.781 42.8899 536.181 43.8367C528.351 44.203 520.49 44.9374 511.928 44.1786C495.972 43.2069 478.212 42.3684 458.028 42.4086C429.236 42.0771 398.861 42.6046 370.859 41.8048C317.537 39.4689 256.806 39.0996 198.568 38.7424C178.134 38.5192 156.945 38.0817 140.366 37.0248C132.53 36.8854 124.618 37.1724 118.066 36.6302C111.826 36.2918 96.1559 36.046 99.0204 36.9028C106.407 37.308 115.396 37.6697 122.863 38.0855C130.205 38.1976 137.645 38.0081 142.99 38.5724C191.922 40.7566 248.926 39.7715 300.674 41.0007C326.515 41.3961 350.207 42.3922 374.319 43.1989C408.775 43.7762 444.787 43.2295 478.8 43.8229C494.242 44.3009 507.96 45.6705 525.334 45.6641C539.234 45.014 555.119 44.3663 558.392 42.9405C567.704 41.2652 568.124 39.2439 584.407 37.8959C595.597 37.0112 590.612 35.6087 597.429 34.5927C610.223 33.7243 630.147 33.5481 644.118 34.5147C655.279 35.1688 677.709 35.6531 684.328 34.4732C685.952 33.8348 668.971 33.4044 680.773 33.0724C686.084 32.8544 697.635 32.2501 697.784 33.1233C707.12 33.7946 719.993 32.8972 731.212 33.0419C737.686 32.9239 741.005 33.2665 739.09 33.7828C737.179 34.7589 747.318 35.9899 760.831 35.5778C767.159 35.3892 770.071 35.1583 775.856 35.5956C794.498 35.8884 797.656 34.0278 796.465 32.9379C799.037 31.828 810.597 31.0632 814.473 29.9875C817.2 29.5279 828.073 29.0241 831.737 29.2801C820.571 30.7038 827.617 32.4084 829.195 33.98C829.582 34.4681 825.214 35.1979 829.2 35.5443C847.255 34.0425 826.488 31.6448 838.689 29.9079C841.471 29.6205 843.392 29.2342 843.315 28.9218ZM834.713 39.2201C834.619 38.537 831.574 37.8999 823.268 37.5306C805.095 37.0728 790.002 38.3961 773.571 38.5449C764.803 38.1547 754.183 38.9894 749.384 37.8539C738.9 36.703 718.573 36.3809 706.245 37.3861C697.923 38.1047 685.125 38.1794 674.114 37.6967C658.191 37.1187 632.293 36.8645 624.385 38.3414C629.528 40.4552 600.163 41.5521 598.758 43.5506C595.688 44.9096 598.554 46.5116 592.599 47.2558C588.754 48.3086 610.252 48.1906 608.956 47.2264C614.28 45.1321 608.995 42.6826 629.952 41.0785C635.765 40.3415 638.852 39.4093 638.292 38.574C659.067 37.5259 684.026 39.923 704.939 38.7506C713.689 38.3789 724.613 37.2307 735.324 38.1021C744.322 38.6702 753.08 39.924 765.885 39.2901C770.308 39.112 776.379 39.5734 782.573 39.2187C794.457 38.9481 809.513 37.8769 822.046 38.2903C831.363 39.2507 825.164 42.0347 808.634 41.3703C796.841 40.8196 783.017 40.2994 770.77 40.9724C762.456 41.1509 751.814 41.8389 746.459 41.7828C731.556 41.2712 720.679 39.8679 702.589 40.218C673.444 39.8037 649.545 41.324 647.391 43.6355C643.074 44.7935 658.187 46.0945 672.855 45.5798C687.995 45.3331 701.565 44.0371 718.102 44.4912C730.359 45.1278 733.185 46.5628 748.4 46.938C771.195 47.7727 787.519 45.5382 797.149 44.5749C803.466 44.5035 816.223 44.9458 817.925 45.3739C810.684 45.4075 802.733 45.8931 813.65 46.0404C824.128 46.3046 832.515 45.2589 822.501 44.7035C812.431 43.9466 792.217 43.2937 784.855 44.5459C777.742 45.3276 764.624 46.7719 750.262 45.9298C738.588 45.1834 736.362 43.6806 720.163 43.3284C699.047 42.7383 682.855 44.3631 663.419 44.4419C658.891 43.6806 667.08 42.81 670.831 42.1542C674.99 41.3815 686.308 41.6209 695.97 41.3902C705.609 41.3608 715.523 41.0737 722.125 41.6926C732.847 42.4761 749.733 43.2883 762.064 42.3468C770.802 42.0515 781.102 41.1774 789.21 41.3497C800.587 41.8479 820.24 42.7547 827.121 41.4026C831.162 40.8283 834.826 39.9938 834.713 39.2201ZM830.735 83.7183C831.083 83.3197 815.917 83.3548 810.266 83.4058C780.471 83.3915 753.117 84.3534 724.21 84.6432C691.436 84.4302 660.507 85.3365 629.547 85.9203C598 86.8802 579.446 89.3126 550.309 90.5403C526.22 91.3477 500.15 91.8776 474.149 92.1809C470.248 92.3062 455.547 92.0743 464.729 91.7641C486.125 91.1234 514.839 91.8432 531.049 90.2668C544.95 89.2816 551.437 87.2885 572.345 87.0855C581.931 87.317 597.86 86.9357 597.314 86.0763C589.355 86.3848 580.744 86.3188 572.004 86.1861C537.179 86.2723 534.896 90.3541 500.215 90.474C483.182 90.6485 457.501 90.2792 448.799 91.7581C448.407 92.9681 467.276 93.3547 479.003 93.1421C517.137 92.457 560.663 91.9798 586.598 89.4367C606.698 87.8497 629.898 86.3203 659.699 86.1155C682.385 85.5511 705.749 85.2237 729.893 85.3298C761.933 84.7565 793.849 83.8884 827.685 84.0672C829.728 83.9247 830.644 83.8097 830.735 83.7183ZM822.026 48.3565C821.973 48.2365 821.142 48.1136 819.247 47.9968C810.537 47.8438 819.681 48.494 816.272 48.2593C816.256 48.2478 816.225 48.2579 816.176 48.2399C814.743 48.1427 798.16 48.8081 790.459 48.8628C770.547 49.2951 747.036 49.8857 728.369 48.6489C707.155 47.2979 678.215 46.1327 652.851 47.1901C646.094 47.0152 636.237 47.1509 634.533 47.7699C643.636 47.8275 652.038 48.5666 661.434 48.084C686.96 47.0858 710.631 49.0704 732.996 49.878C758.098 50.8018 784.016 49.6841 807.865 49.2133C812.708 49.1782 822.235 48.7827 822.026 48.3565ZM781.904 90.3728C779.068 89.4359 762.307 90.7605 755.71 90.9824C742.048 91.2552 727.648 91.3709 713.924 91.6651C701.623 91.8423 689.346 92.2044 676.601 92.0131C654.83 92.0779 640.297 93.5027 623.118 94.339C603.871 95.4631 590.466 97.2705 566.973 97.8956C541.985 98.4767 511.567 98.0154 491.288 99.5151C471.006 100.211 443.421 99.8765 429.388 101.462C423.211 102.229 403.458 103.04 406.542 103.824C418.755 103.477 425.393 102.364 435.64 101.726C445.182 100.932 458.649 100.54 472.609 100.541C492.442 100.467 505.341 99.0846 524.696 98.9776C550.855 98.6672 582.619 98.6839 599.117 96.7965C621.093 95.246 642.487 93.469 671.584 92.7723C695.707 93.1039 717.677 92.1431 741.16 92.0136C755.681 91.7607 774.647 91.4852 781.904 90.3728ZM777.829 99.2439C778.011 99.0446 776.047 98.795 775.534 98.6772C773.657 98.2471 768.723 99.0945 765.981 99.228C750.024 100.414 727.505 100.795 708.817 101.64C678.996 102.096 646.949 102.152 621.25 103.552C609.796 104.207 591.819 104.229 580.746 103.785C589.849 105.308 613.628 104.68 626.671 104.047C651.94 102.626 684.232 102.722 713.222 102.129C733.161 101.214 758.284 100.804 774.442 99.5087C776.854 99.4644 777.723 99.3632 777.829 99.2439ZM767.896 70.3831C767.894 70.3347 767.876 70.2849 767.826 70.2363C764.218 70.1665 763.025 70.5059 762.145 70.7165C760.589 71.0928 759.624 71.5439 755.251 71.7756C748.12 72.4949 735.509 72.8404 723.938 72.6192C717.008 72.4883 710.938 72.0664 708.374 71.5293C705.787 71.2022 706.562 70.7797 709.568 70.5122C713.901 70.093 720.18 69.8545 725.789 69.5613C731.491 69.5614 737.315 69.8193 742.899 69.6724C745.024 69.6067 745.921 69.4215 745.977 69.2472C743.912 68.8852 738.463 68.8504 734.238 68.8368C731.014 68.822 727.711 68.8298 724.563 68.7502C713.518 68.9654 705.019 69.6298 698.793 70.3551C695.578 70.9238 697.325 71.6311 702.333 72.1342C709.943 72.9225 723.432 73.3905 735.22 73.1336C743.027 72.9621 750.527 72.6837 756.495 72.2504C763.097 71.7864 767.912 71.1143 767.896 70.3831ZM761.234 96.3653C740.705 96.1316 723.227 97.3923 706.694 98.1292C697.241 98.7632 684.194 99.316 676.025 99.8963C682.867 100.571 692.537 99.4395 699.134 99.2137C717.567 97.9974 737.348 96.7264 761.234 96.3653ZM607.939 66.4569C589.723 65.3798 571.033 67.6168 550.37 67.2322C517.795 67.2099 485.746 67.5755 453.252 67.5726C436.498 67.5851 419.269 67.2875 406.394 66.3059C381.047 65.222 353.357 66.8526 327.284 65.8602C303.405 65.3054 277.308 65.2237 256.199 66.2578C237.688 66.7948 219.22 65.7575 201.073 65.5188C167.523 65.7068 134.607 64.0525 114.693 61.8887C111.489 61.6293 109.448 60.7171 107.611 60.8349C105.985 62.8873 131.301 64.3342 151.51 65.2482C168.113 66.132 187.442 66.156 206.029 66.2613C227.105 67.0283 252.507 67.5354 272.519 66.4742C303.566 65.348 337.217 67.4841 369.187 66.7602C386.353 66.3403 404.173 66.7255 417.59 67.7423C457.298 68.9281 498.68 67.7038 538.949 67.9071C557.913 67.9553 576.116 67.6438 592.204 66.9039C597.359 66.7644 604.406 66.6511 607.939 66.4569ZM550.948 57.2064C528.656 56.6284 511.986 58.5673 488.931 57.9647C462.613 57.5395 436.2 57.5113 410.249 57.871C386.641 58.0586 365.226 56.8113 341.578 56.809C316.922 56.6207 292.681 56.1397 270.138 55.246C252.194 54.9521 236.371 54.1083 218.854 53.7536C197.31 53.5529 174.199 53.8444 154.934 52.7518C138.031 52.2694 119.714 51.4352 101.889 51.6462C101.04 52.5678 119.862 52.2702 128.348 52.7459C150.529 53.3528 170.409 54.7165 194.763 54.519C210.434 54.4259 225.851 54.6822 239.791 55.3264C261.36 55.717 280.066 56.7412 301.099 57.2367C331.774 57.7754 363.256 57.8764 393.494 58.6032C422.391 58.772 450.72 57.9642 479.702 58.6544C500.619 59.0195 521.666 58.7444 539.464 57.8938C543.887 57.7311 546.843 57.4086 550.948 57.2064ZM512.814 39.3641C512.781 39.3398 512.716 39.3128 512.603 39.2805C513.197 38.6828 500.752 38.1041 494.793 37.6648C466.107 36.1172 426.59 37.4913 399.807 35.5432C380.222 34.3768 355.482 35.5589 335.449 35.4136C310.756 34.3984 281.72 35.0214 256.678 34.0023C229.855 33.3051 205.778 31.8425 178.189 31.4201C161.779 31.6798 141.193 30.8904 129.653 30.2999C131.168 30.428 126.592 30.7596 128.291 30.0323C117.962 29.1559 110.382 30.8786 122.185 31.2918C139.458 32.2545 160.559 32.8484 181.05 32.5546C219.855 33.4262 255.096 35.609 296.315 35.7306C310.148 35.7528 324.753 35.955 336.483 36.5437C353.566 36.4089 372.006 35.7213 389.128 36.1038C404.112 37.0068 421.735 37.6154 440.376 37.5235C462.273 37.421 488.209 37.4563 503.557 39.046C504.631 39.2769 513.274 39.7264 512.814 39.3641ZM510.585 84.9875C510.581 84.8983 510.148 84.8087 509.319 84.7368C482.54 84.3072 454.01 83.4532 427.396 84.2434C378.035 84.9684 336.229 87.3873 303.385 90.262C279.404 91.3616 276.78 93.8229 260.683 95.4316C246.143 95.9621 227.565 96.0594 211.65 95.6649C208.144 95.3764 197.09 95.3826 201.247 96.0138C215.32 97.1375 237.708 96.6624 254.631 96.5079C278.584 96.2132 281.022 93.8608 291.778 92.5018C299.883 91.1849 317.723 90.5536 327.803 89.3475C359.085 87.0732 397.093 85.329 440.079 84.8357C462.795 84.2192 486.704 85.4798 509.309 85.2259C510.163 85.1616 510.588 85.0754 510.585 84.9875ZM415.537 94.5204C415.651 93.8597 413.729 93.1352 407.281 92.7615C398.157 92.5751 387.63 92.6496 379.417 92.5839C370.259 92.7222 379.383 93.6385 387.134 93.2821C395.219 93.3117 408.057 93.0689 406.925 94.0761C410.5 95.1878 401.049 96.26 388.613 96.6062C385.084 96.8845 370.738 97.1508 373.39 97.5048C364.989 97.5059 380.023 98.1047 383.211 97.6353C396.893 97.099 411.762 96.4601 414.849 95.1433C415.238 94.9524 415.499 94.7406 415.537 94.5204ZM402.534 83.0097C402.594 82.9207 401.909 82.8684 399.656 82.9248C374.81 83.8529 347.308 84.3276 322.846 85.3171C270.87 89.0628 215.442 92.6705 151.417 95.0733C140.421 95.2951 128.556 94.5314 118.246 94.8462C133.667 95.556 154.087 95.8504 168.499 94.9283C226.649 92.5412 277.436 89.2242 326.697 85.8643C349.902 84.814 381.32 84.9147 400.581 83.3716C401.213 83.2963 402.476 83.1228 402.534 83.0097ZM391.857 73.0938C391.725 72.9901 390.611 72.917 388.038 72.9314C387.753 72.9303 387.45 72.9203 387.275 72.9081C379.752 73.0247 367.582 73.9973 355.485 73.7423C335.343 73.6489 302.009 72.9778 293.616 74.9687C293.584 75.6998 298.807 76.3656 297.155 77.0892C306.506 78.4624 330.789 78.8328 346.608 78.1377C353.156 77.8659 372.748 77.733 366.657 76.8078C358.956 76.4995 353.913 77.3821 345.43 77.3472C315.52 79.0497 295.507 75.3708 309.2 74.7007C332.203 73.7503 364.457 75.1803 384.449 73.654C387.975 73.6535 391.567 73.3538 391.843 73.1396C391.874 73.1244 391.874 73.1091 391.857 73.0938ZM315.78 83.1793C315.682 83.1038 315.107 83.0277 313.912 82.9518C316.251 83.4015 310.874 83.2027 312.279 83.0017C309.277 82.6322 297.605 83.7622 296.106 82.8788C280.883 81.9685 263.783 83.1568 253.336 83.9602C241.084 84.8829 236.11 86.2716 225.195 87.2491C203.142 88.1433 185.162 89.5358 163.524 90.4673C150.791 90.9143 135.948 90.6959 122.709 90.8632C121.736 91.8544 140.822 91.3985 150.019 91.44C181.171 91.2455 199.891 88.9793 226.977 88.0508C242.776 87.2575 245.051 85.5312 258.411 84.5248C265.722 83.9158 276.72 83.0227 288.295 83.3153C285.695 84.1321 297.697 84.3919 304.155 83.9095C307.946 83.8042 316.223 83.5046 315.78 83.1793ZM216.599 73.3768C216.62 73.1297 216.086 72.8844 214.582 72.6494C210.939 72.1348 203.009 72.0307 196.483 72.0453C193.528 72.0378 190.479 72.0351 187.648 71.9441C183.654 71.4065 177.798 70.7765 169.365 70.7724C162.823 70.8175 156.267 70.8766 149.92 71.0129C144.522 71.0598 135.117 71.3551 132.774 70.7793C129.147 70.289 119.839 69.8917 113.9 70.2857C110.133 70.5681 113.429 71.1335 106.585 71.1405C101.444 71.2662 94.7676 71.4802 95.0445 72.001C93.6366 72.4912 101.369 72.8187 104.541 72.3455C106.023 72.0976 104.646 71.8351 109.362 71.8148C114.437 71.6597 121.623 71.468 121.711 70.9448C120.934 70.6029 125.82 71.2025 127.08 71.3283C129.603 71.6398 133.843 71.9885 138.792 71.8621C145.746 71.802 152.889 71.7236 159.776 71.5855C165.03 71.5227 174.632 71.3836 176.388 71.9457C179.432 72.5522 188.346 72.6626 195.352 72.6945C201.039 72.7251 210.63 72.6941 209.246 73.3704C209.52 74.2007 202.742 75.0067 207.448 75.8374C211.635 76.4305 208.989 77.3019 201.426 77.5788C194.985 77.7555 189.042 77.3086 184.533 76.9729C173.121 76.0479 167.902 74.7299 155.018 73.9087C152.167 73.3756 147.448 74.0417 152.349 74.268C165.814 75.2773 171.028 76.8437 186.645 77.688C192.375 77.9825 199.96 78.191 205.998 77.9007C215.238 77.4761 217.275 76.4724 214.762 75.6679C212.555 75.3168 212.841 74.9574 214.159 74.5993C215.095 74.2067 216.586 73.7882 216.599 73.3768ZM102.54 77.7901C102.54 77.7914 102.445 77.791 102.174 77.79C101.698 77.7843 102.54 77.7888 102.54 77.7901Z" fill="#9F6540"/>
<ellipse cx="16.9342" cy="7.03862" rx="16.9342" ry="7.03862" transform="matrix(-0.999998 -0.00184786 -0.000625909 0.999999 873.739 5.06421)" fill="#86502D"/>
<ellipse cx="16.9342" cy="7.03862" rx="16.9342" ry="7.03862" transform="matrix(-0.999998 -0.00184786 -0.000625909 0.999999 571.747 4.50391)" fill="#86502D"/>
<ellipse cx="11.2895" cy="4.69241" rx="11.2895" ry="4.69241" transform="matrix(-0.999998 -0.00184786 -0.000625909 0.999999 566.099 6.84131)" fill="#AF9788"/>
<ellipse cx="11.2895" cy="4.69241" rx="11.2895" ry="4.69241" transform="matrix(-0.999998 -0.00184786 -0.000625909 0.999999 868.089 7.40015)" fill="#AF9788"/>
<path opacity="0.5" d="M1106.65 3.00274C1114.88 1.91758 1292.41 2.76614 1380.14 3.32607C1380.13 9.11353 1396.7 10.4494 1404.99 10.3939L1404.94 36.5931C1399.51 38.4115 1376.3 42.0729 1326.91 42.1709C1343.37 42.816 1389.78 45.2431 1410.92 46.3761C1411.19 54.7836 1411.56 75.6262 1410.84 91.736C1377.91 96.8587 1371.96 102.443 1373.09 104.596L1345.65 112.188C1341.93 112.184 1214.82 111.682 736.084 109.708C741.574 108.307 768.671 105.25 781.534 103.896C776.961 104.151 754.783 104.959 702.655 106.149C637.495 107.636 583.476 111.287 567.186 111.268C550.897 111.249 510.605 109.637 499.46 109.428C490.544 109.261 479.739 110.513 475.452 111.159L25.351 110.627L25.3657 102.611C28.7959 102.159 39.7733 100.321 56.241 96.5866C99.1098 95.4642 127.421 85.3307 149.714 83.793C140.286 82.4132 33.1195 82.091 35.6977 78.7702C38.2758 75.4495 82.86 73.9381 93.1559 69.6488C103.452 65.3596 64.8715 65.5095 56.3046 61.9801C47.7377 58.4507 82.0574 44.2185 82.9183 42.2643C83.7791 40.3102 69.2073 38.7288 64.9297 33.8358C61.5076 29.9214 89.2373 24.8056 103.53 22.737L45.2623 5.85358L69.2752 1.77631L144.721 1.8655C161.864 3.90605 198.036 7.98937 205.58 7.99829C213.125 8.00721 222.45 3.19558 226.17 0.788643L384.776 0.976155C395.922 0.989331 404.493 2.17262 414.783 1.01163C425.073 -0.149358 429.358 1.02886 442.218 1.04406C455.078 1.05927 454.218 2.23141 465.364 2.24458C474.28 2.25512 475.939 1.47498 475.654 1.08359L499.659 1.11197L520.235 1.1363L540.811 1.16063C551.957 1.1738 553.671 1.17583 591.392 2.39358L736.281 2.56487L804.868 2.64596C814.871 2.26673 835.563 1.5091 838.306 1.51234L860.597 1.53869C869.513 1.54923 878.028 2.3414 881.171 2.73617C886.03 2.35086 899.52 1.58471 914.609 1.60255C921.468 1.61066 922.325 1.61167 932.611 2.79698C942.897 3.9823 942.042 2.80813 961.762 1.65829C969.481 0.494266 977.194 1.67654 987.48 2.86185C997.766 4.04717 1005.48 2.88314 1012.34 2.89125C1019.2 2.89935 1026.06 2.90746 1032.92 1.74242C1039.78 0.577379 1053.5 2.9399 1061.21 2.94902C1068.93 2.95814 1096.36 4.35919 1106.65 3.00274Z" fill="url(#paint2_linear_83_5006)"/>
<defs>
<linearGradient id="paint0_linear_83_5006" x1="705.799" y1="0.834281" x2="705.662" y2="116.58" gradientUnits="userSpaceOnUse">
<stop stop-color="#A06742"/>
<stop offset="1" stop-color="#824827"/>
</linearGradient>
<linearGradient id="paint1_linear_83_5006" x1="718.47" y1="0.849261" x2="718.339" y2="111.447" gradientUnits="userSpaceOnUse">
<stop stop-color="#C79B58"/>
<stop offset="1" stop-color="#B4824C"/>
</linearGradient>
<linearGradient id="paint2_linear_83_5006" x1="718.47" y1="0.849261" x2="718.339" y2="111.447" gradientUnits="userSpaceOnUse">
<stop stop-color="#DE792B"/>
<stop offset="1" stop-color="#A24E20"/>
</linearGradient>
</defs>
</svg>
