<svg width="80" height="73" viewBox="0 0 80 73" fill="none" xmlns="http://www.w3.org/2000/svg">
<path d="M36.2101 64.8171C36.2542 63.7997 40.7153 63.6792 42.9403 63.7461C42.6314 64.4422 43.069 67.2491 43.3265 68.5655L40.6234 72.113C39.4097 72.4254 35.8129 72.7155 31.1349 71.3768C31.6645 67.5213 34.9229 66.9144 36.4859 67.0929C36.3756 66.7582 36.166 65.8345 36.2101 64.8171Z" fill="#6B1E10"/>
<path d="M46.0416 68.2108C45.7312 67.5683 45.5428 66.0898 45.4874 65.4308C45.8199 64.5659 47.7262 63.2191 52.6915 64.7512C51.9157 68.149 53.3565 70.2495 53.4674 70.7437C53.556 71.1391 52.9871 72.2264 52.6915 72.7207C50.5303 72.9884 44.9887 73.3014 40.112 72.4118C40.1674 71.2998 41.442 67.8402 46.0416 68.2108Z" fill="#852514"/>
<path d="M44.0471 65.492C42.5398 62.329 42.791 54.2895 43.105 50.6652C46.2083 49.4296 53.3238 47.9346 56.9591 51.839C55.6734 53.6676 54.687 61.703 54.3545 65.492C54.0775 65.3891 53.1575 65.1708 51.6946 65.1214C49.8658 65.0596 47.2058 66.1716 44.0471 65.492Z" fill="#034959"/>
<path d="M50.9185 63.8864C49.6329 63.7875 47.0209 64.257 45.8756 64.5042C46.4298 63.7628 51.3619 62.4037 51.7498 62.0948C52.1377 61.7859 51.5281 59.1912 54.7423 53.4458C53.5785 55.608 53.4677 63.2068 53.4677 63.5775C53.4677 63.9481 52.5256 64.0099 50.9185 63.8864Z" fill="#023E47"/>
<path d="M36.5657 53.5691C34.349 53.6185 34.0904 54.331 34.2382 54.6811C34.5708 65.0599 35.4573 65.4306 36.5657 65.4306C37.6741 65.4306 39.1148 64.3803 40.334 64.3803C41.3093 64.3803 43.2526 64.8334 44.1023 65.0599L43.4927 54.0633C42.1073 53.878 38.7824 53.5197 36.5657 53.5691Z" fill="#034959"/>
<path d="M39.7241 62.4031C38.4827 62.6502 36.6577 64.4006 35.9003 65.2449C38.2278 65.9245 39.0591 64.5653 40.0566 64.38C40.8546 64.2317 43.049 64.8948 44.0465 65.2449L44.4344 64.5653L42.8828 54.063C42.3471 56.7401 40.9654 62.156 39.7241 62.4031Z" fill="#013D48"/>
<path d="M52.8965 9.76215C50.6355 9.40749 49.4791 11.7202 49.1836 12.9209C49.2205 13.7337 49.5383 15.6031 50.5136 16.5784C50.2919 17.6867 50.6798 18.4625 52.564 18.3517C54.4481 18.2409 54.3927 15.3592 54.3927 14.8051C54.3927 14.2509 55.7227 10.2055 52.8965 9.76215Z" fill="#F6B387"/>
<path d="M32.1706 14.6582C32.082 14.5252 32.1337 14.1594 32.1706 13.9932L34.1656 12.2753C37.1581 11.832 44.0076 11.4219 47.4655 13.3282C49.128 16.6532 47.5764 18.9807 45.526 18.759C39.0423 17.9832 38.1556 18.9807 37.4352 19.2023C36.7148 19.424 33.3344 19.9227 31.4502 18.3157C30.7298 17.1519 30.5636 15.7665 32.1706 14.6582Z" fill="#FCC49B"/>
<path d="M44.6394 17.2074C46.9447 16.9857 47.4472 14.455 47.4102 13.2174C47.4472 13.0142 47.7095 13.1176 48.4631 15.157C49.2168 17.1963 47.6319 18.2603 46.7452 18.5374C46.6529 18.5189 46.1024 18.227 44.6394 17.2074Z" fill="#F6B387"/>
<path d="M52.6195 14.9353C51.2009 15.0683 49.9226 14.5843 49.4608 14.3257C49.5901 14.5289 49.9817 15.0461 50.5137 15.4894C51.1787 16.0436 50.8462 17.0411 51.8437 17.3182C52.8412 17.5952 53.4508 16.764 53.617 16.099C53.7833 15.434 53.5062 14.8244 52.6195 14.9353Z" fill="#E49057"/>
<path d="M49.0976 12.6631C48.1222 13.5054 45.6617 13.7529 44.5534 13.7714C43.5005 9.67059 42.3922 10.8344 42.0043 7.06604C41.6939 4.05139 44.3872 2.04163 45.7726 1.41357C48.5988 1.67218 54.0074 3.68564 53.0321 9.6706C50.095 9.55977 50.3167 11.6102 49.0976 12.6631Z" fill="#FF8269"/>
<path d="M28.8459 11.2776C29.6882 10.1249 31.6721 8.95011 32.5588 8.50678C32.9282 5.34804 36.1276 -0.503924 45.9696 1.35807C40.8713 3.68555 42.3121 8.72844 42.6446 9.2826C42.9771 9.83677 44.3625 10.668 44.6396 13.8267C43.4204 13.2726 40.7604 12.9955 38.71 13.5497C36.6596 14.1038 34.9971 13.993 32.5588 13.2172C30.1205 12.4413 27.793 12.7184 28.8459 11.2776Z" fill="#FB411C"/>
<path d="M42.7002 9.33837C44.2962 11.156 44.6582 13.0882 44.6398 13.8271C44.806 13.901 45.46 13.9379 46.7456 13.4946C46.0252 8.78421 40.7607 6.23506 45.8589 1.35841C41.8135 1.02591 40.7052 7.0663 42.7002 9.33837Z" fill="#FFBBAD"/>
<path d="M32.1153 8.72815L31.3395 9.17148C31.2287 9.44856 31.6609 10.1246 34.2766 10.6123C34.8307 13.2723 39.1532 13.8819 40.1507 10.7786C46.712 11.6652 51.5295 9.85495 53.1181 8.83898C53.2474 8.74662 53.4285 8.38457 53.1181 7.67524C47.7982 10.5569 42.7553 9.83648 40.3724 9.67023C40.4278 5.68025 38.2111 5.29234 37.3245 5.23692C36.4378 5.18151 33.8887 6.01275 34.0549 9.44857C33.1239 9.44857 32.3739 8.96829 32.1153 8.72815Z" fill="#343463"/>
<path d="M31.395 18.2598C31.927 18.9248 33.5008 19.2758 34.2213 19.3681C34.8678 19.3127 36.316 19.2352 36.9366 19.3681C37.7124 19.5344 39.0979 18.4815 41.2037 18.6478C43.8193 19.0024 45.951 18.7216 46.6899 18.6478C46.7453 18.5184 46.4239 17.9052 44.6949 16.4865C41.6359 14.0039 38.5437 15.3412 37.3799 16.3203C36.7334 16.3757 35.1744 16.2981 34.1104 15.5444C31.8938 14.6578 30.73 17.4286 31.395 18.2598Z" fill="#FFCAA6"/>
<path d="M32.6695 14.5619L33.5964 14.8923L33.9236 15.1567C34.1053 14.8923 34.3925 14.3241 34.0871 14.1655C33.0511 13.5707 32.9057 14.2976 32.6695 14.5619Z" fill="white"/>
<path d="M40.982 14.9908C40.6273 14.9021 39.8367 15.1016 39.4857 15.2124C39.4857 14.5474 40.1507 13.7716 41.0928 13.9378C41.8465 14.0708 41.8502 14.7321 41.7578 15.0462C41.7024 15.0462 41.4697 15.0351 40.982 14.9908Z" fill="white"/>
<path d="M33.2125 16.7057C33.4772 15.5108 35.0136 15.1752 35.7488 15.1567C36.0061 15.1567 36.6309 15.2453 37.072 15.5993C38.1747 16.5951 38.0644 18.808 37.2374 19.1952C36.4103 19.5825 34.5358 19.5271 33.9844 19.3059C33.4331 19.0846 32.8817 18.1994 33.2125 16.7057Z" fill="#F0A06A"/>
<ellipse cx="36.9923" cy="9.11678" rx="1.99499" ry="2.49374" fill="#969ECC"/>
<path d="M38.433 8.78418L35.773 10.2804L38.5438 9.17209L38.433 8.78418Z" fill="white"/>
<path d="M37.768 7.17676L35.6068 10.1138L38.4884 8.008L37.768 7.17676Z" fill="#FDFAFF"/>
<path d="M32.1711 13.6052C31.9494 13.2505 32.2449 12.9586 32.3927 12.7739C33.2979 12.9032 35.097 13.0843 35.2744 13.4389C35.496 13.8823 34.9419 14.1593 34.6648 14.2148C34.3877 14.2702 33.4457 13.4389 32.1711 13.6052Z" fill="#553737"/>
<path d="M37.4353 14.4033C36.9033 14.3146 36.9181 13.8491 36.992 13.6274C37.1583 12.9625 41.5361 11.577 44.584 13.4058C43.6419 14.0708 42.2565 13.6274 40.8157 13.6274C39.3749 13.6274 38.1003 14.5141 37.4353 14.4033Z" fill="#553737"/>
<ellipse cx="41.5361" cy="14.4917" rx="0.332498" ry="0.554164" fill="#553737"/>
<ellipse cx="33.8889" cy="14.5471" rx="0.332498" ry="0.498747" fill="#553737"/>
<ellipse opacity="0.5" cx="35.3297" cy="15.988" rx="1.10833" ry="0.387914" fill="#FCFFFB"/>
<ellipse opacity="0.5" cx="33.9442" cy="16.5419" rx="0.166249" ry="0.387914" transform="rotate(26.6387 33.9442 16.5419)" fill="#FCFFFB"/>
<ellipse cx="39.375" cy="15.9885" rx="0.166249" ry="0.277082" fill="#FFDACC"/>
<ellipse cx="31.2843" cy="16.0984" rx="0.166249" ry="0.277082" fill="#FFDACC"/>
<g opacity="0.5" filter="url(#filter0_f_48_937)">
<ellipse cx="41.1481" cy="15.9875" rx="1.38541" ry="0.498747" fill="#FF6442"/>
<ellipse cx="32.3371" cy="15.7663" rx="0.775829" ry="0.498747" fill="#FF6442"/>
</g>
<ellipse cx="41.1481" cy="15.9875" rx="1.38541" ry="0.498747" fill="#FFA17F"/>
<ellipse cx="32.3371" cy="15.7663" rx="0.775829" ry="0.498747" fill="#FFA17F"/>
<path d="M50.4583 12.1644C50.3697 12.6077 49.6456 13.088 49.2946 13.2727C49.4978 13.3282 50.0261 13.5166 50.5137 13.8269C51.1233 14.2148 52.5642 14.2702 53.2291 13.6052C53.8941 12.9402 54.1158 11.0561 52.4533 10.6128C50.7908 10.1694 50.5692 11.6103 50.4583 12.1644Z" fill="#E49057"/>
<path d="M49.2392 12.8293C49.0619 13.3613 49.6825 15.0459 50.015 15.8218C50.0335 15.36 50.137 14.3477 50.403 13.993C50.7355 13.5497 50.2367 13.2726 50.015 13.1064C49.8377 12.9734 49.7564 12.1643 49.738 11.7764C49.6456 11.9057 49.4165 12.2973 49.2392 12.8293Z" fill="#FCC49B"/>
<path d="M49.4053 12.3306C48.7846 12.9956 47.8536 13.3465 47.4657 13.4389C49.0173 15.2122 47.8536 18.9251 46.1911 18.5926C42.4782 17.983 40.5941 18.5372 37.7124 19.2022C34.8308 19.8672 33.6116 19.4239 31.2841 18.0385C28.3041 20.8529 30.325 26.9646 32.5856 33.8014L32.6141 33.8875C34.8862 40.7592 33.9995 44.1396 33.5562 45.3033C33.1129 46.467 31.1179 47.52 32.337 50.5679C33.2791 48.1849 34.5537 47.6862 37.7678 45.1925C40.982 42.6987 42.3674 38.3763 42.4782 37.0463C42.5891 35.7163 44.5286 30.1746 48.8511 26.7388C53.1736 23.303 54.1157 19.1468 51.5665 18.2047C50.4138 17.8057 50.4951 16.9301 50.6798 16.5422C50.255 16.376 49.4053 15.3009 49.4053 12.3306Z" fill="#553737"/>
<path d="M48.02 21.3639C48.3747 19.5463 46.9117 18.7594 46.1358 18.5931C47.9646 18.5931 48.7958 15.8777 47.4658 13.384C47.7762 13.384 48.8143 12.7559 49.2946 12.4419C49.0544 13.2547 48.9621 15.2016 50.5137 16.4873C55.5012 20.311 51.5112 23.9131 51.1787 24.4672C50.8462 25.0214 43.365 29.8426 42.4784 36.8805C41.9242 43.4196 38.5438 44.6388 37.8788 45.3038C37.2138 45.9688 34.8309 46.4121 32.3372 50.5129C32.3372 50.0696 31.118 48.13 33.5563 45.3038C36.1609 42.4776 37.3246 43.3088 39.5967 39.5405C41.8688 35.7722 40.2063 30.563 41.2592 28.0139C42.3121 25.4647 47.5767 23.636 48.02 21.3639Z" fill="#462C2C"/>
<path d="M39.4305 20.2544C36.6636 21.0677 34.3616 20.7869 33.5564 20.5449C33.9956 22.215 36.0268 22.3602 36.466 22.3602C36.9052 22.3602 38.9364 22.1787 39.4305 20.2544Z" fill="#301315"/>
<path d="M34.9973 22.0803C35.4338 21.7254 36.7542 21.1529 38.5439 21.7025C37.3217 22.8841 35.6702 22.4467 34.9973 22.0803Z" fill="#FA7B6D"/>
<path d="M33.8889 45.0813C35.2993 43.9065 38.1871 41.0614 38.4543 39.0789C38.7884 36.6009 35.8704 30.2662 38.8441 26.9089C41.2038 24.2448 47.1955 21.0717 45.3025 18.814" stroke="#462C2C" stroke-width="5" stroke-linecap="round"/>
<path d="M32.2988 29.5952C27.2891 33.7625 27.1081 43.5232 27.6438 47.8826L32.9083 34.9152C32.9452 34.5273 32.8751 32.9202 32.2988 29.5952Z" fill="#536147"/>
<path d="M32.465 55.0318C32.465 53.9235 32.0217 52.575 31.8 52.0393L33.4625 40.9561L40.8329 44.1148L43.3266 54.0343C43.3081 55.0318 42.9054 57.0711 41.4425 57.2485C39.6137 57.4701 37.7296 56.5835 36.8983 56.5835C36.0671 56.5835 35.7346 57.6364 35.2358 57.6364C34.7371 57.6364 34.6262 57.0268 33.795 56.5835C33.13 56.2288 32.0771 56.7312 31.6338 57.0268C31.9108 56.8236 32.465 56.1401 32.465 55.0318Z" fill="#852514"/>
<path d="M34.072 50.487L33.1299 50.21L32.2432 52.8699C32.5018 53.2024 33.2518 53.8896 34.1828 53.9783C33.7395 53.4463 33.9242 51.4291 34.072 50.487Z" fill="#510E00"/>
<path d="M37.4526 53.9787C37.8516 52.8704 37.3972 51.3372 37.1201 50.7092C37.6078 50.2215 39.7617 49.8779 40.7776 49.7671L39.8355 53.8679C39.6139 54.0157 38.827 54.2447 37.4526 53.9787Z" fill="#510E00"/>
<mask id="path-45-inside-1_48_937" fill="white">
<ellipse cx="35.6791" cy="52.3717" rx="2.32749" ry="2.7154"/>
</mask>
<ellipse cx="35.6791" cy="52.3717" rx="2.32749" ry="2.7154" fill="#510E00"/>
<path d="M35.0066 52.3717C35.0066 52.4334 34.9844 52.4126 35.0472 52.3394C35.1153 52.2598 35.3294 52.0871 35.6791 52.0871V58.0871C39.0386 58.0871 41.0066 55.0777 41.0066 52.3717H35.0066ZM35.6791 52.0871C36.0289 52.0871 36.243 52.2598 36.3111 52.3394C36.3739 52.4126 36.3517 52.4334 36.3517 52.3717H30.3517C30.3517 55.0777 32.3197 58.0871 35.6791 58.0871V52.0871ZM36.3517 52.3717C36.3517 52.3099 36.3739 52.3307 36.3111 52.4039C36.243 52.4835 36.0289 52.6562 35.6791 52.6562V46.6562C32.3197 46.6562 30.3517 49.6656 30.3517 52.3717H36.3517ZM35.6791 52.6562C35.3294 52.6562 35.1153 52.4835 35.0472 52.4039C34.9844 52.3307 35.0066 52.3099 35.0066 52.3717H41.0066C41.0066 49.6656 39.0386 46.6562 35.6791 46.6562V52.6562Z" fill="#FFFFFD" mask="url(#path-45-inside-1_48_937)"/>
<path d="M36.5657 53.2027C35.8822 53.295 34.4599 53.114 34.2382 51.651C34.9475 52.6264 36.0854 53.0918 36.5657 53.2027Z" fill="white"/>
<ellipse cx="35.0336" cy="53.7761" rx="0.886662" ry="0.277082" transform="rotate(30.0877 35.0336 53.7761)" fill="white"/>
<path d="M55.6845 24.2198C55.4185 23.8651 54.8717 23.8134 54.6316 23.8319C54.6316 24.0535 54.1144 24.3675 53.8558 24.4969L55.2412 25.4944C55.1673 25.1988 55.1525 24.5301 55.6845 24.2198Z" fill="#CF6262"/>
<path d="M61.9467 21.8911C60.129 23.6644 60.5243 27.4327 60.9492 29.0952C61.1154 29.9634 62.0907 31.0902 64.662 28.6519C63.731 25.7703 64.4958 23.7937 64.9945 23.1657C64.4773 23.1472 63.1436 22.8664 61.9467 21.8911Z" fill="#FDB81F"/>
<path d="M61.6142 20.4517C61.3482 20.9393 61.725 21.6523 61.9467 21.9479L61.1154 23.7766L59.9517 22.89C59.9517 22.5205 60.2842 21.5157 61.6142 20.4517Z" fill="#E06F01"/>
<path d="M64.9391 23.1668C63.8308 23.2555 62.4454 22.391 61.8912 21.9477C61.6142 21.8184 61.1597 21.3492 61.5587 20.5068C62.8887 21.6152 64.4034 21.9292 64.9946 21.9477C64.9207 22.0031 64.8061 22.3245 64.9391 23.1668Z" fill="#FFF53F"/>
<path d="M58.3444 22.0581C56.2164 22.7674 55.1671 24.5703 54.9085 25.3831C55.1117 26.75 56.3715 29.3952 59.7852 29.0406C59.3862 27.1342 60.3948 24.1085 60.9489 22.8339C60.2839 23.0371 58.832 23.1664 58.3444 22.0581Z" fill="#FFF538"/>
<path d="M62.501 23.3327C62.0576 23.5101 61.2449 23.148 60.8939 22.9448C59.2979 25.2945 59.49 27.9877 59.7856 29.0406L61.8914 29.3177C61.5589 28.6527 61.2153 26.5247 62.501 23.3327Z" fill="#F99001"/>
<path d="M60.7829 22.9448C58.9652 23.2994 58.363 22.5014 58.2892 22.0581C59.1758 22.0581 61.5033 22.9078 62.5562 23.3327C62.2976 23.4805 61.5809 23.6098 60.7829 22.9448Z" fill="#E97A01"/>
<path d="M58.3447 22.0581C55.6404 23.8314 56.3127 26.1404 56.9593 27.0456L54.9643 25.5493C54.9828 24.8474 55.6404 23.1221 58.3447 22.0581Z" fill="white"/>
<path d="M54.4652 60.4065L55.3519 57.0815C55.5883 56.1949 55.9676 52.9438 56.1277 51.4291C57.0698 46.9219 58.6991 35.9236 57.6794 27.9879C58.6769 28.93 62.0573 29.4288 64.3294 26.4917C65.216 30.2046 65.3823 31.2021 65.9364 39.847C66.4906 48.492 64.2185 48.9907 63.886 50.487C63.5535 51.9832 64.2185 52.9807 63.886 53.5903C63.62 54.078 61.4846 55.8993 60.4502 56.749V57.414L58.3998 56.749C58.4367 57.1369 58.3776 58.0901 57.8456 58.7994C57.3136 59.5088 55.3704 60.1664 54.4652 60.4065Z" fill="#536147"/>
<path d="M34.0166 41.7869C34.1053 39.2156 33.3516 33.8439 32.9637 31.4795C31.763 33.5853 29.4281 38.2735 29.6941 40.1799C30.0266 42.5628 28.475 45.6661 27.9208 46.2757C27.3667 46.8852 25.7042 52.3715 25.7042 53.7014C25.7042 55.0314 30.4146 54.0894 31.4675 53.7014C32.5204 53.3135 33.4625 50.709 33.407 49.0465C33.3516 47.384 33.9058 45.0011 34.0166 41.7869Z" fill="#DF5E09"/>
<path d="M26.2584 51.7621C26.9476 51.5461 28.4674 51.1573 29.0332 51.3301C29.7406 51.5461 32.1345 51.3841 32.2434 49.6562" stroke="#C05107" stroke-width="3" stroke-linecap="round"/>
<path d="M32.7421 41.897C33.1411 40.1237 33.0562 34.3235 32.9638 31.645C33.4071 32.6425 33.6288 41.1766 34.1829 42.2295C33.9613 42.562 33.5734 47.2724 33.2963 50.3203C33.0192 53.3682 32.0771 53.4791 30.3038 54.0332C28.5305 54.5874 26.0922 54.2549 25.7042 54.0332C25.3939 53.8559 25.5749 53.1835 25.7042 52.8695C26.2584 52.7771 27.8101 52.5924 29.5834 52.5924C31.8 52.5924 31.8555 50.0987 31.8001 48.9349C31.7446 47.7712 32.2434 44.1137 32.7421 41.897Z" fill="#A54405"/>
<path d="M26.2584 40.5678C26.9234 40.6121 27.6069 40.2537 27.8655 40.069C27.9394 38.739 28.0096 35.7576 27.6992 34.472C27.3113 32.8649 26.0921 33.142 25.8705 33.1974C25.6488 33.2528 25.0947 33.6407 25.6489 34.6936C23.9864 36.5778 25.4272 40.5124 26.2584 40.5678Z" fill="#DD8D5A"/>
<path d="M26.9235 39.6812C27.9432 40.7009 30.8211 40.2169 32.1326 39.8474C32.576 38.5544 33.3961 35.802 33.1301 35.137C32.7976 34.3058 29.0293 32.7541 28.8076 32.8096C28.586 32.865 28.2535 33.0866 28.586 33.9179C26.7018 33.7516 25.6489 38.4066 26.9235 39.6812Z" fill="#F9B488"/>
<path d="M32.0769 49.656C31.1903 50.2323 29.7125 50.1547 29.0844 50.0439C31.0603 49.1361 31.338 49.206 32.3969 46.1379C32.4432 45.9514 32.4865 45.8347 32.5203 45.7769C32.4779 45.9018 32.4368 46.0221 32.3969 46.1379C32.2656 46.6664 32.1097 47.7555 32.0769 49.656Z" fill="#A54405"/>
<path d="M60.1229 32.1445C59.7683 29.3959 55.9852 25.7532 54.138 24.2754C48.5409 27.2679 46.5459 31.5903 45.5484 37.9078C44.5509 44.2253 47.1001 50.3765 48.153 51.0415C49.2059 51.7065 54.6367 53.3136 60.6217 50.044C62.8938 44.5024 60.5663 35.5803 60.1229 32.1445Z" fill="#DF5E09"/>
<path d="M40.5557 49.6009C40.6443 47.7389 39.8537 45.3523 39.4473 44.3918L45.3769 43.1172L46.8177 49.1576C48.6095 49.9888 51.8052 51.6402 50.2535 51.5959C48.314 51.5405 45.3215 53.2584 43.8806 54.0896C42.728 54.7546 40.2601 54.3667 39.1703 54.0896C39.5951 53.3692 40.467 51.4629 40.5557 49.6009Z" fill="#DF5E09"/>
<path d="M52.9689 48.8246C51.1512 49.5339 47.9629 49.231 46.596 48.9908C50.32 54.3551 57.4946 51.9279 60.6163 50.0438C60.838 49.3049 61.3368 47.2951 61.5584 45.1671C61.8355 42.5071 60.8934 36.5776 60.6163 35.5801C60.3393 34.5826 60.7826 30.8143 57.6239 28.0435C58.7322 30.0939 57.9009 32.7538 57.6239 34.1947C57.3468 35.6355 58.7876 38.6834 58.7876 40.1796C58.7876 41.6759 57.9009 41.288 57.0697 42.2855C58.7876 42.4517 58.4551 43.3938 57.9009 43.7263C57.3468 44.0588 56.4601 43.56 55.3518 44.89C54.2435 46.22 54.3543 48.3813 52.9689 48.8246Z" fill="#A54405"/>
<path d="M40.4449 53.7567C40.5004 53.7567 42.1629 54.2001 43.5483 53.3688C44.9337 52.5376 45.6541 51.5955 46.5962 51.4847C47.5382 51.3738 49.2561 50.598 49.6441 50.598C50.032 50.598 51.639 51.7063 54.9086 51.263C57.5243 50.9083 60.0623 49.1202 61.0044 48.2705" stroke="#C05107" stroke-width="3" stroke-linecap="round"/>
<path d="M42.8834 35.1368C43.9917 29.1961 48.8129 24.7554 51.085 23.2777C53.1908 21.2827 56.017 23.6102 54.0774 24.6631C46.8179 28.4868 45.3216 34.7488 45.6541 42.4517C45.9676 49.7149 49.9766 53.0917 51.7499 53.9229C53.5233 54.7542 58.6216 55.1421 60.3949 50.875C61.2815 48.6584 62.944 48.4921 62.5561 50.2654C59.9516 60.6283 49.4779 56.86 46.5963 53.0917C43.7146 49.3234 41.4979 42.5626 42.8834 35.1368Z" fill="#536147"/>
<path d="M61.6695 28.4309C62.4696 27.8264 64.0706 26.332 64.3081 25.0348C64.3147 24.9861 64.3218 24.9359 64.3295 24.8843C64.3245 24.9341 64.3173 24.9843 64.3081 25.0348C64.161 26.116 64.2588 26.4937 64.3295 26.5468C63.9231 27.0455 62.8222 28.1206 61.6695 28.4309Z" fill="white"/>
<path d="M59.6744 28.7084C59.4528 28.7084 59.0648 28.6345 58.8986 28.5975C58.7139 27.8771 58.5328 25.7491 59.2865 23.0005C59.7298 23.1335 60.5057 23.0559 60.8382 23.0005C60.2471 23.7394 59.1868 25.9154 59.6744 28.7084Z" fill="white"/>
<path d="M58.1147 23.7212C58.2476 23.9429 58.9459 24.2199 59.2784 24.3308L58.8351 26.3812C58.5026 25.9563 57.893 24.8295 58.1147 23.7212Z" fill="white"/>
<path d="M57.6819 25.6847C57.7463 26.1692 58.4422 26.7921 58.7876 27.0465V27.3236C58.4582 27.1223 57.7807 26.515 57.6819 25.6847C57.6809 25.6768 57.68 25.6689 57.6793 25.6611C57.6801 25.669 57.681 25.6769 57.6819 25.6847Z" fill="white"/>
<g filter="url(#filter1_f_48_937)">
<path d="M58.3446 22.0586C55.6403 23.8319 56.3127 26.1409 56.9592 27.0461L54.9642 25.5498C54.9827 24.8479 55.6403 23.1226 58.3446 22.0586Z" fill="white"/>
</g>
<g filter="url(#filter2_f_48_937)">
<path d="M61.6695 28.4309C62.4696 27.8264 64.0706 26.332 64.3081 25.0348C64.3147 24.9861 64.3218 24.9359 64.3295 24.8843C64.3245 24.9341 64.3173 24.9843 64.3081 25.0348C64.161 26.116 64.2588 26.4937 64.3295 26.5468C63.9231 27.0455 62.8222 28.1206 61.6695 28.4309Z" fill="white"/>
</g>
<g filter="url(#filter3_f_48_937)">
<path d="M59.6744 28.7084C59.4528 28.7084 59.0648 28.6345 58.8986 28.5975C58.7139 27.8771 58.5328 25.7491 59.2865 23.0005C59.7298 23.1335 60.5057 23.0559 60.8382 23.0005C60.2471 23.7394 59.1868 25.9154 59.6744 28.7084Z" fill="white"/>
</g>
<g filter="url(#filter4_f_48_937)">
<path d="M58.1147 23.7212C58.2476 23.9429 58.9459 24.2199 59.2784 24.3308L58.8351 26.3812C58.5026 25.9563 57.893 24.8295 58.1147 23.7212Z" fill="white"/>
</g>
<g filter="url(#filter5_f_48_937)">
<path d="M57.6819 25.6847C57.7463 26.1692 58.4422 26.7921 58.7876 27.0465V27.3236C58.4582 27.1223 57.7807 26.515 57.6819 25.6847C57.6809 25.6768 57.68 25.6689 57.6793 25.6611C57.6801 25.669 57.681 25.6769 57.6819 25.6847Z" fill="white"/>
</g>
<path d="M52.4704 48.2153C51.8054 48.57 49.2008 48.437 47.9817 48.3262C48.7575 48.1414 50.5752 47.7498 51.6392 47.6612C52.917 47.5547 51.7905 46.5785 54.4035 44.7327C54.507 44.6493 54.6196 44.5721 54.7425 44.5024C54.623 44.5807 54.5101 44.6574 54.4035 44.7327C53.107 45.7783 53.2402 47.8048 52.4704 48.2153Z" fill="#A54405"/>
<path d="M54.576 38.6282C57.2914 36.2453 57.1251 32.8095 56.6818 31.5904C54.0772 27.6004 46.5406 30.7591 40.5002 38.0187C40.0569 37.132 35.014 34.9708 33.4069 34.9153C31.7999 34.8599 31.8553 40.0136 32.1878 40.7895C32.5203 41.5653 37.8402 44.5578 39.8352 44.724C41.8302 44.8903 51.8606 41.0111 54.576 38.6282Z" fill="#02667E"/>
<path d="M37.5081 41.6205C37.6411 43.2165 39.0044 44.3913 39.6694 44.7792C39.9797 44.7792 40.8331 44.6314 41.221 44.5576C41.0178 44.0034 40.689 42.6401 40.9993 41.6205C40.3344 42.0195 40.242 43.0798 40.2789 43.5601C39.9649 42.9135 39.4699 41.2437 40.0019 39.7363C38.6719 40.49 39.1152 42.7473 39.5031 43.7817C39.0782 43.4862 38.0844 42.6401 37.5081 41.6205Z" fill="#045467"/>
<path d="M54.6868 32.6431C56.3715 34.0617 55.8321 36.67 55.3518 37.7968C55.3518 38.0739 54.9972 38.7721 53.5785 39.3484C53.4123 38.4064 52.9689 37.7968 50.4198 37.021C51.7498 36.6663 53.1906 37.1687 53.7448 37.4643C53.7632 37.0579 53.5674 35.9126 52.6364 34.5826C54.0107 35.0703 54.4282 36.4114 54.4652 37.021C54.7607 36.5776 55.2188 35.0814 54.6868 32.6431Z" fill="#025366"/>
<path d="M48.7019 31.9774C50.7856 30.7804 52.932 30.7398 53.7448 30.8691C53.911 31.4787 52.6365 32.3099 49.4777 32.8641C46.4055 33.4031 46.1641 36.773 41.8191 37.9259C41.6928 37.9681 41.5672 37.9991 41.4424 38.0178C41.5713 37.989 41.6968 37.9583 41.8191 37.9259C43.9343 37.2194 46.2441 33.3894 48.7019 31.9774Z" fill="#2191AC"/>
<path d="M40.6112 48.8799C40.6112 47.8602 39.9462 45.6842 39.6137 44.7236H40.6112C40.8883 45.2963 41.5201 46.9292 41.8304 48.8799C42.1407 50.8305 41.3317 53.3871 40.8883 54.4215C40.6297 54.4584 39.9462 54.4326 39.2812 54.0336C40.1679 51.7061 40.6112 50.1544 40.6112 48.8799Z" fill="#A54405"/>
<path d="M42.2805 44.2034C41.2342 44.4971 40.8418 45.3401 40.7772 45.7763L40.1122 44.5571C40.2779 44.5405 40.9313 44.4466 42.2805 44.2034C42.4306 44.1613 42.5942 44.1305 42.7722 44.1138C42.5989 44.1457 42.4352 44.1755 42.2805 44.2034Z" fill="#753B3B"/>
<path d="M66.047 21.1522C66.8745 21.1522 67.4262 19.9827 67.5986 19.3979C67.5986 19.8214 68.1158 20.765 69.1503 21.1522C68.4262 21.1522 67.7279 22.3217 67.5986 22.9064C67.5986 22.5434 67.2883 21.6845 66.047 21.1522Z" fill="white"/>
<g filter="url(#filter6_f_48_937)">
<path d="M66.047 21.1522C66.8745 21.1522 67.4262 19.9827 67.5986 19.3979C67.5986 19.8214 68.1158 20.765 69.1503 21.1522C68.4262 21.1522 67.7279 22.3217 67.5986 22.9064C67.5986 22.5434 67.2883 21.6845 66.047 21.1522Z" fill="white"/>
</g>
<path d="M16.1725 16.0545C17.0001 16.0545 17.5518 14.885 17.7242 14.3003C17.7242 14.7237 18.2414 15.6674 19.2759 16.0545C18.5518 16.0545 17.8535 17.224 17.7242 17.8087C17.7242 17.4458 17.4139 16.5868 16.1725 16.0545Z" fill="white"/>
<g filter="url(#filter7_f_48_937)">
<path d="M16.1725 16.0545C17.0001 16.0545 17.5518 14.885 17.7242 14.3003C17.7242 14.7237 18.2414 15.6674 19.2759 16.0545C18.5518 16.0545 17.8535 17.224 17.7242 17.8087C17.7242 17.4458 17.4139 16.5868 16.1725 16.0545Z" fill="white"/>
</g>
<path d="M14.6209 14.8549C14.9869 14.8549 15.2309 14.3377 15.3072 14.0791C15.3072 14.2664 15.5359 14.6837 15.9934 14.8549C15.6731 14.8549 15.3643 15.3721 15.3072 15.6308C15.3072 15.4702 15.1699 15.0904 14.6209 14.8549Z" fill="white"/>
<g filter="url(#filter8_f_48_937)">
<path d="M14.6209 14.8549C14.9869 14.8549 15.2309 14.3377 15.3072 14.0791C15.3072 14.2664 15.5359 14.6837 15.9934 14.8549C15.6731 14.8549 15.3643 15.3721 15.3072 15.6308C15.3072 15.4702 15.1699 15.0904 14.6209 14.8549Z" fill="white"/>
</g>
<path d="M24.0418 11.3081C24.4078 11.3081 24.6518 10.7908 24.728 10.5322C24.728 10.7195 24.9568 11.1368 25.4143 11.3081C25.094 11.3081 24.7852 11.8253 24.728 12.0839C24.728 11.9234 24.5908 11.5435 24.0418 11.3081Z" fill="white"/>
<g filter="url(#filter9_f_48_937)">
<path d="M24.0418 11.3081C24.4078 11.3081 24.6518 10.7908 24.728 10.5322C24.728 10.7195 24.9568 11.1368 25.4143 11.3081C25.094 11.3081 24.7852 11.8253 24.728 12.0839C24.728 11.9234 24.5908 11.5435 24.0418 11.3081Z" fill="white"/>
</g>
<path d="M10.9785 12.2502C11.632 12.2502 12.0678 11.3265 12.2039 10.8647C12.2039 11.1992 12.6124 11.9444 13.4294 12.2502C12.8575 12.2502 12.306 13.1738 12.2039 13.6356C12.2039 13.3489 11.9588 12.6706 10.9785 12.2502Z" fill="white"/>
<g filter="url(#filter10_f_48_937)">
<path d="M10.9785 12.2502C11.632 12.2502 12.0678 11.3265 12.2039 10.8647C12.2039 11.1992 12.6124 11.9444 13.4294 12.2502C12.8575 12.2502 12.306 13.1738 12.2039 13.6356C12.2039 13.3489 11.9588 12.6706 10.9785 12.2502Z" fill="white"/>
</g>
<path d="M10.0001 15.5749C10.34 15.5749 10.5665 15.0946 10.6373 14.8545C10.6373 15.0284 10.8498 15.4159 11.2746 15.5749C10.9772 15.5749 10.6904 16.0552 10.6373 16.2953C10.6373 16.1463 10.5099 15.7935 10.0001 15.5749Z" fill="white"/>
<g filter="url(#filter11_f_48_937)">
<path d="M10.0001 15.5749C10.34 15.5749 10.5665 15.0946 10.6373 14.8545C10.6373 15.0284 10.8498 15.4159 11.2746 15.5749C10.9772 15.5749 10.6904 16.0552 10.6373 16.2953C10.6373 16.1463 10.5099 15.7935 10.0001 15.5749Z" fill="white"/>
</g>
<path d="M58.6215 18.8805C59.1092 18.8805 59.4343 18.1913 59.5359 17.8467C59.5359 18.0962 59.8407 18.6523 60.4503 18.8805C60.0236 18.8805 59.6121 19.5697 59.5359 19.9143C59.5359 19.7004 59.353 19.1942 58.6215 18.8805Z" fill="white"/>
<g filter="url(#filter12_f_48_937)">
<path d="M58.6215 18.8805C59.1092 18.8805 59.4343 18.1913 59.5359 17.8467C59.5359 18.0962 59.8407 18.6523 60.4503 18.8805C60.0236 18.8805 59.6121 19.5697 59.5359 19.9143C59.5359 19.7004 59.353 19.1942 58.6215 18.8805Z" fill="white"/>
</g>
<path d="M62.5005 15.8878C63.3019 15.8878 63.8361 14.7552 64.0031 14.189C64.0031 14.599 64.504 15.5129 65.5057 15.8878C64.8045 15.8878 64.1283 17.0203 64.0031 17.5866C64.0031 17.2351 63.7026 16.4033 62.5005 15.8878Z" fill="white"/>
<g filter="url(#filter13_f_48_937)">
<path d="M62.5005 15.8878C63.3019 15.8878 63.8361 14.7552 64.0031 14.189C64.0031 14.599 64.504 15.5129 65.5057 15.8878C64.8045 15.8878 64.1283 17.0203 64.0031 17.5866C64.0031 17.2351 63.7026 16.4033 62.5005 15.8878Z" fill="white"/>
</g>
<g opacity="0.5">
<ellipse cx="44.4906" cy="69.218" rx="1.16374" ry="0.387914" fill="white"/>
<ellipse cx="42.5092" cy="70.0735" rx="0.332498" ry="0.60958" transform="rotate(35.236 42.5092 70.0735)" fill="white"/>
<ellipse cx="33.1991" cy="69.1868" rx="0.332498" ry="0.60958" transform="rotate(35.236 33.1991 69.1868)" fill="white"/>
<ellipse cx="34.8028" cy="68.1169" rx="0.332498" ry="0.952234" transform="rotate(73.1716 34.8028 68.1169)" fill="white"/>
</g>
<path d="M15.8671 13.6071L16.9754 16.1008L20.1341 14.7154C20.0602 14.346 19.7019 13.2857 18.8595 12C18.1946 12.5763 16.5875 13.3115 15.8671 13.6071Z" fill="#A34102"/>
<path d="M7.00012 31.5625C7.62079 26.8632 13.5762 19.5556 16.4763 16.4893C18.4713 17.1986 19.5612 19.9251 19.8567 21.1996C17.9541 21.7169 12.7191 24.5135 7.00012 31.5625Z" fill="#6A6869"/>
<path d="M39.585 62.54C33.5557 46.8461 23.8837 28.3296 19.8014 21.0331C19.8014 20.4051 20.3445 19.3041 22.5168 19.9248C26.9058 31.9391 37.1282 52.6759 41.6908 61.5425C41.4507 61.875 40.6934 62.54 39.585 62.54Z" fill="#A34102"/>
<path d="M21.2422 14.2725C19.1143 14.1395 17.1414 15.7318 16.421 16.5446C17.2523 16.9325 19.1032 18.4287 19.8568 21.3104C20.2115 20.8227 21.8149 20.3313 22.5722 20.1466C22.6646 19.4632 22.5279 17.3315 21.2422 14.2725Z" fill="#868686"/>
<path d="M32.3254 12.6097C28.6901 11.723 23.3479 13.3855 21.1313 14.3276C20.9096 14.5677 20.8875 16.0455 22.5721 20.0355C25.4981 16.4445 29.5176 14.9187 31.1617 14.6047C31.6604 14.5677 32.5914 14.117 32.3254 12.6097Z" fill="#6A6869"/>
<defs>
<filter id="filter0_f_48_937" x="28.5613" y="12.2676" width="16.9723" height="7.21875" filterUnits="userSpaceOnUse" color-interpolation-filters="sRGB">
<feFlood flood-opacity="0" result="BackgroundImageFix"/>
<feBlend mode="normal" in="SourceGraphic" in2="BackgroundImageFix" result="shape"/>
<feGaussianBlur stdDeviation="1.5" result="effect1_foregroundBlur_48_937"/>
</filter>
<filter id="filter1_f_48_937" x="50.9642" y="18.0586" width="11.3804" height="12.9873" filterUnits="userSpaceOnUse" color-interpolation-filters="sRGB">
<feFlood flood-opacity="0" result="BackgroundImageFix"/>
<feBlend mode="normal" in="SourceGraphic" in2="BackgroundImageFix" result="shape"/>
<feGaussianBlur stdDeviation="2" result="effect1_foregroundBlur_48_937"/>
</filter>
<filter id="filter2_f_48_937" x="57.6695" y="20.8843" width="10.66" height="11.5469" filterUnits="userSpaceOnUse" color-interpolation-filters="sRGB">
<feFlood flood-opacity="0" result="BackgroundImageFix"/>
<feBlend mode="normal" in="SourceGraphic" in2="BackgroundImageFix" result="shape"/>
<feGaussianBlur stdDeviation="2" result="effect1_foregroundBlur_48_937"/>
</filter>
<filter id="filter3_f_48_937" x="54.7362" y="19.0005" width="10.102" height="13.708" filterUnits="userSpaceOnUse" color-interpolation-filters="sRGB">
<feFlood flood-opacity="0" result="BackgroundImageFix"/>
<feBlend mode="normal" in="SourceGraphic" in2="BackgroundImageFix" result="shape"/>
<feGaussianBlur stdDeviation="2" result="effect1_foregroundBlur_48_937"/>
</filter>
<filter id="filter4_f_48_937" x="54.0673" y="19.7212" width="9.21112" height="10.6602" filterUnits="userSpaceOnUse" color-interpolation-filters="sRGB">
<feFlood flood-opacity="0" result="BackgroundImageFix"/>
<feBlend mode="normal" in="SourceGraphic" in2="BackgroundImageFix" result="shape"/>
<feGaussianBlur stdDeviation="2" result="effect1_foregroundBlur_48_937"/>
</filter>
<filter id="filter5_f_48_937" x="53.6793" y="21.6611" width="9.10834" height="9.6626" filterUnits="userSpaceOnUse" color-interpolation-filters="sRGB">
<feFlood flood-opacity="0" result="BackgroundImageFix"/>
<feBlend mode="normal" in="SourceGraphic" in2="BackgroundImageFix" result="shape"/>
<feGaussianBlur stdDeviation="2" result="effect1_foregroundBlur_48_937"/>
</filter>
<filter id="filter6_f_48_937" x="56.047" y="9.39795" width="23.1033" height="23.5083" filterUnits="userSpaceOnUse" color-interpolation-filters="sRGB">
<feFlood flood-opacity="0" result="BackgroundImageFix"/>
<feBlend mode="normal" in="SourceGraphic" in2="BackgroundImageFix" result="shape"/>
<feGaussianBlur stdDeviation="5" result="effect1_foregroundBlur_48_937"/>
</filter>
<filter id="filter7_f_48_937" x="6.17255" y="4.30029" width="23.1033" height="23.5083" filterUnits="userSpaceOnUse" color-interpolation-filters="sRGB">
<feFlood flood-opacity="0" result="BackgroundImageFix"/>
<feBlend mode="normal" in="SourceGraphic" in2="BackgroundImageFix" result="shape"/>
<feGaussianBlur stdDeviation="5" result="effect1_foregroundBlur_48_937"/>
</filter>
<filter id="filter8_f_48_937" x="4.62091" y="4.0791" width="21.3725" height="21.5518" filterUnits="userSpaceOnUse" color-interpolation-filters="sRGB">
<feFlood flood-opacity="0" result="BackgroundImageFix"/>
<feBlend mode="normal" in="SourceGraphic" in2="BackgroundImageFix" result="shape"/>
<feGaussianBlur stdDeviation="5" result="effect1_foregroundBlur_48_937"/>
</filter>
<filter id="filter9_f_48_937" x="14.0418" y="0.532227" width="21.3725" height="21.5518" filterUnits="userSpaceOnUse" color-interpolation-filters="sRGB">
<feFlood flood-opacity="0" result="BackgroundImageFix"/>
<feBlend mode="normal" in="SourceGraphic" in2="BackgroundImageFix" result="shape"/>
<feGaussianBlur stdDeviation="5" result="effect1_foregroundBlur_48_937"/>
</filter>
<filter id="filter10_f_48_937" x="0.978485" y="0.864746" width="22.4509" height="22.771" filterUnits="userSpaceOnUse" color-interpolation-filters="sRGB">
<feFlood flood-opacity="0" result="BackgroundImageFix"/>
<feBlend mode="normal" in="SourceGraphic" in2="BackgroundImageFix" result="shape"/>
<feGaussianBlur stdDeviation="5" result="effect1_foregroundBlur_48_937"/>
</filter>
<filter id="filter11_f_48_937" x="0.00012207" y="4.85449" width="21.2744" height="21.4409" filterUnits="userSpaceOnUse" color-interpolation-filters="sRGB">
<feFlood flood-opacity="0" result="BackgroundImageFix"/>
<feBlend mode="normal" in="SourceGraphic" in2="BackgroundImageFix" result="shape"/>
<feGaussianBlur stdDeviation="5" result="effect1_foregroundBlur_48_937"/>
</filter>
<filter id="filter12_f_48_937" x="48.6215" y="7.84668" width="21.8289" height="22.0674" filterUnits="userSpaceOnUse" color-interpolation-filters="sRGB">
<feFlood flood-opacity="0" result="BackgroundImageFix"/>
<feBlend mode="normal" in="SourceGraphic" in2="BackgroundImageFix" result="shape"/>
<feGaussianBlur stdDeviation="5" result="effect1_foregroundBlur_48_937"/>
</filter>
<filter id="filter13_f_48_937" x="52.5005" y="4.18896" width="23.0053" height="23.3975" filterUnits="userSpaceOnUse" color-interpolation-filters="sRGB">
<feFlood flood-opacity="0" result="BackgroundImageFix"/>
<feBlend mode="normal" in="SourceGraphic" in2="BackgroundImageFix" result="shape"/>
<feGaussianBlur stdDeviation="5" result="effect1_foregroundBlur_48_937"/>
</filter>
</defs>
</svg>
