<svg width="651" height="785" viewBox="0 0 651 785" fill="none" xmlns="http://www.w3.org/2000/svg">
<path d="M420.5 342.5C423.167 336.5 429.4 323.6 433 320" stroke="#E5A3FF" stroke-width="3" stroke-linecap="round"/>
<path d="M438 312.285C441.468 306.71 449.419 294.792 453.481 291.722" stroke="#E5A3FF" stroke-width="3" stroke-linecap="round"/>
<path d="M460 285.373C464.408 280.507 474.361 270.201 478.905 267.906" stroke="#E5A3FF" stroke-width="3" stroke-linecap="round"/>
<path d="M487 260.928C492.148 256.852 503.658 248.321 508.518 246.804" stroke="#E5A3FF" stroke-width="3" stroke-linecap="round"/>
<path d="M476.789 588.496C471.871 584.147 461.446 574.318 459.098 569.801" stroke="#E5A3FF" stroke-width="3" stroke-linecap="round"/>
<path d="M453.247 562.711C448.974 557.725 440.003 546.554 438.299 541.757" stroke="#E5A3FF" stroke-width="3" stroke-linecap="round"/>
<path d="M434.208 533.628C430.895 527.959 424.064 515.365 423.245 510.34" stroke="#E5A3FF" stroke-width="3" stroke-linecap="round"/>
<path d="M419.028 500.52C416.691 494.384 412.022 480.839 412.039 475.748" stroke="#E5A3FF" stroke-width="3" stroke-linecap="round"/>
<path d="M595.583 534C594.474 538.616 591.734 548.606 589.646 551.637" stroke="#E5A3FF" stroke-width="3" stroke-linecap="round"/>
<path d="M587.103 557.779C585.369 562.198 581.278 571.715 578.793 574.43" stroke="#E5A3FF" stroke-width="3" stroke-linecap="round"/>
<path d="M574.99 579.799C572.494 583.837 566.77 592.471 563.839 594.698" stroke="#E5A3FF" stroke-width="3" stroke-linecap="round"/>
<path d="M558.999 600.722C555.873 604.295 548.808 611.871 545.551 613.587" stroke="#E5A3FF" stroke-width="3" stroke-linecap="round"/>
<path d="M615.722 534C614.787 537.888 612.479 546.304 610.72 548.858" stroke="#E5A3FF" stroke-width="3" stroke-linecap="round"/>
<path d="M608.578 554.032C607.117 557.754 603.671 565.772 601.577 568.059" stroke="#E5A3FF" stroke-width="3" stroke-linecap="round"/>
<path d="M598.374 572.582C596.271 575.984 591.448 583.257 588.98 585.134" stroke="#E5A3FF" stroke-width="3" stroke-linecap="round"/>
<path d="M584.902 590.208C582.269 593.218 576.317 599.6 573.574 601.045" stroke="#E5A3FF" stroke-width="3" stroke-linecap="round"/>
<path d="M602.545 308.123C600.999 312.291 593.229 314.867 589.537 315.633C597.303 353.034 613.359 445.845 615.456 517.878C616.61 491.986 624.175 472.779 602.545 308.123Z" fill="#E5A3FF"/>
<path d="M325.254 695.457C325.735 684.37 374.35 683.057 398.597 683.786C395.23 691.372 400 721.96 402.805 736.306L373.348 774.966C360.122 778.37 320.926 781.531 269.946 766.942C275.717 724.927 311.227 718.313 328.26 720.258C327.057 716.611 324.773 706.545 325.254 695.457Z" fill="#6B1E10"/>
<path d="M432.397 732.435C429.015 725.433 426.962 709.321 426.358 702.139C429.981 692.714 450.755 678.037 504.865 694.734C496.411 731.762 512.112 754.652 513.32 760.038C514.286 764.346 508.086 776.195 504.865 781.581C481.313 784.499 420.923 787.91 367.779 778.215C368.383 766.097 382.273 728.396 432.397 732.435Z" fill="#852514"/>
<path d="M410.656 702.813C394.23 668.343 396.967 580.732 400.39 541.236C434.208 527.771 511.75 511.478 551.366 554.027C537.355 573.955 526.606 661.521 522.983 702.813C519.963 701.69 509.938 699.312 493.995 698.773C474.066 698.1 445.079 710.218 410.656 702.813Z" fill="#034959"/>
<path d="M485.54 685.309C471.53 684.232 443.066 689.348 430.585 692.041C436.624 683.962 490.372 669.151 494.599 665.785C498.826 662.419 492.183 634.143 527.21 571.531C514.528 595.095 513.32 677.903 513.32 681.942C513.32 685.982 503.054 686.655 485.54 685.309Z" fill="#023E47"/>
<path d="M329.129 572.878C304.973 573.416 302.155 581.181 303.765 584.996C307.389 698.1 317.051 702.14 329.129 702.14C341.208 702.14 356.909 690.695 370.195 690.695C380.823 690.695 402 695.632 411.26 698.1L404.617 578.264C389.52 576.244 353.286 572.339 329.129 572.878Z" fill="#034959"/>
<path d="M363.551 669.151C350.024 671.844 330.135 690.919 321.882 700.12C347.246 707.525 356.304 692.714 367.175 690.694C375.871 689.079 399.786 696.305 410.656 700.12L414.883 692.714L397.974 578.264C392.136 607.437 377.079 666.458 363.551 669.151Z" fill="#013D48"/>
<path d="M507.095 95.49C482.455 91.625 469.854 116.828 466.633 129.913C467.036 138.77 470.498 159.142 481.127 169.771C478.711 181.849 482.938 190.303 503.471 189.096C524.004 187.888 523.4 156.485 523.4 150.446C523.4 144.407 537.894 100.321 507.095 95.49Z" fill="#F6B387"/>
<path d="M281.234 148.839C280.268 147.39 280.831 143.404 281.234 141.592L302.974 122.871C335.585 118.04 410.228 113.571 447.912 134.346C466.029 170.58 449.12 195.944 426.775 193.528C356.118 185.074 346.456 195.944 338.605 198.36C330.754 200.775 293.916 206.21 273.383 188.697C265.532 176.015 263.721 160.917 281.234 148.839Z" fill="#FCC49B"/>
<path d="M417.113 176.619C442.235 174.203 447.71 146.625 447.308 133.138C447.71 130.923 450.569 132.051 458.782 154.274C466.995 176.498 449.723 188.093 440.061 191.113C439.054 190.911 433.056 187.731 417.113 176.619Z" fill="#F6B387"/>
<path d="M504.075 151.859C488.615 153.308 474.685 148.034 469.652 145.216C471.061 147.43 475.329 153.066 481.127 157.898C488.373 163.937 484.75 174.807 495.62 177.826C506.491 180.846 513.134 171.787 514.945 164.541C516.757 157.294 513.737 150.651 504.075 151.859Z" fill="#E49057"/>
<path d="M465.694 127.098C455.065 136.278 428.252 138.975 416.174 139.176C404.7 94.4873 392.622 107.17 388.394 66.104C385.012 33.2515 414.362 11.3499 429.46 4.50562C460.259 7.32384 519.2 29.2657 508.571 94.4874C476.564 93.2796 478.98 115.624 465.694 127.098Z" fill="#FF8269"/>
<path d="M244.999 112.001C254.179 99.4399 275.798 86.6371 285.461 81.8059C289.487 47.3833 324.353 -16.3892 431.606 3.90206C376.047 29.2661 391.748 84.2215 395.372 90.2606C398.995 96.2996 414.093 105.358 417.112 139.781C403.827 133.742 374.839 130.722 352.495 136.761C330.15 142.8 312.033 141.593 285.461 133.138C258.889 124.683 233.525 127.703 244.999 112.001Z" fill="#FB411C"/>
<path d="M395.975 90.8641C413.368 110.672 417.313 131.728 417.112 139.78C418.924 140.586 426.05 140.988 440.061 136.157C432.21 84.8251 374.839 57.0454 430.398 3.90162C386.313 0.27819 374.235 66.1039 395.975 90.8641Z" fill="#FFBBAD"/>
<path d="M280.629 84.2213L272.175 89.0525C270.967 92.072 275.677 99.4397 304.182 104.754C310.221 133.742 357.325 140.384 368.196 106.566C439.698 116.228 492.198 96.5007 509.51 85.429C510.919 84.4225 512.891 80.477 509.51 72.747C451.535 104.15 396.579 96.2994 370.611 94.4876C371.215 51.0064 347.059 46.7791 337.396 46.1752C327.734 45.5713 299.954 54.6299 301.766 92.0721C291.62 92.0721 283.447 86.8382 280.629 84.2213Z" fill="#343463"/>
<path d="M272.78 188.093C278.577 195.34 295.728 199.164 303.579 200.171C310.624 199.567 326.406 198.722 333.17 200.171C341.625 201.982 356.722 190.508 379.671 192.32C408.175 196.185 431.405 193.125 439.457 192.32C440.061 190.911 436.559 184.228 417.717 168.768C384.381 141.713 350.683 156.287 338.001 166.956C330.956 167.56 313.966 166.714 302.371 158.501C278.215 148.839 265.533 179.034 272.78 188.093Z" fill="#FFCAA6"/>
<path d="M310.825 156.086C312.758 153.67 311.631 148.235 310.825 145.82L309.618 137.365L335.585 139.781C336.793 143.404 338.243 152.463 334.378 159.709C333.17 156.69 323.507 154.274 310.825 156.086Z" fill="#F6B387"/>
<path d="M286.669 147.793L296.77 151.394L300.335 154.274C302.316 151.394 305.446 145.201 302.118 143.472C290.828 136.99 289.244 144.913 286.669 147.793Z" fill="white"/>
<path d="M377.255 152.463C373.39 151.496 364.774 153.67 360.949 154.878C360.949 147.632 368.196 139.177 378.463 140.988C386.676 142.438 386.716 149.644 385.709 153.066C385.106 153.066 382.569 152.946 377.255 152.463Z" fill="white"/>
<path d="M281.838 148.839C287.877 148.638 301.042 150.53 305.39 159.709C327.614 169.855 337.598 168.768 339.813 166.956C350.079 156.287 379.308 141.351 414.093 166.956" stroke="#F6B387" stroke-width="3" stroke-linecap="round"/>
<path d="M292.588 171.155C295.473 158.133 312.216 154.475 320.227 154.274C323.031 154.274 329.84 155.239 334.647 159.097C346.664 169.949 345.462 194.064 336.45 198.284C327.437 202.504 307.009 201.901 301 199.49C294.992 197.078 288.983 187.432 292.588 171.155Z" fill="#F0A06A"/>
<path d="M353.014 88.4487C353.014 102.626 343.908 113.124 333.774 113.124C323.639 113.124 314.533 102.626 314.533 88.4487C314.533 74.2712 323.639 63.7729 333.774 63.7729C343.908 63.7729 353.014 74.2712 353.014 88.4487Z" fill="#969ECC" stroke="#FDFAFF" stroke-width="5"/>
<path d="M349.475 84.8252L320.488 101.131L350.683 89.0525L349.475 84.8252Z" fill="white"/>
<path d="M342.228 67.312L318.676 99.319L350.079 76.3706L342.228 67.312Z" fill="#FDFAFF"/>
<path d="M281.234 137.365C278.819 133.5 282.039 130.319 283.65 128.306C293.513 129.716 313.12 131.688 315.053 135.553C317.468 140.385 311.429 143.404 308.41 144.008C305.39 144.612 295.124 135.553 281.234 137.365Z" fill="#553737"/>
<path d="M338.605 146.065C332.808 145.099 332.969 140.026 333.774 137.611C335.586 130.364 383.294 115.266 416.509 135.195C406.242 142.442 391.145 137.611 375.443 137.611C359.742 137.611 345.852 147.273 338.605 146.065Z" fill="#553737"/>
<ellipse cx="383.294" cy="147.027" rx="3.62343" ry="6.03906" fill="#553737"/>
<ellipse cx="299.955" cy="147.631" rx="3.62343" ry="5.43515" fill="#553737"/>
<ellipse opacity="0.5" cx="315.656" cy="163.333" rx="12.0781" ry="4.22734" fill="#FCFFFB"/>
<ellipse opacity="0.5" cx="300.559" cy="169.372" rx="1.81172" ry="4.22734" transform="rotate(26.6387 300.559 169.372)" fill="#FCFFFB"/>
<ellipse cx="359.742" cy="163.333" rx="1.81172" ry="3.01953" fill="#FFDACC"/>
<ellipse cx="271.571" cy="164.541" rx="1.81172" ry="3.01953" fill="#FFDACC"/>
<g opacity="0.5" filter="url(#filter0_f_44_1478)">
<ellipse cx="379.067" cy="163.333" rx="15.0976" ry="5.43515" fill="#FF6442"/>
<ellipse cx="283.046" cy="160.917" rx="8.45468" ry="5.43515" fill="#FF6442"/>
</g>
<ellipse cx="379.067" cy="163.333" rx="15.0976" ry="5.43515" fill="#FFA17F"/>
<ellipse cx="283.046" cy="160.917" rx="8.45468" ry="5.43515" fill="#FFA17F"/>
<path d="M480.523 121.664C479.557 126.495 471.665 131.729 467.841 133.742C470.055 134.346 475.812 136.399 481.127 139.781C487.77 144.008 503.471 144.612 510.718 137.365C517.965 130.118 520.381 109.585 502.263 104.754C484.146 99.923 481.731 115.625 480.523 121.664Z" fill="#E49057"/>
<path d="M467.236 128.91C465.304 134.708 472.068 153.066 475.691 161.521C475.893 156.489 477.02 145.457 479.919 141.592C483.542 136.761 478.107 133.741 475.691 131.93C473.758 130.48 472.873 121.663 472.672 117.436C471.665 118.845 469.169 123.113 467.236 128.91Z" fill="#FCC49B"/>
<path d="M469.048 123.475C462.285 130.722 452.139 134.547 447.912 135.553C464.821 154.878 452.139 195.34 434.022 191.716C393.56 185.073 373.027 191.113 341.624 198.359C310.221 205.606 296.935 200.775 271.571 185.677C239.096 216.348 261.119 282.951 285.754 357.456L286.064 358.394C310.825 433.279 301.162 470.117 296.331 482.799C291.5 495.481 269.759 506.955 283.045 540.17C293.312 514.202 307.202 508.767 342.228 481.591C377.255 454.415 392.352 407.311 393.56 392.817C394.768 378.323 415.905 317.933 463.009 280.491C510.114 243.048 520.38 197.755 492.601 187.489C480.039 183.141 480.925 173.599 482.938 169.372C478.308 167.56 469.048 155.844 469.048 123.475Z" fill="#553737"/>
<path d="M453.951 221.912C457.816 202.104 441.873 193.528 433.418 191.716C453.347 191.716 462.406 162.125 447.912 134.949C451.294 134.949 462.607 128.105 467.841 124.683C465.224 133.54 464.217 154.757 481.127 168.768C535.478 210.437 491.997 249.691 488.374 255.73C484.75 261.769 403.223 314.309 393.56 391.005C387.521 462.266 350.683 475.552 343.436 482.799C336.189 490.046 310.221 494.877 283.046 539.566C283.046 534.735 269.76 513.598 296.332 482.799C324.715 452 337.397 461.058 362.157 419.993C386.917 378.927 368.8 322.16 380.274 294.38C391.749 266.601 449.12 246.672 453.951 221.912Z" fill="#462C2C"/>
<path d="M360.346 209.834C330.193 218.697 305.106 215.637 296.332 212.999C301.118 231.2 323.253 232.782 328.039 232.782C332.826 232.782 354.961 230.804 360.346 209.834Z" fill="#301315"/>
<path d="M312.033 229.72C316.79 225.852 331.18 219.613 350.683 225.603C337.364 238.48 319.367 233.713 312.033 229.72Z" fill="#FA7B6D"/>
<path d="M299.955 480.383C315.326 467.581 346.795 436.576 349.707 414.972C353.348 387.967 321.548 318.934 353.954 282.348C379.67 253.315 444.965 218.736 424.336 194.132" stroke="#462C2C" stroke-width="5" stroke-linecap="round"/>
<path d="M0.00012207 296.518C6.76386 245.307 71.6636 165.671 103.268 132.255C125.009 139.985 136.885 169.698 140.106 183.587C119.372 189.224 62.3232 219.701 0.00012207 296.518Z" fill="#6A6869"/>
<path d="M282.629 311.615C228.035 357.029 226.063 463.397 231.9 510.904L289.271 369.59C289.674 365.363 288.909 347.85 282.629 311.615Z" fill="#536147"/>
<path d="M246.779 459.919C246.087 453.39 245.03 439.102 246.346 434.183" stroke="#424F38" stroke-width="3" stroke-linecap="round"/>
<path d="M246.816 425.002C247.029 418.44 247.951 404.142 249.932 399.453" stroke="#424F38" stroke-width="3" stroke-linecap="round"/>
<path d="M252.401 390.694C253.783 384.275 257.244 370.372 260.031 366.112" stroke="#424F38" stroke-width="3" stroke-linecap="round"/>
<path d="M263.549 356.02C265.967 349.915 271.665 336.77 275.115 333.025" stroke="#424F38" stroke-width="3" stroke-linecap="round"/>
<path d="M284.44 588.808C284.44 576.73 279.608 562.035 277.193 556.197L295.31 435.416L375.629 469.839L402.805 577.938C402.604 588.808 398.216 611.032 382.272 612.964C362.344 615.38 341.811 605.717 332.752 605.717C323.694 605.717 320.07 617.192 314.635 617.192C309.2 617.192 307.992 610.549 298.933 605.717C291.687 601.852 280.212 607.328 275.381 610.549C278.401 608.334 284.44 600.886 284.44 588.808Z" fill="#852514"/>
<path d="M301.953 539.288L291.686 536.268L282.024 565.256C284.842 568.879 293.015 576.367 303.161 577.334C298.329 571.536 300.342 549.554 301.953 539.288Z" fill="#510E00"/>
<path d="M338.791 577.334C343.139 565.256 338.187 548.548 335.168 541.703C340.482 536.389 363.954 532.645 375.025 531.437L364.759 576.126C362.343 577.736 353.768 580.233 338.791 577.334Z" fill="#510E00"/>
<path d="M343.33 559.82C343.33 575.56 332.437 587.912 319.466 587.912C306.495 587.912 295.602 575.56 295.602 559.82C295.602 544.081 306.495 531.729 319.466 531.729C332.437 531.729 343.33 544.081 343.33 559.82Z" fill="#510E00" stroke="#FFFFFD" stroke-width="3"/>
<path d="M329.129 568.879C321.68 569.885 306.18 567.913 303.765 551.97C311.495 562.598 323.895 567.671 329.129 568.879Z" fill="white"/>
<ellipse cx="312.431" cy="575.128" rx="9.66249" ry="3.01953" transform="rotate(30.0877 312.431 575.128)" fill="white"/>
<path d="M537.476 253.036C534.577 249.171 528.619 248.607 526.002 248.809C526.002 251.224 520.365 254.647 517.547 256.056L532.645 266.926C531.84 263.705 531.679 256.418 537.476 253.036Z" fill="#CF6262"/>
<path d="M605.718 227.672C585.91 246.997 590.218 288.063 594.848 306.18C596.659 315.641 607.288 327.92 635.309 301.349C625.163 269.946 633.497 248.406 638.932 241.562C633.296 241.361 618.762 238.301 605.718 227.672Z" fill="#FDB81F"/>
<path d="M602.094 211.971C599.195 217.285 603.302 225.055 605.718 228.276L596.659 248.205L583.977 238.543C583.977 234.517 587.601 223.566 602.094 211.971Z" fill="#E06F01"/>
<path d="M638.328 241.562C626.25 242.528 611.153 233.107 605.114 228.276C602.094 226.867 597.142 221.754 601.49 212.574C615.984 224.653 632.491 228.075 638.932 228.276C638.127 228.88 636.879 232.383 638.328 241.562Z" fill="#FFF53F"/>
<path d="M566.464 229.484C543.274 237.214 531.84 256.861 529.021 265.718C531.236 280.615 544.965 309.441 582.165 305.576C577.817 284.802 588.808 251.828 594.847 237.939C587.6 240.153 571.778 241.562 566.464 229.484Z" fill="#FFF538"/>
<path d="M611.757 243.374C606.926 245.306 598.068 241.361 594.244 239.146C576.851 264.752 578.945 294.102 582.166 305.576L605.114 308.596C601.491 301.349 597.746 278.159 611.757 243.374Z" fill="#F99001"/>
<path d="M593.035 239.146C573.227 243.011 566.665 234.315 565.86 229.484C575.522 229.484 600.886 238.744 612.36 243.374C609.542 244.984 601.732 246.393 593.035 239.146Z" fill="#E97A01"/>
<path d="M566.464 229.484C536.993 248.809 544.32 273.972 551.366 283.835L529.625 267.53C529.827 259.88 536.993 241.079 566.464 229.484Z" fill="white"/>
<path d="M524.19 647.387L533.853 611.152C536.429 601.49 540.563 566.061 542.307 549.554C552.574 500.436 570.329 380.581 559.217 294.102C570.087 304.368 606.925 309.803 631.686 277.796C641.348 318.258 643.16 329.128 649.199 423.338C655.238 517.547 630.478 522.982 626.854 539.288C623.231 555.593 630.478 566.463 626.854 573.106C623.956 578.421 600.685 598.269 589.412 607.529V614.776L567.068 607.529C567.47 611.756 566.826 622.143 561.029 629.873C555.231 637.603 534.054 644.77 524.19 647.387Z" fill="#536147"/>
<path d="M642.5 464C648.1 418.8 632.833 325.167 624.5 284C623.167 290.5 618.2 304.5 609 308.5C639.4 448.9 619.667 517.333 606 534C615.833 529.5 636.9 509.2 642.5 464Z" fill="#424F38"/>
<path d="M301.349 444.474C302.315 416.453 294.102 357.915 289.875 332.148C276.79 355.096 251.346 406.187 254.244 426.961C257.868 452.929 240.958 486.748 234.919 493.391C228.88 500.034 210.763 559.82 210.763 574.314C210.763 588.808 262.095 578.541 273.569 574.314C285.044 570.087 295.31 541.703 294.706 523.586C294.102 505.469 300.141 479.501 301.349 444.474Z" fill="#DF5E09"/>
<path d="M216.802 553.177C224.313 550.824 240.875 546.587 247.041 548.47C254.749 550.824 280.838 549.059 282.024 530.229" stroke="#C05107" stroke-width="3" stroke-linecap="round"/>
<path d="M287.459 445.683C291.807 426.358 290.881 363.149 289.875 333.96C294.706 344.83 297.122 437.832 303.161 449.306C300.745 452.929 296.518 504.261 293.498 537.476C290.479 570.691 280.212 571.899 260.887 577.938C241.562 583.977 214.991 580.353 210.763 577.938C207.381 576.005 209.354 568.678 210.763 565.256C216.802 564.249 233.712 562.236 253.037 562.236C277.193 562.236 277.797 535.061 277.193 522.379C276.589 509.697 282.024 469.839 287.459 445.683Z" fill="#A54405"/>
<path d="M216.803 431.189C224.05 431.672 231.498 427.766 234.316 425.753C235.121 411.26 235.886 378.77 232.504 364.759C228.277 347.246 214.991 350.265 212.575 350.869C210.159 351.473 204.121 355.7 210.16 367.175C192.043 387.707 207.744 430.585 216.803 431.189Z" fill="#DD8D5A"/>
<path d="M355.097 634.101C289.392 463.075 183.99 261.29 139.502 181.776C139.502 174.931 145.421 162.934 169.094 169.697C216.923 300.624 328.324 526.606 378.045 623.231C375.428 626.854 367.175 634.101 355.097 634.101Z" fill="#A34102"/>
<path d="M147.957 182.379C161.646 203.717 189.506 255.09 201.101 282.628C215.595 317.05 339.999 564.652 362.344 628.666" stroke="#C6601E" stroke-width="2" stroke-linecap="round"/>
<path d="M155.174 178.32C167.924 199.347 194.742 244.41 200.015 256.448" stroke="#C6601E" stroke-width="2" stroke-linecap="round"/>
<path d="M233.712 331.544C241.361 348.856 257.626 385.654 261.491 394.35" stroke="#C6601E" stroke-width="2" stroke-linecap="round"/>
<path d="M208.347 277.796L221.029 306.784" stroke="#C6601E" stroke-width="2" stroke-linecap="round"/>
<path d="M318.862 512.716C330.538 538.684 357.633 597.263 372.61 623.834" stroke="#C6601E" stroke-width="2" stroke-linecap="round"/>
<path d="M202.308 262.095L205.932 270.55" stroke="#C6601E" stroke-width="2" stroke-linecap="round"/>
<path d="M277.193 425.149L304.972 483.728" stroke="#C6601E" stroke-width="2" stroke-linecap="round"/>
<path d="M125.233 95.417C124.383 101.396 125.334 116.341 135.933 128.29" stroke="#C6601E" stroke-width="2" stroke-linecap="round"/>
<path d="M113.534 98.4365C114.742 102.664 118.486 114.138 123.801 126.216" stroke="#C6601E" stroke-width="2" stroke-linecap="round"/>
<path d="M105.08 103.268C107.495 107.294 112.327 116.554 112.327 121.385" stroke="#C6601E" stroke-width="3" stroke-linecap="round"/>
<path d="M133.685 100.248C133.625 104.943 134.113 115.376 136.545 119.55" stroke="#C6601E" stroke-width="3" stroke-linecap="round"/>
<path d="M224.049 421.526C235.161 432.638 266.524 427.364 280.816 423.338C285.648 409.247 294.585 379.253 291.687 372.006C288.063 362.947 246.998 346.038 244.582 346.642C242.166 347.246 238.543 349.661 242.166 358.72C221.634 356.908 210.159 407.636 224.049 421.526Z" fill="#F9B488"/>
<path d="M280.212 530.229C270.55 536.51 254.446 535.664 247.601 534.456C269.133 524.563 272.159 525.325 283.699 491.89C284.204 489.857 284.676 488.586 285.043 487.956C284.582 489.317 284.134 490.628 283.699 491.89C282.268 497.649 280.569 509.518 280.212 530.229Z" fill="#A54405"/>
<path d="M585.848 339.395C581.983 309.441 540.756 269.744 520.626 253.64C459.632 286.251 437.891 333.356 427.021 402.201C416.15 471.046 443.93 538.08 455.404 545.327C466.878 552.573 526.061 570.087 591.283 534.456C616.043 474.066 590.679 376.837 585.848 339.395Z" fill="#DF5E09"/>
<path d="M372.61 529.625C373.576 509.334 364.961 483.326 360.532 472.858L425.15 458.968L440.851 524.794C460.378 533.853 495.203 551.849 478.294 551.366C457.157 550.762 424.546 569.483 408.844 578.542C396.283 585.788 369.389 581.561 357.512 578.542C362.142 570.691 371.644 549.916 372.61 529.625Z" fill="#DF5E09"/>
<path d="M507.885 521.171C488.077 528.901 453.332 525.599 438.436 522.982C479.018 581.44 557.204 554.989 591.224 534.457C593.639 526.405 599.074 504.503 601.49 481.313C604.51 452.325 594.243 387.708 591.224 376.837C588.204 365.967 593.035 324.901 558.613 294.706C570.691 317.051 561.632 346.038 558.613 361.74C555.593 377.441 571.295 410.656 571.295 426.961C571.295 443.267 561.632 439.04 552.574 449.91C571.295 451.722 567.671 461.988 561.632 465.611C555.593 469.235 545.931 463.8 533.853 478.293C521.775 492.787 522.982 516.339 507.885 521.171Z" fill="#A54405"/>
<path d="M371.402 574.918C372.006 574.918 390.123 579.749 405.221 570.691C420.318 561.632 428.169 551.366 438.436 550.158C448.702 548.95 467.423 540.495 471.65 540.495C475.878 540.495 493.391 552.573 529.022 547.742C557.526 543.877 585.185 524.391 595.451 515.131" stroke="#C05107" stroke-width="3" stroke-linecap="round"/>
<path d="M397.974 372.006C410.052 307.267 462.592 258.874 487.352 242.77C510.301 221.03 541.099 246.394 519.963 257.868C440.851 299.537 424.546 367.778 428.169 451.721C431.586 530.872 475.274 567.671 494.599 576.73C513.924 585.789 569.483 590.016 588.808 543.515C598.47 519.359 616.588 517.547 612.36 536.872C583.977 649.803 469.839 608.737 438.436 567.671C407.033 526.606 382.877 452.929 397.974 372.006Z" fill="#536147"/>
<path d="M602.698 298.933C611.417 292.345 628.865 276.059 631.452 261.923C631.525 261.392 631.602 260.846 631.686 260.283C631.631 260.826 631.553 261.373 631.452 261.923C629.85 273.706 630.915 277.823 631.686 278.4C627.257 283.836 615.259 295.551 602.698 298.933Z" fill="white"/>
<path d="M580.958 301.953C578.542 301.953 574.315 301.148 572.503 300.745C570.49 292.894 568.517 269.704 576.73 239.75C581.562 241.2 590.016 240.354 593.64 239.75C587.198 247.803 575.643 271.516 580.958 301.953Z" fill="white"/>
<path d="M563.96 247.601C565.41 250.017 573.019 253.036 576.642 254.244L571.811 276.589C568.188 271.959 561.545 259.679 563.96 247.601Z" fill="white"/>
<path d="M559.246 268.994C559.948 274.274 567.532 281.062 571.295 283.835V286.855C567.705 284.661 560.323 278.042 559.246 268.994C559.234 268.909 559.225 268.823 559.217 268.738C559.226 268.824 559.235 268.909 559.246 268.994Z" fill="white"/>
<g filter="url(#filter1_f_44_1478)">
<path d="M566.464 229.484C536.993 248.809 544.32 273.972 551.366 283.835L529.625 267.53C529.827 259.88 536.993 241.079 566.464 229.484Z" fill="white"/>
</g>
<g filter="url(#filter2_f_44_1478)">
<path d="M602.698 298.933C611.417 292.345 628.865 276.059 631.452 261.923C631.525 261.392 631.602 260.846 631.686 260.283C631.631 260.826 631.553 261.373 631.452 261.923C629.85 273.706 630.915 277.823 631.686 278.4C627.257 283.836 615.259 295.551 602.698 298.933Z" fill="white"/>
</g>
<g filter="url(#filter3_f_44_1478)">
<path d="M580.958 301.953C578.542 301.953 574.315 301.148 572.503 300.745C570.49 292.894 568.517 269.704 576.73 239.75C581.562 241.2 590.016 240.354 593.64 239.75C587.198 247.803 575.643 271.516 580.958 301.953Z" fill="white"/>
</g>
<g filter="url(#filter4_f_44_1478)">
<path d="M563.96 247.601C565.41 250.017 573.019 253.036 576.642 254.244L571.811 276.589C568.188 271.959 561.545 259.679 563.96 247.601Z" fill="white"/>
</g>
<g filter="url(#filter5_f_44_1478)">
<path d="M559.246 268.994C559.948 274.274 567.532 281.062 571.295 283.835V286.855C567.705 284.661 560.323 278.042 559.246 268.994C559.234 268.909 559.225 268.823 559.217 268.738C559.226 268.824 559.235 268.909 559.246 268.994Z" fill="white"/>
</g>
<path d="M502.45 514.528C495.203 518.393 466.819 516.943 453.533 515.735C461.988 513.722 481.796 509.455 493.391 508.489C507.317 507.328 495.041 496.69 523.516 476.576C524.644 475.666 525.871 474.825 527.21 474.066C525.908 474.918 524.678 475.755 523.516 476.576C509.387 487.97 510.839 510.053 502.45 514.528Z" fill="#A54405"/>
<path d="M525.398 410.052C554.989 384.084 553.178 346.642 548.346 333.356C519.963 289.875 437.832 324.297 372.006 403.409C367.175 393.747 312.219 370.194 294.706 369.59C277.193 368.986 277.797 425.15 281.42 433.604C285.044 442.059 343.018 474.67 364.759 476.482C386.5 478.293 495.807 436.02 525.398 410.052Z" fill="#02667E"/>
<path d="M339.395 442.663C340.844 460.055 355.7 472.858 362.947 477.085C366.329 477.085 375.629 475.475 379.857 474.67C377.642 468.631 374.059 453.775 377.441 442.663C370.194 447.011 369.188 458.566 369.59 463.799C366.168 456.754 360.773 438.556 366.571 422.13C352.077 430.343 356.908 454.942 361.136 466.215C356.506 462.994 345.676 453.775 339.395 442.663Z" fill="#045467"/>
<path d="M526.606 344.83C544.965 360.29 539.087 388.714 533.853 400.993C533.853 404.013 529.988 411.622 514.528 417.903C512.716 407.636 507.885 400.993 480.105 392.539C494.599 388.674 510.301 394.149 516.34 397.37C516.541 392.941 514.407 380.461 504.261 365.967C519.238 371.281 523.788 385.896 524.19 392.539C527.411 387.707 532.403 371.402 526.606 344.83Z" fill="#025366"/>
<path d="M461.384 337.583C484.091 324.538 507.482 324.096 516.339 325.505C518.151 332.147 504.261 341.206 469.839 347.246C436.358 353.119 433.728 389.843 386.378 402.407C385.002 402.866 383.633 403.205 382.272 403.409C383.677 403.095 385.045 402.76 386.378 402.407C409.428 394.708 434.6 352.97 461.384 337.583Z" fill="#2191AC"/>
<path d="M373.214 521.774C373.214 510.663 365.967 486.949 362.344 476.481H373.214C376.233 482.722 383.118 500.517 386.5 521.774C389.882 543.032 381.065 570.892 376.233 582.165C373.415 582.568 365.967 582.286 358.72 577.938C368.383 552.574 373.214 535.664 373.214 521.774Z" fill="#A54405"/>
<path d="M391.408 470.815C380.006 474.015 375.73 483.202 375.026 487.956L367.779 474.67C369.585 474.489 376.705 473.466 391.408 470.815C393.044 470.356 394.826 470.02 396.766 469.838C394.878 470.186 393.093 470.511 391.408 470.815Z" fill="#753B3B"/>
<path d="M96.625 100.852L108.703 128.028L143.126 112.93C142.321 108.904 138.415 97.3495 129.236 83.3389C121.989 89.6195 104.476 97.6313 96.625 100.852Z" fill="#A34102"/>
<path d="M155.204 108.099C132.014 106.65 110.515 124.002 102.664 132.859C111.723 137.087 131.893 153.392 140.106 184.795C143.971 179.481 161.444 174.126 169.697 172.113C170.704 164.665 169.214 141.435 155.204 108.099Z" fill="#868686"/>
<path d="M146.145 112.93C136.483 116.151 116.312 124.163 112.931 130.443C136.604 144.454 142.925 166.476 143.126 175.736" stroke="#B0B0B0" stroke-width="3" stroke-linecap="round"/>
<path d="M275.985 89.9819C236.369 80.3194 178.152 98.4366 153.996 108.703C151.58 111.32 151.339 127.424 169.697 170.905C201.584 131.772 245.387 115.144 263.303 111.722C268.738 111.32 278.884 106.408 275.985 89.9819Z" fill="#6A6869"/>
<path d="M13.286 272.362C32.0071 238.341 76.9377 165.712 106.891 147.353" stroke="#868686" stroke-width="3" stroke-linecap="round"/>
<path d="M161.243 118.365C183.185 109.709 235.523 93.4845 269.342 97.8326" stroke="#868686" stroke-width="3" stroke-linecap="round"/>
<g opacity="0.5">
<ellipse cx="415.487" cy="743.408" rx="12.682" ry="4.22734" fill="white"/>
<ellipse cx="393.896" cy="752.736" rx="3.62343" ry="6.64296" transform="rotate(35.236 393.896 752.736)" fill="white"/>
<ellipse cx="292.439" cy="743.073" rx="3.62343" ry="6.64296" transform="rotate(35.236 292.439 743.073)" fill="white"/>
<ellipse cx="309.916" cy="731.413" rx="3.62343" ry="10.3771" transform="rotate(73.1716 309.916 731.413)" fill="white"/>
</g>
<path d="M420.5 342.5C423.167 336.5 429.4 323.6 433 320" stroke="#424F38" stroke-width="3" stroke-linecap="round"/>
<path d="M438 312.285C441.468 306.71 449.419 294.792 453.481 291.722" stroke="#424F38" stroke-width="3" stroke-linecap="round"/>
<path d="M460 285.373C464.408 280.507 474.36 270.201 478.905 267.906" stroke="#424F38" stroke-width="3" stroke-linecap="round"/>
<path d="M487 260.928C492.148 256.852 503.658 248.321 508.518 246.804" stroke="#424F38" stroke-width="3" stroke-linecap="round"/>
<path d="M476.789 588.496C471.871 584.147 461.446 574.318 459.097 569.801" stroke="#424F38" stroke-width="3" stroke-linecap="round"/>
<path d="M453.247 562.711C448.974 557.725 440.003 546.554 438.299 541.757" stroke="#424F38" stroke-width="3" stroke-linecap="round"/>
<path d="M434.208 533.628C430.895 527.959 424.064 515.365 423.244 510.34" stroke="#424F38" stroke-width="3" stroke-linecap="round"/>
<path d="M419.028 500.52C416.691 494.384 412.022 480.839 412.039 475.748" stroke="#424F38" stroke-width="3" stroke-linecap="round"/>
<path d="M595.583 534C594.474 538.616 591.734 548.606 589.646 551.637" stroke="#424F38" stroke-width="3" stroke-linecap="round"/>
<path d="M587.103 557.779C585.369 562.198 581.278 571.715 578.793 574.43" stroke="#424F38" stroke-width="3" stroke-linecap="round"/>
<path d="M574.99 579.799C572.494 583.837 566.769 592.471 563.839 594.698" stroke="#424F38" stroke-width="3" stroke-linecap="round"/>
<path d="M558.998 600.722C555.873 604.295 548.808 611.871 545.551 613.587" stroke="#424F38" stroke-width="3" stroke-linecap="round"/>
<path d="M615.721 534C614.787 537.888 612.479 546.304 610.72 548.858" stroke="#424F38" stroke-width="3" stroke-linecap="round"/>
<path d="M608.578 554.032C607.116 557.754 603.671 565.772 601.577 568.059" stroke="#424F38" stroke-width="3" stroke-linecap="round"/>
<path d="M598.373 572.582C596.271 575.984 591.448 583.257 588.979 585.134" stroke="#424F38" stroke-width="3" stroke-linecap="round"/>
<path d="M584.902 590.208C582.269 593.218 576.317 599.6 573.573 601.045" stroke="#424F38" stroke-width="3" stroke-linecap="round"/>
<path d="M602.544 308.123C600.999 312.291 593.229 314.867 589.537 315.633C597.303 353.034 613.358 445.845 615.456 517.878C616.61 491.986 624.175 472.779 602.544 308.123Z" fill="#748566"/>
<defs>
<filter id="filter0_f_44_1478" x="271.591" y="152.482" width="125.573" height="19.2859" filterUnits="userSpaceOnUse" color-interpolation-filters="sRGB">
<feFlood flood-opacity="0" result="BackgroundImageFix"/>
<feBlend mode="normal" in="SourceGraphic" in2="BackgroundImageFix" result="shape"/>
<feGaussianBlur stdDeviation="1.5" result="effect1_foregroundBlur_44_1478"/>
</filter>
<filter id="filter1_f_44_1478" x="525.625" y="225.484" width="44.8383" height="62.3516" filterUnits="userSpaceOnUse" color-interpolation-filters="sRGB">
<feFlood flood-opacity="0" result="BackgroundImageFix"/>
<feBlend mode="normal" in="SourceGraphic" in2="BackgroundImageFix" result="shape"/>
<feGaussianBlur stdDeviation="2" result="effect1_foregroundBlur_44_1478"/>
</filter>
<filter id="filter2_f_44_1478" x="598.698" y="256.283" width="36.9875" height="46.6499" filterUnits="userSpaceOnUse" color-interpolation-filters="sRGB">
<feFlood flood-opacity="0" result="BackgroundImageFix"/>
<feBlend mode="normal" in="SourceGraphic" in2="BackgroundImageFix" result="shape"/>
<feGaussianBlur stdDeviation="2" result="effect1_foregroundBlur_44_1478"/>
</filter>
<filter id="filter3_f_44_1478" x="566.733" y="235.75" width="30.9063" height="70.2024" filterUnits="userSpaceOnUse" color-interpolation-filters="sRGB">
<feFlood flood-opacity="0" result="BackgroundImageFix"/>
<feBlend mode="normal" in="SourceGraphic" in2="BackgroundImageFix" result="shape"/>
<feGaussianBlur stdDeviation="2" result="effect1_foregroundBlur_44_1478"/>
</filter>
<filter id="filter4_f_44_1478" x="559.444" y="243.601" width="21.1984" height="36.9875" filterUnits="userSpaceOnUse" color-interpolation-filters="sRGB">
<feFlood flood-opacity="0" result="BackgroundImageFix"/>
<feBlend mode="normal" in="SourceGraphic" in2="BackgroundImageFix" result="shape"/>
<feGaussianBlur stdDeviation="2" result="effect1_foregroundBlur_44_1478"/>
</filter>
<filter id="filter5_f_44_1478" x="555.217" y="264.738" width="20.0781" height="26.1172" filterUnits="userSpaceOnUse" color-interpolation-filters="sRGB">
<feFlood flood-opacity="0" result="BackgroundImageFix"/>
<feBlend mode="normal" in="SourceGraphic" in2="BackgroundImageFix" result="shape"/>
<feGaussianBlur stdDeviation="2" result="effect1_foregroundBlur_44_1478"/>
</filter>
</defs>
</svg>
