<svg width="48" height="71" viewBox="0 0 48 71" fill="none" xmlns="http://www.w3.org/2000/svg">
<path d="M0.000244141 28C0.820934 21.4529 8.69565 11.2721 12.5304 7C15.1683 7.98824 16.6094 11.7868 17.0002 13.5625C14.4844 14.2831 7.56231 18.1794 0.000244141 28Z" fill="#6A6869"/>
<path d="M45.018 71C36.4792 48.9986 22.7817 23.0402 17.0002 12.8112C17.0002 11.9307 17.7694 10.3873 20.8458 11.2574C27.0615 28.1003 41.5386 57.1714 48.0002 69.6016C47.6602 70.0677 46.5876 71 45.018 71Z" fill="#A34102"/>
<path d="M12.0002 2.35135L13.5587 6L18.0002 3.97297C17.8963 3.43243 17.3925 1.88108 16.208 0C15.273 0.843243 13.0132 1.91892 12.0002 2.35135Z" fill="#A34102"/>
<path d="M19.028 3.01113C15.9261 2.82236 13.0504 5.08231 12.0002 6.23588C13.2119 6.78645 15.9099 8.91007 17.0085 13C17.5255 12.3079 19.8627 11.6105 20.9667 11.3483C21.1013 10.3782 20.9021 7.35274 19.028 3.01113Z" fill="#868686"/>
<path d="M18.0002 4C16.8366 4.41026 14.4075 5.43077 14.0002 6.23077C16.8512 8.01538 17.6124 10.8205 17.6366 12" stroke="#B0B0B0" stroke-linecap="round"/>
<path d="M39.5003 3.50038C32.0003 -0.5 22.4804 2.47258 19.1595 3.82226C18.8274 4.16629 18.7942 6.28341 21.318 11.9997C25.7016 6.85504 31.7235 4.66909 34.1866 4.2192C34.9338 4.16628 36.153 3.82226 39.5003 3.50038Z" fill="#6A6869"/>
<path d="M2.00024 24C4.00024 19.9179 8.80024 11.2029 12.0002 9" stroke="#868686" stroke-linecap="round"/>
<path d="M20.0002 5C22.436 3.81783 30.2461 1.5021 34.0002 2.09593" stroke="#868686" stroke-linecap="round"/>
</svg>
