<svg width="390" height="435" viewBox="0 0 390 435" fill="none" xmlns="http://www.w3.org/2000/svg">
<path d="M88.5838 7.1184C86.1582 2.82517 33.9795 5.40855 8.19339 7.23689C8.22687 29.9492 3.36228 35.1218 0.925806 34.8692L1.07736 137.685C2.68396 144.844 9.5263 159.31 24.0428 159.903C19.2079 162.365 5.57968 171.695 -0.630068 176.052C-0.665438 209.046 -0.66248 290.838 -0.367682 354.062C9.33926 374.305 11.1189 396.246 10.7953 404.687L18.9036 434.599C19.9957 434.598 57.3579 433.161 198.071 427.429C196.45 421.907 188.468 409.796 184.68 404.431C186.026 405.452 192.549 408.716 207.879 413.604C227.04 419.714 242.938 434.269 247.726 434.262C252.515 434.255 264.35 428.099 267.625 427.327C270.245 426.709 273.427 431.666 274.691 434.222L406.995 434.027L406.949 402.568C405.938 400.78 402.702 393.521 397.841 378.796C385.234 374.211 376.859 334.324 370.298 328.196C373.062 322.821 404.562 322.007 403.787 308.964C403.011 295.921 389.898 289.802 386.849 272.927C383.8 256.051 395.142 256.801 397.641 242.986C400.141 229.172 389.978 173.175 389.715 165.502C389.452 157.83 393.727 151.685 394.958 132.501C395.944 117.154 387.766 96.9607 383.554 88.7825L400.593 22.7707L393.513 6.66893L371.336 6.70162C366.308 14.6374 355.696 30.5098 353.479 30.5131C351.261 30.5163 348.495 11.5944 347.389 2.133L300.767 2.20172C297.491 2.20655 294.978 6.81417 291.947 2.21472C288.916 -2.38472 287.663 2.22104 283.883 2.22661C280.103 2.23218 280.361 6.83572 277.085 6.84055C274.464 6.84441 273.973 3.77586 274.055 2.2411L266.998 2.2515L260.95 2.26041L254.902 2.26933C251.626 2.27416 251.122 2.2749 240.04 6.89515L197.451 6.95793L177.29 6.98764C174.348 5.45734 168.262 2.39704 167.455 2.39822L160.903 2.40788C158.282 2.41175 155.784 5.48471 154.862 7.0207C153.431 5.48817 149.462 2.42475 145.027 2.43128C143.011 2.43426 142.759 2.43463 139.741 7.04299C136.724 11.6514 136.969 7.04708 131.166 2.45171C128.891 -2.14885 126.63 2.4584 123.613 7.06676C120.596 11.6751 118.321 7.07456 116.305 7.07754C114.289 7.08051 112.272 7.08348 110.25 2.48255C108.227 -2.11839 104.208 7.09537 101.94 7.09871C99.6721 7.10205 91.6158 12.4849 88.5838 7.1184Z" fill="url(#paint0_linear_114_5)"/>
<path d="M86.9748 6.82495C84.5929 2.72279 33.3512 5.1933 8.02804 6.94132C8.06003 28.6433 3.2826 33.5861 0.889883 33.3447L1.03469 131.587C2.61216 138.428 9.33107 152.25 23.5869 152.816C18.8387 155.169 5.45484 164.084 -0.643571 168.248C-0.679596 199.773 -0.679889 277.928 -0.392856 338.339C9.13898 357.681 10.8858 378.646 10.5677 386.712L18.5292 415.293C19.6017 415.291 56.2931 413.918 194.479 408.435C192.888 403.159 185.05 391.586 181.33 386.46C182.652 387.435 189.058 390.554 204.112 395.224C222.929 401.062 238.541 414.969 243.243 414.962C247.945 414.955 259.568 409.072 262.784 408.334C265.357 407.744 268.482 412.481 269.724 414.923L399.652 414.731L399.607 384.672C398.615 382.963 395.437 376.027 390.664 361.957C378.284 357.576 370.061 319.464 363.618 313.609C366.332 308.473 397.266 307.694 396.506 295.231C395.745 282.769 382.867 276.923 379.874 260.798C376.88 244.673 388.018 245.389 390.473 232.189C392.929 218.988 382.95 165.483 382.692 158.152C382.434 150.82 386.632 144.949 387.843 126.618C388.811 111.954 380.781 92.6591 376.644 84.8449L393.38 21.7688L386.428 6.38356L364.65 6.41566C359.711 13.9986 349.29 29.1654 347.112 29.1686C344.934 29.1718 342.218 11.0917 341.132 2.05121L295.348 2.11869C292.131 2.12343 289.663 6.52619 286.686 2.13146C283.71 -2.26327 282.479 2.13766 278.767 2.14313C275.055 2.1486 275.309 6.54735 272.091 6.55209C269.518 6.55589 269.035 3.62385 269.115 2.15736L262.186 2.16757L256.246 2.17633L250.306 2.18508C247.089 2.18982 246.594 2.19055 235.711 6.60572L193.887 6.66736L174.088 6.69655C171.199 5.23443 165.222 2.3105 164.43 2.31166L157.996 2.32115C155.422 2.32494 152.968 5.26131 152.063 6.72901C150.658 5.26471 146.76 2.33771 142.404 2.34413C140.424 2.34705 140.177 2.34741 137.214 6.7509C134.25 11.1544 134.491 6.75491 128.793 2.36419C126.559 -2.03163 124.338 2.37076 121.375 6.77425C118.411 11.1777 116.178 6.78191 114.198 6.78483C112.218 6.78774 110.238 6.79066 108.252 2.39447C106.265 -2.00172 102.319 6.80234 100.091 6.80562C97.864 6.8089 89.9522 11.9527 86.9748 6.82495Z" fill="url(#paint1_linear_114_5)"/>
<path fill-rule="evenodd" clip-rule="evenodd" d="M17.9626 373.925C17.9461 373.018 18.3923 372.324 19.5916 373.246C26.1648 376.126 31.4792 382.496 36.6678 387.642C40.3412 391.619 45.8856 395.4 49.7914 397.841C53.0336 399.665 47.5761 402.799 45.6205 399.49C35.3038 393.284 28.6734 382.481 18.7337 375.785C18.2804 375.471 17.9795 374.632 17.9626 373.925ZM18.8061 254.545C18.7801 251.565 21.1386 252.866 21.5226 253.407C24.2405 256.066 25.2657 261.418 28.6851 264.067C32.3749 266.778 33.3952 272.287 38.1607 273.541C40.9136 274.785 38.2683 277.01 36.3584 276.046C32.5126 275.715 26.7179 275.53 25.324 280.118C24.5182 279.564 24.555 281.746 23.4405 279.722C23.959 274.974 29.6199 273.301 32.7785 273.437C30.1873 269.354 26.696 266.001 23.6869 262.234C22.1565 259.58 20.7637 256.83 18.8061 254.545ZM19.4965 194.669C19.5015 194.444 19.5111 194.233 19.5298 194.051C19.4831 189.983 20.9276 183.057 26.0385 183.544C30.2822 184.424 33.7772 188.217 37.9166 188.465C42.1497 187.794 47.6489 184.497 50.6466 189.33C53.2102 191.202 55.84 194.323 58.3454 195.523C61.0439 191.978 64.811 194.982 67.7391 195.733C71.9108 193.654 75.6052 196.331 79.1684 198.124C81.2312 198.304 82.9108 195.273 85.1948 194.871C92.1051 192.031 98.6771 197.734 105.001 199.391C109.581 201.625 115.287 202.368 119.655 198.749C124.784 194.739 130.559 190.845 137.155 191.484C142.913 191.828 148.407 189.052 152.368 184.683C157.964 183.227 163.178 187.159 168.526 188.101C176.164 190.37 183.491 194.838 191.416 195.582C201.859 191.416 211.718 184.128 223.22 184.458C238.191 183.217 253.539 186.372 268.297 182.206C278.751 175.021 291.522 173.433 303.275 170.157C308.145 169.701 312.364 173.372 317.383 171.784C327.616 171.887 337.276 167.606 346.441 163.047C353.07 160.723 360.654 162.592 366.91 159.121C369.651 157.38 373.408 156.152 376.351 156.257C376.795 156.49 375.353 157.831 376.682 158.314C377.172 158.597 376.514 154.976 378.124 156.896C377.67 161.675 371.029 160.598 368.262 163.807C359.759 167.721 349.655 164.771 341.698 170.63C331.841 175.209 320.829 177.48 310.234 176.907C306.084 175.116 301.624 174.826 297.287 176.968C287.888 179.605 277.963 181.483 269.694 187.296C251.092 192.684 231.701 186.769 213.01 191.3C205.279 193.821 198.231 198.907 190.333 200.627C177.937 197.797 166.654 191.292 154.175 188.765C148.71 195.204 140.278 195.854 132.777 195.921C125.09 197.48 119.666 206.439 111.306 205.342C103.138 204.382 96.2501 198.575 88.0767 198.017C84.8211 198.267 82.9615 201.901 79.9393 202.329C75.74 202.159 72.6466 197.053 68.2264 199.556C65.1571 200.635 62.3342 195.486 59.8374 199.058C55.976 201.842 53.5679 195.641 50.5769 194.291C48.2054 192.641 46.4708 188.877 43.0742 190.823C39.023 192.281 34.479 192.515 31.2121 189.321C29.1684 188.758 25.7891 184.465 23.6881 187.32C21.561 191.7 21.2055 197.44 23.2094 201.769C21.2029 205.495 19.4575 198.043 19.4965 194.669ZM19.3053 313.405C19.2865 311.389 21.649 308.453 22.0511 306.843C26.346 300.59 22.9633 291.142 28.9294 285.951C35.0963 283.486 40.7932 288.891 46.5261 290.172C47.4837 290.434 48.831 290.768 49.657 290.376C52.0544 288.313 54.0805 283.994 58.0221 284.579C63.8944 284.924 69.5439 291.114 75.3764 286.234C79.9685 282.602 85.9308 281.539 91.0975 283.882C93.6221 284.652 96.4166 285.76 98.7443 286.384C101.453 284.382 104.805 282.093 107.973 284.245C110.659 284.813 112.872 287.758 115.255 288.055C121.246 286.451 127.406 289.475 133.353 286.822C143.276 283.931 151.185 294.899 161.068 291.188C170.322 287.954 179.117 293.774 187.423 296.74C198.828 302.281 211.029 306.212 223.843 306.586C233.281 307.075 242.049 310.852 249.4 316.714C258.573 323.968 268.752 329.968 280.241 332.448C288.91 335.277 298.86 336.905 305.714 343.463C308.996 348.214 309.749 354.774 314.845 358.104C322.752 363.444 325.111 375.532 334.945 378.067C343.167 379.192 350.999 374.389 358.715 371.892C363.909 370.173 366.813 364.509 372.394 363.747C376.788 360.805 376.807 367.172 374.043 366.955C368.494 367.736 365.525 373.331 360.332 375.064C351.739 377.964 342.852 383.292 333.677 381.532C323.064 379.083 319.737 366.867 311.501 360.955C306.534 357.512 305.369 351.19 302.339 346.273C293.679 339.115 281.881 337.797 271.697 333.88C257.383 329.752 247.497 317.087 233.661 312.087C221.133 308.875 207.564 310.047 195.725 304.183C186.054 300.596 176.92 294.425 166.474 293.355C160.777 294.38 154.694 296.551 149.281 293.553C143.327 290.512 136.519 288.008 129.81 290.832C124.614 291.963 119.136 289.278 114.129 291.721C111.134 289.85 107.634 286.607 104.117 286.814C101.426 288.988 97.9322 291.181 95.0167 288.739C89.6878 287.228 83.4917 283.785 78.2881 288.27C74.0045 291.299 68.505 292.493 64.0085 289.716C61.0409 288.073 55.8785 285.845 53.6598 290.181C51.2394 294.571 45.9831 293.421 42.5713 291.508C38.5437 290.39 34.1692 286.204 29.7092 288.011C25.3149 293.609 27.9938 301.902 23.8464 307.773C22.0032 310.132 22.1022 313.276 20.2785 315.027C19.5824 314.646 19.3131 314.078 19.3053 313.405ZM20.0989 218.523C20.1508 215.588 22.7947 214.051 26.144 215.097C33.3313 218.051 41.7859 220.138 45.8832 227.587C49.3264 232.055 53.003 236.711 57.5215 239.955C65.9341 242.335 69.4072 252.396 75.8483 257.106C79.7789 256.378 84.2854 251.97 88.2421 254.184C91.5223 257.626 95.2327 252.44 98.604 251.708C102.791 251.348 106.25 254.784 110.393 255.219C119.343 257.398 129.889 256.716 137.668 250.711C143.458 244.036 152.568 248.23 159.31 249.614C164.967 251.748 171.086 250.498 176.415 247.552C182.363 244.488 188.919 244.33 195.208 245.19C204.708 244.78 211.343 253.256 220.252 255.212C232.295 257.902 244.788 258.221 256.984 260.126C270.498 260.734 284.078 260.837 297.621 260.64C301.935 261.012 306.67 259.109 310.757 260.358C314.025 263.093 319.32 261.175 323.284 261.664C329.166 261.923 335.138 260.525 339.992 256.75C348.753 252.214 358.86 255.733 367.689 251.577C370.697 251.522 376.066 249.281 377.74 251.137C379.043 250.479 379.025 252.63 377.721 253.593C373.298 255.251 368.262 256.3 363.769 258.323C355.068 260.177 345.216 257.786 337.689 264.222C329.603 267.893 320.522 267.237 312.046 266.78C309.076 266.083 306.544 264.674 303.356 265.628C292.131 266.33 280.903 266.095 269.695 265.764C270.029 266.058 270.34 266.433 270.614 266.911C272.126 269.589 273.344 272.756 275.688 274.373C276.873 277.823 272.087 277.382 271.455 274.797C269.639 273.032 269.454 268.992 267.095 268.078C262.535 269.583 258.996 276.158 262.366 280.409C264.671 285.395 270.724 287.324 275.557 284.653C277.525 283.996 279.932 283.953 281.521 282.367C281.263 281.063 281.293 281.969 280.98 280.199C285.332 279.819 283.091 286.014 279.552 285.786C274.648 287.17 268.811 289.7 264.409 285.944C259.772 282.365 256.059 274.916 260.596 269.408C261.461 267.954 263.018 266.465 264.698 265.612C262.479 265.548 260.26 265.475 258.041 265.415C245.629 263.77 233.087 262.737 220.768 260.559C212.45 259.035 205.998 252.878 198.173 250.282C191.709 249.958 184.954 248.489 178.767 251.801C172.456 255.15 165.241 256.917 158.511 254.534C153.419 253.999 147.736 250.395 142.564 252.781C133.115 262.023 118.705 262.293 107.269 258.655C104.413 258.227 101.741 255.814 99.0543 255.695C95.3222 258.026 90.0117 261 86.3885 257.112C82.5206 256.352 78.6018 260.304 74.6087 260.236C68.8645 255.511 65.1013 248.317 59.3571 243.587C53.098 241.852 49.5665 235.72 45.2661 231.192C42.3179 226.788 39.3063 222.037 33.8347 220.789C30.3252 219.601 26.4571 216.696 22.7752 216.861C21.0068 220.726 23.8683 224.938 27.5113 225.84C37.9365 232.772 45.0569 243.859 55.4959 250.8C58.1405 253.448 60.6593 257.05 63.9297 258.548C63.7029 261.9 59.582 259.267 58.3016 257.65C53.0423 251.207 45.5218 247.477 40.235 241.026C35.002 235.17 29.2041 229.83 22.5139 225.889C20.8302 224.153 20.111 221.599 20.1252 219.129C20.1027 218.924 20.094 218.719 20.0989 218.523ZM21.3258 363.644C21.3557 362.459 21.6923 361.515 22.4127 363.467C25.8794 363.176 28.2389 366.202 31.1245 367.566C38.9305 372.924 46.1615 379.22 54.5747 383.602C59.8032 387.132 64.3191 391.681 69.6948 394.991C71.1172 396.655 74.4451 396.952 74.3845 399.682C73.3097 402.923 69.4997 400.725 68.0037 399.15C62.5005 395.438 57.3743 391.183 52.0963 387.153C46.7305 383.466 40.8497 380.58 35.8748 376.301C31.1647 372.609 26.5971 368.706 21.5789 365.46C21.3961 365.152 21.306 364.352 21.3258 363.644ZM22.0025 342.014C21.9664 341.709 22.1412 341.431 22.6001 341.209C27.8344 341.935 33.3777 341.732 38.8426 341.771C55.1251 342.901 70.2596 349.45 85.189 355.419C95.5459 359.903 105.138 366.12 113.462 373.853C119.973 378.14 127.648 380.125 134.352 383.999C143.612 387.037 153.921 387.744 161.987 393.719C160.932 400.829 153.569 391.932 149.479 392.13C141.717 389.928 133.54 388.777 126.474 384.624C118.761 381.264 110.427 378.509 104.562 372.025C90.0855 359.93 71.7394 354.508 54.2009 348.728C45.7202 345.997 36.8155 344.351 27.8193 344.868C26.1775 345.104 22.1465 343.327 22.0025 342.014ZM22.2971 354.954C22.9466 353.45 23.8088 355.573 24.8335 354.448C39.9599 362.707 56.2932 368.173 72.3088 374.342C79.9591 377.331 86.5969 382.268 92.6145 387.843C96.1586 389.991 99.3257 392.701 103.455 393.414C106.531 395.74 101.936 398.832 99.8591 396.442C96.0877 395.544 93.3205 392.323 89.8166 390.657C76.1317 376.962 56.2533 374.269 39.5864 365.998C34.1139 362.945 27.2634 361.202 22.7102 356.96C23.1019 355.995 22.355 355.769 22.2971 354.954ZM23.9348 331.932C45.6616 327.46 68.6543 331.789 86.9134 343.921C97.5135 350.527 108.849 356.266 121.376 357.907C135.555 360.749 149.392 365.057 162.552 371.008C174.518 375.434 185.811 381.82 197.874 385.799C201.602 385.546 212.977 387.682 209.847 391.391C197.476 389.945 185.914 385.16 174.821 379.804C154.958 371.761 134.879 363.936 113.724 359.914C99.5076 357.373 87.8254 348.575 75.4929 341.668C61.7317 333.889 45.5996 333.166 30.0859 332.725C28.0092 332.651 25.9604 332.347 23.9348 331.932ZM24.6306 172.473C24.6263 172.358 24.6311 172.229 24.6497 172.09C24.4515 165.863 31.2461 161.345 30.7779 154.86C30.4594 144.61 23.9262 135.629 25.5707 125.051C26.6155 107.262 36.2593 90.437 34.6911 72.5217C32.6762 62.3181 27.6674 52.2309 28.7345 41.497C30.2213 38.5872 34.005 37.9411 36.794 37.1824C42.359 37.6097 42.7564 45.0955 43.247 49.5875C43.3386 74.3915 44.8922 99.4635 40.6424 124.179C37.4133 133.881 40.2352 144.051 39.7932 153.956C40.1588 159.049 44.6164 162.941 43.184 168.414C43.4308 171.023 41.4507 175.327 43.7529 177.213C46.1533 178.221 50.2686 179.087 51.2613 175.645C50.8121 164.292 47.414 153.445 45.4513 142.432C45.7526 131.788 53.2212 122.703 53.1239 111.915C55.1529 97.1723 53.2892 82.5206 51.017 68.1272C50.1691 58.9903 49.1516 49.7925 45.9459 41.2938C44.8159 37.8134 44.6266 31.7342 49.4872 31.3315C56.6722 30.9223 62.1664 36.8505 68.7192 38.4846C76.3637 37.5765 83.6931 31.5826 91.5321 34.2504C112.098 39.2827 133.483 42.7475 154.851 39.1524C170.03 36.8864 185.198 33.8374 200.519 34.5186C212.229 34.139 223.862 31.0202 235.592 32.2737C250.059 33.401 264.698 33.0937 279.033 29.5298C295.084 27.0655 310.942 23.1176 326.417 17.8029C335.117 16.0976 344.132 17.8923 352.661 14.8937C357.704 14.8093 362.03 18.2904 367.23 17.6893C370.796 18.2882 375.269 16.6716 378.134 18.8528C377.913 23.9531 370.752 21.7054 367.124 22.4367C362.282 22.8292 357.963 20.6377 353.435 19.6575C348.417 20.897 343.257 21.9983 338.063 21.7106C330.733 21.1314 323.632 23.3003 316.822 26.1801C298.283 32.1297 279.072 35.2274 259.999 37.8903C243.006 38.9026 225.985 35.6356 209.055 39.2968C194.762 40.3704 180.378 39.3836 166.213 42.8315C146.473 46.4067 126.221 47.3585 106.832 42.7476C99.0901 42.0588 91.6539 37.4801 83.7469 38.9517C76.9722 40.4879 69.2399 46.1953 62.7443 41.2678C58.6676 39.4212 54.3103 35.8553 49.7618 36.051C50.037 42.753 53.9407 48.5038 53.9681 55.3245C55.5691 72.8422 59.8756 90.1535 57.79 107.999C57.4728 117.421 54.8227 126.487 50.9495 135.071C48.8634 139.635 49.1742 144.616 50.7467 149.141C52.149 158.431 54.9999 167.85 54.0911 177.388C52.3241 180.571 48.6297 182.398 45.2578 181.186C40.8063 181.087 38.9193 177.867 39.2124 173.529C39.4696 168.776 40.8145 163.526 37.4986 159.603C34.2715 152.572 36.3792 144.156 35.3401 136.597C34.3612 128.736 38.2595 121.359 38.468 113.517C40.3912 92.1431 40.5862 70.6681 40.593 49.2905C40.0123 46.2634 40.4826 40.4855 36.7567 39.7395C34.9627 40.4245 32.0498 41.2258 31.2445 42.6877C31.0205 51.3613 35.2589 59.331 36.9109 67.632C41.1128 82.2528 33.9249 97.5521 30.8287 111.865C27.9697 122.194 26.8603 133.436 31.0902 143.293C33.6479 150.325 34.4188 159.02 29.3077 165.389C27.9881 167.237 26.7624 170.261 26.2454 172.004C27.8191 173.706 24.7554 174.226 24.6306 172.473ZM24.9393 196.519C25.0326 195.742 26.6971 195.601 28.0123 195.893C39.809 195.774 50.5663 201.762 60.3701 207.656C71.2423 215.738 79.0793 228.428 92.5546 232.486C102.987 235.997 114.047 239.348 124.995 239.55C128.232 235.288 132.722 231.942 138.077 232.2C146.554 231.983 155.343 231.994 163.141 227.565C172.931 222.286 184.724 221.736 194.296 226.912C202.081 231.263 211.45 234.612 220.379 230.969C229.464 227.468 239.105 223.408 248.759 225.939C258.019 226.684 267.161 231.163 276.595 229.279C284.569 226.778 292.537 222.218 301.015 224.075C308.773 225.805 316.042 220.419 323.661 220.492C327.134 221.844 330.829 221.932 334.29 220.069C345.361 216.101 357.363 218.515 368.466 214.374C370.452 214.055 374.159 212.843 375.388 212.785C376.021 212.576 379.465 212.018 378.327 214.906C376.072 218.846 370.54 218.112 366.924 219.846C355.523 223.578 343.26 221.221 332.15 226.265C327.473 228.505 322.962 223.956 318.335 226.653C311.168 229.574 303.561 230.213 296.122 229.065C286.618 229.17 278.083 237.051 268.396 234.85C257.78 233.929 247.313 229.177 236.494 231.034C224.336 235.065 210.826 241.676 198.658 234.854C190.273 230.385 180.364 226.129 170.71 230.07C162.382 233.606 153.905 237.783 144.788 237.086C139.455 237.338 132.631 236.325 129.304 242.114C125.874 247.047 119.921 243.825 115.391 243.576C98.4385 240.626 80.9186 234.759 69.4344 220.995C60.6873 209.479 47.5525 202.563 34.0121 198.909C31.4604 197.958 27.6849 199.106 25.8077 197.859C25.2447 197.378 24.9888 196.99 24.9436 196.681C24.9345 196.624 24.9346 196.572 24.9393 196.519ZM25.1796 247.41C25.1867 246.187 26.2015 245.386 27.5876 246.928C31.288 251.152 36.3662 254.186 38.2113 259.972C41.0219 264.377 42.6578 271.527 48.1838 273.083C51.2574 272.195 54.195 270.494 57.5143 270.505C62.6019 268.967 67.294 265.752 72.7411 265.519C86.5956 263.487 100.011 267.952 113.384 270.131C120.157 269.77 126.027 264.091 132.998 265.538C142.122 265.327 150.877 268.402 159.788 269.321C170.281 265.36 180.16 272.502 190.031 274.558C196.5 274.857 203.038 274.658 209.2 276.998C223.69 280.236 237.829 284.762 251.208 291.202C268.057 297.938 287.128 293.881 304.402 298.772C311.599 301.907 319.98 299.511 327.593 300.439C335.764 299.875 343.493 304.945 351.644 302.939C353.104 299.581 357.424 301.008 359.487 298.89C360.707 294.122 365.486 293.503 368.947 291.612C371.678 289.799 375.199 287.725 378.334 288.239C380.039 292.902 372.149 292.692 369.626 295.815C366.795 296.867 363.923 297.949 363.118 301.321C361.681 304.721 357.474 303.658 355.242 305.472C351.098 309.971 344.336 307.518 339.298 306.934C328.16 303.165 315.912 306.645 304.63 303.947C292.715 299.447 279.387 301.561 266.953 299.516C250.17 298.973 236.475 287.877 220.306 284.795C210.546 282.439 200.898 278.708 190.636 279.438C181.624 278.431 173.568 272.145 164.291 273.035C156.56 276.134 148.987 271.173 141.29 270.946C134.84 270.297 127.865 268.932 121.829 272.692C114.131 276.936 105.817 273.611 98.1869 271.901C85.7311 269.255 71.9125 267.187 59.8553 273.655C56.1865 274.183 52.4727 274.248 48.9626 275.625C42.269 275.635 39.5988 267.528 36.7342 262.624C34.8567 257.001 30.6005 253.307 26.4129 249.645C25.5431 249.026 25.1781 248.141 25.1796 247.41ZM26.0955 205.129C26.0957 205.005 26.128 204.908 26.2196 204.967C30.0104 205.324 35.5506 206.664 39.8131 207.277C54.1174 211.763 66.2081 222.606 72.5615 236.624C73.8856 239.281 78.5996 241.119 77.7314 244.179C74.55 243.977 72.4952 239.918 70.3772 237.586C64.6768 224.891 54.0465 215.048 41.467 210.108C36.7726 207.715 30.3612 208.65 26.1406 205.462C26.1178 205.41 26.0906 205.253 26.0955 205.129ZM26.3206 324.313L26.6919 324.358C34.5687 326.441 41.2607 320.503 48.7058 318.475C55.5459 316.339 62.7907 313.616 69.8633 314.41C78.7075 316.507 85.4623 333.759 94.6502 322.435C102.08 316.595 109.997 324.023 116.978 326.578C131.94 334.667 149.714 332.705 165.784 337.1C180.848 340.04 192.629 352.188 208.413 352.681C217.43 353.095 222.678 360.837 228.888 366.248C238.103 375.278 251.322 374.672 262.5 379.151C268.624 379.754 280.724 381.209 269.999 384.506C258.323 383.47 246.667 379.907 235.419 376.41C226.908 372.72 221.119 365.059 213.928 359.454C203.894 356.31 192.767 356.224 183.909 349.91C172.781 343.643 160.391 340.139 147.633 339.266C133.318 337.804 118.887 335.008 106.556 327.298C97.2764 320.598 86.6757 339.043 78.8858 325.744C72.7824 317.306 62.744 316.302 53.4523 320.073C44.5301 320.291 33.6502 331.719 26.3206 324.313ZM32.5315 309.235C45.0138 301.123 60.039 300.568 74.0227 298.129C101.686 293.88 126.46 308.34 151.383 317.191C167.133 322.859 183.822 324.891 200.447 326.538C222.439 329.279 236.603 351.021 258.806 353.477C275.312 355.124 287.854 367.211 301.164 375.923C305.851 379.83 309.669 384.973 315.183 387.724C304.978 389.65 300.448 376.612 291.858 373.279C280.162 364.772 267.391 356.811 252.608 355.781C231.606 351.084 217.575 329.085 195.018 329.402C167.835 327.186 141.978 318.1 117.311 307.114C99.4175 300.276 79.5699 298.247 60.598 302.951C51.6743 301.65 37.4488 310.268 32.5315 309.235ZM45.5246 356.528C45.576 356.053 46.4929 356.059 47.1537 355.753C55.4912 359.005 64.6458 359.553 72.96 363.002C85.2165 366.687 97.3294 371.166 108.057 378.293C109.444 379.112 112.528 379.967 110.513 381.162C113.758 381.366 108.991 383.098 108.353 381.315C100.582 376.796 92.8942 372.055 84.2345 369.397C72.8318 365.161 61.0971 361.872 49.2557 359.175C48.354 358.443 45.644 358.654 45.8121 357.187C45.5926 356.893 45.5105 356.681 45.5246 356.528ZM60.9279 138.555C60.8747 137.654 61.3485 136.907 62.7338 136.542C64.7158 135.855 67.164 135.882 68.6713 134.142C68.4074 130.894 67.3226 127.76 66.7789 124.565C66.3351 121.872 67.504 117.455 70.8409 117.842C73.808 119.699 77.4301 119.637 80.8494 120.05C83.9845 120.473 88.9432 121.395 89.6149 124.787C87.7095 128.371 89.4662 132.512 93.0492 133.626C96.327 136.003 97.8294 132.156 98.7609 129.5C100.399 126.628 104.415 124.464 107.106 126.852C111.365 131.621 112.289 139.379 109.64 145.455C107.708 148.528 103.988 147.046 101.4 146.164C97.7818 144.268 96.5455 150.302 93.1521 150.629C89.2366 150.721 85.3438 153.162 81.5625 152.642C76.7787 151.351 71.4355 150.109 66.576 152.226C63.332 153.513 63.0306 157.426 66.5269 158.3C71.5283 160.792 77.3004 160.81 82.574 162.49C88.8291 163.958 95.8313 163.307 101.4 159.43C105.797 157.334 112.155 157.494 114.782 162.101C116.04 165.734 115.67 169.865 117.143 173.501C118.203 177.404 119.275 182.601 115.921 185.812C111.103 190.283 104.301 189.317 98.5022 189.056C90.5043 187.865 82.5347 186.31 74.4254 185.825C70.9201 184.837 66.4372 184.367 64.6292 180.643C62.8414 178.29 67.741 176.739 66.3877 179.405C69.7734 182.843 74.9071 183.381 79.4958 183.695C84.4423 183.858 89.4398 183.775 94.3117 184.586C100.574 184.568 107.493 186.705 113.236 182.755C115.569 178.606 112.291 174.352 111.951 170.189C112.248 166.328 110.841 161.348 106.112 162.649C100.168 163.334 94.8346 168.683 88.6902 166.877C79.9373 165.011 70.5262 164.372 62.9169 159.212C59.4522 156.326 62.5853 150.917 66.068 149.517C71.6852 146.785 77.6305 149.549 83.3706 149.554C87.3132 147.398 92.8033 148.554 95.6773 144.333C97.9374 139.92 103.002 142.82 106.375 143.412C107.684 140.15 107.111 135.68 106.063 132.254C104.629 127.48 100.802 131.42 99.8878 134.467C98.137 138.718 93.0872 137.461 90.5014 135.212C87.5031 132.94 85.6323 128.545 87.3272 124.725C82.145 120.988 75.1393 123.364 69.6528 120.445C67.6157 125.643 72.7407 130.529 70.4745 135.693C68.951 138.618 63.4201 137.244 62.8884 139.431C64.2989 142.448 67.708 145.642 71.1641 143.775C75.0509 142.002 76.734 137.246 80.7213 135.69C82.7214 135.122 86.214 137.821 84.8781 138.685C88.8232 137.579 84.4245 143.039 83.1154 139.756C80.308 136.039 78.1771 142.273 75.5157 143.433C72.6175 146.001 67.8738 147.556 64.9596 144.474C63.7333 143.304 61.0476 140.548 60.9279 138.555ZM63.9262 167.923C64.7103 165.588 65.7102 167.606 66.0212 168.02C65.6453 167.991 69.9407 168.219 71.7661 167.882C81.0458 169.963 90.4212 172.381 99.9877 173.272C103.523 175.467 98.5133 176.864 96.5667 175.93C88.0779 174.891 79.7335 172.747 71.5127 170.724C69.0827 170.796 63.7759 171.941 63.9262 167.923ZM68.6313 101.975C68.6193 101.101 68.8093 100.125 69.2608 99.0432C72.1774 94.143 70.6816 87.9623 70.0552 82.6582C69.5257 79.2471 68.9275 75.8242 68.9116 72.3376C69.411 68.03 71.2561 64.7492 69.2383 60.5218C68.8568 51.9797 78.2344 55.5576 82.4066 57.7256C87.4751 61.0559 80.3997 68.4118 81.3056 73.8397C80.6094 80.2706 81.0592 86.78 82.5779 92.9694C79.5908 98.7081 89.5991 105.507 89.6392 97.079C90.9365 85.8591 86.7476 73.8748 92.5687 63.3201C96.2416 58.5314 102.584 62.3561 104.142 66.9295C106.85 72.3361 102.492 77.8896 103.008 83.5368C103.005 89.6086 104.011 95.5966 104.498 101.603C105.055 105.013 108.944 108.997 109.085 102.949C110.766 94.7489 107.334 87.0083 106.373 79.1126C106.7 71.6917 110.909 62.4317 118.902 61.6546C123.881 61.7445 129.91 66.316 129.252 71.8474C126.731 75.9931 125.415 80.3919 125.273 85.2123C123.922 93.2573 123.268 101.531 124.338 109.523C127.73 112.359 132.961 114.58 133.151 120.339C134.335 126.679 133.04 134.153 137.991 138.969C142.157 144.438 145.27 150.876 146.613 157.831C147.52 162.925 150.004 167.632 148.087 172.755C150.906 175.224 159.682 179.335 156.653 171.68C153.939 165.104 154.21 157.766 151.643 151.179C148.524 142.668 143.607 134.507 143.696 124.998C147.596 118.605 143.928 112.139 142.13 105.974C139.96 99.6071 139.09 92.5585 141.075 85.8715C140.798 80.1298 144.07 73.9032 144.657 69.196C139.155 64.7967 132.615 61.3469 126.322 58.5236C118.868 58.2163 112.313 55.0966 105.538 52.4434C97.4475 49.4788 89.0261 46.8748 80.2691 46.9961C75.9259 40.9552 87.0642 42.163 90.3218 43.2219C100.382 44.8551 110.127 47.9995 119.412 52.1205C127.018 52.3364 133.926 55.0518 139.794 59.6768C147.478 61.7052 154.054 70.0741 147.317 77.6903C146.697 85.3939 143.636 93.4426 145.991 101.011C147.892 108.506 153.043 116.448 149.263 124.417C147.708 131.093 152.166 137.254 154.116 143.309C157.412 150.309 159.015 158.058 160.209 165.745C162.491 170.717 164.598 180.875 156.688 181.668C151.11 181.05 140.763 178.032 142.833 170.377C143.916 163.168 140.784 154.457 137.414 147.846C134.034 141.374 127.948 136.016 128.702 127.797C129.485 121.745 126.919 116.443 121.435 114.547C116.929 109.868 119.599 102.01 118.777 95.9631C119.81 88.5218 120.174 80.8177 122.532 73.6206C127.523 67.5763 115.261 64.1873 113.427 71.1221C108.931 77.1201 111.778 84.122 112.934 90.4486C113.811 96.6037 114.085 103.525 110.544 109.064C104.914 113.426 100.265 104.783 100.202 99.7022C99.7068 92.7406 98.3504 85.6711 99.3182 78.6716C101.166 73.9433 102.661 64.9521 95.7609 64.9785C90.5337 74.2796 93.9182 85.0458 93.1185 95.0249C93.8755 101.566 87.5494 107.911 82.178 102.495C77.1868 99.4675 80.1498 92.1102 78.0413 87.3462C77.152 78.2777 77.5065 68.5294 81.9568 60.2257C79.7009 58.1183 69.7336 53.6968 71.3888 60.3686C74.3723 65.431 69.8651 70.1586 70.918 75.4571C71.402 83.1978 74.54 91.159 71.5122 98.8673C67.3194 104.549 74.8055 107.134 79.155 105.564C88.5084 107.543 96.7825 112.641 105.707 115.867C110.598 114.112 117.229 113.235 118.972 119.631C122.966 123.673 120.59 129.042 120.549 133.409C124.044 136.777 127.68 146.101 120.911 146.763C124.921 152.19 128.456 158.742 126.855 165.984C126.744 170.989 123.67 181.078 131.526 179.795C132.056 183.201 122.45 181.155 124.546 176.265C123.925 168.381 127.612 159.197 122.215 152.53C120.744 150.218 114.977 142.833 119.444 142.497C125.11 147.119 121.101 136.844 118.62 135.074C115.732 130.419 121.487 124.92 116.329 120.729C113.3 113.385 103.967 121.585 99.0684 115.837C92.8312 112.319 86.1064 109.578 79.1642 107.824C74.7706 108.53 68.6996 106.716 68.6313 101.975ZM78.7356 208.043C78.6743 206.64 82.3531 207.98 83.5711 208.735C95.4409 215.486 107.391 223.172 118.218 231.145C120.763 226.44 120.628 220.44 120.804 215.284C123.12 210.4 129.722 210.365 134.143 209.439C139.288 209.298 144.969 206.764 149.922 208.36C151.949 210.045 152.294 214.055 154.396 215.098C158.973 214.4 159.1 208.496 162.745 206.307C169.244 202.368 177.097 205.131 183.899 205.934C192.456 207.206 200.555 210.671 208.974 212.263C224.342 210.043 238.411 201.534 253.824 199.413C260.557 195.939 268.158 196.489 275.308 197.151C285.257 197.374 295.57 200.694 305.502 197.818C321.03 191.221 334.037 177.649 351.228 175.98C356.85 175.411 362.164 173.263 367.408 171.256C369.09 171.559 373.615 169.563 371.836 171.428C371.363 172.266 375.039 167.764 375.022 171.882C373.573 176.276 367.475 174.54 364.448 177.347C354.082 181.567 342.406 181.191 332.792 187.758C322.475 193.185 313.099 202.3 301.377 203.898C287.3 205.074 273.372 200.02 259.347 202.603C251.963 206.191 243.542 205.756 236.13 209.46C226.396 212.253 216.628 217.832 206.41 217.189C193.447 213.763 180.469 208.503 166.797 208.904C161.683 209.617 161.374 217.429 156.023 217.84C155.048 219.427 151.506 218.521 150.524 216.416C148.735 214.555 147.862 211.027 144.65 212.47C138.132 213.825 130.657 212.907 124.735 216.462C123.724 222.278 123.898 229.204 119.922 233.927C116.006 236.436 113.369 230.296 110.217 229.224C100.521 221.969 89.3313 214.591 79.1965 209.125C78.8903 208.653 78.7489 208.3 78.7356 208.043ZM82.7266 308.305C83.1763 305.886 85.1814 307.352 86.2854 307.805C92.4378 307.91 99.6168 303.742 104.856 308.8C109 311.552 112.522 317.622 118.32 315.997C128.191 318.367 138.895 318.721 147.562 324.646C151.912 327.262 157.076 328.821 161.884 329.581C161.855 330.246 162.348 329.225 162.634 330.338C159.145 332.554 154.423 330.253 150.923 328.974C143.715 325.165 136.521 320.979 128.178 320.326C123.479 319.82 119.092 317.612 114.272 318.358C107.44 316.528 103.636 306.852 95.6453 308.804C91.6606 309.07 85.8396 312.813 82.776 308.814C82.7259 308.653 82.7217 308.477 82.7266 308.305ZM97.0049 341.359C97.038 340.88 97.571 340.273 97.4746 340.329C101.445 335.86 108.243 336.348 113.477 337.031C123.231 340.633 133.531 343.815 142.893 347.962C147.096 350.889 151.585 355.319 157.083 354.732C162.331 353.106 165.627 346.621 171.467 346.952C172.659 347.077 171.242 349.631 172.252 348.993C172.422 346.412 173.581 349.141 172.355 349.992C170.744 351.053 167.834 350.459 166.243 352.451C162.136 356.462 156.045 360.042 150.715 356.855C147.207 355.222 141.854 351.955 140.332 349.754C131.729 345.872 121.554 342.532 112.23 339.311C107.317 338.612 102.148 339.35 97.7281 341.911C97.146 341.884 96.986 341.646 97.0049 341.359ZM110.153 28.4699C110.045 27.5614 112.405 27.9596 111.915 27.786C111.915 27.786 111.901 27.7579 111.883 27.7394C112.57 28.1114 116.87 28.3975 118.658 28.1904C129.25 27.7122 139.839 26.2644 150.391 27.1587C156.23 26.0332 161.502 21.8229 167.667 22.4628C175.313 22.8875 182.866 19.6849 190.477 21.4914C199.47 22.8569 208.716 23.6736 217.855 22.7313C221.415 21.3145 226.575 18.3646 229.257 22.6542C228.774 23.5887 225.438 22.5994 223.977 24.1419C216.869 29.3254 208.159 26.7317 200.287 26.9361C191.702 25.7662 182.958 23.8998 174.266 26.1446C167.824 26.1212 161.181 26.0763 155.287 29.5589C147.923 32.5732 140.127 29.0201 132.55 30.4751C125.389 30.0808 117.486 31.9774 110.683 29.3252C110.331 28.9556 110.176 28.6745 110.153 28.4699ZM121.537 368.726C121.858 366.416 125.149 366.815 125.516 368.899C126.563 370.433 125.404 371.936 124.613 373.207C124.481 375.027 126.392 375.651 127.725 376.038C131.839 377.473 136.296 377.209 140.577 377.739C143.938 377.653 147.242 378.223 150.454 379.083C153.282 379.756 156.178 380.393 159.127 380.092C159.462 382.124 156.961 382.959 155.44 382.588C151.503 382.251 147.769 380.745 143.785 380.72C137.097 380.242 130.018 380.528 123.954 377.31C122.754 376.631 121.615 375.406 121.751 373.849C122.621 372.179 122.868 370.087 121.537 368.726ZM151.75 91.8155C151.685 89.8401 154.047 87.3196 156.318 88.5379C158.106 88.6366 160.053 89.1786 161.75 89.1849C164.024 88.798 166.546 86.654 168.692 86.1427C170.66 87.7874 168.071 92.0741 171.631 92.7735C174.256 94.1512 176.078 97.4158 178.767 98.4425C183.237 96.5872 186.863 99.1186 189.777 102.158C192.454 102.211 198.073 101.031 198.477 105.297C201.586 102.85 205.963 98.6522 210.125 101.671C213.171 103.038 216.718 106.098 220.102 103.417C223.011 102.281 225.637 105.231 227.299 106.347C231.746 101.831 238.276 108.071 243.782 105.582C249.97 103.947 250.242 112.627 254.056 114.683C258.532 109.517 265.197 112.604 270.812 110.871C276.538 108.56 282.852 110.776 288.202 111C290.791 106.914 296.535 109.394 300.273 108.683C315.669 110.928 329.384 100.765 343.67 96.329C352.178 94.2771 360.992 100.034 369.166 95.8637C374.78 92.3529 372.756 84.4379 371.57 79.2827C369.006 73.2739 370.092 66.748 370.806 60.4024C370.154 49.9114 369.548 38.9123 365.395 29.3296C364.226 26.9875 362.728 31.0871 361.36 31.7952C357.603 32.9467 359.254 37.4069 359.656 40.1107C361.242 45.0319 363.102 49.9097 362.83 55.3271C362.928 63.3013 368.261 71.8674 363.702 79.5396C361.045 83.1359 356.826 85.6893 352.799 86.8935C348.662 85.2879 346.701 80.0505 345.926 75.7931C348.019 65.2806 345.914 54.2872 342.299 44.5898C341.181 41.5532 337.926 37.327 334.473 40.0202C332.482 45.1167 335.675 50.5299 336.614 55.4263C338.503 64.7602 341.632 74.6039 339.513 84.3053C337.686 87.6476 336.427 91.151 335.448 94.8166C333.012 100.053 326.253 98.0108 323.735 94.2503C318.582 89.5137 319.129 82.0325 319.844 75.472C317.849 66.6769 312.891 58.8856 309.942 50.4255C309.057 48.2501 308.426 44.857 305.439 46.1005C302.203 45.7812 300.157 48.6392 300.068 51.7332C300.219 56.3998 297.057 60.0141 295.857 64.2464C296.438 69.3037 302.564 71.0151 303.654 75.9922C304.939 79.8635 305.163 84.6804 308.96 86.8809C311.007 90.1948 310.675 95.7767 307.758 98.6467C306.453 99.8732 301.526 98.9167 301.898 98.7506C298.933 100.552 294.841 101.51 292.588 98.2659C290.446 96.1496 289.851 93.6868 286.627 94.141C282.372 94.0491 276.563 94.1704 275.088 89.0112C270.227 85.2292 274.597 80.4061 276.127 81.006C276.529 79.6254 274.738 76.4409 273.64 74.9992C270.463 70.4931 273.327 64.5342 276.383 60.9141C274.742 58.6223 273.056 53.7478 276.996 52.6327C279.056 51.7614 282.337 52.939 283.764 52.1524C282.495 49.3649 279.967 45.7528 276.602 47.927C273.453 49.974 269.376 48.4619 266.623 51.3976C261.988 55.9865 263.818 64.5295 257.75 67.9752C255.554 72.6444 258.161 78.0975 259.784 82.382C261.737 87.2661 266.384 90.4109 266.945 96.023C268.38 98.5754 267.52 102.174 263.634 101.023C253.847 102.863 250.345 90.9018 246.26 84.3453C243.011 76.8227 243.74 67.9878 240.38 60.5121C239.516 57.2229 242.943 53.9478 241.794 50.8789C238.179 47.4824 233.332 52.547 229.135 50.9865C226.751 51.0859 223.276 48.8357 222.975 52.3862C221.963 58.7328 226.312 63.8085 227.208 69.7766C229.529 73.5919 232.925 76.7382 234.511 81.1339C236.844 86.014 239.83 92.1129 237.911 97.7753C234.918 102.029 229.694 98.5844 227.628 95.3667C224.467 92.2311 222.276 87.3793 219.026 84.715C214.562 84.0764 209.258 83.8214 205.144 84.5031C206.347 88.0144 204.67 92.0248 200.964 92.9118C197.188 94.5274 192.62 95.1489 189.808 91.6092C187.329 88.5113 185.776 83.6033 181.122 83.497C177.232 82.4129 172.571 84.0314 169.117 82.5591C168.813 78.7435 174.356 80.6572 176.897 80.1605C182.978 79.5614 188.909 82.4836 191.157 88.4846C193.597 92.4628 198.946 91.1637 202.233 88.8012C203.758 87.3042 200.015 81.839 204.11 81.048C209.843 80.2081 215.95 79.8709 221.518 81.1913C226.783 85.021 228.181 93.9807 234.435 96.17C236.366 93.3639 232.299 84.7383 230.38 81.4246C228.314 76.191 223.057 72.9724 222.721 66.8841C220.871 61.3657 217.78 55.1607 220.442 49.1804C223.703 43.9192 229.96 48.7501 234.472 46.3583C239.085 43.5902 246.737 46.0258 246.197 52.2505C245.745 55.7061 242.822 59.3215 245.369 62.5412C248.002 70.8596 247.153 80.5396 252.649 87.6668C254.824 91.3249 256.836 98.0604 262.267 96.9065C263.08 95.9698 261.771 92.7442 260.371 91.4327C255.566 84.7825 251.284 75.811 253.681 67.1077C254.916 63.949 259.172 63.1427 258.915 59.1153C260.194 52.076 265.102 44.1239 272.817 44.7706C276.553 42.8698 282.343 41.0582 284.579 45.9466C287.032 48.3623 289.885 54.227 285.351 56.2948C283.241 56.9577 280.185 55.8915 278.625 56.6112C280.751 59.392 280.793 63.3268 277.644 65.5076C273.932 69.3375 276.787 74.2755 278.811 77.8625C279.989 80.209 279.207 83.877 276.399 84.4644C277.599 87.3547 278.913 90.4798 282.257 89.7777C286.838 89.428 292.307 89.682 294.557 94.5221C295.576 96.3345 297.537 97.1435 299.104 95.2962C300.713 93.2372 303.895 95.0536 305.264 94.0923C305.694 92.0228 305.86 89.5329 303.486 88.8055C298.911 84.2489 300.542 75.8405 294.538 72.2998C290.529 69.0034 289.694 62.6893 293.168 58.3758C296.777 53.6229 294.534 45.3908 300.742 42.5849C304.872 40.8803 311.448 40.0438 312.959 45.5886C317.144 55.0412 322.017 64.5553 323.893 74.9119C323.984 79.9915 321.688 86.1784 326.119 89.9185C327.272 90.9569 329.348 93.6154 331.06 92.575C331.623 88.6855 333.88 85.4234 335.098 81.7829C336.049 69.6916 331.708 58.2908 329.342 46.786C328.111 41.5418 330.701 34.7853 336.57 34.3371C344.123 33.4753 347.521 42.335 348.943 48.5279C351.075 57.4184 351.055 67.0974 349.836 76.0931C350.569 78.3217 351.7 81.3817 353.532 82.396C357.883 80.1532 362.486 75.661 360.585 70.2113C358.354 62.4803 358.165 54.3375 356.906 46.419C355.394 41.6242 353.205 35.7692 355.773 30.8719C357.507 28.4454 360.795 27.8503 361.59 24.8029C364.578 20.6788 369.578 24.1979 370.579 27.9982C374.458 38.8948 375.873 50.8729 375.781 62.5943C374.366 68.3821 375.014 74.1535 376.924 79.5981C382.406 91.7369 371.854 106.359 358.924 102.482C351.958 101.336 344.396 99.9528 337.799 104.043C325.349 109.733 312.169 116.016 298.433 113.965C296.062 114.312 292.774 112.748 291.969 115.844C288.109 118.408 283.402 115.089 279.221 115.257C273.289 114.556 267.492 117.806 261.488 116.917C257.886 116.424 254.13 123.561 250.718 119.336C248.215 116.989 246.559 113.207 244.62 110.816C240.95 112.012 236.573 110.989 233.534 110.82C233.521 115.196 228.423 114.738 226.255 112.541C224.23 111.868 223.145 108.821 221.077 108.584C215.972 112.106 211.012 107.238 206.426 105.691C203.392 107.601 200.346 110.714 196.543 109.421C194.682 109.287 194.384 106.842 193.845 105.987C189.73 107.257 186.172 104.938 183.772 101.789C180.839 101.101 176.905 103.568 174.789 100.218C171.727 97.5089 167.098 94.6167 166.161 90.8619C163.837 93.0754 158.191 91.9058 157.668 91.7955C161.382 94.2426 160.031 100.095 160.17 104.021C159.644 105.655 158.69 110.165 156.593 108.716C156.865 105.639 158.402 103.014 157.404 100.036C157.621 97.0662 157.322 93.2028 153.589 93.7659C152.315 93.496 151.78 92.7126 151.75 91.8155ZM156.65 51.7905C158.854 47.8711 164.448 49.6397 167.868 49.6992C171.88 49.5943 175.799 49.937 179.704 50.7292C187.216 51.4692 193.554 44.0823 200.965 45.38C203.836 46.7202 207.155 45.0207 210.04 44.3636C211.215 43.6195 214.86 47.8222 210.774 48.374C206.88 49.1531 202.724 50.6246 198.968 48.8478C192.574 49.907 186.674 54.2401 179.991 53.5709C176.036 52.9763 172.205 51.8709 168.124 52.1025C165.269 51.9034 161.196 50.5344 158.739 52.1458C160.529 55.8654 163.784 58.4245 167.919 58.4585C179.007 59.7015 190.449 60.0815 201.561 58.811C206.822 57.6774 213.314 57.4601 217.492 61.2044C220.116 65.114 214.814 68.4655 212.187 70.6086C205.294 76.1427 196.09 75.3007 188.931 71.6532C184.256 71.328 179.557 71.0322 174.904 70.7252C169.579 71.6031 163.394 74.0928 158.466 71.7894C157.9 70.4337 159.361 71.0408 159.091 70.6444C162.605 69.6783 167.193 70.5991 170.951 68.7787C176.604 66.7618 182.362 68.9449 188.113 68.3337C193.461 69.1747 198.58 72.7278 204.269 70.7478C208.246 69.6027 212.529 66.7509 214.664 63.369C210.336 60.767 204.88 61.2005 200.091 62.1691C187.462 61.6738 173.505 64.1207 161.642 58.6299C159.528 56.8853 157.538 54.3384 156.65 51.7905ZM163.12 105.068C163.146 103.562 164.129 102.514 166.787 103.289C172.151 103.221 174.414 108.567 176.262 112.83C179.717 116.428 179.486 121.619 180.086 126.317C180.981 128.029 182.408 127.553 183.612 126.416C185.462 125.285 188.292 128.776 189.604 126.484C190.051 123.124 189.305 117.61 194.092 117.568C196.784 116.961 200.256 118.647 202.284 118.126C203.753 114.529 208.788 116.418 211.165 117.776C213.758 118.896 217.253 122.517 213.869 125.136C213.238 126.305 216.619 125.267 217.414 124.47C222.37 119.975 229.68 119.026 234.963 122.931C240.162 125.13 238.14 131.961 240.46 136.121C242.763 139.87 245.93 142.948 246.14 147.832C248.084 152.444 248.213 158.626 251.855 162.227C254.117 163.632 256.39 166.417 258.858 163.606C263.459 160.026 268.582 156.953 274.409 157.185C282.718 156.057 291.489 158.157 299.569 155.27C314.949 146.724 332.479 145.583 349.289 144.477C355.186 143.722 361.301 142.167 366.081 138.27C368.343 137.778 370.628 138.886 372.516 136.879C374.316 135.635 378.838 134.777 378.016 137.978C375.886 139.468 373.293 140.788 371.139 142.317C369.02 142.708 366.872 141.968 365.331 144.063C351.217 152.056 334.757 148.134 319.825 152.536C312.367 153.915 305.533 157.556 298.577 160.484C288.633 162.51 278.235 160.316 268.419 162.405C263.964 164.136 260.011 169.216 254.996 169.123C250.98 166.629 246.391 164.137 245.439 158.777C242.742 152.458 242.611 144.877 237.904 139.756C234.669 136.394 236.101 131.155 234.129 127.318C230.431 124.01 224.679 123.27 220.651 126.838C217.432 129.246 210.959 130.972 209.043 126.522C208.571 124.121 213.47 122.576 210.062 121.283C208.528 120.444 205.19 118.132 205.152 121.406C202.46 123.885 198.739 120.469 195.502 120.967C193.632 120.498 192.676 121.77 193.231 123.713C193.788 127.381 190.867 131.957 186.964 130.357C185.136 129.624 184.295 128.747 182.627 130.364C177.247 131.387 176.326 124.397 176.664 120.315C175.916 116.143 172.576 113.229 171.451 109.18C170.662 107.445 167.521 105.512 166.464 106.458C169.695 111.841 167.669 118.205 167.221 124.092C167.112 125.92 168.377 128.675 167.228 129.958C162.008 124.254 167.991 115.346 164.461 108.784C163.656 107.695 163.099 106.239 163.12 105.068ZM165.655 143.719C165.678 141.158 166.554 138.781 168.95 137.43C174.194 135.785 178.557 140.808 183.301 141.432C185.83 140.004 188.9 143.176 190.28 138.938C193.301 134.664 199.167 133.538 202.73 137.357C205.136 140.085 208.831 140.416 212.007 138.65C216.601 136.547 224.076 135.697 226.366 141.267C224.892 149.173 233.374 153.404 233.79 160.903C234.682 166.011 233.863 172.007 235.586 174.821C236.701 178.785 230.495 178.256 230.864 174.646C229.317 166.771 230.83 157.607 224.772 151.508C223.091 148.721 222.195 145.213 222.353 142.083C216.35 138.07 209.157 146.959 203.114 142.478C200.586 141.049 197.427 136.7 194.34 139.925C191.745 142.019 189.223 146.686 185.524 144.257C184.246 143.572 182.496 145.278 180.706 143.923C177.274 142.86 172.922 138.783 169.307 140.283C166.622 143.847 168.425 154.311 173.194 151.886C176.595 149.869 180.583 147.973 184.122 150.546C186.523 151.249 189.598 153.871 191.144 153.682C195.443 151.824 198.576 146.605 203.8 147.99C212.211 146.553 219.118 152.35 219.751 161.027C221.003 165.386 216.647 170.204 212.41 168.215C208.038 167.229 204.115 162.315 199.343 163.952C195.808 166.29 195 171.659 190.609 173.006C184.033 176.044 179.31 167.6 176.525 163.949C174.701 163.656 171.021 165.263 170.532 166.862C172.622 167.017 174.92 168.869 171.769 169.378C168.746 170.327 166.319 166.372 169.207 164.33C172.111 161.532 177.942 159.164 180.074 163.889C182.131 166.849 185.925 172.318 190.067 169.218C193.433 166.465 194.068 160.839 198.742 159.583C204.835 157.455 209.517 163.613 215.128 163.986C216.432 161.15 214.063 157.852 212.977 155.378C211.773 152.464 208.507 153.316 205.717 152.413C202.934 152.263 200.071 151.147 198.168 153.441C195.077 156.337 190.206 159.315 186.642 155.735C184.118 154.592 181.14 151.273 178.801 151.887C175.519 153.71 169.85 157.031 167.857 151.933C166.688 149.763 165.626 146.62 165.655 143.719ZM167.025 310.595C166.923 309.099 171.301 309.291 172.933 309.505C181.533 309.571 189.434 313.288 197.781 314.49C207.24 313.823 216.173 317.345 225.113 319.658C234.225 323.384 239.593 332.58 248.01 337.3C254.968 340.424 262.496 342.516 270.004 343.757C271.13 344.243 275.373 343.432 272.721 342.232C266.541 339.744 258.256 342.328 253.569 336.352C249.551 332.602 247.668 325.102 241.632 324.257C238.866 325.086 234.266 323.593 234.419 320.372C236.718 321.561 239.203 321.348 241.726 320.886C251.779 321.349 252.459 336.664 262.47 337.252C267.388 337.975 274.8 336.693 277.319 342.274C277.438 346.812 271.993 348.186 268.607 347.342C257.596 344.62 245.028 342.656 237.529 333.016C231.719 326.985 225.014 321.157 216.41 320.27C209.859 318.062 203.113 316.741 196.143 317.042C186.892 314.764 177.674 311.381 167.908 311.916C167.317 311.373 167.052 310.938 167.025 310.595ZM169.363 178.029C169.377 177.58 169.617 177.122 170.163 176.692C172.677 176.153 170.04 178.555 171.023 177.688C171.028 177.645 171.037 177.683 171.051 177.616C171.464 177.257 176.255 179.819 178.478 180.055C184.228 181.756 191.018 184.064 196.4 179.501C202.517 174.52 210.866 170.267 218.193 174.334C220.143 173.705 222.989 174.253 223.484 176.581C220.856 176.761 218.434 179.499 215.719 177.651C208.346 173.806 201.523 181.153 195.071 184.092C187.829 187.455 180.342 183.16 173.455 181.299C172.057 181.148 169.305 179.627 169.363 178.029ZM181.155 335.744C181.969 332.242 186.814 337.276 188.719 338.135C192.664 339.212 196.822 339.704 200.785 340.862C204.337 341.576 207.882 342.983 211.561 342.317C217.846 342.647 222.048 348.048 227.011 351.253C232.573 355.545 236.452 362.376 243.237 364.814C250.453 367.093 259.231 365.486 265.093 371.191C270.951 373.881 278.912 372.737 282.971 378.741C284.758 381.639 290.464 384.76 289.578 387.686C286.05 386.336 284.129 382.139 281.167 379.703C278.409 376.687 274.52 375.163 270.49 375.111C264.764 374.756 261.034 369.52 255.446 369.041C247.893 367.772 238.724 367.708 233.952 360.564C227.6 354.662 221.416 347.913 213.013 345.184C206.051 346.33 199.704 342.639 192.925 342.06C188.732 341.053 183.255 339.944 181.155 335.744ZM182.375 369.025C182.322 368.277 182.888 367.349 183.035 366.909C183.575 365.304 185.003 368.501 185.795 369.013C190.408 373.525 196.91 375.042 202.309 378.288C210.92 380.117 220.171 380.455 227.597 385.808C230.906 388.308 236.096 388.462 239.29 386.843C236.67 392.517 229.802 390.067 226.034 387.641C218.733 382.212 209.411 382.444 201.04 380.101C195.28 376.59 188.025 374.953 183.354 370.032C182.658 369.856 182.406 369.473 182.375 369.025ZM185.099 260.842C185.099 260.661 185.104 260.474 185.118 260.292C186.159 260.045 186.505 261.322 186.76 262.116C187.211 263.533 187.492 265.228 188.756 266.115C190.818 268.84 194.46 270.187 197.799 269.403C199.799 268.94 201.549 267.383 202.287 265.379C203.032 264.163 202.806 262.575 201.937 261.56C200.684 259.971 198.87 259.051 197.249 257.929C195.604 257.907 193.924 258.851 192.311 258.278C191.697 258.022 191.437 257.325 191.42 256.671C192.014 255.322 193.587 255.213 194.807 255.179C195.738 255.136 196.691 255.179 197.599 254.893C200.789 255.744 203.245 258.27 205.046 261.014C205.977 263.159 205.477 265.805 204.033 267.671C201.84 270.597 197.949 272.298 194.545 271.287C192.29 270.613 190.124 269.539 188.399 267.89C186.491 266.124 185.098 263.584 185.099 260.842ZM187.151 358.297C193.076 357.503 198.128 362.301 202.904 365.13C205.636 367.546 209.405 369.671 211.767 371.879C209.795 374.381 206.997 370.101 205.092 369.227C199.765 364.593 194.048 359.747 187.151 358.297ZM231.254 246.761C236.507 242.795 241.913 251.258 247.876 249.899C257.279 249.946 266.533 251.445 275.913 251.564C280.749 251.678 285.721 250.632 289.433 247.002C296.745 243.039 304.746 249.265 312.268 245.648C319.158 243.663 326.691 243.461 332.79 247.424C338.136 249.512 343.462 245.696 348.699 244.874C358.385 245.713 367.879 239.642 373.617 231.608C374.54 230.648 375.125 227.235 375.656 227.685C376.135 235.387 368.835 240.711 363.005 244.058C358.217 247.305 352.637 247.318 347.272 247.638C341.192 250.43 333.862 252.23 328.08 248.17C319.112 243.823 309.408 251.697 300.176 248.855C295.219 247.212 290.076 248.585 286.208 252.344C274.752 256.631 262.8 251.874 251.177 252.475C245.702 252.58 240.446 251.339 235.798 248.5C234.309 247.956 232.275 247.503 231.254 246.761ZM247.659 212.302C254.091 210.223 258.913 217.561 265.565 215.394C273.161 213.905 280.785 213.905 288.278 215.357C295.094 216.156 301.27 211.564 308.096 211.65C315.213 211.043 322.208 209.336 328.711 206.076C333.889 205.046 338.453 201.945 343.508 200.685C349.726 200.019 356.399 201.204 361.954 197.185C366.832 195.444 372.115 192.389 377.262 193.251C377.511 196.711 372.076 195.519 369.629 197.269C363.229 199.456 357.497 204.49 350.466 203.652C345.942 203.24 341.493 204.139 337.472 206.499C331.247 207.877 325.853 211.643 319.783 213.417C310.931 215.314 301.844 215.566 293.118 218.17C284.778 218.688 276.596 215.545 268.233 218.017C262.197 219.302 256.12 218.186 250.978 214.925C249.7 214.297 248.845 213.076 247.659 212.302ZM258.578 145.549C258.588 145.458 258.606 145.357 258.639 145.236C258.464 142.993 262.054 140.873 263.772 139.249C272.045 133.561 283.459 138.872 291.181 131.674C296.829 127.379 303.976 131.911 309.758 131.446C316.881 127.738 325.266 130.191 332.49 126.47C340.23 123.963 347.173 118.575 355.135 117.101C359.873 118.141 365.812 115.264 369.14 113.096C368.704 113.57 370.026 114.831 369.532 112.097C372.509 108.853 374.706 115.343 371.301 116.845C366.319 120.386 360.231 122.528 354.315 121.344C343.117 124.457 332.955 132.501 321.057 132.792C317.064 132.819 312.849 133.519 309.466 135.68C304.534 135.106 299.207 132.453 294.266 133.819C289.946 137.145 284.861 139.357 279.48 138.937C273.158 138.465 265.671 138.494 261.249 144.393C260.94 145.255 258.447 146.906 258.578 145.549ZM259.45 316.637C259.45 316.303 259.575 315.969 259.814 315.702C267.542 314.199 275.773 311.111 283.46 314.18C297.713 317.097 309.793 326.335 319.289 337.246C326.217 341.466 326.986 350.706 331.641 356.802C335.841 358.85 341.204 359.289 345.797 357.874C346.807 356.806 349.998 356.873 348.801 359.223C344.745 363.381 338.279 361.51 333.393 360.862C326.478 359.662 325.762 350.83 322.65 345.691C320.304 340.721 315.151 338.282 312.235 333.719C303.194 325.066 292.213 318.373 279.802 316.351C273.241 313.948 266.346 318.579 259.819 317.536C259.572 317.292 259.449 316.967 259.45 316.637ZM286.935 352.765C286.899 350.287 287.45 347.578 289.309 346.202C291.942 345.54 294.981 345.862 297.352 345.648C299.996 346.203 297.367 349.603 295.128 348.235C292.794 348.314 289.087 347.352 289.418 351.133C288.392 355.288 291.126 359.346 294.717 360.694C295.738 361.752 299.88 362.808 299.116 364.125C301.541 364.163 297.204 366.348 296.282 364.575C292.33 362.509 288.034 360.054 287.136 355.103C287.023 354.386 286.947 353.591 286.935 352.765ZM290.631 309.654C290.613 309.32 290.811 309.127 291.461 309.347C298.638 312.927 306.58 314.817 313.646 318.626C328.669 332.88 344.687 346.63 363.181 355.897C366.357 356.772 369.778 353.956 372.755 355.178C368.308 357.778 362.414 358.8 358.249 355.285C341.451 346.1 326.774 333.458 312.537 320.662C305.833 316.631 296.764 316.882 291.196 311.019C291.014 310.734 290.648 310.078 290.631 309.654ZM293.663 272.514C293.701 272.126 294.022 271.856 294.765 271.92C294.847 271.917 294.935 271.881 294.985 271.836C297.157 272.303 300.675 275.999 304.166 275.091C309.98 274.822 319.599 272.439 322.032 279.938C322.045 282.68 320.541 285.155 321.021 287.875C318.329 292.987 311.321 294.279 306.751 291.609C304.859 290.563 299.203 289.987 300.957 286.542C303.178 285.416 304.638 288.747 307.087 288.65C315.729 295.153 321.488 281.438 317.532 278.871C310.887 275.215 301.583 280.448 295.805 274.644C294.787 274.628 293.749 273.49 293.668 272.686C293.659 272.629 293.659 272.571 293.663 272.514ZM315.675 310.638C315.703 310.355 315.869 310.072 316.213 309.792C315.54 311.469 317.091 310.745 316.685 309.986C317.55 308.612 320.924 312.896 321.353 309.59C325.743 306.237 330.685 310.762 333.705 313.816C337.246 317.325 338.689 322.552 341.845 326.262C348.215 329.703 353.412 334.997 359.663 338.577C363.341 340.304 367.625 339.544 371.447 340.225C371.733 343.945 366.221 342.159 363.566 342.278C354.573 341.424 349.158 332.851 341.334 329.261C336.769 326.223 336.104 319.74 332.242 315.913C330.129 313.6 326.95 310.207 323.61 311.258C324.365 314.331 320.901 315.257 319.034 313.422C317.939 313.012 315.549 311.856 315.675 310.638ZM344.257 274.277C344.249 273.351 344.402 272.433 344.835 271.558C345.884 269.643 348.173 269.284 350.057 269.365C350.91 269.349 351.79 269.351 352.607 269.021C353.757 267.021 355.444 264.683 357.879 264.701C359.767 264.896 361.66 265.144 363.493 265.68C365.051 265.878 367.768 267.023 368.442 264.873C369.486 263.049 372.171 261.597 373.887 263.098C374.976 264.172 374.027 266.279 376.003 266.333C377.488 266.825 379.416 267.654 379.339 269.606C379.748 271.449 377.517 272.647 376.599 270.859C376.17 269.924 376.567 268.945 375.205 268.85C373.739 268.248 371.664 267.5 371.636 265.538C371.858 264.259 370.451 266.488 370.088 266.955C369.361 268.113 368.139 269.403 366.71 268.91C364.702 268.656 362.64 268.334 360.651 267.788C359.134 267.532 356.361 266.971 355.857 269.072C354.982 271.334 352.409 271.713 350.387 271.804C348.745 271.896 345.976 271.742 346.379 274.283C346.304 277.396 348.265 280.445 346.911 283.541C345.705 285.748 346.473 289.026 348.658 290.095C350.518 290.783 352.231 289.132 353.531 287.891C356.821 284.468 358.321 279.546 362.036 276.519C362.856 274.531 364.222 277.048 362.808 277.877C358.926 281.608 357.429 287.46 352.925 290.564C351.272 291.645 349.084 292.397 347.34 291.284C344.67 289.654 344.077 285.883 344.798 282.876C345.434 281.568 345.349 280.219 344.967 278.872C344.695 277.396 344.263 275.82 344.257 274.277ZM377.204 291.284C377.204 291.288 377.232 291.287 377.31 291.285C377.447 291.265 377.204 291.279 377.204 291.284Z" fill="#9F6540"/>
<ellipse cx="12.172" cy="13.4335" rx="12.172" ry="13.4335" transform="matrix(1 -0.000730981 0.00456416 0.99999 79.0054 15.0037)" fill="#86502D"/>
<ellipse cx="12.172" cy="13.4335" rx="12.172" ry="13.4335" transform="matrix(1 -0.000730981 0.00456416 0.99999 296.072 14.8442)" fill="#86502D"/>
<ellipse cx="8.11469" cy="8.95566" rx="8.11469" ry="8.95566" transform="matrix(1 -0.000730981 0.00456416 0.99999 300.153 19.3193)" fill="#AF9788"/>
<ellipse cx="8.11469" cy="8.95566" rx="8.11469" ry="8.95566" transform="matrix(1 -0.000730981 0.00456416 0.99999 83.0811 19.4788)" fill="#AF9788"/>
<path opacity="0.5" d="M86.9748 6.82495C84.5929 2.72279 33.3512 5.1933 8.02804 6.94132C8.06003 28.6433 3.2826 33.5861 0.889883 33.3447L1.03469 131.587C2.61216 138.428 9.33107 152.25 23.5869 152.816C18.8387 155.169 5.45484 164.084 -0.643571 168.248C-0.679596 199.773 -0.679889 277.928 -0.392856 338.339C9.13898 357.681 10.8858 378.646 10.5677 386.711L18.5292 415.293C19.6017 415.291 56.2931 413.917 194.479 408.435C192.888 403.159 185.05 391.586 181.33 386.46C182.652 387.435 189.058 390.554 204.112 395.224C222.929 401.062 238.541 414.969 243.243 414.962C247.945 414.955 259.568 409.072 262.784 408.334C265.357 407.744 268.483 412.481 269.724 414.923L399.652 414.731L399.607 384.672C398.615 382.963 395.437 376.027 390.664 361.957C378.284 357.576 370.061 319.464 363.618 313.609C366.332 308.473 397.266 307.694 396.506 295.231C395.745 282.769 382.867 276.923 379.874 260.798C376.88 244.673 388.018 245.389 390.473 232.189C392.929 218.988 382.95 165.483 382.692 158.152C382.434 150.82 386.632 144.949 387.843 126.618C388.811 111.954 380.781 92.6591 376.644 84.8449L393.38 21.7688L386.428 6.38356L364.65 6.41566C359.711 13.9986 349.29 29.1654 347.112 29.1686C344.934 29.1718 342.218 11.0917 341.132 2.0512L295.348 2.11869C292.131 2.12343 289.663 6.52619 286.686 2.13146C283.71 -2.26327 282.479 2.13766 278.767 2.14313C275.055 2.1486 275.309 6.54735 272.091 6.55209C269.518 6.55588 269.035 3.62385 269.115 2.15736L262.186 2.16757L256.246 2.17633L250.306 2.18508C247.089 2.18982 246.594 2.19055 235.711 6.60571L193.887 6.66736L174.088 6.69655C171.199 5.23443 165.222 2.3105 164.43 2.31166L157.996 2.32115C155.422 2.32494 152.968 5.26131 152.063 6.72901C150.658 5.26471 146.76 2.33771 142.404 2.34413C140.424 2.34705 140.177 2.34741 137.214 6.7509C134.25 11.1544 134.491 6.75491 128.793 2.36419C126.559 -2.03163 124.338 2.37076 121.375 6.77425C118.411 11.1777 116.178 6.78191 114.198 6.78483C112.218 6.78774 110.238 6.79066 108.252 2.39447C106.265 -2.00172 102.319 6.80233 100.091 6.80562C97.864 6.8089 89.9522 11.9527 86.9748 6.82495Z" fill="url(#paint2_linear_114_5)"/>
<defs>
<linearGradient id="paint0_linear_114_5" x1="202.678" y1="0.300122" x2="203.317" y2="434.327" gradientUnits="userSpaceOnUse">
<stop stop-color="#A06742"/>
<stop offset="1" stop-color="#824827"/>
</linearGradient>
<linearGradient id="paint1_linear_114_5" x1="199.02" y1="0.305513" x2="199.631" y2="415.026" gradientUnits="userSpaceOnUse">
<stop stop-color="#C79B58"/>
<stop offset="1" stop-color="#B4824C"/>
</linearGradient>
<linearGradient id="paint2_linear_114_5" x1="199.02" y1="0.305513" x2="199.631" y2="415.026" gradientUnits="userSpaceOnUse">
<stop stop-color="#DE792B"/>
<stop offset="1" stop-color="#A24E20"/>
</linearGradient>
</defs>
</svg>
