<svg width="1412" height="299" viewBox="0 0 1412 299" fill="none" xmlns="http://www.w3.org/2000/svg">
<path d="M311.18 12.0955C302.799 9.2323 122.106 11.1799 32.8071 12.5115C32.8292 27.712 15.9629 31.1943 7.52704 31.0354L7.62707 99.8466C13.1608 104.631 36.7944 114.284 87.0593 114.62C70.3069 116.288 23.077 122.589 1.55616 125.531C1.29737 147.613 0.969715 202.355 1.72934 244.667C35.2586 258.174 41.3302 272.851 40.1749 278.502L68.1286 298.487C71.9101 298.482 201.293 297.364 688.572 292.938C682.981 289.249 655.394 281.177 642.299 277.602C646.954 278.28 669.53 280.437 722.591 283.644C788.918 287.653 843.909 297.328 860.489 297.303C877.069 297.278 918.078 293.109 929.421 292.578C938.496 292.154 949.496 295.458 953.862 297.163L1412 296.479L1411.97 275.425C1408.48 274.232 1397.3 269.387 1380.53 259.552C1336.89 256.537 1308.06 229.877 1285.36 225.803C1294.96 222.194 1404.04 221.517 1401.41 212.791C1398.78 204.065 1353.39 200.025 1342.9 188.743C1332.42 177.462 1371.69 177.916 1380.4 168.66C1389.11 159.404 1354.15 121.969 1353.27 116.835C1352.39 111.702 1367.22 107.571 1371.57 94.7269C1375.04 84.4513 1346.81 70.9709 1332.25 65.5152L1391.53 21.2641L1367.08 10.5173L1290.29 10.6321C1272.84 15.9643 1236.03 26.6317 1228.35 26.6431C1220.67 26.6546 1211.17 14.0023 1207.38 7.67474L1045.94 7.91604C1034.6 7.93299 1025.88 11.0273 1015.4 7.96169C1004.92 4.89611 1000.56 7.98386 987.475 8.00342C974.385 8.02299 975.262 11.1029 963.918 11.1199C954.843 11.1334 953.152 9.0818 953.442 8.05429L929.008 8.09081L908.064 8.12211L887.121 8.15341C875.776 8.17037 874.031 8.17298 835.639 11.3116L688.163 11.532L618.351 11.6364C608.169 10.6245 587.106 8.60183 584.313 8.606L561.625 8.63991C552.549 8.65347 543.884 10.7206 540.686 11.7524C535.739 10.7328 522.007 8.69912 506.648 8.72208C499.667 8.73251 498.794 8.73382 488.327 11.8307C477.86 14.9276 478.728 11.845 458.653 8.79381C450.794 5.72433 442.945 8.81729 432.478 11.9142C422.011 15.011 414.152 11.9416 407.171 11.952C400.19 11.9624 393.209 11.9729 386.223 8.90207C379.238 5.83128 365.284 12.0146 357.431 12.0263C349.577 12.0381 321.657 15.6744 311.18 12.0955Z" fill="url(#paint0_linear_83_4586)"/>
<path d="M305.61 5.90581C297.379 3.17034 119.931 5.03842 32.2358 6.3144C32.2569 20.8387 15.6933 24.1668 7.40894 24.0153L7.50452 89.7655C12.9387 94.337 36.1475 103.56 85.5098 103.878C69.0582 105.473 22.6762 111.496 1.54164 114.308C1.28666 135.408 0.962769 187.714 1.70712 228.144C34.6337 241.049 40.5958 255.073 39.461 260.472L66.912 279.568C70.6255 279.562 197.685 278.489 676.213 274.241C670.724 270.716 643.632 263.004 630.772 259.589C635.344 260.236 657.514 262.296 709.623 265.359C774.758 269.187 828.761 278.429 845.044 278.405C861.326 278.38 901.598 274.395 912.738 273.887C921.65 273.482 932.452 276.638 936.74 278.268L1386.65 277.595L1386.62 257.478C1383.19 256.338 1372.22 251.709 1355.75 242.313C1312.9 239.433 1284.58 213.96 1262.29 210.068C1271.71 206.619 1378.83 205.968 1376.25 197.631C1373.67 189.293 1329.1 185.434 1318.8 174.655C1308.5 163.876 1347.07 164.309 1355.62 155.464C1364.18 146.619 1329.85 110.851 1328.98 105.945C1328.12 101.04 1342.68 97.0927 1346.95 84.8195C1350.36 75.0009 1322.64 62.1213 1308.35 56.9088L1366.56 14.6238L1342.55 4.35597L1267.13 4.46869C1250 9.56443 1213.85 19.7587 1206.31 19.77C1198.77 19.7813 1189.44 7.69217 1185.72 1.64621L1027.18 1.88317C1016.04 1.89982 1007.47 4.85679 997.183 1.928C986.895 -1.0008 982.615 1.94977 969.76 1.96898C956.905 1.9882 957.767 4.93108 946.626 4.94773C937.714 4.96105 936.054 3.00075 936.338 2.01894L912.343 2.0548L891.776 2.08554L871.208 2.11628C860.067 2.13293 858.354 2.13549 820.651 5.13602L675.823 5.35248L607.265 5.45495C597.265 4.4885 576.581 2.55664 573.838 2.56074L551.557 2.59404C542.645 2.60736 534.135 4.58286 530.994 5.56894C526.136 4.59482 512.651 2.65219 497.568 2.67473C490.712 2.68498 489.855 2.68626 479.576 5.6458C469.296 8.60533 470.149 5.65989 450.434 2.74518C442.717 -0.187454 435.009 2.76824 424.729 5.72777C414.45 8.6873 406.733 5.75467 399.877 5.76492C393.021 5.77516 386.166 5.78541 379.306 2.85149C372.446 -0.0824244 358.743 5.8264 351.03 5.83792C343.317 5.84945 315.899 9.32515 305.61 5.90581Z" fill="url(#paint1_linear_83_4586)"/>
<path fill-rule="evenodd" clip-rule="evenodd" d="M65.1241 251.883C65.0707 251.276 66.6184 250.81 70.7675 251.422C93.517 253.322 111.893 257.563 129.839 260.985C142.543 263.632 161.726 266.139 175.241 267.756C186.46 268.963 167.549 271.083 160.791 268.877C125.093 264.767 102.178 257.565 67.7863 253.125C66.2181 252.917 65.1797 252.356 65.1241 251.883ZM68.5381 171.982C68.4602 169.988 76.6217 170.849 77.9492 171.209C87.3497 172.978 90.8778 176.555 102.707 178.314C115.473 180.112 118.983 183.796 135.48 184.615C145.007 185.436 135.838 186.936 129.229 186.299C115.913 186.094 95.8479 185.994 91.0021 189.07C88.2142 188.703 88.3327 190.163 84.4817 188.813C86.2969 185.633 105.906 184.49 116.843 184.567C107.887 181.846 95.8115 179.616 85.4074 177.108C80.1187 175.338 75.3073 173.504 68.5381 171.982ZM71.1759 131.906C71.1943 131.756 71.2284 131.615 71.2939 131.493C71.1489 128.77 76.1795 124.129 93.8755 124.433C108.567 125.004 120.653 127.528 134.986 127.677C149.647 127.21 168.703 124.981 179.063 128.202C187.933 129.444 197.027 131.522 205.697 132.315C215.056 129.931 228.088 131.926 238.224 132.416C252.678 131.007 265.46 132.784 277.792 133.969C284.934 134.08 290.762 132.045 298.673 131.766C322.613 129.836 345.347 133.626 367.237 134.708C383.088 136.185 402.845 136.657 417.983 134.217C435.761 131.512 455.776 128.882 478.614 129.282C498.55 129.488 517.585 127.607 531.318 124.667C550.703 123.669 568.741 126.278 587.258 126.886C613.697 128.372 639.048 131.332 666.489 131.797C702.669 128.965 736.836 124.046 776.664 124.219C828.512 123.326 881.645 125.373 932.763 122.523C968.993 117.67 1013.22 116.554 1053.93 114.312C1070.8 113.987 1085.4 116.426 1102.78 115.342C1138.22 115.368 1171.68 112.463 1203.44 109.373C1226.4 107.79 1252.66 109.009 1274.33 106.66C1283.83 105.483 1296.85 104.645 1307.04 104.703C1308.58 104.857 1303.58 105.761 1308.17 106.078C1309.87 106.266 1307.61 103.845 1313.17 105.124C1311.58 108.324 1288.59 107.631 1279 109.79C1249.53 112.446 1214.56 110.514 1186.98 114.468C1152.83 117.574 1114.69 119.14 1078.01 118.801C1063.64 117.619 1048.2 117.444 1033.17 118.896C1000.61 120.7 966.238 121.999 937.58 125.924C873.144 129.608 806.024 125.73 741.28 128.841C714.501 130.561 690.075 133.994 662.718 135.178C619.806 133.336 580.761 129.029 537.559 127.391C518.611 131.723 489.408 132.193 463.435 132.269C436.81 133.345 417.992 139.364 389.047 138.665C360.767 138.057 336.939 134.199 308.639 133.859C297.365 134.04 290.91 136.481 280.443 136.78C265.903 136.683 255.212 133.279 239.896 134.973C229.263 135.708 219.509 132.274 210.849 134.674C197.466 136.554 189.153 132.414 178.802 131.523C170.596 130.429 164.606 127.917 152.836 129.233C138.801 130.226 123.066 130.402 111.766 128.278C104.692 127.91 93.0079 125.051 85.7208 126.97C78.3373 129.911 77.0824 133.754 84.0035 136.642C77.04 139.144 71.027 134.164 71.1759 131.906ZM70.0234 211.373C69.9666 210.024 78.1595 208.049 79.5587 206.97C94.4565 202.767 82.7823 196.458 103.463 192.959C124.827 191.284 144.532 194.877 164.378 195.71C167.694 195.882 172.357 196.1 175.219 195.834C183.529 194.443 190.563 191.544 204.21 191.919C224.543 192.125 244.08 196.244 264.297 192.954C280.213 190.504 300.863 189.767 318.745 191.314C327.484 191.818 337.156 192.549 345.214 192.957C354.603 191.605 366.217 190.059 377.179 191.486C386.476 191.855 394.127 193.817 402.379 194.005C423.131 192.907 444.45 194.905 465.054 193.104C499.426 191.128 526.768 198.435 561.006 195.911C593.064 193.707 623.496 197.565 652.245 199.516C691.714 203.176 733.947 205.756 778.316 205.953C810.998 206.241 841.342 208.732 866.773 212.624C898.507 217.44 933.731 221.413 973.504 223.025C1003.51 224.882 1037.96 225.93 1061.67 230.29C1073.01 233.456 1075.59 237.844 1093.22 240.051C1120.58 243.592 1128.7 251.672 1162.74 253.327C1191.21 254.046 1218.35 250.799 1245.08 249.095C1263.07 247.923 1273.15 244.12 1292.48 243.586C1307.7 241.599 1307.74 245.86 1298.17 245.727C1278.96 246.273 1268.65 250.03 1250.66 251.211C1220.89 253.188 1190.1 256.792 1158.34 255.652C1121.6 254.057 1110.13 245.895 1081.63 241.973C1064.45 239.689 1060.44 235.464 1049.97 232.185C1020.01 227.431 979.16 226.598 943.912 224.02C894.362 221.317 860.18 212.882 812.292 209.594C768.923 207.496 721.934 208.337 680.961 204.462C647.487 202.102 615.884 198.011 579.715 197.338C559.986 198.048 538.911 199.526 520.179 197.543C499.575 195.532 476.011 193.885 452.769 195.803C434.77 196.582 415.812 194.808 398.465 196.464C388.103 195.224 375.994 193.068 363.815 193.221C354.488 194.688 342.382 196.17 332.296 194.548C313.85 193.559 292.408 191.281 274.371 194.304C259.525 196.349 240.477 197.172 224.918 195.332C214.649 194.245 196.782 192.775 189.081 195.686C180.681 198.635 162.485 197.887 150.679 196.621C136.736 195.89 121.606 193.106 106.155 194.334C90.9149 198.099 100.157 203.638 85.7716 207.585C79.3791 209.171 79.7091 211.275 73.3868 212.455C70.978 212.203 70.0477 211.824 70.0234 211.373ZM73.1636 147.868C73.3552 145.904 82.5168 144.864 94.1102 145.55C118.986 147.497 148.254 148.858 162.411 153.827C174.315 156.803 187.027 159.903 202.66 162.056C231.782 163.613 243.767 170.332 266.051 173.457C279.665 172.954 295.288 169.985 308.98 171.45C320.324 173.74 333.194 170.253 344.871 169.749C359.369 169.491 371.333 171.776 385.68 172.05C416.661 173.471 453.182 172.97 480.143 168.918C500.221 164.427 531.751 167.196 555.089 168.094C574.671 169.498 595.864 168.636 614.328 166.642C634.937 164.566 657.641 164.433 679.413 164.982C712.312 164.668 735.253 170.313 766.094 171.585C807.785 173.335 851.043 173.496 893.267 174.72C940.062 175.07 987.084 175.082 1033.98 174.894C1048.92 175.124 1065.32 173.831 1079.47 174.65C1090.78 176.467 1109.12 175.161 1122.84 175.472C1143.21 175.62 1163.9 174.659 1180.72 172.112C1211.08 169.04 1246.06 171.353 1276.65 168.534C1287.07 168.485 1305.66 166.963 1311.45 168.198C1315.97 167.752 1315.9 169.191 1311.38 169.842C1296.06 170.97 1278.61 171.693 1263.05 173.066C1232.91 174.343 1198.81 172.784 1172.71 177.123C1144.7 179.614 1113.26 179.213 1083.91 178.942C1073.63 178.489 1064.86 177.556 1053.82 178.208C1014.95 178.724 976.071 178.614 937.259 178.44C938.415 178.635 939.49 178.885 940.437 179.204C945.662 180.99 949.866 183.104 957.976 184.177C962.065 186.481 945.496 186.206 943.318 184.478C937.035 183.304 936.413 180.601 928.247 179.999C912.45 181.026 900.168 185.441 911.821 188.272C919.783 191.599 940.733 192.865 957.48 191.057C964.298 190.609 972.633 190.57 978.144 189.502C977.254 188.631 977.355 189.237 976.279 188.053C991.349 187.781 983.564 191.936 971.311 191.799C954.324 192.745 934.102 194.463 918.872 191.968C902.83 189.592 890.006 184.622 905.737 180.917C908.738 179.94 914.136 178.937 919.956 178.359C912.273 178.326 904.59 178.286 896.907 178.255C853.934 177.206 810.509 176.567 767.86 175.161C739.062 174.176 716.746 170.083 689.66 168.378C667.279 168.188 643.894 167.233 622.457 169.475C600.59 171.743 575.598 172.956 552.303 171.39C534.671 171.053 515.01 168.665 497.091 170.284C464.331 176.508 414.431 176.75 374.846 174.363C364.96 174.088 355.716 172.484 346.414 172.416C333.481 173.991 315.079 176.004 302.549 173.417C289.159 172.925 275.572 175.586 261.745 175.557C241.874 172.419 228.873 167.62 209.002 164.479C187.335 163.344 175.132 159.254 160.259 156.242C150.068 153.307 139.659 150.14 120.718 149.328C108.57 148.547 95.1878 146.619 82.4377 146.745C76.2983 149.339 86.1894 152.146 98.8005 152.734C134.872 157.33 159.483 164.72 195.602 169.322C204.748 171.083 213.455 173.484 224.774 174.473C223.974 176.717 209.716 174.972 205.289 173.895C187.103 169.605 161.077 167.14 142.797 162.845C124.701 158.947 104.646 155.398 81.4954 152.788C75.6726 151.633 73.1927 149.927 73.2521 148.274C73.175 148.137 73.1455 148 73.1636 147.868ZM76.8124 244.989C76.9209 244.195 78.0904 243.562 80.5769 244.865C92.5822 244.656 100.74 246.671 110.727 247.572C137.735 251.126 162.748 255.309 191.863 258.206C209.954 260.547 225.572 263.572 244.173 265.765C249.092 266.873 260.614 267.058 260.393 268.885C256.658 271.059 243.474 269.604 238.3 268.556C219.259 266.095 201.526 263.269 183.266 260.594C164.701 258.148 144.349 256.241 127.14 253.398C110.845 250.947 95.0446 248.354 77.6811 246.203C77.0495 245.997 76.741 245.462 76.8124 244.989ZM79.245 230.509C79.1214 230.305 79.7278 230.118 81.3178 229.968C99.4398 230.432 118.636 230.273 137.559 230.276C193.937 230.964 246.317 235.284 297.99 239.216C333.834 242.174 367.025 246.294 395.816 251.435C418.343 254.277 444.913 255.574 468.112 258.138C500.163 260.132 535.859 260.562 563.766 264.527C560.082 269.29 534.622 263.366 520.459 263.516C493.59 262.075 465.28 261.339 440.83 258.589C414.133 256.373 385.286 254.564 365.006 250.249C314.926 242.215 251.42 238.663 190.713 234.868C161.357 233.076 130.529 232.012 99.3752 232.395C93.6891 232.56 79.7383 231.387 79.245 230.509ZM80.2117 239.168C82.467 238.159 85.4437 239.577 88.9966 238.819C141.342 244.284 197.878 247.873 253.31 251.934C279.789 253.903 302.754 257.18 323.568 260.886C335.832 262.308 346.788 264.109 361.084 264.568C371.726 266.112 355.8 268.201 348.619 266.61C335.563 266.025 325.995 263.881 313.868 262.78C266.537 253.672 197.714 251.953 140.035 246.487C121.098 244.467 97.3829 243.329 81.6339 240.509C82.9941 239.862 80.4089 239.713 80.2117 239.168ZM85.9778 223.754C161.231 220.669 240.831 223.471 304.008 231.514C340.686 235.89 379.915 239.684 423.285 240.729C472.372 242.573 520.269 245.397 565.813 249.325C607.231 252.238 646.309 256.464 688.066 259.076C700.976 258.892 740.355 260.273 729.502 262.769C686.67 261.853 646.653 258.699 608.262 255.161C539.515 249.861 470.019 244.708 396.782 242.105C347.564 240.464 307.147 234.624 264.471 230.053C216.851 224.905 160.993 224.488 107.274 224.259C100.083 224.218 92.9903 224.023 85.9778 223.754ZM89.046 117.029C89.0314 116.953 89.0487 116.866 89.1138 116.773C88.4531 112.606 112 109.554 110.405 105.216C109.345 98.3576 86.7589 92.3737 92.4971 85.2874C96.1886 73.3775 129.652 62.0767 124.296 50.0931C117.361 43.2726 100.058 36.5425 103.798 29.3541C108.958 27.4005 122.063 26.9522 131.724 26.4328C150.992 26.6954 152.337 31.7038 154.018 34.7081C154.233 51.3083 159.509 68.0817 144.69 84.6406C133.469 91.1479 143.198 97.9426 141.627 104.573C142.872 107.981 158.291 110.567 153.309 114.236C154.153 115.981 147.278 118.869 155.242 120.122C163.55 120.786 177.797 121.349 181.248 119.041C179.74 111.445 168.018 104.199 161.267 96.8371C162.354 89.7118 188.254 83.6002 187.962 76.3806C195.048 66.5053 188.655 56.7072 180.847 47.0836C177.948 40.9721 174.463 34.8206 163.398 29.1461C159.499 26.8215 158.869 22.7536 175.701 22.4638C200.583 22.1598 219.584 26.1044 242.268 27.1706C268.743 26.5308 294.147 22.4885 321.281 24.2412C392.475 27.523 466.512 29.7523 540.517 27.2567C593.091 25.6766 645.627 23.5724 698.676 23.9641C739.226 23.661 779.522 21.525 820.134 22.3148C870.225 23.0086 920.92 22.7417 970.571 20.2964C1026.16 18.5799 1081.09 15.8713 1134.7 12.2494C1164.83 11.0717 1196.04 12.235 1225.59 10.1925C1243.05 10.1149 1258.02 12.4265 1276.03 12.0024C1288.37 12.3883 1303.87 11.2877 1313.78 12.7355C1312.99 16.1499 1288.2 14.6755 1275.64 15.1802C1258.87 15.4632 1243.92 14.0146 1228.25 13.3775C1210.87 14.2281 1192.99 14.9868 1175.01 14.816C1149.63 14.459 1125.03 15.9403 1101.44 17.8963C1037.22 21.9558 970.682 24.1095 904.625 25.9716C845.779 26.7202 786.853 24.605 728.215 27.1263C678.718 27.9047 628.911 27.3045 579.848 29.6714C511.479 32.1469 441.345 32.8687 374.227 29.864C347.42 29.4354 321.689 26.4022 294.303 27.4202C270.838 28.4768 244.039 32.3289 221.566 29.0583C207.458 27.8395 192.384 25.4712 176.633 25.6212C177.558 30.1055 191.052 33.938 191.119 38.5028C196.59 50.2201 211.431 61.788 204.135 73.7399C202.998 80.0472 193.784 86.1258 180.337 91.887C173.094 94.9509 174.15 98.2832 179.576 101.305C184.394 107.516 194.227 113.808 191.04 120.196C184.908 122.333 172.108 123.572 160.437 122.775C145.023 122.727 138.502 120.58 139.535 117.675C140.445 114.493 145.124 110.974 133.658 108.362C122.512 103.67 129.846 98.0284 126.279 92.9741C122.921 87.7167 136.451 82.7637 137.205 77.5145C143.953 63.2013 144.717 48.8278 144.829 34.5204C142.831 32.4969 144.483 28.628 131.584 28.1443C125.369 28.6103 115.279 29.1588 112.484 30.1405C111.673 35.9464 126.317 41.2626 132.003 46.8113C146.493 56.5789 121.54 66.8484 110.759 76.4404C100.816 83.3657 96.928 90.8942 111.535 97.4735C120.362 102.169 122.996 107.985 105.271 112.269C100.694 113.511 96.437 115.54 94.6395 116.709C100.082 117.842 89.4709 118.202 89.046 117.029ZM90.0155 133.122C90.3417 132.601 96.1062 132.5 100.659 132.69C141.509 132.56 178.734 136.524 212.658 140.427C250.273 145.79 277.358 154.251 324.003 156.91C360.112 159.216 398.399 161.413 436.308 161.502C447.532 158.636 463.096 156.377 481.636 156.528C510.993 156.347 541.426 156.318 568.449 153.321C602.37 149.747 643.209 149.329 676.331 152.753C703.271 155.633 735.7 157.835 766.635 155.359C798.108 152.978 831.508 150.22 864.93 151.874C896.991 152.333 928.628 155.293 961.306 153.993C988.926 152.285 1016.54 149.2 1045.89 150.407C1072.74 151.533 1097.94 147.898 1124.32 147.914C1136.34 148.805 1149.13 148.848 1161.13 147.587C1199.48 144.885 1241.03 146.451 1279.49 143.632C1286.37 143.41 1299.21 142.584 1303.47 142.54C1305.66 142.397 1317.59 142.01 1313.64 143.947C1305.81 146.594 1286.66 146.126 1274.13 147.301C1234.64 149.846 1192.18 148.32 1153.69 151.743C1137.49 153.262 1121.88 150.236 1105.85 152.06C1081.02 154.045 1054.68 154.505 1028.92 153.767C996.011 153.878 966.426 159.188 932.889 157.756C896.132 157.184 859.909 154.047 822.437 155.335C780.321 158.084 733.509 162.565 691.404 158.05C662.385 155.095 628.094 152.288 594.647 154.966C565.793 157.367 536.424 160.198 504.855 159.77C486.389 159.961 462.761 159.312 451.218 163.2C439.32 166.516 418.718 164.384 403.035 164.236C344.344 162.333 283.701 158.48 243.99 149.316C213.749 141.646 168.295 137.072 121.423 134.683C112.591 134.058 99.5121 134.841 93.017 134.015C91.0696 133.695 90.1849 133.437 90.0296 133.23C89.9985 133.192 89.9991 133.157 90.0155 133.122ZM90.6374 167.18C90.667 166.362 94.1844 165.822 98.9776 166.847C111.774 169.659 129.346 171.669 135.711 175.533C145.425 178.469 151.061 183.248 170.189 184.266C180.836 183.659 191.016 182.508 202.51 182.502C220.133 181.451 236.394 179.279 255.257 179.101C303.24 177.683 349.674 180.615 395.975 182.018C419.428 181.748 439.78 177.922 463.911 178.861C495.506 178.682 525.81 180.703 556.662 181.281C593.015 178.586 627.194 183.325 661.368 184.659C683.765 184.832 706.406 184.671 727.733 186.212C777.896 188.318 826.838 191.288 873.138 195.542C931.454 199.98 997.511 197.185 1057.31 200.386C1082.21 202.454 1111.24 200.815 1137.6 201.404C1165.9 200.993 1192.64 204.353 1220.88 202.977C1225.95 200.723 1240.9 201.66 1248.05 200.234C1252.3 197.038 1268.85 196.603 1280.84 195.323C1290.3 194.099 1302.5 192.695 1313.36 193.026C1319.24 196.14 1291.92 196.033 1283.17 198.134C1273.37 198.849 1263.42 199.585 1260.62 201.846C1255.62 204.127 1241.06 203.433 1233.33 204.657C1218.96 207.685 1195.55 206.072 1178.11 205.702C1139.56 203.227 1097.13 205.607 1058.08 203.849C1016.83 200.887 970.674 202.357 927.626 201.041C869.511 200.747 822.135 193.379 766.16 191.383C732.371 189.848 698.979 187.391 663.441 187.922C632.24 187.286 604.369 183.113 572.243 183.748C545.457 185.854 519.254 182.566 492.602 182.446C470.272 182.039 446.124 181.154 425.206 183.696C398.535 186.569 369.757 184.378 343.343 183.266C300.223 181.547 252.38 180.221 210.603 184.6C197.896 184.969 185.036 185.028 172.876 185.964C149.697 185.999 140.485 180.584 130.585 177.314C124.107 173.559 109.384 171.105 94.8989 168.671C91.8894 168.26 90.6293 167.67 90.6374 167.18ZM93.9835 138.879C93.9849 138.796 94.0971 138.731 94.414 138.77C107.539 138.993 126.718 139.867 141.476 140.259C190.989 143.202 232.812 150.408 254.754 159.763C259.328 161.536 275.644 162.746 272.625 164.798C261.61 164.676 254.511 161.968 247.187 160.416C227.5 151.944 190.73 145.4 147.191 142.147C130.945 140.565 108.74 141.218 94.1385 139.102C94.0597 139.067 93.9662 138.962 93.9835 138.879ZM94.2707 218.645L95.5562 218.673C122.823 220.034 146.021 216.032 171.809 214.644C195.504 213.186 220.602 211.332 245.09 211.834C275.706 213.201 299.025 224.719 330.888 217.101C356.64 213.162 384.022 218.1 408.188 219.78C459.963 225.131 521.52 223.744 577.147 226.618C629.297 228.523 670.041 236.604 724.696 236.867C755.919 237.107 774.058 242.267 795.541 245.862C827.413 251.866 873.19 251.406 911.877 254.356C933.08 254.734 974.975 255.658 937.821 257.909C897.397 257.265 857.049 254.929 818.113 252.635C788.658 250.201 768.645 245.098 743.766 241.377C709.034 239.315 670.504 239.305 639.855 235.116C601.347 230.968 558.459 228.675 514.286 228.144C464.723 227.225 414.761 225.415 372.094 220.306C339.989 215.861 303.205 228.25 276.286 219.382C255.186 213.76 220.429 213.131 188.239 215.693C157.342 215.877 119.621 223.57 94.2707 218.645ZM115.84 208.527C159.096 203.046 211.127 202.611 259.56 200.921C355.37 197.961 441.096 207.535 527.361 213.354C581.878 217.081 639.659 218.371 697.222 219.404C773.363 221.147 822.318 235.638 899.193 237.189C956.343 238.222 999.723 246.259 1045.78 252.034C1061.99 254.63 1075.19 258.055 1094.27 259.873C1058.93 261.205 1043.29 252.499 1013.56 250.303C973.095 244.659 928.907 239.384 877.719 238.757C805.013 235.702 756.521 221.037 678.409 221.344C584.29 219.974 494.789 214.002 409.421 206.752C347.487 202.251 278.768 200.976 213.053 204.204C182.158 203.37 132.863 209.198 115.84 208.527ZM160.636 240.125C160.816 239.807 163.991 239.806 166.281 239.599C195.138 241.741 226.836 242.069 255.612 244.342C298.038 246.757 339.964 249.704 377.081 254.429C381.882 254.972 392.557 255.531 385.574 256.339C396.812 256.462 380.297 257.641 378.095 256.451C351.204 253.459 324.602 250.318 294.626 248.575C255.159 245.788 214.538 243.636 173.545 241.881C170.426 241.394 161.041 241.547 161.629 240.564C160.87 240.369 160.587 240.227 160.636 240.125ZM214.875 94.1775C214.695 93.5747 216.338 93.0723 221.137 92.8224C228.003 92.3543 236.48 92.3624 241.707 91.1915C240.806 89.0184 237.063 86.926 235.194 84.7896C233.668 82.9892 237.734 80.0278 249.287 80.2731C259.554 81.5038 272.096 81.447 283.935 81.7091C294.789 81.9792 311.956 82.5754 314.268 84.8425C307.655 87.249 313.721 90.0132 326.124 90.7439C337.464 92.3208 342.683 89.7401 345.919 87.9588C351.603 86.0297 365.518 84.5646 374.827 86.1516C389.554 89.3251 392.722 94.5137 383.525 98.5909C376.823 100.656 363.948 99.6799 354.988 99.1003C342.468 97.8462 338.162 101.89 326.41 102.123C312.851 102.201 299.361 103.851 286.269 103.519C269.71 102.675 251.212 101.866 234.376 103.304C223.138 104.178 222.078 106.798 234.181 107.368C251.49 109.015 271.477 109.004 289.731 110.106C311.385 111.062 335.635 110.597 354.935 107.979C370.168 106.557 392.186 106.638 401.263 109.71C405.604 112.137 404.303 114.903 409.391 117.33C413.046 119.938 416.735 123.412 405.109 125.574C388.406 128.587 364.857 127.969 344.777 127.818C317.087 127.055 289.497 126.048 261.418 125.757C249.284 125.111 233.763 124.815 227.518 122.33C221.337 120.762 238.309 119.704 233.612 121.494C245.322 123.781 263.097 124.12 278.985 124.311C296.113 124.399 313.418 124.323 330.285 124.844C351.972 124.806 375.92 126.207 395.825 123.54C403.92 120.753 392.585 117.92 391.425 115.135C392.468 112.55 387.618 109.223 371.236 110.113C350.653 110.597 332.162 114.199 310.892 113.016C280.591 111.804 248.005 111.416 221.677 107.994C209.691 106.077 220.563 102.444 232.629 101.492C252.091 99.6401 272.667 101.465 292.543 101.445C306.204 99.9848 325.211 100.736 335.18 97.8989C343.024 94.9357 360.551 96.8557 372.229 97.2374C376.774 95.049 374.807 92.0598 371.194 89.7712C366.247 86.5824 352.978 89.2347 349.801 91.2778C343.721 94.1308 326.24 93.3102 317.295 91.8161C306.922 90.3081 300.462 87.3745 306.347 84.8108C288.417 82.3313 264.148 83.9507 245.162 82.0201C238.087 85.5078 255.813 88.7562 247.944 92.2215C242.657 94.1858 223.51 93.2891 221.66 94.7555C226.532 96.7685 238.324 98.8917 250.299 97.6277C263.765 96.4252 269.613 93.2352 283.427 92.1769C290.355 91.7883 302.438 93.5798 297.808 94.164C311.474 93.4074 296.22 97.0797 291.7 94.888C281.994 92.4123 274.59 96.5932 265.369 97.3809C255.322 99.1119 238.89 100.172 228.811 98.1215C224.57 97.3439 215.281 95.5106 214.875 94.1775ZM225.136 113.82C227.861 112.254 231.315 113.6 232.39 113.876C231.089 113.858 245.962 113.993 252.284 113.76C284.409 115.114 316.864 116.692 349.986 117.249C362.218 118.703 344.866 119.659 338.129 119.042C308.739 118.382 279.853 116.982 251.395 115.663C242.98 115.721 224.599 116.51 225.136 113.82ZM241.701 69.663C241.663 69.0783 242.325 68.424 243.893 67.6983C254.013 64.4066 248.859 60.2762 246.711 56.729C244.892 54.4483 242.835 52.16 242.794 49.8265C244.541 46.9415 250.944 44.738 243.974 41.9172C242.688 36.2018 275.146 38.5571 289.585 39.9906C307.122 42.1983 282.591 47.151 285.706 50.7799C283.268 55.0868 284.799 59.4415 290.032 63.5775C279.665 67.4308 314.293 71.9392 314.467 66.2984C319.005 58.7838 304.55 50.7806 324.75 43.6923C337.489 40.472 359.434 43.0052 364.812 46.0595C374.166 49.6666 359.054 53.4017 360.816 57.179C360.78 61.2427 364.238 65.246 365.901 69.2639C367.816 71.5439 381.265 74.1938 381.778 70.1455C387.632 64.6504 375.78 59.4842 372.487 54.2039C373.649 49.236 388.263 43.0209 415.943 42.4673C433.183 42.5066 454.04 45.541 451.74 49.2457C442.994 52.0309 438.42 54.9804 437.906 58.2071C433.196 63.597 430.897 69.1368 434.57 74.4812C446.302 76.365 464.408 77.8296 465.042 81.6832C469.115 85.9214 464.602 90.9292 481.725 94.1313C496.127 97.7742 506.882 102.07 511.504 106.719C514.622 110.125 523.206 113.265 516.544 116.701C526.296 118.342 556.668 121.056 546.212 115.946C536.84 111.556 537.811 106.644 528.946 102.246C518.182 96.5629 501.191 91.1219 501.536 84.7571C515.07 80.4625 502.394 76.1502 496.192 72.0316C488.706 67.7796 485.721 63.0658 492.622 58.5821C491.686 54.7405 503.043 50.5595 505.096 47.4066C486.063 44.4854 463.431 42.204 441.649 40.3408C415.839 40.1663 393.155 38.1059 369.705 36.3585C341.702 34.4083 312.551 32.7008 282.227 32.8187C267.213 28.7939 305.777 29.5555 317.053 30.2506C351.882 31.3015 385.614 33.3651 417.748 36.0843C444.084 36.1969 467.994 37.9853 488.295 41.0561C514.896 42.3815 537.632 47.955 514.273 53.0805C512.091 58.2389 501.46 63.6384 509.583 68.6942C516.135 73.7019 533.938 78.9957 520.815 84.3451C515.406 88.8199 530.816 92.9247 537.544 96.9687C548.928 101.64 554.445 106.819 558.55 111.959C566.433 115.277 573.685 122.066 546.291 122.63C526.977 122.24 491.163 120.264 498.361 115.132C502.141 110.302 491.332 104.485 479.689 100.075C468.014 95.7578 446.959 92.1976 449.607 86.6933C452.341 82.6397 443.479 79.1022 424.496 77.8557C408.911 74.7435 418.191 69.4732 415.369 65.4295C418.977 60.4449 420.269 55.2873 428.462 50.4606C445.771 46.3944 403.325 44.1776 396.945 48.8266C381.352 52.8597 391.18 57.5339 395.158 61.7633C398.169 65.879 399.092 70.5103 386.805 74.2321C367.293 77.1748 351.228 71.4098 351.031 68.0098C349.346 63.3526 344.679 58.6269 348.059 53.9383C354.478 50.7661 359.69 44.7423 335.797 44.7888C317.658 51.0357 329.334 58.227 326.523 64.9091C329.117 69.2839 307.186 73.557 288.608 69.9543C271.337 67.9491 281.628 63.0127 274.346 59.8331C271.304 53.7675 272.572 47.2418 288.017 41.6658C280.214 40.2648 245.717 37.3474 251.422 41.8057C261.732 45.1813 246.105 48.3642 249.729 51.9059C251.373 57.0845 262.206 62.3996 251.69 67.5712C237.148 71.3912 263.06 73.0897 278.127 72.0213C310.508 73.3063 339.138 76.6836 370.028 78.8055C386.971 77.61 409.937 76.9954 415.946 81.2691C429.76 83.9577 421.509 87.5604 421.349 90.4837C433.44 92.7227 445.989 98.9479 422.549 99.4192C436.411 103.035 448.626 107.405 443.052 112.258C442.647 115.609 431.961 122.374 459.17 121.482C460.989 123.76 427.737 122.431 435.015 119.149C432.896 113.875 445.7 107.713 427.041 103.273C421.955 101.732 402.018 96.8138 417.485 96.5701C437.087 99.6402 423.247 92.7798 414.662 91.6057C404.681 88.5024 424.635 84.7984 406.789 82.0146C396.33 77.1121 363.979 82.6397 347.04 78.8127C325.457 76.4844 302.182 74.6781 278.15 73.5333C262.933 74.0243 241.918 72.8359 241.701 69.663ZM276.252 140.609C276.045 139.67 288.778 140.552 292.993 141.052C334.067 145.521 375.417 150.614 412.874 155.905C421.706 152.745 421.265 148.73 421.894 145.279C429.934 142.001 452.796 141.95 468.11 141.311C485.924 141.195 505.607 139.476 522.751 140.523C529.765 141.642 530.942 144.325 538.218 145.014C554.069 144.527 554.532 140.575 567.162 139.095C589.686 136.432 616.866 138.248 640.417 138.757C670.043 139.572 698.072 141.858 727.218 142.888C780.442 141.337 829.196 135.584 882.578 134.1C905.907 131.746 932.223 132.083 956.982 132.496C991.429 132.604 1027.13 134.782 1061.53 132.816C1115.33 128.335 1160.42 119.197 1219.96 118.008C1239.43 117.604 1257.84 116.144 1276.01 114.779C1281.83 114.975 1297.51 113.62 1291.34 114.876C1289.7 115.439 1302.45 112.41 1302.37 115.167C1297.34 118.113 1276.23 116.977 1265.73 118.868C1229.82 121.736 1189.39 121.533 1156.07 125.969C1120.32 129.644 1087.82 135.783 1047.22 136.902C998.471 137.748 950.266 134.424 901.689 136.211C876.105 138.644 846.946 138.388 821.265 140.898C787.546 142.808 753.7 146.583 718.32 146.195C673.446 143.956 628.529 140.49 581.183 140.816C563.474 141.315 562.37 146.544 543.839 146.842C540.455 147.908 528.194 147.317 524.804 145.912C518.617 144.674 515.608 142.317 504.479 143.296C481.905 144.23 456.022 143.647 435.502 146.051C431.976 149.948 432.55 154.582 418.765 157.76C405.195 159.455 396.087 155.357 385.177 154.653C351.633 149.838 312.915 144.947 277.843 141.331C276.785 141.017 276.297 140.781 276.252 140.609ZM289.658 207.694C291.225 206.073 298.162 207.047 301.983 207.345C323.287 207.39 348.163 204.57 366.284 207.933C380.621 209.758 392.793 213.805 412.878 212.693C447.048 214.238 484.114 214.43 514.1 218.359C529.153 220.092 547.028 221.114 563.673 221.602C563.57 222.047 565.28 221.362 566.268 222.106C554.178 223.604 537.835 222.083 525.721 221.242C500.775 218.723 475.881 215.952 446.994 215.55C430.727 215.231 415.543 213.771 398.85 214.29C375.199 213.094 362.067 206.634 334.39 207.974C320.591 208.169 300.419 210.698 289.826 208.035C289.654 207.928 289.64 207.809 289.658 207.694ZM338.963 229.757C339.08 229.436 340.928 229.028 340.594 229.066C354.361 226.058 377.899 226.356 396.021 226.791C429.78 229.161 465.433 231.248 497.837 233.984C512.378 235.925 527.903 238.871 546.944 238.455C565.124 237.345 576.564 232.991 596.786 233.188C600.912 233.267 595.994 234.982 599.494 234.551C600.094 232.823 604.096 234.644 599.848 235.219C594.263 235.936 584.189 235.551 578.674 236.89C564.436 239.592 543.329 242.014 524.885 239.903C512.743 238.825 494.22 236.66 488.958 235.194C459.187 232.631 423.965 230.439 391.693 228.322C374.683 227.875 356.782 228.391 341.465 230.123C339.449 230.107 338.897 229.949 338.963 229.757ZM385.785 20.2945C385.414 19.6869 393.586 19.9435 391.889 19.8294C391.889 19.8294 391.842 19.8106 391.778 19.7983C394.156 20.0444 409.044 20.2179 415.238 20.0718C451.916 19.7074 488.589 18.694 525.125 19.2484C545.347 18.4707 563.62 15.6307 584.966 16.0332C611.441 16.2854 637.609 14.1104 663.958 15.2875C695.091 16.1637 727.103 16.6716 758.754 16.0027C771.089 15.0395 788.967 13.0436 798.238 15.9033C796.56 16.5307 785.014 15.8826 779.948 16.9211C755.315 20.42 725.164 18.7206 697.903 18.8904C668.181 18.1434 637.911 16.9308 607.801 18.4696C585.496 18.481 562.493 18.4788 542.069 20.8342C516.555 22.8824 489.574 20.5371 463.331 21.5427C438.538 21.3088 411.163 22.6112 387.617 20.8647C386.399 20.6188 385.862 20.4313 385.785 20.2945ZM423.799 247.97C424.92 246.423 436.314 246.676 437.577 248.069C441.195 249.091 437.178 250.102 434.433 250.956C433.968 252.174 440.581 252.584 445.197 252.838C459.437 253.781 474.871 253.585 489.693 253.922C501.331 253.85 512.771 254.218 523.891 254.78C533.678 255.219 543.705 255.633 553.916 255.419C555.068 256.778 546.407 257.347 541.14 257.105C527.507 256.896 514.585 255.904 500.789 255.904C477.632 255.612 453.116 255.833 432.133 253.705C427.981 253.255 424.042 252.44 424.519 251.397C427.539 250.276 428.403 248.875 423.799 247.97ZM529.562 62.5155C529.346 61.1937 537.534 59.4969 545.395 60.3028C551.585 60.3613 558.327 60.7159 564.2 60.713C572.079 60.4446 580.819 58.9991 588.254 58.6479C595.063 59.7404 586.077 62.6202 598.404 63.0734C607.486 63.9844 613.784 66.1617 623.091 66.8376C638.575 65.5771 651.12 67.2562 661.199 69.2781C670.47 69.3021 689.931 68.489 691.312 71.3423C702.087 69.6917 717.264 66.864 731.661 68.8669C742.203 69.7694 754.472 71.8023 766.203 69.9937C776.281 69.2215 785.36 71.1844 791.111 71.9242C806.529 68.8836 829.114 73.0325 848.193 71.3433C869.627 70.2233 870.53 76.0313 883.732 77.3917C899.253 73.9155 922.317 75.9537 941.768 74.7698C961.607 73.1992 983.459 74.6558 1001.98 74.7838C1010.97 72.0383 1030.85 73.6739 1043.79 73.1821C1097.1 74.6204 1144.63 67.7613 1194.12 64.7323C1223.59 63.3234 1254.09 67.1396 1282.41 64.3141C1301.86 61.9409 1294.89 56.6521 1290.8 53.2069C1281.94 49.1961 1285.73 44.8239 1288.23 40.5741C1286.02 33.5555 1283.96 26.1967 1269.62 19.8006C1265.59 18.238 1260.38 20.9881 1255.64 21.4677C1242.63 22.2541 1248.32 25.2323 1249.71 27.0402C1255.18 30.3271 1261.6 33.5839 1260.63 37.2107C1260.94 42.5472 1279.37 48.2579 1263.55 53.4117C1254.34 55.8298 1239.72 57.5564 1225.77 58.3792C1211.45 57.3219 1204.68 53.8249 1202.01 50.9788C1209.31 43.9343 1202.06 36.5856 1189.58 30.1106C1185.73 28.0829 1174.47 25.2681 1162.5 27.0851C1155.59 30.5044 1166.62 34.1138 1169.86 37.3869C1176.36 43.6259 1187.15 50.2009 1179.77 56.7026C1173.43 58.9471 1169.06 61.2972 1165.65 63.7545C1157.2 67.2694 1133.8 65.9308 1125.1 63.4246C1107.27 60.2762 1109.2 55.2669 1111.7 50.8731C1104.83 44.9952 1087.69 39.8015 1077.51 34.1518C1074.46 32.6996 1072.29 30.4313 1061.94 31.2761C1050.74 31.0759 1043.64 32.9973 1043.32 35.0683C1043.82 38.1909 1032.86 40.6231 1028.69 43.4607C1030.68 46.843 1051.88 47.9627 1055.64 51.2891C1060.07 53.8747 1060.83 57.0975 1073.96 58.5544C1081.04 60.7637 1079.87 64.5009 1069.75 66.4339C1065.23 67.2602 1048.17 66.6408 1049.46 66.528C1039.19 67.7462 1025.01 68.4046 1017.22 66.2426C1009.82 64.8352 1007.77 63.1894 996.6 63.5069C981.868 63.4632 961.752 63.5687 956.666 60.122C939.848 57.6112 955 54.365 960.296 54.76C961.692 53.8344 955.505 51.7106 951.711 50.7503C940.727 47.7478 950.669 43.7477 961.267 41.312C955.593 39.7851 949.773 36.5298 963.423 35.767C970.561 35.1752 981.915 35.9496 986.861 35.4172C982.479 33.5569 973.74 31.1501 962.078 32.6193C951.165 34.0025 937.052 33.0075 927.51 34.9839C911.44 38.0745 917.743 43.7844 896.716 46.1159C889.091 49.25 898.095 52.8887 903.699 55.7494C910.44 59.01 926.518 61.0952 928.44 64.8489C933.397 66.5511 930.403 68.9635 916.954 68.2093C883.054 69.4815 870.98 61.491 856.86 57.12C845.641 52.099 848.2 46.183 836.599 41.1938C833.619 38.9961 845.499 36.7898 841.533 34.7407C829.029 32.4827 812.224 35.8926 797.699 34.8658C789.442 34.9422 777.418 33.4508 776.362 35.8283C772.83 40.0802 787.871 43.459 790.948 47.4494C798.97 49.9932 810.715 52.0847 816.191 55.0199C824.249 58.2763 834.563 62.3456 827.895 66.1433C817.513 69.0024 799.437 66.7192 792.297 64.5743C781.362 62.489 773.796 59.251 762.554 57.4815C747.098 57.0729 728.733 56.9244 714.485 57.3979C718.637 59.7428 712.813 62.4339 699.976 63.0431C686.892 64.1402 671.073 64.5753 661.349 62.218C652.779 60.155 647.42 56.8768 631.307 56.8252C617.841 56.1159 601.693 57.2186 589.739 56.2477C588.702 53.6953 607.891 54.9529 616.691 54.6098C637.749 54.1834 658.276 56.1143 666.035 60.1212C674.468 62.7734 692.994 61.8816 704.387 60.2867C709.675 59.2783 696.734 55.6364 710.92 55.0898C730.774 54.5037 751.924 54.2524 771.198 55.1128C789.412 57.6539 794.218 63.6444 815.864 65.0835C822.563 63.1973 808.514 57.4415 801.883 55.2318C794.75 51.7377 776.561 49.6057 775.422 45.5324C769.038 41.8468 758.36 37.707 767.603 33.6934C778.918 30.1585 800.566 33.3655 816.198 31.7458C832.184 29.8739 858.669 31.472 856.774 35.6402C855.196 37.9548 845.058 40.3868 853.865 42.5309C862.948 48.0872 859.967 54.5693 878.97 59.3162C886.485 61.7554 893.427 66.2548 912.237 65.4598C915.057 64.8295 910.537 62.6762 905.694 61.8043C889.083 57.3736 874.292 51.3873 882.628 45.5523C886.918 43.4331 901.66 42.8757 900.784 40.1813C905.245 35.4648 922.273 30.1221 948.985 30.5227C961.929 29.2349 981.984 27.9982 989.709 31.2604C998.191 32.8669 1008.05 36.78 992.339 38.1829C985.029 38.6354 974.452 37.9347 969.046 38.4229C976.397 40.2751 976.528 42.9083 965.613 44.3811C952.742 46.9599 962.61 50.2527 969.602 52.6449C973.672 54.2104 970.948 56.6686 961.226 57.0735C965.369 59.0029 969.906 61.0889 981.487 60.605C997.351 60.3518 1016.29 60.4988 1024.06 63.7287C1027.58 64.9374 1034.37 65.4707 1039.8 64.2278C1045.38 62.843 1056.39 64.0453 1061.14 63.3963C1062.63 62.0094 1063.22 60.3423 1055 59.8654C1039.18 56.835 1044.86 51.2006 1024.09 48.8561C1010.22 46.6667 1007.35 42.4444 1019.4 39.5429C1031.92 36.3468 1024.18 30.8468 1045.69 28.9429C1060 27.7847 1082.77 27.1973 1087.98 30.902C1102.44 37.2108 1119.27 43.5579 1125.73 50.4813C1126.02 53.8806 1118.04 58.0309 1133.37 60.5155C1137.36 61.2056 1144.54 62.9761 1150.47 62.2727C1152.43 59.6672 1160.26 57.4745 1164.5 55.0329C1167.84 46.9367 1152.85 39.3246 1144.71 31.6347C1140.47 28.1301 1149.46 23.5973 1169.79 23.2728C1195.95 22.6644 1207.67 28.5796 1212.57 32.7184C1219.92 38.6596 1219.81 45.1376 1215.55 51.1632C1218.08 52.6517 1221.99 54.6949 1228.33 55.3661C1243.4 53.8468 1259.36 50.821 1252.8 47.1816C1245.11 42.0169 1244.48 36.5679 1240.16 31.2736C1234.94 28.071 1227.39 24.1615 1236.3 20.8731C1242.31 19.2419 1253.7 18.8299 1256.47 16.787C1266.83 14.0143 1284.13 16.3486 1287.58 18.8878C1300.97 26.1643 1305.82 34.175 1305.45 42.0202C1300.53 45.8997 1302.75 49.7596 1309.34 53.3955C1328.27 61.4967 1291.67 71.3267 1246.91 68.7866C1222.8 68.0485 1196.62 67.1545 1173.76 69.9197C1130.62 73.7796 1084.96 78.0404 1037.4 76.725C1029.19 76.9674 1017.81 75.9343 1015.01 78.0094C1001.63 79.7419 985.348 77.5401 970.867 77.6702C950.332 77.226 930.245 79.4253 909.457 78.8553C896.985 78.5407 883.95 83.3331 872.154 80.5195C863.496 78.9592 857.776 76.4352 851.071 74.8431C838.357 75.659 823.207 74.9922 812.684 74.892C812.619 77.821 794.97 77.5356 787.47 76.0746C780.46 75.6327 776.716 73.5978 769.558 73.448C751.865 75.8261 734.71 72.5891 718.836 71.5732C708.321 72.8637 697.76 74.9602 684.598 74.111C678.154 74.0289 677.134 72.3939 675.27 71.824C661.015 72.6908 648.706 71.1537 640.406 69.0566C630.253 68.6082 616.62 70.2756 609.307 68.0426C598.717 66.2422 582.699 64.326 579.47 61.8169C571.412 63.3081 551.866 62.549 550.058 62.4773C562.906 64.0996 558.205 68.022 558.669 70.6493C556.841 71.7447 553.52 74.7672 546.265 73.8062C547.22 71.746 552.552 69.9828 549.108 67.9934C549.872 66.0051 548.851 63.4206 535.922 63.8131C531.512 63.6379 529.663 63.1157 529.562 62.5155ZM546.695 35.7075C554.343 33.0751 573.708 34.2353 585.55 34.2608C599.443 34.1738 613.013 34.3868 626.53 34.9006C652.542 35.3644 674.517 30.394 700.174 31.2315C710.113 32.1164 721.61 30.9651 731.603 30.5132C735.675 30.0103 748.281 32.8078 734.13 33.1942C720.643 33.7319 706.243 34.7342 693.245 33.5607C671.102 34.2964 650.653 37.2211 627.514 36.8012C613.82 36.4199 600.56 35.6961 586.428 35.8682C576.54 35.7469 562.442 34.8477 553.93 35.9365C560.112 38.4185 571.371 40.1175 585.69 40.123C624.08 40.9084 663.701 41.1148 702.183 40.2179C720.405 39.4372 742.887 39.2646 757.34 41.753C766.409 44.3586 748.035 46.6239 738.93 48.0692C715.039 51.8019 683.17 51.2769 658.397 48.8657C642.207 48.6676 625.938 48.4894 609.827 48.3034C591.386 48.9133 569.957 50.6055 552.901 49.0845C550.947 48.1796 556.005 48.5798 555.073 48.3156C567.244 47.6543 583.126 48.2513 596.148 47.0172C615.73 45.6437 635.661 47.0806 655.576 46.6475C674.094 47.188 691.803 49.5445 711.511 48.1955C725.288 47.4125 740.132 45.4859 747.536 43.2136C732.563 41.4903 713.666 41.8033 697.081 42.4716C653.349 42.193 605.011 43.8891 563.955 40.2639C556.64 39.1052 549.762 37.409 546.695 35.7075ZM568.881 71.3371C568.977 70.3292 572.386 69.6238 581.586 70.1311C600.161 70.0637 607.975 73.6322 614.358 76.4769C626.303 78.8705 625.483 82.3459 627.542 85.4878C630.635 86.6297 635.578 86.3051 639.75 85.5392C646.16 84.7743 655.948 87.0991 660.499 85.5596C662.06 83.3091 659.502 79.6213 676.077 79.5733C685.403 79.1557 697.418 80.27 704.441 79.9125C709.545 77.499 726.972 78.7421 735.196 79.6409C744.169 80.3802 756.258 82.7887 744.528 84.5558C742.34 85.3408 754.052 84.632 756.807 84.095C773.987 81.0657 799.304 80.4002 817.581 82.9919C835.575 84.4413 828.545 89.022 836.564 91.796C844.523 94.2954 855.475 96.3423 856.182 99.6102C862.894 102.689 863.317 106.826 875.914 109.22C883.74 110.151 891.6 112.006 900.156 110.114C916.104 107.699 933.855 105.621 954.031 105.752C982.81 104.962 1013.17 106.33 1041.16 104.364C1094.46 98.5808 1155.16 97.7435 1213.38 96.9329C1233.8 96.4029 1254.98 95.3361 1271.55 92.7082C1279.38 92.3698 1287.29 93.1017 1293.84 91.7507C1300.08 90.9105 1315.74 90.3168 1312.88 92.4628C1305.49 93.4689 1296.51 94.3633 1289.05 95.3957C1281.71 95.6662 1274.27 95.1798 1268.93 96.5882C1220.02 101.997 1163.04 99.4412 1111.32 102.45C1085.49 103.404 1061.81 105.869 1037.71 107.858C1003.27 109.256 967.268 107.831 933.27 109.27C917.836 110.447 904.126 113.864 886.759 113.822C872.864 112.17 856.984 110.521 853.71 106.939C844.398 102.72 843.975 97.6471 827.696 94.24C816.51 92.0032 821.49 88.491 814.674 85.9311C801.884 83.7329 781.968 83.2613 768.005 85.6667C756.849 87.2916 734.429 88.474 727.811 85.5033C726.187 83.8988 743.159 82.8437 731.362 81.993C726.053 81.4382 714.506 79.9045 714.358 82.0956C705.027 83.7665 692.158 81.4955 680.945 81.8421C674.473 81.5365 671.156 82.3914 673.071 83.6898C674.983 86.1424 664.851 89.2169 651.343 88.1626C645.016 87.68 642.105 87.0962 636.324 88.1853C617.69 88.8925 614.53 84.2186 615.719 81.4851C613.146 78.6958 601.589 76.7594 597.713 74.0542C594.986 72.8966 584.117 71.6164 580.455 72.2535C591.619 75.8427 584.578 80.1102 583.004 84.0521C582.619 85.2765 586.985 87.1145 583.002 87.978C564.952 84.1824 585.705 78.1957 573.507 73.8188C570.725 73.0932 568.804 72.1209 568.881 71.3371ZM577.498 97.1947C577.59 95.4804 580.633 93.886 588.935 92.9716C607.1 91.8493 622.189 95.1925 638.613 95.5901C647.377 94.6239 657.994 96.7342 662.788 93.8916C673.266 91.0189 693.584 90.2404 705.909 92.7813C714.229 94.5969 727.021 94.8033 738.027 93.608C753.942 92.181 779.829 91.5812 787.736 95.2991C782.599 100.597 811.954 103.393 813.362 108.41C816.433 111.825 813.571 115.841 819.525 117.718C823.37 120.366 801.881 120.038 803.175 117.62C797.85 112.356 803.127 106.217 782.176 102.16C776.365 100.302 773.277 97.9579 773.836 95.8626C753.067 93.2015 728.123 99.1806 707.217 96.2074C698.469 95.2617 687.548 92.3642 676.843 94.5354C667.85 95.9478 659.098 99.0814 646.298 97.4716C641.876 97.0183 635.808 98.1672 629.616 97.2679C617.737 96.5713 602.685 93.8608 590.158 94.8798C580.846 97.2763 587.048 104.272 603.57 102.629C615.357 101.265 629.174 99.9793 641.417 101.686C649.728 102.147 660.367 103.889 665.719 103.756C680.616 102.494 691.485 98.9884 709.568 99.8937C738.7 98.8967 762.592 102.747 764.749 108.551C769.066 111.464 753.962 114.707 739.3 113.393C724.165 112.752 710.599 109.479 694.07 110.595C681.819 112.174 678.997 115.771 663.789 116.691C641.005 118.752 624.684 113.12 615.056 110.689C608.741 110.5 595.991 111.591 594.29 112.663C601.528 112.758 609.476 113.988 598.564 114.342C588.092 114.99 579.706 112.353 589.714 110.974C599.779 109.089 619.984 107.48 627.345 110.634C634.456 112.606 647.571 116.25 661.926 114.158C673.594 112.302 675.816 108.534 692.007 107.674C713.114 106.224 729.302 110.325 748.729 110.552C753.254 108.648 745.067 106.451 741.316 104.8C737.158 102.854 725.845 103.438 716.186 102.845C706.552 102.757 696.642 102.022 690.044 103.565C679.327 105.516 662.449 107.529 650.122 105.149C641.388 104.394 631.089 102.186 622.986 102.606C611.615 103.84 591.971 106.087 585.09 102.683C581.05 101.236 577.386 99.1362 577.498 97.1947ZM581.555 208.874C581.206 207.873 596.365 207.984 602.015 208.12C631.797 208.128 659.141 210.582 688.037 211.352C720.796 210.866 751.715 213.186 782.662 214.696C814.197 217.152 832.749 223.284 861.875 226.408C885.956 228.469 912.016 229.838 938.007 230.637C941.907 230.957 956.601 230.397 947.422 229.605C926.034 227.966 897.333 229.73 881.127 225.75C867.23 223.257 860.742 218.245 839.843 217.705C830.261 218.272 814.338 217.291 814.882 215.135C822.838 215.921 831.445 215.768 840.182 215.448C874.992 215.716 877.282 225.963 911.948 226.315C928.975 226.778 954.644 225.889 963.345 229.613C963.739 232.651 944.879 233.593 933.156 233.042C895.037 231.267 851.528 230.005 825.6 223.584C805.505 219.572 782.312 215.7 752.523 215.142C729.846 213.692 706.491 212.836 682.357 213.067C650.329 211.581 618.425 209.355 584.604 209.754C582.562 209.393 581.646 209.103 581.555 208.874ZM590.196 120.142C590.249 119.841 591.08 119.534 592.974 119.244C601.679 118.873 592.54 120.491 595.947 119.907C595.963 119.878 595.995 119.903 596.043 119.858C597.476 119.616 614.053 121.311 621.75 121.459C641.655 122.574 665.157 124.09 683.815 121.014C705.017 117.655 733.942 114.773 759.298 117.464C766.052 117.035 775.905 117.39 777.609 118.946C768.511 119.077 760.113 120.92 750.72 119.695C725.203 117.152 701.545 122.098 679.191 124.092C654.102 126.373 628.193 123.53 604.353 122.313C599.512 122.218 589.988 121.212 590.196 120.142ZM630.377 225.646C633.21 223.299 649.967 226.648 656.561 227.215C670.218 227.919 684.612 228.231 698.332 228.989C710.627 229.452 722.899 230.379 735.639 229.918C757.401 230.112 771.93 233.709 789.104 235.834C808.345 238.683 821.747 243.239 845.232 244.842C870.211 246.337 900.615 245.224 920.888 249.018C941.163 250.794 968.736 249.995 982.766 253.996C988.941 255.928 1008.69 257.993 1005.61 259.956C993.397 259.067 986.761 256.266 976.516 254.648C966.977 252.641 953.515 251.637 939.561 251.619C919.736 251.406 906.84 247.917 887.493 247.62C861.344 246.802 829.594 246.797 813.099 242.036C791.13 238.113 769.741 233.622 740.656 231.831C716.543 232.627 694.581 230.183 671.107 229.824C656.592 229.168 637.633 228.449 630.377 225.646ZM634.466 247.915C634.284 247.415 636.247 246.791 636.76 246.496C638.636 245.42 643.569 247.554 646.31 247.893C662.262 250.893 684.773 251.881 703.454 254.031C733.264 255.219 765.297 255.407 790.988 258.958C802.438 260.617 820.408 260.699 831.475 259.602C822.379 263.41 798.608 261.799 785.57 260.191C760.309 256.589 728.031 256.783 699.052 255.25C679.12 252.924 654.007 251.859 637.852 248.585C635.441 248.47 634.572 248.215 634.466 247.915ZM644.344 175.5C644.346 175.379 644.364 175.254 644.413 175.132C648.02 174.962 649.212 175.816 650.092 176.346C651.648 177.292 652.613 178.426 656.985 179.014C664.115 180.829 676.721 181.715 688.287 181.177C695.214 180.858 701.28 179.809 703.843 178.464C706.428 177.647 705.652 176.586 702.647 175.91C698.315 174.852 692.038 174.244 686.431 173.5C680.732 173.492 674.911 174.13 669.329 173.754C667.204 173.585 666.307 173.119 666.251 172.682C668.314 171.776 673.761 171.697 677.984 171.669C681.207 171.637 684.509 171.661 687.656 171.466C698.696 172.023 707.193 173.702 713.417 175.532C716.632 176.964 714.887 178.736 709.882 179.992C702.276 181.959 688.795 183.113 677.01 182.451C669.207 182.009 661.71 181.299 655.743 180.203C649.142 179.029 644.329 177.335 644.344 175.5ZM651.049 240.715C671.57 240.159 689.043 243.349 705.57 245.223C715.02 246.828 728.062 248.234 736.23 249.702C729.391 251.385 719.723 248.532 713.128 247.955C694.701 244.876 674.926 241.657 651.049 240.715ZM804.227 165.883C822.433 163.206 841.119 168.848 861.773 167.913C894.333 167.905 926.37 168.87 958.85 168.91C975.598 168.966 992.819 168.245 1005.69 165.801C1031.02 163.118 1058.7 167.251 1084.76 164.799C1108.63 163.441 1134.72 163.275 1155.82 165.901C1174.32 167.276 1192.78 164.7 1210.92 164.128C1244.46 164.649 1277.35 160.546 1297.26 155.145C1300.46 154.499 1302.5 152.212 1304.33 152.511C1305.96 157.664 1280.66 161.258 1260.46 163.522C1243.87 165.715 1224.55 165.747 1205.97 165.984C1184.9 167.878 1159.51 169.113 1139.51 166.42C1108.47 163.548 1074.84 168.859 1042.88 166.995C1025.72 165.916 1007.91 166.857 994.498 169.389C954.809 172.306 913.442 169.173 873.19 169.624C854.234 169.717 836.038 168.908 819.956 167.028C814.802 166.67 807.759 166.375 804.227 165.883ZM861.177 142.751C883.458 141.334 900.125 146.224 923.169 144.746C949.476 143.717 975.877 143.686 1001.82 144.626C1025.42 145.132 1046.82 142.033 1070.46 142.062C1095.1 141.626 1119.33 140.455 1141.87 138.245C1159.8 137.534 1175.62 135.44 1193.13 134.575C1214.66 134.103 1237.76 134.869 1257.02 132.155C1273.91 130.97 1292.22 128.903 1310.04 129.459C1310.89 131.773 1292.07 130.998 1283.59 132.18C1261.42 133.67 1241.55 137.063 1217.21 136.532C1201.54 136.275 1186.13 136.895 1172.2 138.492C1150.64 139.44 1131.94 141.983 1110.92 143.195C1080.26 144.502 1048.79 144.709 1018.57 146.489C989.683 146.87 961.364 144.801 932.395 146.49C911.488 147.376 890.449 146.654 872.657 144.493C868.235 144.078 865.28 143.265 861.177 142.751ZM899.263 98.0303C899.295 97.9693 899.36 97.9016 899.472 97.8208C898.878 96.3198 911.317 94.8859 917.273 93.7922C945.944 89.9504 985.447 93.4571 1012.21 88.6077C1031.79 85.7093 1056.52 88.7122 1076.55 88.3773C1101.23 85.8659 1130.25 87.4721 1155.28 84.9514C1182.09 83.2412 1206.16 79.6062 1233.73 78.5867C1250.14 79.2626 1270.71 77.3119 1282.25 75.8469C1280.73 76.1661 1285.31 77.005 1283.61 75.1773C1293.93 72.9932 1301.51 77.3277 1289.71 78.3472C1272.45 80.7378 1251.36 82.1971 1230.88 81.4296C1192.09 83.5598 1156.86 88.986 1115.66 89.2304C1101.84 89.2657 1087.24 89.7517 1075.51 91.2118C1058.44 90.8482 1040 89.0954 1022.89 90.0302C1007.91 92.2743 990.3 93.7758 971.666 93.5176C949.779 93.2282 923.854 93.2785 908.515 97.2455C907.442 97.8233 898.803 98.9387 899.263 98.0303ZM901.573 212.531C901.577 212.307 902.009 212.083 902.838 211.903C929.605 210.865 958.121 208.763 984.726 210.786C1034.07 212.678 1075.86 218.81 1108.7 226.073C1132.67 228.868 1135.3 235.049 1151.39 239.11C1165.92 240.462 1184.49 240.734 1200.4 239.767C1203.91 239.048 1214.95 239.08 1210.8 240.658C1196.74 243.458 1174.36 242.232 1157.44 241.819C1133.5 241.045 1131.06 235.137 1120.3 231.711C1112.2 228.394 1094.36 226.784 1084.29 223.742C1053.01 217.988 1015.02 213.555 972.049 212.254C949.342 210.673 925.445 213.801 902.849 213.131C901.995 212.968 901.57 212.751 901.573 212.531ZM996.599 236.595C996.483 234.936 998.403 233.121 1004.85 232.193C1013.97 231.738 1024.49 231.941 1032.7 231.788C1041.85 232.149 1032.74 234.435 1024.99 233.529C1016.91 233.591 1004.07 232.963 1005.21 235.492C1001.63 238.277 1011.08 240.982 1023.51 241.869C1027.04 242.573 1041.38 243.262 1038.73 244.147C1047.13 244.162 1032.1 245.642 1028.92 244.46C1015.24 243.093 1000.37 241.468 997.287 238.159C996.898 237.679 996.637 237.147 996.599 236.595ZM1009.57 207.726C1009.51 207.503 1010.2 207.373 1012.45 207.518C1037.29 209.883 1064.78 211.115 1089.23 213.635C1141.19 223.111 1196.61 232.247 1260.61 238.371C1271.6 238.944 1283.46 237.045 1293.77 237.85C1278.35 239.609 1257.94 240.318 1243.53 237.982C1185.4 231.906 1134.63 223.507 1085.39 215.002C1062.19 212.332 1030.78 212.539 1011.53 208.638C1010.9 208.448 1009.63 208.01 1009.57 207.726ZM1020.23 182.857C1020.36 182.597 1021.48 182.415 1024.05 182.455C1024.33 182.453 1024.63 182.428 1024.81 182.398C1032.33 182.701 1044.5 185.16 1056.59 184.538C1076.72 184.333 1110.04 182.698 1118.43 187.707C1118.47 189.542 1113.25 191.205 1114.9 193.023C1105.55 196.456 1081.28 197.35 1065.47 195.582C1058.92 194.89 1039.34 194.528 1045.43 192.215C1053.12 191.452 1058.17 193.675 1066.64 193.6C1096.55 197.916 1116.54 188.713 1102.86 187.012C1079.86 184.592 1047.62 188.134 1027.64 184.274C1024.11 184.267 1020.52 183.51 1020.24 182.972C1020.21 182.934 1020.21 182.895 1020.23 182.857ZM1096.29 208.28C1096.39 208.091 1096.97 207.9 1098.16 207.712C1095.82 208.837 1101.2 208.346 1099.79 207.839C1102.79 206.916 1114.46 209.77 1115.96 207.555C1131.17 205.293 1148.27 208.3 1158.71 210.332C1170.96 212.665 1175.93 216.158 1186.85 218.627C1208.89 220.903 1226.87 224.425 1248.5 226.794C1261.23 227.935 1276.06 227.408 1289.3 227.848C1290.27 230.337 1271.19 229.165 1262 229.255C1230.86 228.721 1212.14 223.006 1185.07 220.636C1169.27 218.622 1167 214.286 1153.64 211.741C1146.33 210.202 1135.34 207.944 1123.77 208.662C1126.37 210.715 1114.37 211.35 1107.91 210.13C1104.12 209.86 1095.85 209.096 1096.29 208.28ZM1195.41 183.825C1195.39 183.205 1195.93 182.59 1197.43 182.003C1201.07 180.717 1209 180.467 1215.52 180.513C1218.47 180.499 1221.52 180.497 1224.35 180.272C1228.34 178.929 1234.19 177.357 1242.62 177.359C1249.16 177.482 1255.72 177.64 1262.06 177.991C1267.46 178.117 1276.86 178.872 1279.2 177.43C1282.82 176.205 1292.13 175.222 1298.06 176.219C1301.83 176.933 1298.54 178.348 1305.38 178.375C1310.52 178.698 1317.19 179.245 1316.92 180.552C1318.32 181.784 1310.59 182.595 1307.42 181.402C1305.94 180.778 1307.32 180.121 1302.6 180.063C1297.53 179.667 1290.35 179.175 1290.26 177.862C1291.03 177.005 1286.15 178.502 1284.89 178.816C1282.37 179.594 1278.13 180.463 1273.19 180.139C1266.24 179.978 1259.09 179.77 1252.21 179.414C1246.96 179.248 1237.36 178.885 1235.61 180.293C1232.56 181.811 1223.65 182.075 1216.65 182.144C1210.97 182.213 1201.38 182.121 1202.76 183.82C1202.49 185.904 1209.27 187.936 1204.57 190.014C1200.38 191.496 1203.03 193.687 1210.59 194.393C1217.03 194.846 1222.97 193.733 1227.47 192.898C1238.88 190.593 1244.09 187.293 1256.97 185.251C1259.82 183.917 1264.54 185.596 1259.64 186.157C1246.18 188.67 1240.97 192.593 1225.36 194.689C1219.64 195.42 1212.06 195.932 1206.02 195.194C1196.78 194.115 1194.74 191.593 1197.25 189.578C1199.46 188.7 1199.17 187.798 1197.86 186.897C1196.92 185.91 1195.43 184.858 1195.41 183.825ZM1309.43 195.069C1309.43 195.072 1309.53 195.071 1309.8 195.069C1310.28 195.056 1309.43 195.066 1309.43 195.069Z" fill="#9F6540"/>
<ellipse cx="30.8512" cy="17.6641" rx="30.8512" ry="17.6641" transform="matrix(0.999999 -0.00149463 0.00145364 0.999999 390.077 11.3423)" fill="#86502D"/>
<ellipse cx="30.8512" cy="17.6641" rx="30.8512" ry="17.6641" transform="matrix(0.999999 -0.00149463 0.00145364 0.999999 940.251 10.5176)" fill="#86502D"/>
<ellipse cx="20.5675" cy="11.7761" rx="20.5675" ry="11.7761" transform="matrix(0.999999 -0.00149463 0.00145364 0.999999 950.554 16.3916)" fill="#AF9788"/>
<ellipse cx="20.5675" cy="11.7761" rx="20.5675" ry="11.7761" transform="matrix(0.999999 -0.00149463 0.00145364 0.999999 400.376 17.2139)" fill="#AF9788"/>
<path opacity="0.5" d="M305.61 5.90581C297.379 3.17034 119.931 5.03842 32.2358 6.3144C32.2569 20.8387 15.6933 24.1668 7.40894 24.0153L7.50452 89.7655C12.9387 94.337 36.1475 103.56 85.5098 103.878C69.0582 105.473 22.6762 111.496 1.54164 114.308C1.28666 135.408 0.962769 187.714 1.70712 228.144C34.6337 241.049 40.5958 255.073 39.461 260.472L66.912 279.568C70.6255 279.562 197.685 278.489 676.213 274.241C670.724 270.716 643.632 263.004 630.772 259.589C635.344 260.236 657.514 262.296 709.623 265.359C774.758 269.187 828.761 278.429 845.044 278.405C861.326 278.38 901.598 274.395 912.738 273.887C921.65 273.482 932.452 276.638 936.74 278.268L1386.65 277.595L1386.62 257.478C1383.19 256.338 1372.22 251.709 1355.75 242.313C1312.9 239.433 1284.58 213.96 1262.29 210.068C1271.71 206.619 1378.83 205.968 1376.25 197.631C1373.67 189.293 1329.1 185.434 1318.8 174.655C1308.5 163.876 1347.07 164.309 1355.62 155.464C1364.18 146.619 1329.85 110.851 1328.98 105.945C1328.12 101.04 1342.68 97.0927 1346.95 84.8195C1350.36 75.0009 1322.64 62.1213 1308.35 56.9088L1366.56 14.6238L1342.55 4.35597L1267.13 4.46869C1250 9.56443 1213.85 19.7587 1206.31 19.77C1198.77 19.7813 1189.44 7.69217 1185.72 1.64621L1027.18 1.88317C1016.04 1.89982 1007.47 4.85679 997.183 1.928C986.895 -1.0008 982.615 1.94977 969.76 1.96898C956.905 1.9882 957.767 4.93108 946.626 4.94773C937.714 4.96105 936.054 3.00075 936.338 2.01894L912.343 2.0548L891.776 2.08554L871.208 2.11628C860.067 2.13293 858.354 2.13549 820.651 5.13602L675.823 5.35248L607.265 5.45495C597.265 4.4885 576.581 2.55664 573.838 2.56074L551.557 2.59404C542.645 2.60736 534.135 4.58286 530.994 5.56894C526.136 4.59482 512.651 2.65219 497.568 2.67473C490.712 2.68498 489.855 2.68626 479.576 5.6458C469.296 8.60533 470.149 5.65989 450.434 2.74518C442.717 -0.187454 435.009 2.76824 424.729 5.72777C414.45 8.6873 406.733 5.75467 399.877 5.76492C393.021 5.77516 386.166 5.78541 379.306 2.85149C372.446 -0.0824244 358.743 5.8264 351.03 5.83792C343.317 5.84945 315.899 9.32515 305.61 5.90581Z" fill="url(#paint2_linear_83_4586)"/>
<defs>
<linearGradient id="paint0_linear_83_4586" x1="706.289" y1="7.05425" x2="706.723" y2="297.533" gradientUnits="userSpaceOnUse">
<stop stop-color="#A06742"/>
<stop offset="1" stop-color="#824827"/>
</linearGradient>
<linearGradient id="paint1_linear_83_4586" x1="693.624" y1="1.07318" x2="694.038" y2="278.63" gradientUnits="userSpaceOnUse">
<stop stop-color="#C79B58"/>
<stop offset="1" stop-color="#B4824C"/>
</linearGradient>
<linearGradient id="paint2_linear_83_4586" x1="693.624" y1="1.07318" x2="694.038" y2="278.63" gradientUnits="userSpaceOnUse">
<stop stop-color="#DE792B"/>
<stop offset="1" stop-color="#A24E20"/>
</linearGradient>
</defs>
</svg>
