<svg width="32" height="32" viewBox="0 0 32 32" fill="none" xmlns="http://www.w3.org/2000/svg">
<path d="M15.9999 1.99902V11.3324M15.9999 1.99902L12.111 5.88791M15.9999 1.99902L19.8887 5.88791M6.3918 11.3329C7.03731 11.903 7.44439 12.7368 7.44439 13.6657C7.44439 15.384 6.05151 16.7768 4.33331 16.7768C3.40442 16.7768 2.57062 16.3697 2.00058 15.7242M6.3918 11.3329C6.57553 11.3324 6.77047 11.3324 6.97773 11.3324H9.7777M6.3918 11.3329C5.031 11.3371 4.28501 11.3727 3.69868 11.6715C3.11328 11.9697 2.63735 12.4457 2.33909 13.031C2.04034 13.6175 2.00479 14.3634 2.00058 15.7242M2.00058 15.7242C2 15.9079 2 16.1029 2 16.3101V25.0212C2 25.2284 2 25.4235 2.00058 25.6072M2.00058 25.6072C2.57062 24.9617 3.40442 24.5546 4.33331 24.5546C6.05151 24.5546 7.44439 25.9474 7.44439 27.6657C7.44439 28.5945 7.03731 29.4284 6.3918 29.9984M2.00058 25.6072C2.00479 26.968 2.04034 27.7141 2.33909 28.3004C2.63735 28.8857 3.11328 29.3617 3.69868 29.6599C4.28501 29.9587 5.031 29.9942 6.3918 29.9984M6.3918 29.9984C6.57553 29.999 6.77047 29.999 6.97773 29.999H25.022C25.2292 29.999 25.4243 29.999 25.608 29.9984M25.608 29.9984C24.9624 29.4284 24.5553 28.5945 24.5553 27.6657C24.5553 25.9474 25.9482 24.5546 27.6664 24.5546C28.5955 24.5546 29.4296 24.962 29.9997 25.6078M25.608 29.9984C26.9688 29.9942 27.7148 29.9587 28.3011 29.6599C28.8864 29.3617 29.3624 28.8857 29.6606 28.3004C29.9593 27.7141 29.9955 26.9682 29.9997 25.6078M29.9997 25.6078C30.0003 25.424 29.9997 25.2288 29.9997 25.0212V16.3101C29.9997 16.1029 29.9997 15.9079 29.9991 15.7242M29.9991 15.7242C29.4291 16.3697 28.5952 16.7768 27.6664 16.7768C25.9482 16.7768 24.5553 15.384 24.5553 13.6657C24.5553 12.7368 24.9624 11.903 25.608 11.3329M29.9991 15.7242C29.9949 14.3634 29.9594 13.6175 29.6606 13.031C29.3624 12.4457 28.8864 11.9697 28.3011 11.6715C27.7148 11.3727 26.9688 11.3371 25.608 11.3329M25.608 11.3329C25.4243 11.3324 25.2292 11.3324 25.022 11.3324H22.222M19.1109 20.6657C19.1109 22.384 17.7181 23.7768 15.9999 23.7768C14.2816 23.7768 12.8888 22.384 12.8888 20.6657C12.8888 18.9474 14.2816 17.5546 15.9999 17.5546C17.7181 17.5546 19.1109 18.9474 19.1109 20.6657Z" stroke="#D08856" stroke-width="2.5" stroke-linecap="round" stroke-linejoin="round"/>
</svg>
