<svg width="27" height="30" viewBox="0 0 27 30" fill="none" xmlns="http://www.w3.org/2000/svg">
<path fill-rule="evenodd" clip-rule="evenodd" d="M27 3.27305V6.54709L21.7309 6.54686C24.4993 8.97615 26.196 12.5315 26.1928 16.4053C26.1878 22.4044 22.1072 27.633 16.2891 29.0954C10.471 30.5579 4.4032 27.8801 1.56218 22.5964C-1.27885 17.3127 -0.166518 10.7742 4.26185 6.72716C4.8875 7.72258 5.76963 8.53119 6.8156 9.06809C4.56573 10.8857 3.25969 13.6242 3.26327 16.5165C3.34379 21.8835 7.71779 26.1919 13.0854 26.1913C18.0019 26.2723 22.1945 22.6465 22.8235 17.7697C23.2934 14.1261 21.6621 10.6532 18.8151 8.64224L18.8149 14.7322H15.5409V3.27305H27ZM9.81134 -0.000976562C11.6195 -0.000976562 13.0854 1.46486 13.0854 3.27305C13.0854 5.08125 11.6195 6.54709 9.81134 6.54709C8.00314 6.54709 6.5373 5.08125 6.5373 3.27305C6.5373 1.46486 8.00314 -0.000976562 9.81134 -0.000976562Z" fill="#D08856"/>
</svg>
