<svg width="56" height="56" viewBox="0 0 56 56" fill="none" xmlns="http://www.w3.org/2000/svg">
<path d="M28.0002 54.2812C42.515 54.2812 54.2815 42.5147 54.2815 28C54.2815 13.4853 42.515 1.71875 28.0002 1.71875C13.4855 1.71875 1.71899 13.4853 1.71899 28C1.71899 42.5147 13.4855 54.2812 28.0002 54.2812Z" fill="#FED340"/>
<path d="M28.0002 55.1875C13.0109 55.1875 0.812744 42.9894 0.812744 28C0.812744 13.0106 13.0109 0.8125 28.0002 0.8125C42.9896 0.8125 55.1877 13.0106 55.1877 28C55.1877 42.9894 42.9896 55.1875 28.0002 55.1875ZM28.0002 2.625C14.0077 2.625 2.62524 14.0075 2.62524 28C2.62524 41.9925 14.0077 53.375 28.0002 53.375C41.9927 53.375 53.3752 41.9925 53.3752 28C53.3752 14.0075 41.9927 2.625 28.0002 2.625Z" fill="#E97E04"/>
<path d="M28.0002 31.625C21.6021 31.625 10.7815 30.6644 10.7815 27.0938C10.7815 23.5775 21.2396 22.7982 24.4477 22.6532C25.0096 22.6169 25.3721 23.0157 25.3902 23.5232C25.4084 24.0307 25.0277 24.4475 24.5384 24.4657C16.6177 24.8463 12.7934 26.405 12.594 27.1119C12.8659 28.0363 18.394 29.8125 28.0002 29.8125C37.6065 29.8125 43.1346 28.0363 43.4065 27.0757C43.2071 26.405 39.419 24.8644 31.5709 24.4657C31.0634 24.4475 30.6827 24.0125 30.719 23.5232C30.7371 23.0338 31.1177 22.6169 31.6615 22.6713C34.8334 22.8344 45.219 23.6319 45.219 27.1119C45.219 30.6644 34.3984 31.625 28.0002 31.625Z" fill="white"/>
<path d="M39.7815 17.125H16.219C15.7115 17.125 15.3127 16.7263 15.3127 16.2188C15.3127 15.7113 15.7115 15.3125 16.219 15.3125H39.7815C40.289 15.3125 40.6877 15.7113 40.6877 16.2188C40.6877 16.7263 40.289 17.125 39.7815 17.125Z" fill="white"/>
<path d="M28.0002 43.4062C27.4927 43.4062 27.094 43.0075 27.094 42.5V30.7188C27.094 30.2113 27.4927 29.8125 28.0002 29.8125C28.5077 29.8125 28.9065 30.2113 28.9065 30.7188V42.5C28.9065 43.0075 28.5077 43.4062 28.0002 43.4062Z" fill="white"/>
<path d="M28.0002 28C27.4927 28 27.094 27.6012 27.094 27.0938V16.2188C27.094 15.7113 27.4927 15.3125 28.0002 15.3125C28.5077 15.3125 28.9065 15.7113 28.9065 16.2188V27.0938C28.9065 27.6012 28.5077 28 28.0002 28Z" fill="white"/>
</svg>
